<?xml version="1.0" encoding="UTF-8" standalone="no"?>
<!-- Created with Inkscape (http://www.inkscape.org/) -->

<svg
   width="10mm"
   height="10mm"
   viewBox="0 0 10 10"
   version="1.1"
   id="svg5"
   xml:space="preserve"
   inkscape:version="1.2.2 (732a01da63, 2022-12-09)"
   sodipodi:docname="cauta.svg"
   xmlns:inkscape="http://www.inkscape.org/namespaces/inkscape"
   xmlns:sodipodi="http://sodipodi.sourceforge.net/DTD/sodipodi-0.dtd"
   xmlns="http://www.w3.org/2000/svg"
   xmlns:svg="http://www.w3.org/2000/svg"><sodipodi:namedview
     id="namedview7"
     pagecolor="#ffffff"
     bordercolor="#000000"
     borderopacity="0.25"
     inkscape:showpageshadow="2"
     inkscape:pageopacity="0.0"
     inkscape:pagecheckerboard="0"
     inkscape:deskcolor="#d1d1d1"
     inkscape:document-units="mm"
     showgrid="false"
     inkscape:zoom="8"
     inkscape:cx="17.1875"
     inkscape:cy="20.25"
     inkscape:window-width="1280"
     inkscape:window-height="971"
     inkscape:window-x="-8"
     inkscape:window-y="-8"
     inkscape:window-maximized="1"
     inkscape:current-layer="g2284"><inkscape:grid
       type="xygrid"
       id="grid1049"
       units="mm"
       spacingx="0.24999999"
       spacingy="0.24999999" /></sodipodi:namedview><defs
     id="defs2">
  </defs><g
     inkscape:label="Layer 1"
     inkscape:groupmode="layer"
     id="g2284">
  <path
   id="path2143"
   style="color:black;solid-color:black;stroke-linecap:round;stroke-linejoin:round;-inkscape-stroke:none"
   d="M 3.5000448 0.25114746 A 0.250025 0.250025 0 0 0 3.4220133 0.2635498 L 0.42167969 1.2634888 A 0.250025 0.250025 0 0 0 0.25011393 1.5001668 L 0.25011393 9.5001953 A 0.250025 0.250025 0 0 0 0.57825928 9.7363566 L 3.5000448 8.7638062 L 6.4218302 9.7363566 A 0.250025 0.250025 0 0 0 6.5778931 9.7363566 L 7.8863403 9.3002075 L 7.4915324 8.9059163 L 6.4998617 9.2361287 L 3.5780762 8.2635783 A 0.250025 0.250025 0 0 0 3.4220133 8.2635783 L 0.74982503 9.15448 L 0.74982503 1.679484 L 3.5000448 0.76377767 L 6.4218302 1.7363281 A 0.250025 0.250025 0 0 0 6.5778931 1.7363281 L 9.2500814 0.8459432 L 9.2500814 7.8362142 L 9.7497925 8.3359253 L 9.7497925 0.50022786 A 0.250025 0.250025 0 0 0 9.4216471 0.2635498 L 6.4998617 1.2361003 L 3.5780762 0.2635498 A 0.250025 0.250025 0 0 0 3.5000448 0.25114746 z " /><path
   id="path428"
   style="color:black;solid-color:black;stroke-linecap:round;stroke-linejoin:round;-inkscape-stroke:none"
   d="m 3.6251017,7.1199788 c -0.00623,-0.00996 -0.012507,-0.019891 -0.018604,-0.029972 -0.010953,-0.018112 -0.022033,-0.036291 -0.032556,-0.054777 -0.010523,-0.018486 -0.020406,-0.03696 -0.030489,-0.055811 -0.010083,-0.018851 -0.020338,-0.038154 -0.029972,-0.057361 -0.00963,-0.019207 -0.018728,-0.038323 -0.027905,-0.057878 -0.00918,-0.019554 -0.018162,-0.039536 -0.026872,-0.059428 -0.00871,-0.019892 -0.017087,-0.039723 -0.025321,-0.059945 -0.00823,-0.020221 -0.016539,-0.040436 -0.024288,-0.060978 -0.00775,-0.020542 -0.014966,-0.041675 -0.022221,-0.062528 -0.00405,-0.011631 -0.008,-0.023415 -0.011886,-0.03514 v 1.914095 A 0.125,0.125 0 0 0 3.5000447,8.624796 0.125,0.125 0 0 0 3.6251016,8.5002558 Z" /><path
   id="path473"
   style="color:black;solid-color:black;stroke-linecap:round;stroke-linejoin:round;-inkscape-stroke:none"
   d="M 3.5000448,0.3751709 A 0.125,0.125 0 0 0 3.3749878,0.50022786 V 4.8942749 c 0.00389,-0.011725 0.00784,-0.023509 0.011886,-0.03514 0.00725,-0.020853 0.014472,-0.04147 0.022221,-0.062012 0.00775,-0.020542 0.016054,-0.041273 0.024288,-0.061495 0.00823,-0.020222 0.016611,-0.040052 0.025321,-0.059945 0.00871,-0.019892 0.017695,-0.039874 0.026872,-0.059428 0.00918,-0.019554 0.01827,-0.038671 0.027905,-0.057878 0.00963,-0.019207 0.019889,-0.03851 0.029972,-0.057361 0.010083,-0.018851 0.019966,-0.037325 0.030489,-0.055811 0.010523,-0.018486 0.021603,-0.036665 0.032556,-0.054777 0.0061,-0.010081 0.012376,-0.020009 0.018604,-0.029972 V 0.50022786 A 0.125,0.125 0 0 0 3.5000448,0.3751709 Z" /><path
   style="color:black;solid-color:black;fill:yellow;stroke-width:0.25;stroke-linecap:round;stroke-linejoin:round;-inkscape-stroke:none"
   d="m 6.4999996,1.4999986 3e-7,7.9999995"
   id="path432" /><path
   id="path434"
   style="color:black;solid-color:black;stroke-linecap:round;stroke-linejoin:round;-inkscape-stroke:none"
   d="M 6.4998617 1.3751099 A 0.125 0.125 0 0 0 6.3748047 1.5001668 L 6.3748047 3.3155599 C 6.4590076 3.3358766 6.5427155 3.3595814 6.6249186 3.3884237 L 6.6249186 1.5001668 A 0.125 0.125 0 0 0 6.4998617 1.3751099 z M 6.6249186 8.0920125 C 6.5427155 8.1208548 6.4590076 8.1445596 6.3748047 8.1648763 L 6.3748047 9.5001953 A 0.125 0.125 0 0 0 6.4998617 9.6252523 A 0.125 0.125 0 0 0 6.6249186 9.5001953 L 6.6249186 8.0920125 z " /><g
   id="path2875"
   transform="translate(-3.7885456,7.4367747)"><path
     style="color:black;solid-color:black;fill:white;stroke-width:1.5;-inkscape-stroke:none"
     d="m 7.4904043,5.7404042 c 0,2.3331086 -3.5000001,2.3331086 -3.5000001,0 0,-2.3331085 3.5000001,-2.3331085 3.5000001,0 z"
     id="path417" /></g><g
   id="path3663"><path
     style="color:black;solid-color:black;fill:gray;stroke-width:2;stroke-linecap:round;stroke-linejoin:round;-inkscape-stroke:none"
     d="M 9.2499996,9.2499996 7.4999997,7.4999997"
     id="path411" /></g><path
   style="fill:gray;stroke:black;stroke-width:1;stroke-linecap:round;stroke-linejoin:round;stroke-dasharray:none"
   d="M 9.2499996,9.2499996 7.4999997,7.4999997"
   id="path3663-6"
   sodipodi:nodetypes="cc" /><path
   style="fill:none;stroke:black;stroke-width:0.5;stroke-linecap:round;stroke-linejoin:round;stroke-dasharray:none"
   d="m -10.678548,1.4999986 3,-0.99999995 2.9999998,0.99999995 2.9999998,-0.99999995 2e-7,7.99999975 -2.9999999,0.9999999 -2.9999999,-0.9999999 -3,0.9999999 z"
   id="path295"
   sodipodi:nodetypes="ccccccccc" /><path
   style="fill:yellow;stroke:black;stroke-width:0.25;stroke-linecap:round;stroke-linejoin:round;stroke-dasharray:none"
   d="M -7.6785482,0.49999865 V 8.4999982"
   id="path297" /><path
   style="fill:yellow;stroke:black;stroke-width:0.25;stroke-linecap:round;stroke-linejoin:round;stroke-dasharray:none"
   d="m -4.6785484,1.4999986 3e-7,7.9999995"
   id="path299" /><path
   d="m -3.6881437,5.7404042 c 0,2.3331086 -3.5000001,2.3331086 -3.5000001,0 0,-2.3331085 3.5000001,-2.3331085 3.5000001,0 z"
   id="path301"
   style="fill:white;stroke:white;stroke-width:1.5;stroke-dasharray:none"
   sodipodi:nodetypes="sss" /><path
   style="fill:gray;stroke:white;stroke-width:2;stroke-linecap:round;stroke-linejoin:round;stroke-dasharray:none"
   d="M -1.9285484,9.2499996 -3.6785483,7.4999997"
   id="path303"
   sodipodi:nodetypes="cc" /><path
   d="m -3.6881437,5.7404042 c 0,2.3331086 -3.5000001,2.3331086 -3.5000001,0 0,-2.3331085 3.5000001,-2.3331085 3.5000001,0 z"
   id="path305"
   style="fill:white;stroke:black;stroke-width:0.5;stroke-dasharray:none"
   sodipodi:nodetypes="sss" /><path
   style="fill:gray;stroke:black;stroke-width:1;stroke-linecap:round;stroke-linejoin:round;stroke-dasharray:none"
   d="M -1.9285484,9.2499996 -3.6785483,7.4999997"
   id="path307"
   sodipodi:nodetypes="cc" /><path
   style="color:black;solid-color:black;fill:aqua;-inkscape-stroke:none"
   d="m 7.1093694,15.326569 c -0.60415,0 -1.2184061,0.19787 -1.7011719,0.626954 -0.4827658,0.429083 -0.7988281,1.102252 -0.7988281,1.873046 0,0.770795 0.3160623,1.443964 0.7988281,1.873047 0.4827658,0.429084 1.0970219,0.626953 1.7011719,0.626953 0.60415,0 1.2184061,-0.197869 1.7011718,-0.626953 0.4827658,-0.429083 0.7988282,-1.102252 0.7988282,-1.873047 0,-0.770794 -0.3160624,-1.443963 -0.7988282,-1.873046 C 8.3277755,15.524439 7.7135194,15.326569 7.1093694,15.326569 Z"
   id="path498-6" /><path
   style="color:black;solid-color:black;fill:yellow;stroke-width:0.25;stroke-linecap:round;stroke-linejoin:round;-inkscape-stroke:none"
   d="m 7.8691346,13.586334 3e-7,7.999999"
   id="path588" /><path
   style="color:black;solid-color:black;stroke-linecap:round;stroke-linejoin:round;-inkscape-stroke:none"
   d="m 7.869135,13.461335 a 0.125,0.125 0 0 0 -0.125,0.125 v 8 a 0.125,0.125 0 0 0 0.125,0.125 0.125,0.125 0 0 0 0.125,-0.125 v -8 a 0.125,0.125 0 0 0 -0.125,-0.125 z"
   id="path585" /><path
   d="m 7.4904043,5.7404042 c 0,2.3331086 -3.5000001,2.3331086 -3.5000001,0 0,-2.3331085 3.5000001,-2.3331085 3.5000001,0 z"
   id="path2875-9"
   style="fill:none;stroke:black;stroke-width:0.5;stroke-dasharray:none"
   sodipodi:nodetypes="sss" /></g></svg>
