<?xml version="1.0" encoding="UTF-8" standalone="no"?>
<!-- Created with Inkscape (http://www.inkscape.org/) -->

<svg
   width="24mm"
   height="23.999998mm"
   viewBox="0 0 24.000001 23.999999"
   version="1.1"
   id="svg5"
   xml:space="preserve"
   inkscape:version="1.2.2 (732a01da63, 2022-12-09)"
   sodipodi:docname="cruce-buton-mic-drept.svg"
   xmlns:inkscape="http://www.inkscape.org/namespaces/inkscape"
   xmlns:sodipodi="http://sodipodi.sourceforge.net/DTD/sodipodi-0.dtd"
   xmlns="http://www.w3.org/2000/svg"
   xmlns:svg="http://www.w3.org/2000/svg"><sodipodi:namedview
     id="namedview7"
     pagecolor="#ffffff"
     bordercolor="#000000"
     borderopacity="0.25"
     inkscape:showpageshadow="2"
     inkscape:pageopacity="0.0"
     inkscape:pagecheckerboard="0"
     inkscape:deskcolor="#d1d1d1"
     inkscape:document-units="mm"
     showgrid="false"
     inkscape:zoom="4.0000001"
     inkscape:cx="91.249998"
     inkscape:cy="60.999998"
     inkscape:window-width="1280"
     inkscape:window-height="971"
     inkscape:window-x="-8"
     inkscape:window-y="-8"
     inkscape:window-maximized="1"
     inkscape:current-layer="layer1"><inkscape:grid
       type="xygrid"
       id="grid1049"
       units="mm"
       spacingx="0.24999999"
       spacingy="1.9999999"
       originx="-5.8578659"
       originy="-5.8578672"
       empspacing="10" /></sodipodi:namedview><defs
     id="defs2" /><g
     inkscape:label="Layer 1"
     inkscape:groupmode="layer"
     id="layer1"
     transform="translate(-5.8578644,-5.8578657)"><g
       id="path17247"
       transform="matrix(0.49999734,0,0,-0.49999734,2.959297e-5,29.857791)"
       style="stroke-width:2.00001" /><g
       id="path3310-9"
       transform="matrix(0.49999734,0,0,-0.49999734,2.959297e-5,29.857791)"
       style="stroke-width:2.00001" /><g
       id="path7525"
       transform="matrix(0.49999734,0,0,-0.49999734,2.959297e-5,29.857791)"
       style="stroke-width:2.00001" /><g
       id="path3310-7"
       transform="matrix(0.49999734,0,0,-0.49999734,2.959297e-5,29.857791)"
       style="stroke-width:2.00001" /><g
       id="path17247-9"
       transform="matrix(0.49999822,0,0,-0.49999822,-2.36e-5,29.857871)"
       style="stroke-width:2.00001" /><g
       id="path3310-9-0"
       transform="matrix(0.49999822,0,0,-0.49999822,-2.36e-5,29.857871)"
       style="stroke-width:2.00001" /><g
       id="path7525-0"
       transform="matrix(0.49999822,0,0,-0.49999822,-2.36e-5,29.857871)"
       style="stroke-width:2.00001" /><g
       id="path3310-7-8"
       transform="matrix(0.49999822,0,0,-0.49999822,-2.36e-5,29.857871)"
       style="stroke-width:2.00001" /><path
       id="path1110"
       style="fill:black;stroke:none;stroke-width:0.1;stroke-linecap:round;stroke-linejoin:round"
       d="m 29.857864,29.857871 v -3.685033 c -1.224469,-1.2355 -2.437011,-2.485665 -3.719139,-3.658162 -0.511786,-1.004842 -0.524349,-1.769245 -0.333829,-2.639364 0.589355,-1.044374 0.652704,-2.32541 1.968865,-2.62102 0.850963,-0.552633 1.299789,-1.692199 2.084103,-2.350494 v -0.273625 c -0.778242,0.462597 -1.760712,0.437837 -0.925263,-0.722434 -0.01882,-0.763481 0.404256,-1.165111 0.925263,-1.508947 v -0.258898 c -0.266522,0.114609 -0.355824,0.06412 0,-0.375945 V 11.35674 c -0.495889,0.362072 -1.292009,1.08617 -0.536916,-0.0137 0.140593,-0.09184 0.337358,-0.275074 0.536916,-0.481881 v -0.312383 c -0.677575,0.596779 -1.284702,0.817639 -0.257606,-0.160971 0.102436,-0.105979 0.185978,-0.197562 0.257606,-0.279827 V 9.8043799 c -0.122664,0.09867 -0.275024,0.2416681 -0.443899,0.4286551 -1.592216,1.398739 0.142917,-1.2184401 0.443899,-1.8068601 v -0.590918 c -0.369043,0.4441 -0.742831,0.899643 -0.951618,1.330406 0.05519,-0.515834 0.569841,-1.68555 0.951618,-2.581229 v -0.726568 c -0.136585,1.275352 -0.577843,1.23633 -1.015697,2.383825 0.100306,-0.531499 0.143706,-1.274346 -0.288611,-1.425747 0.463845,0.485294 0.507414,1.342961 -0.141593,2.109941 -0.09133,0.367683 -0.139525,0.648075 -0.17079,0.807183 0.495045,0.4475551 0.711911,1.3985101 0.29843,1.9797171 -0.358466,0.999463 -0.157375,2.029134 -0.699955,2.915316 -1.103284,1.728198 -0.720812,-0.607659 -0.113946,-1.18933 0.419598,-0.510074 -0.09477,-0.367545 -0.349848,-0.449583 -0.108816,0.429522 -0.269671,0.851503 -0.436406,1.239714 0.01904,0.915528 -0.81349,1.5039 -1.217751,2.245591 -0.289094,0.811498 -1.325041,1.430172 -1.58336,2.418707 -0.885529,1.719972 -0.623776,-0.752184 -0.03333,-1.38079 0.47379,-0.970004 -0.305656,-2.397928 0.70073,-3.099799 0.425434,-0.465056 0.563736,0.119808 0.737937,0.552677 -0.0014,-0.07399 0.0066,-0.16348 0.02842,-0.275951 -0.268262,-0.834649 1.008696,-3.822082 1.166849,-1.442543 0.211419,0.907669 1.276369,-3.0404 0.12454,-1.341774 -1.015486,1.016662 0.415322,-2.2265591 -0.590401,-0.424262 -0.317931,0.326556 -0.362941,-1.9951801 -0.301014,-0.228667 0.208466,0.897996 -1.356006,3.383469 -1.767328,2.669854 -0.207433,-1.010407 -0.101364,-2.431725 0.734061,-3.18274 0.776883,-0.7935911 0.940609,-1.7780041 1.061171,-2.9664761 0.270451,0.321428 1.075239,0.944652 1.349783,1.249279 0.120114,0.03868 0.215486,0.07575 0.29378,0.111879 -0.07288,-0.02784 -0.213189,-0.246655 -0.458369,-0.764292 -0.488875,-0.522229 -1.799919,-2.761134 -1.213099,-0.799173 -0.09856,0.0041 -0.07434,0.07865 0.01886,0.191977 -0.20039,0.631281 -0.685289,0.290259 -0.815711,0.177767 0.01025,0.0097 0.01189,0.01038 0.02971,0.02842 0.497016,0.600008 -0.222026,1.584504 -0.689361,2.0970221 -0.01623,0.257844 -0.128357,0.416642 -0.391189,0.374912 0.08281,-0.5542961 -0.687457,-2.3203931 -0.920354,-1.8585371 0.0071,0.587814 0.02604,0.904315 -0.0217,0.968672 0.09154,0.136812 0.147778,0.304381 0.147278,0.5177961 -0.45524,0.781601 0.0085,2.617806 -0.02532,2.840901 -0.46247,-0.481478 -0.627661,-1.852978 -0.596086,-2.529035 -0.213468,0.207747 -0.649693,-1.2161461 -0.282928,0.140301 0.09537,0.78071 0.05974,1.677226 0.297397,2.388993 -0.614498,-0.500441 -1.685219,-0.236752 -0.285253,0.06098 0.128668,0.0322 0.245141,0.07159 0.351915,0.116271 0.07219,0.170583 0.163793,0.327706 0.281378,0.466895 -0.0161,-0.154635 -0.06377,-0.285327 -0.131,-0.396357 1.319789,0.688456 0.719611,2.414915 -0.04341,3.40469 -0.165009,0.05296 -0.282259,-0.06426 -0.36406,-0.243395 0.175289,0.907237 0.141049,2.036788 -1.070473,2.203217 -0.801166,0.0398 -2.278874,0.87453 -2.125444,-0.426071 0.266625,-1.524509 2.194504,-1.290041 2.820748,-2.583295 0.702798,-0.628706 0.359547,-1.602534 -0.489375,-2.12777 0.342603,0.608079 0.850751,1.871067 8e-4,2.157741 -1.418448,1.22177 0.19343,-1.677506 -0.698404,-2.264969 -0.140027,-1.280139 -0.04187,2.289268 -0.61934,1.373813 0.245723,0.654245 0.432219,1.569312 -0.310057,1.706866 -1.142131,0.199633 -1.344836,2.612305 -1.826756,0.525548 0.467878,-1.213035 0.787689,-2.603779 1.589045,-3.698211 0.772349,-0.728614 3.257441,-1.451168 1.700665,-2.792326 0.488407,-1.5077011 -1.302194,0.07442 0.04806,0.388347 0.744132,0.822045 -0.822519,1.155107 -1.248757,1.390866 -1.09471,0.733813 -0.657785,-0.723617 -0.0124,-1.661133 -0.318712,0.193659 -0.57499,0.173063 -0.420903,-0.5790321 -0.121029,-0.613496 0.969879,-2.848079 0.10852,-1.314902 0.0089,0.505184 -0.07199,0.625538 -0.178541,0.566888 0.142859,0.9811811 -0.83255,3.2029801 -1.01363,1.9138301 -0.184531,-1.048077 -0.26375,-2.1364211 -0.150378,-0.644144 -1.451011,-1.3700391 0.405973,0.843431 0.109812,1.642271 0.253729,0.758208 0.122598,1.651284 -0.64311,0.506168 -0.02654,-0.0354 -0.05338,-0.07821 -0.08087,-0.124798 0.06717,0.378725 0.04235,0.794552 -0.05245,1.168142 0.493306,0.39746 -0.432381,2.871181 -0.360442,1.459596 10e-4,-0.385243 -0.497188,-1.136117 -0.715716,-1.572508 0.11367,0.554628 0.488515,1.35421 -0.124023,0.726309 0.665707,0.830594 0.46474,3.380271 -0.06666,1.47329 -0.621239,-1.011561 -1.316925,-1.908397 -1.567341,-3.038305 -0.754564,-0.518912 1.343315,2.509262 -0.333312,1.227569 0.08263,0.285895 1.202217,0.988663 1.46683,1.534785 0.997455,1.030727 0.265646,1.297165 -0.608746,0.452942 -0.494317,-0.511665 -1.847338,-1.767185 -0.602803,-0.41651 0.782291,1.04826 0.640077,1.04711 -0.131,0.261998 -0.570372,-0.601029 -1.280175,-0.980222 -0.307215,-0.160455 0.674417,0.65926 1.399292,1.350597 2.350236,1.365287 0.678152,0.270094 0.358551,0.735503 -0.181384,0.95937 -0.24058,-0.637472 -0.628112,-0.919373 -0.26329,0.08475 -0.514767,0.120932 -1.105907,0.0065 -1.257542,-0.635618 -0.736271,-0.741093 -0.538498,-1.009111 -0.589626,-0.29998 -0.06999,-0.435916 -0.294112,-0.646438 -0.291712,-0.236419 -0.48995,-0.429517 -0.526566,-0.458726 8e-4,0.01447 0.0022,0.129673 0.02555,0.316029 0.08242,0.574381 -0.01884,0.229721 -0.114918,0.515934 -0.259673,0.796331 -0.389761,-0.345814 -0.786106,-0.720867 -1.050579,-0.959111 -0.51313,-0.156085 -1.305391,-1.855555 -1.039468,-1.10458 0.112604,0.410006 0.10088,0.581159 0.02041,0.582909 0.639552,0.577219 1.228344,1.302063 1.982559,1.636586 -0.394264,0.667877 -1.056008,1.231683 -1.643046,0.80615 1.2e-4,0.140016 -0.08302,0.263672 -0.282927,0.3607 0.512048,0.122797 0.97982,0.371775 1.267877,0.715974 1.263793,0.835296 -1.664194,1.584655 -2.036045,0.905626 -0.243861,-1.068087 -1.6424026,-2.220815 -1.6611326,-1.009495 1.1129176,-0.101915 1.3810896,0.808518 0.4082426,0.54906 -0.7204296,0.494902 -1.7268476,0.501244 -2.5303276,0.0832 a 23.999915,23.999915 0 0 0 -0.01215,0.02816 c 0.217889,0.193877 0.352606,0.39042 0.337188,0.524772 0.628616,-0.09966 1.204247,-0.194944 1.897035,0.01188 0.6494586,-0.247627 1.2954996,0.535687 0.04264,1.09347 -0.173759,0.305204 -0.46371,0.34687 -0.754215,0.273625 0.02767,0.405304 -0.912483,0.858519 -1.464505,0.954978 0.02702,0.0275 0.04872,0.05448 0.06434,0.08139 0.266894,-0.121015 0.495067,-0.210687 0.611072,-0.224792 0.140995,0.06455 0.283501,0.09674 0.426329,0.108004 -9.5e-4,-0.0047 6.5e-4,-0.0097 0.0075,-0.01576 0.121456,0.02654 0.338937,-0.0059 0.579291,-0.05323 0.542135,-0.159427 1.0755756,-0.538794 1.5546786,-0.806149 0.87343,-0.921911 1.516439,-1.165037 2.600866,-1.288548 0.747686,0.945626 -1.870428,1.182433 -2.500872,1.626511 -0.149638,0.115887 -0.390068,0.215992 -0.658097,0.298947 0.216287,0.0094 0.225664,0.137253 -0.236935,0.540533 -0.6862646,0.539145 -2.5539126,0.468128 -2.6796716,0.617014 1.394481,-0.359963 2.8763786,0.40526 3.8431616,-1.025773 0.949412,0.171343 2.092471,-0.576402 2.685615,-0.953427 0.875547,-1.077269 1.937785,-1.017486 2.98327,-0.335379 1.262373,0.0015 -0.762934,1.3046 -1.067115,0.736387 -1.1158,0.62969 -1.797023,2.485229 -3.034429,1.135585 -0.401539,0.33712 -0.795802,0.521277 -1.235579,0.538467 0.363032,0.173174 0.226723,0.431299 -0.631794,0.566112 -0.503188,-0.0075 -0.954124,-0.04473 -1.4022346,-0.08061 0.9438416,1.429985 2.7209506,-1.131639 4.1366836,-0.287578 1.493783,0.599141 -0.36661,1.109164 -1.290356,1.266585 0.296836,0.202907 0.407676,0.483701 -0.376978,0.697371 -1.079262,0.811931 -2.3438716,1.076688 -2.6088756,-0.645695 -0.21662,-1.78562 -0.196939,1.970897 -1.459079,0.829662 -0.44514,-0.157148 -1.261072,-0.580135 -1.859053,-0.785479 a 23.999915,23.999915 0 0 0 -0.0021,0.01447 c 0.316503,0.125333 0.195967,0.357059 -0.0703,0.516246 a 23.999915,23.999915 0 0 0 -0.02635,0.192494 c 0.712122,0.118037 1.442061,0.239385 2.106879,0.448293 0.318425,0.83059 -0.559064,0.863717 -1.274336,0.623991 -0.05288,0.09334 -0.331899,0.131315 -0.84284,0.06408 -0.02874,0.006 -0.06349,0.0067 -0.10051,0.0052 a 23.999915,23.999915 0 0 0 -0.02403,0.296621 c 0.851399,-0.01029 1.764488,0.185166 2.468061,-0.498678 0.446283,-0.864852 2.3972176,-0.395472 0.998127,0.443641 -0.780165,0.812484 -1.97731,1.349272 -2.99283,0.871778 0.316631,0.265955 0.392056,0.668691 -0.523997,0.668691 h 2.082036 c 0.751214,-0.56568 1.523406,-1.076367 2.4944116,-1.235837 0.850764,-0.544416 1.843093,-1.14944 2.883793,-1.420839 0.853991,-0.466306 2.340106,-1.16296 2.884568,-1.432724 -1.494726,0.959015 -2.108089,2.657538 -3.121503,4.0894 h 0.403075 c 0.711109,-0.817297 1.62383,-1.510656 2.608358,-1.82598 0.578002,-0.215398 1.137448,-0.950479 1.749241,-1.427815 1.102352,-0.461312 2.213952,-0.648871 3.361023,-0.16123 0.446689,0.210148 1.632547,0.93271 2.337834,1.396809 0.935186,0.547775 1.740697,1.252324 2.495446,2.018216 z M 6.3818614,29.18918 c -0.163079,-0.136977 -0.362754,-0.261017 -0.496609,-0.337187 a 23.999915,23.999915 0 0 0 -5e-4,0.01757 c 0.01776,0.01054 0.02671,0.01652 0.04856,0.0292 0.143862,0.122084 0.294173,0.217836 0.44855,0.29042 z m 0.494025,-1.182611 c 0.062756,-0.110769 -0.194036,-0.299905 -0.775919,-0.48834 0.111618,0.188305 0.424527,0.37057 0.775919,0.48834 z m 5.5701826,-1.89135 c -0.426703,-0.291682 -1.241796,-0.421304 -0.366126,0.05038 0.08181,-0.0054 0.213943,-0.02445 0.366126,-0.05038 z M 9.5997414,25.136212 c -0.02191,-0.0332 -0.04411,-0.06575 -0.06511,-0.103352 -0.07318,0.02776 -0.218544,0.05013 -0.38628,0.07002 0.150556,0.01075 0.301651,0.02134 0.451392,0.03333 z m -0.451392,-0.03333 c -0.416196,-0.02971 -0.84178,-0.05106 -1.314385,-0.03953 -1.345223,0.139221 0.435304,0.143832 1.314385,0.03953 z m 2.4853686,-0.452166 c -0.182617,-0.0871 -0.489053,-0.153219 -0.898392,-0.170274 0.326801,0.126188 0.621437,0.181104 0.898392,0.170274 z m -1.258316,-1.253408 c -0.214273,-0.0093 -0.6314146,0.09726 -0.9965766,0.16924 -0.195237,0.05741 -0.39133,0.0844 -0.586784,0.06899 0.01391,0.07118 0.892036,-0.02426 1.5833606,-0.238228 z m -2.6207606,0.355016 c -0.308862,0.140044 -0.668864,0.322626 -0.979524,0.488341 0.03442,-0.112325 -0.03859,-0.229382 -0.157612,-0.339514 a 23.999915,23.999915 0 0 0 -0.06873,0.275952 c 0.07125,0.02931 0.145569,0.05163 0.221433,0.06615 -0.102999,0.05497 -0.188088,0.102678 -0.275435,0.151153 a 23.999915,23.999915 0 0 0 -0.02351,0.09483 c 0.179826,-0.07475 0.27447,-0.158268 0.302822,-0.245203 0.554798,0.104328 1.170309,-0.164736 0.980557,-0.4917 z m -0.06434,-0.08139 c -0.08678,-0.08833 -0.232621,-0.178987 -0.45811,-0.265875 -0.214822,-0.147586 -0.310192,-0.214227 -0.40385,-0.27931 a 23.999915,23.999915 0 0 0 -0.0077,0.02532 c 0.150272,0.125563 0.361549,0.305711 0.578257,0.529941 0.06911,0.01677 0.172191,0.01076 0.291454,-0.01008 z m 1.464505,-0.954978 c -0.0079,-0.115001 -0.09351,-0.226139 -0.288612,-0.323751 -1.209016,-0.813626 -0.458379,0.13541 0.288612,0.323751 z m -1.185454,-1.37898 c -0.182783,0.02898 -0.372896,0.05543 -0.568697,0.07777 a 23.999915,23.999915 0 0 0 -0.02454,0.06692 c 0.402438,0.06486 0.577386,-0.0065 0.593244,-0.144693 z m 4.2263416,-1.7973 c -0.294823,-0.0707 -0.603461,-0.09872 -0.902526,-0.07829 0.278273,0.132729 0.567154,0.187149 0.841031,0.106969 0.02249,-0.0092 0.04142,-0.01894 0.0615,-0.02868 z m -0.902526,-0.07829 c -0.439366,-0.209567 -0.85015,-0.613924 -1.135585,-0.997094 0.143439,0.32945 0.337236,0.614521 0.740521,0.99606 -0.143137,0.09762 -0.326981,0.130148 -0.528648,0.121698 0.02758,0.03056 0.04727,0.06576 0.05633,0.105419 0.258554,-0.133267 0.557426,-0.204904 0.867385,-0.226083 z m -0.923712,0.120664 c -0.09306,-0.103082 -0.283164,-0.147439 -0.5141786,-0.09147 0.1755996,0.04976 0.3506766,0.08464 0.5141786,0.09147 z M 9.8552774,19.49058 c -0.636815,-0.180438 -1.272776,-0.56146 -1.350042,-0.575156 a 23.999915,23.999915 0 0 0 -0.0052,0.01008 c 0.01049,0.0133 0.03692,0.03791 0.08191,0.07596 0.236231,0.143014 0.335677,0.27048 0.351657,0.380595 1.0991786,-0.28099 -1.037028,1.653328 0.196369,0.582392 0.246408,-0.275511 0.504364,-0.420352 0.725277,-0.473872 z m -0.921646,-0.10852 c -0.08035,0.02054 -0.176766,0.05218 -0.294296,0.09844 -0.352164,0.13139 -0.510406,0.223161 -0.553711,0.280861 a 23.999915,23.999915 0 0 0 -0.01472,0.03101 c 0.0032,0.129975 0.91655,-0.0396 0.862735,-0.41031 z m 1.2239516,-0.91777 c -0.110151,-0.252995 -0.1914026,-0.531603 -0.3100566,-0.904334 -0.190863,0.02413 -0.02941,0.448637 0.3100566,0.904334 z m 2.321039,0.714683 c -2.11e-4,-0.245939 -0.253946,-0.540944 -0.567664,-0.824495 0.03528,0.08932 0.07575,0.179703 0.127124,0.269492 0.137248,0.264478 0.286331,0.443219 0.44054,0.555003 z m -0.567664,-0.824495 c -0.03816,-0.09658 -0.0682,-0.190598 -0.09043,-0.280602 -0.852769,0.02343 -1.472839,-2.458841 -1.029649,-0.65448 0.167637,0.192392 0.697608,0.553231 1.120082,0.935082 z m -0.09043,-0.280602 c 0.02645,-7.5e-4 0.05349,-0.0036 0.08036,-0.0093 -0.0263,-1.039815 -0.241058,-0.641352 -0.08036,0.0093 z m 8.469995,-7.562562 c 0.432416,-0.262747 0.979935,-0.9216891 0.779278,-0.7015051 -0.23888,0.04006 -0.524639,0.3316041 -0.779278,0.7015051 z m 2.241716,5.807377 c -0.02386,-0.123459 -0.05116,-0.24359 -0.08036,-0.355791 -0.08626,-1.319975 -0.169217,-0.190759 0.08036,0.355791 z m 0.175957,-5.938376 c 0.04484,-0.04364 0.07994,-0.15751 0.0956,-0.3862801 -0.05189,0.0077 -0.08492,0.1573961 -0.0956,0.3862801 z m 2.835476,4.584975 c 0.003,0.156041 0.05206,0.234055 0.127899,0.25864 -0.04713,-0.06835 -0.08831,-0.160271 -0.127899,-0.25864 z m 0.127899,0.25864 c 0.134824,0.19552 0.316171,0.210294 0.632776,-0.286542 -0.199266,0.160008 -0.473005,0.338339 -0.632776,0.286545 z m 0.632776,-0.286545 c 0.251644,-0.202007 0.382672,-0.372666 0.0021,-0.0031 -7.5e-4,0.001 -0.0014,0.002 -0.0021,0.0031 z m 1.936826,-5.2043151 c -0.02524,-0.02283 -0.05139,-0.04425 -0.07803,-0.06434 0.02607,0.239624 0.04107,0.252413 0.07803,0.06434 z m -0.07803,-0.06434 c -0.01353,-0.124355 -0.02851,-0.286817 -0.05529,-0.556553 -0.219359,-0.433592 0.20312,-1.89497 -0.626833,-1.740456 0.08716,0.633076 0.34873,1.826428 0.164331,1.762941 0.31378,0.145285 0.313223,0.26975 0.179058,0.37181 0.121329,0.02814 0.235145,0.08418 0.338738,0.162264 z m -0.338738,-0.162264 c -0.269657,-0.06255 -0.575702,0.01537 -0.889348,0.307991 0.158256,-0.04514 0.679801,-0.148587 0.889348,-0.307991 z m -0.889349,0.307991 c -0.04865,0.01388 -0.07158,0.0237 -0.02919,0.0261 0.0097,-0.0095 0.01948,-0.01703 0.02919,-0.0261 z m 1.6185,-2.998514 c -0.239343,-0.25041 -0.590344,-0.401169 -1.01673,-0.388864 0.03175,-0.124187 0.03386,-0.280796 0.02506,-0.452684 a 23.999915,23.999915 0 0 0 -0.243912,0.0199 c 0.01908,0.160536 0.06279,0.311072 0.144176,0.436665 -0.223655,0.01614 -0.46612,0.0752 -0.723209,0.188361 0.47448,0.174846 0.686764,0.09466 0.773852,-0.118856 0.153736,0.185837 0.405404,0.302454 0.799173,0.289904 0.09411,-0.0092 0.173082,0.0016 0.241587,0.02558 z M 10.063277,29.857871 C 9.982527,29.73488 9.8749484,29.650446 9.7428844,29.634113 c 0.04008,0.0792 0.08321,0.152836 0.127899,0.223758 z m 8.206447,-8.693754 c -1.165374,-0.0205 -1.273854,-2.944739 -1.23403,-0.889865 0.119062,0.371638 0.02184,0.343337 -0.158128,0.136684 0.08179,0.233482 0.03254,0.409521 -0.221692,0.461728 -1.37711,-0.01638 -2.723983,-1.145347 -2.395194,-2.443254 0.09463,0.03477 0.191847,0.06288 0.292229,0.08397 -0.08282,-0.06926 -0.166499,-0.140971 -0.252696,-0.216523 0.07369,-0.21696 0.193208,-0.43766 0.369743,-0.657839 0.03355,-0.179544 0.03479,-0.350518 0.01783,-0.499968 0.743041,0.818492 1.271159,1.873891 2.2474,1.385957 -0.0022,-0.02066 -0.0066,-0.0407 -0.0093,-0.06124 0.535617,0.173956 1.45368,0.01456 1.311543,0.668174 0.47985,0.542078 1.105191,2.005334 0.0323,2.032168 z m -3.716815,-2.650733 c 0.432054,0.361315 0.799845,0.616365 0.878755,0.489633 -0.04812,-0.06932 -0.0888,-0.134782 -0.126348,-0.198179 -0.255006,-0.150968 -0.501534,-0.256507 -0.703831,-0.279827 -0.01653,-0.003 -0.03222,-0.0082 -0.04858,-0.01162 z m 0.752407,0.291454 c 0.347793,0.205901 0.709847,0.499122 1.004069,0.802791 -0.225668,-0.358178 -0.426646,-0.716161 -0.473871,-0.867903 -0.70538,-0.968647 -0.963743,-0.666736 -0.530198,0.06511 z m 1.004069,0.802791 c 0.198102,0.314423 0.412498,0.624545 0.568181,0.803307 -0.0814,-0.232363 -0.294744,-0.521092 -0.568181,-0.803307 z M 12.139112,16.73598 c -0.07867,-0.071 -0.158101,-0.140235 -0.238744,-0.205672 0.100141,0.132593 0.184789,0.206822 0.238744,0.205672 z m 8.211356,-2.08462 c -0.221706,-0.590289 -0.491482,-0.968615 -0.173633,-0.362768 0.06411,0.1636 0.121305,0.279818 0.173633,0.362768 z m -3.457917,-1.118532 c -0.02727,-0.132948 -0.03964,-0.251863 -0.01963,-0.333571 -0.130209,-0.02614 -0.08984,0.114946 0.01963,0.333571 z m 4.774886,-0.148053 c -0.19898,-0.353145 -0.342574,-0.486545 -0.130483,-0.07622 0.04514,0.02401 0.08784,0.04984 0.130483,0.07622 z m 5.708159,-0.395582 c 0.05256,-0.207457 0.09288,-0.416405 0.114721,-0.624507 -0.326533,0.433023 -0.272696,0.573703 -0.114721,0.624507 z m 0.114721,-0.624507 c 0.0124,-0.01645 0.01979,-0.0292 0.03333,-0.04651 0.750055,-0.893263 0.3166,-1.478819 -0.510303,-2.010722 -0.550493,-0.4197411 -1.420325,-1.5492901 -0.564046,-0.24908 0.914719,0.613498 1.130861,1.45029 1.041017,2.306312 z m -9.469156,0.112912 c -0.0557,-0.314104 -0.174613,-0.602662 -0.374395,-0.818293 0.125331,0.312614 0.253905,0.614106 0.374395,0.818293 z m -0.374395,-0.818293 c -0.26717,-0.666404 -0.520315,-1.38126 -0.654479,-1.306117 0.393329,0.559489 0.552404,0.939142 0.246495,1.022414 0.162105,0.06718 0.297232,0.164165 0.407984,0.283703 z m -0.407984,-0.283703 c -0.210023,-0.08702 -0.464547,-0.124217 -0.770493,-0.09302 0.377989,0.106127 0.625814,0.132397 0.770493,0.09302 z m 6.931336,-0.976422 c 0.01646,-0.0032 0.161342,-0.131939 0.345197,-0.333571 0.0058,-0.09284 -0.0026,-0.1998541 -0.01938,-0.3139331 -0.08441,0.2771451 -0.19662,0.5199191 -0.324785,0.6410441 -0.0031,0.0049 -0.0034,0.0069 -0.0011,0.0065 z m 0.325818,-0.6475041 c 0.24381,-0.800499 0.250044,-1.892824 -0.303081,-1.210258 0.535878,-1.396144 -0.700822,-2.83632 -0.355274,-1.156255 0.602107,1.83022 -0.707142,-1.02541 -0.133325,0.491182 0.291379,0.341558 0.697798,1.237134 0.79168,1.875331 z m -1.327821,-0.190427 c 0.0053,-0.0015 0.0098,-0.005 0.01395,-0.01059 -0.06146,-0.09185 -0.139428,-0.169293 -0.227375,-0.236935 0.108732,0.171163 0.176168,0.258255 0.213423,0.247529 z m -0.213423,-0.247529 c -0.0806,-0.126884 -0.180104,-0.291955 -0.31755,-0.51702 -0.663591,-0.532791 -0.969992,-2.173941 -1.066598,-0.427105 0.0015,0.01423 0.0047,0.02755 0.0075,0.04108 0.04519,0.09035 0.06944,0.145155 0.07364,0.16588 0.229804,0.318138 0.882448,0.413686 1.303016,0.737162 z m -1.303016,-0.737162 c -0.03562,-0.04931 -0.06088,-0.104119 -0.07364,-0.16588 -0.0037,-0.0074 -0.005,-0.0107 -0.009,-0.01861 4.5e-4,-0.0085 0.0011,-0.01415 0.0015,-0.02248 -8.8e-5,-8.5e-4 -1.75e-4,-0.0015 -2.59e-4,-0.0023 -0.845697,-1.180095 0.113085,0.366177 0.08139,0.209289 z m -1.852335,0.607713 c -0.01994,-0.136942 -0.06151,-0.250146 -0.130225,-0.325819 -0.190394,-0.40085 -0.283112,-0.553736 -0.314708,-0.571022 a 23.999915,23.999915 0 0 0 -0.01188,0.0059 c -0.01501,0.08407 0.26293,0.784171 0.456819,0.890898 z m 5.375621,-1.244105 c -0.03705,-0.03196 -0.03567,-0.03369 0,0 z" /><path
       style="fill:red;stroke:lime;stroke-width:0.5;stroke-linecap:round;stroke-linejoin:round;stroke-dasharray:none"
       d="M 29.251723,19.251794 H 9.2517238"
       id="path11048"
       sodipodi:nodetypes="cc" /><path
       style="fill:red;stroke:lime;stroke-width:0.5;stroke-linecap:round;stroke-linejoin:round;stroke-dasharray:none"
       d="M 19.251722,9.2517936 V 29.251794"
       id="path3310"
       sodipodi:nodetypes="cc" /></g></svg>
