<?xml version="1.0" encoding="UTF-8" standalone="no"?>
<!-- Created with Inkscape (http://www.inkscape.org/) -->

<svg
   width="48mm"
   height="48.000004mm"
   viewBox="0 0 47.999999 48.000003"
   version="1.1"
   id="svg5"
   xml:space="preserve"
   inkscape:version="1.2.2 (732a01da63, 2022-12-09)"
   sodipodi:docname="cruce-buton-mare-drept.svg"
   xmlns:inkscape="http://www.inkscape.org/namespaces/inkscape"
   xmlns:sodipodi="http://sodipodi.sourceforge.net/DTD/sodipodi-0.dtd"
   xmlns="http://www.w3.org/2000/svg"
   xmlns:svg="http://www.w3.org/2000/svg"><sodipodi:namedview
     id="namedview7"
     pagecolor="#ffffff"
     bordercolor="#000000"
     borderopacity="0.25"
     inkscape:showpageshadow="2"
     inkscape:pageopacity="0.0"
     inkscape:pagecheckerboard="false"
     inkscape:deskcolor="#d1d1d1"
     inkscape:document-units="mm"
     showgrid="false"
     inkscape:zoom="2.0000001"
     inkscape:cx="236.99999"
     inkscape:cy="53.999997"
     inkscape:window-width="1280"
     inkscape:window-height="971"
     inkscape:window-x="-8"
     inkscape:window-y="-8"
     inkscape:window-maximized="1"
     inkscape:current-layer="layer1"><inkscape:grid
       type="xygrid"
       id="grid1049"
       units="mm"
       spacingx="0.24999999"
       spacingy="3.9999999"
       originx="-11.715728"
       originy="4.9999992e-07"
       empspacing="10" /></sodipodi:namedview><defs
     id="defs2"><linearGradient
       id="linearGradient3607"
       inkscape:swatch="solid"><stop
         style="stop-color:black;stop-opacity:1;"
         offset="0"
         id="stop3605" /></linearGradient><filter
       style="color-interpolation-filters:sRGB"
       inkscape:label="Blur"
       id="filter18393"
       x="-0.058536466"
       y="-0.058536466"
       width="1.1170729"
       height="1.1170729"><feGaussianBlur
         stdDeviation="0.5 0.5"
         result="blur"
         id="feGaussianBlur18391" /></filter><filter
       style="color-interpolation-filters:sRGB"
       inkscape:label="Blur"
       id="filter18393-0"
       x="-0.058536466"
       y="-0.058536466"
       width="1.1170729"
       height="1.1170729"><feGaussianBlur
         stdDeviation="0.5 0.5"
         result="blur"
         id="feGaussianBlur18391-0" /></filter></defs><g
     inkscape:label="Layer 1"
     inkscape:groupmode="layer"
     id="layer1"
     transform="translate(-11.715732)"><path
       id="path1110"
       style="fill:black;stroke:none;stroke-width:0.1;stroke-linecap:round;stroke-linejoin:round"
       d="m 59.715903,0 v 7.3700928 c -2.448946,2.4710079 -4.874038,4.9713472 -7.438306,7.3163492 -1.023574,2.009692 -1.0487,3.538502 -0.667659,5.278748 1.178714,2.088754 1.305412,4.650836 3.937744,5.242057 1.701932,1.10527 2.599587,3.384411 4.168221,4.701005 v 0.547253 c -1.55649,-0.925197 -3.521438,-0.875677 -1.850533,1.444873 -0.03764,1.526967 0.808515,2.330229 1.850533,3.017904 v 0.517798 c -0.533047,-0.229218 -0.71165,-0.128232 0,0.751892 v 0.814421 c -0.991782,-0.724145 -2.584027,-2.172347 -1.073836,0.02739 0.281186,0.183688 0.674718,0.55015 1.073836,0.963766 v 0.624768 c -1.355155,-1.193561 -2.569413,-1.635283 -0.515214,0.321944 0.204872,0.211958 0.371958,0.395126 0.515214,0.559656 v 0.607198 c -0.245329,-0.197331 -0.550049,-0.483336 -0.887801,-0.857312 -3.184444,-2.797487 0.285834,2.43689 0.887801,3.613733 v 1.18184 c -0.73809,-0.888203 -1.485667,-1.799291 -1.903243,-2.66082 0.110375,1.031671 1.139686,3.371112 1.903243,5.162476 v 1.453141 c -0.273171,-2.550714 -1.155691,-2.472669 -2.031401,-4.767668 0.200612,1.063003 0.287412,2.548702 -0.577225,2.851506 0.927693,-0.970592 1.014832,-2.685933 -0.283187,-4.219898 -0.182667,-0.735368 -0.279051,-1.296155 -0.341581,-1.614371 0.990095,-0.895114 1.423828,-2.79703 0.596862,-3.959449 -0.716934,-1.998933 -0.31475,-4.058282 -1.399914,-5.830652 -2.206575,-3.456408 -1.44163,1.215322 -0.227893,2.378667 0.839199,1.020152 -0.189539,0.735093 -0.699699,0.89917 -0.217632,-0.859046 -0.539342,-1.703011 -0.872815,-2.479436 0.03808,-1.831063 -1.626987,-3.007812 -2.43551,-4.491198 -0.578191,-1.623003 -2.650091,-2.860355 -3.166732,-4.837431 -1.771064,-3.439957 -1.247556,1.504372 -0.06666,2.761588 0.947583,1.940016 -0.611314,4.795875 1.401465,6.199622 0.850871,0.930114 1.127477,-0.239617 1.475879,-1.105359 -0.0028,0.147973 0.01317,0.326961 0.05684,0.551904 -0.536525,1.669303 2.0174,7.644192 2.333708,2.885096 0.422838,-1.815345 2.552746,6.080822 0.24908,2.683557 -2.030981,-2.03333 0.830647,4.453135 -1.180806,0.848527 -0.635866,-0.653114 -0.725885,3.990375 -0.602031,0.457336 0.416934,-1.795998 -2.71202,-6.766962 -3.534668,-5.339726 -0.414868,2.020821 -0.202728,4.863466 1.468128,6.365503 1.553771,1.587186 1.881224,3.556019 2.122348,5.932972 0.540903,-0.642847 2.150486,-1.889301 2.699577,-2.498556 0.240228,-0.07736 0.430973,-0.151509 0.587561,-0.223759 -0.145753,0.05568 -0.426378,0.493312 -0.91674,1.528589 -0.977754,1.044461 -3.59985,5.522288 -2.426209,1.598352 -0.197111,-0.0083 -0.148684,-0.1573 0.03772,-0.383956 -0.400779,-1.262566 -1.370582,-0.580519 -1.631425,-0.355534 0.0205,-0.01935 0.02379,-0.02076 0.05943,-0.05684 0.994035,-1.20002 -0.444055,-3.169019 -1.378727,-4.194059 -0.03246,-0.515688 -0.256716,-0.833285 -0.782381,-0.749825 0.165611,1.108596 -1.374919,4.640801 -1.840715,3.717086 0.01419,-1.175632 0.05208,-1.808636 -0.04341,-1.93735 0.18309,-0.273626 0.295556,-0.608764 0.294556,-1.035596 -0.910483,-1.563208 0.01697,-5.235631 -0.05064,-5.681823 -0.924942,0.96296 -1.255326,3.70597 -1.192176,5.058089 -0.426938,-0.415496 -1.299391,2.432301 -0.565857,-0.280603 0.190738,-1.561426 0.119476,-3.354465 0.594796,-4.778003 -1.229,1.000885 -3.370451,0.473506 -0.570508,-0.121956 0.257336,-0.0644 0.490284,-0.143184 0.703833,-0.232544 0.144385,-0.341167 0.327587,-0.655414 0.562757,-0.933793 -0.0322,0.309272 -0.12754,0.570657 -0.262,0.792716 2.639586,-1.376916 1.439226,-4.829846 -0.08682,-6.809403 -0.330018,-0.105929 -0.56452,0.128517 -0.728121,0.486792 0.350578,-1.814482 0.282098,-4.073591 -2.140955,-4.40645 -1.602338,-0.07959 -4.557763,-1.749067 -4.250903,0.852145 0.533253,3.049028 4.389025,2.580091 5.641516,5.166609 1.405601,1.257416 0.719097,3.205079 -0.978752,4.255554 0.685207,-1.216162 1.701508,-3.742146 0.0016,-4.315498 -2.836908,-2.443548 0.38686,3.355024 -1.396814,4.529956 -0.280055,2.560286 -0.08374,-4.578554 -1.238684,-2.747636 0.491447,-1.308496 0.864441,-3.138635 -0.620117,-3.413745 -2.284269,-0.399268 -2.689681,-5.224629 -3.653524,-1.051099 0.935758,2.426079 1.575384,5.207576 3.1781,7.396448 1.544704,1.457233 6.514905,2.902346 3.401343,5.584672 0.976818,3.015413 -2.604397,-0.148841 0.09612,-0.776697 1.488269,-1.644096 -1.645043,-2.310223 -2.497522,-2.781742 -2.189429,-1.467632 -1.315575,1.44724 -0.0248,3.322277 -0.637428,-0.387318 -1.149985,-0.346127 -0.841809,1.158069 -0.24206,1.226997 1.939765,5.696178 0.217041,2.629814 0.01783,-1.010373 -0.143984,-1.251081 -0.357085,-1.133781 0.28572,-1.962369 -1.665105,-6.405982 -2.027266,-3.827673 -0.369064,2.096162 -0.527502,4.272856 -0.300757,1.288293 -2.902033,2.740087 0.811949,-1.686868 0.219625,-3.284554 0.507459,-1.516422 0.245197,-3.30258 -1.286226,-1.012341 -0.05309,0.0708 -0.106758,0.156417 -0.161748,0.249597 0.134335,-0.757451 0.0847,-1.589108 -0.104903,-2.336292 0.986617,-0.794922 -0.864765,-5.742382 -0.720886,-2.919201 0.0021,0.770487 -0.994379,2.272241 -1.431437,3.145027 0.227341,-1.10926 0.977033,-2.708431 -0.248047,-1.452624 1.331419,-1.661194 0.929483,-6.760565 -0.133325,-2.94659 -1.242482,2.023129 -2.633858,3.816808 -3.134693,6.076631 -1.509132,1.037827 2.68664,-5.018542 -0.666626,-2.455147 0.165269,-0.571791 2.404442,-1.977333 2.933671,-3.06958 1.994916,-2.061462 0.531293,-2.59434 -1.217496,-0.905888 -0.988638,1.023334 -3.69469,3.534383 -1.205611,0.833024 1.564587,-2.096528 1.280158,-2.094229 -0.262,-0.523999 -1.14075,1.202062 -2.560361,1.960452 -0.614433,0.320911 1.348839,-1.318525 2.798594,-2.701203 4.700489,-2.730583 1.356309,-0.540191 0.717104,-1.471012 -0.362769,-1.918746 -0.481162,1.274947 -1.256229,1.838751 -0.526583,-0.169498 -1.029538,-0.241864 -2.211821,-0.01291 -2.515092,1.27124 -1.472548,1.482193 -1.077001,2.018231 -1.179256,0.599963 -0.139985,0.871835 -0.588227,1.29288 -0.583427,0.47284 -0.979903,0.859036 -1.053136,0.917455 0.0016,-0.02894 0.0043,-0.259348 0.05109,-0.63206 0.164848,-1.148767 -0.03769,-0.459444 -0.229837,-1.031872 -0.519348,-1.592668 -0.779523,0.691631 -1.572216,1.441741 -2.101164,1.918229 -1.026264,0.312171 -2.610791,3.711123 -2.078943,2.209168 0.225208,-0.820015 0.20176,-1.162321 0.04082,-1.165821 1.279108,-1.154443 2.456696,-2.604135 3.965132,-3.273185 -0.788531,-1.335757 -2.112025,-2.463374 -3.286104,-1.612305 2.4e-4,-0.280033 -0.166043,-0.527346 -0.565857,-0.721403 1.0241,-0.245594 1.959648,-0.743552 2.535763,-1.431953 2.527596,-1.670597 -3.328399,-3.16932 -4.072103,-1.811259 -0.487724,2.136182 -3.284818,4.441646 -3.322278,2.018998 2.225844,0.20383 2.762189,-1.617041 0.816488,-1.098124 -1.440865,-0.989808 -3.453708,-1.002491 -5.060673,-0.166399 a 48,48 0 0 1 -0.02429,-0.05633 c 0.435778,-0.387755 0.705213,-0.780842 0.674377,-1.049548 1.257237,0.199324 2.408503,0.38989 3.794084,-0.02377 1.298922,0.495256 2.591009,-1.071377 0.08527,-2.186947 -0.347519,-0.61041 -0.927422,-0.693742 -1.508435,-0.547253 0.05533,-0.810609 -1.824972,-1.717044 -2.92902,-1.909961 0.05405,-0.05501 0.09744,-0.108971 0.128674,-0.162781 0.533789,0.242031 0.990138,0.421375 1.222148,0.449585 0.281992,-0.129095 0.567004,-0.193478 0.852661,-0.216008 -0.0019,0.0093 0.0013,0.01937 0.01499,0.03152 0.242913,-0.05309 0.677877,0.0117 1.158586,0.106453 1.084275,0.318856 2.15116,1.077593 3.10937,1.612305 1.746866,1.843828 3.032888,2.330081 5.20175,2.577104 1.495377,-1.891257 -3.740869,-2.364873 -5.001762,-3.253032 -0.299277,-0.231775 -0.780139,-0.431987 -1.316198,-0.597896 0.432575,-0.01882 0.451329,-0.274507 -0.473873,-1.081071 -1.372533,-1.078294 -5.107844,-0.936259 -5.359363,-1.234033 2.788973,0.719929 5.75278,-0.8105218 7.686352,2.051554 1.89883,-0.342687 4.184958,1.152808 5.371249,1.906861 1.751101,2.154546 3.875584,2.03498 5.966561,0.67076 2.524756,-0.0031 -1.525872,-2.609209 -2.134237,-1.472779 -2.231608,-1.259384 -3.594058,-4.9704761 -6.06888,-2.271179 -0.803081,-0.674242 -1.591609,-1.042557 -2.471167,-1.076937 0.726068,-0.346349 0.453448,-0.8626005 -1.263592,-1.1322282 -1.00638,0.015085 -1.908254,0.089461 -2.80448,0.1612304 C 21.087203,6.5833721 24.641434,11.706638 27.47291,10.01851 30.460488,8.8202241 26.739687,7.8001739 24.892189,7.4853312 25.485863,7.0795156 25.707545,6.5179259 24.13823,6.0905843 21.9797,4.4667161 19.45047,3.937201 18.92046,7.3819784 18.487219,10.953231 18.52658,3.4401706 16.002292,5.7226481 15.112009,6.0369447 13.480138,6.8829232 12.284173,7.2936117 a 48,48 0 0 1 -0.0041,-0.028939 C 12.913081,7.0140053 12.672007,6.5505531 12.139479,6.2321777 A 48,48 0 0 1 12.086769,5.8471883 C 13.510941,5.6111166 14.970824,5.3684198 16.300465,4.9506022 16.937317,3.2894171 15.182332,3.2231619 13.751784,3.7026164 13.646015,3.5159316 13.087984,3.439985 12.066098,3.5744588 c -0.05747,-0.01204 -0.12697,-0.013322 -0.201021,-0.010335 a 48,48 0 0 1 -0.04806,-0.5932454 c 1.702797,0.020574 3.528982,-0.3703371 4.936134,0.9973548 0.892569,1.7297121 4.794453,0.790948 1.99626,-0.8872843 C 17.189075,1.4559745 14.794777,0.38239602 12.76373,1.3373861 13.396994,0.8054756 13.547844,0 11.715732,0 h 4.164087 c 1.502433,1.1313633 3.046823,2.152741 4.988843,2.4716838 1.701534,1.0888359 3.686199,2.2988867 5.767606,2.841687 1.707988,0.932616 4.680228,2.3259297 5.769157,2.8654581 C 29.415961,6.2607922 28.189232,2.863735 26.162396,0 h 0.806152 c 1.422224,1.6346006 3.247672,3.0213222 5.216736,3.6519735 1.156007,0.4307975 2.274904,1.9009646 3.498494,2.8556396 2.204712,0.9226271 4.42792,1.297747 6.72207,0.322461 C 43.299229,6.4097765 45.670953,4.964648 47.081532,4.0364461 48.951912,2.9408919 50.562939,1.5317903 52.072442,0 Z M 12.76373,1.3373861 C 12.437571,1.611341 12.03822,1.8594233 11.770509,2.0117635 a 48,48 0 0 1 -0.001,-0.03514 c 0.03552,-0.021088 0.05342,-0.033031 0.09712,-0.058394 0.287726,-0.2441688 0.588349,-0.4356743 0.897103,-0.5808431 z m 0.988054,2.3652303 c 0.125513,0.2215398 -0.388073,0.5998129 -1.551844,0.9766845 0.223236,-0.3766116 0.849057,-0.7411428 1.551844,-0.9766845 z m 11.140405,3.7827148 c -0.853409,0.5833644 -2.483601,0.84261 -0.732255,-0.100769 0.163629,0.01089 0.427888,0.048899 0.732255,0.100769 z m -5.692676,1.95802 C 19.155683,9.5097502 19.111283,9.574857 19.069288,9.650057 18.922933,9.594523 18.6322,9.5498038 18.296726,9.5100138 c 0.301112,-0.02149 0.603304,-0.042683 0.902787,-0.066663 z m -0.902787,0.066663 c -0.832395,0.05943 -1.683567,0.102125 -2.62878,0.079065 -2.690456,-0.2784437 0.870612,-0.2876658 2.62878,-0.079065 z m 4.970756,0.9043368 c -0.365236,0.1742 -0.97811,0.306438 -1.79679,0.340548 0.653604,-0.252376 1.242877,-0.362208 1.79679,-0.340548 z m -2.516642,2.506824 c -0.428546,0.01864 -1.262834,-0.194527 -1.99316,-0.338481 -0.390476,-0.114828 -0.782664,-0.168806 -1.173572,-0.137976 0.02781,-0.142372 1.784078,0.04853 3.166732,0.476457 z m -5.241541,-0.710034 c -0.617726,-0.280089 -1.337731,-0.645255 -1.959054,-0.976685 0.06884,0.22465 -0.07718,0.458765 -0.315226,0.679029 A 48,48 0 0 1 13.09756,11.36158 c 0.142495,-0.05861 0.291138,-0.103266 0.442867,-0.132291 -0.205999,-0.10995 -0.376177,-0.205357 -0.550871,-0.302307 a 48,48 0 0 1 -0.04703,-0.189653 c 0.359654,0.14949 0.548943,0.316537 0.605647,0.490409 1.1096,-0.208658 2.340626,0.329472 1.961121,0.983403 z m -0.128674,0.162781 c -0.173565,0.176656 -0.465244,0.357975 -0.916223,0.53175 -0.429645,0.295175 -0.620385,0.428456 -0.807703,0.558622 a 48,48 0 0 1 -0.0155,-0.05064 c 0.300545,-0.251126 0.723101,-0.611424 1.156519,-1.059884 0.138223,-0.03355 0.344382,-0.02153 0.58291,0.02015 z m 2.92902,1.909961 c -0.0157,0.230003 -0.187018,0.452281 -0.577226,0.647505 -2.418039,1.627258 -0.916761,-0.270821 0.577226,-0.647505 z m -2.370915,2.757971 c -0.365567,-0.05796 -0.745796,-0.110869 -1.137398,-0.155546 a 48,48 0 0 1 -0.04909,-0.133842 c 0.804878,-0.129709 1.154776,0.01303 1.186491,0.289388 z m 8.452714,3.594612 c -0.589649,0.141408 -1.206926,0.19745 -1.805058,0.15658 0.556547,-0.265459 1.134312,-0.3743 1.682068,-0.21394 0.04498,0.01838 0.08283,0.03788 0.12299,0.05736 z m -1.805058,0.15658 c -0.878736,0.419135 -1.700307,1.227851 -2.271179,1.994194 0.28688,-0.658903 0.674475,-1.229046 1.481047,-1.992127 -0.286275,-0.195244 -0.653963,-0.260296 -1.0573,-0.243396 0.05517,-0.06113 0.09455,-0.13152 0.112655,-0.21084 0.51711,0.266535 1.114855,0.409809 1.734777,0.452169 z m -1.847432,-0.241329 c -0.186131,0.206163 -0.56633,0.294879 -1.028361,0.182935 0.351201,-0.09952 0.701357,-0.169285 1.028361,-0.182935 z m -1.028361,0.182935 c -1.273635,0.360878 -2.545562,1.122925 -2.700094,1.150317 a 48,48 0 0 1 -0.01033,-0.02015 c 0.02098,-0.0266 0.07383,-0.07582 0.163814,-0.151928 0.472464,-0.28603 0.671357,-0.540962 0.703317,-0.761194 2.198366,0.561983 -2.074063,-3.306668 0.39274,-1.164787 0.492818,0.551023 1.008732,0.840706 1.450558,0.947746 z m -1.843298,0.217041 c -0.16071,-0.04108 -0.353534,-0.104358 -0.588595,-0.196887 -0.704331,-0.26278 -1.020815,-0.446323 -1.107426,-0.561723 a 48,48 0 0 1 -0.02945,-0.06201 c 0.0065,-0.259951 1.833107,0.07919 1.725476,0.820622 z m 2.447912,1.835547 c -0.220303,0.505991 -0.382808,1.06321 -0.620117,1.808675 -0.381726,-0.04825 -0.05881,-0.897278 0.620117,-1.808675 z m 4.642094,-1.429371 c -4.21e-4,0.491879 -0.507894,1.081891 -1.135331,1.648995 0.07057,-0.178644 0.151498,-0.359406 0.254248,-0.538985 0.274498,-0.528958 0.572664,-0.886442 0.881083,-1.11001 z m -1.135331,1.648995 c -0.07631,0.193155 -0.136408,0.381199 -0.180868,0.561206 -1.705544,-0.04687 -2.945687,4.9177 -2.059305,1.308965 0.335275,-0.384784 1.395222,-1.106465 2.240173,-1.870171 z m -0.180868,0.561206 c 0.05291,0.0015 0.106974,0.0071 0.160714,0.0186 -0.0526,2.079636 -0.482118,1.282708 -0.160714,-0.0186 z m 16.940052,15.125175 c 0.864834,0.525497 1.959877,1.843386 1.558561,1.403016 -0.477762,-0.08013 -1.049282,-0.663211 -1.558561,-1.403016 z m 4.483447,-11.614794 c -0.04772,0.246918 -0.102324,0.487182 -0.160714,0.711584 -0.172513,2.63996 -0.338436,0.38152 0.160714,-0.711584 z m 0.351916,11.876794 c 0.08969,0.08729 0.159883,0.315021 0.191203,0.772563 -0.103771,-0.01545 -0.169833,-0.314794 -0.191203,-0.772563 z m 5.670972,-9.169983 c 0.0058,-0.312083 0.104121,-0.468111 0.255798,-0.517281 -0.09427,0.136708 -0.176628,0.320542 -0.255798,0.517281 z m 0.255798,-0.517281 c 0.269649,-0.391036 0.632344,-0.420585 1.265556,0.573092 -0.398532,-0.320018 -0.946013,-0.676681 -1.265556,-0.573092 z m 1.265556,0.573092 c 0.503292,0.404015 0.765348,0.745334 0.0041,0.0062 -0.0015,-0.0021 -0.0027,-0.004 -0.0041,-0.0062 z m 3.873666,10.408667 c -0.05049,0.04565 -0.102773,0.0885 -0.156063,0.128674 0.05214,-0.47925 0.08214,-0.504827 0.156063,-0.128674 z m -0.156063,0.128674 c -0.02706,0.248711 -0.05703,0.573635 -0.110588,1.11311 -0.438718,0.867187 0.406242,3.789953 -1.25367,3.480925 0.174329,-1.266146 0.697462,-3.652858 0.328662,-3.525883 0.627563,-0.290571 0.626449,-0.539502 0.358118,-0.743624 0.242659,-0.05628 0.470292,-0.168356 0.677478,-0.324528 z m -0.677478,0.324528 c -0.539316,0.125093 -1.151409,-0.03074 -1.778703,-0.615983 0.316515,0.09029 1.359608,0.297174 1.778703,0.615983 z m -1.778703,-0.615983 c -0.0973,-0.02775 -0.143154,-0.04739 -0.05839,-0.05219 0.01945,0.01895 0.03896,0.03407 0.05839,0.05219 z m 3.237012,5.99705 c -0.478687,0.500821 -1.180692,0.80234 -2.033468,0.77773 0.06351,0.248374 0.06773,0.561593 0.05013,0.905371 a 48,48 0 0 1 -0.487825,-0.03979 c 0.03815,-0.321071 0.125573,-0.622145 0.288354,-0.873332 -0.447312,-0.03229 -0.932243,-0.150409 -1.446423,-0.376722 0.948963,-0.349694 1.373533,-0.189325 1.547709,0.237712 0.307473,-0.371675 0.810811,-0.60491 1.598352,-0.57981 0.188215,0.01838 0.346166,-0.0032 0.483175,-0.05116 z M 20.126588,0 C 19.965098,0.24598211 19.749929,0.41485128 19.4858,0.4475179 19.565959,0.28911002 19.652223,0.1418453 19.741599,0 Z M 36.53954,17.387569 c -2.330756,0.041 -2.547716,5.8895 -2.468067,1.779737 0.238123,-0.743278 0.04369,-0.686676 -0.316259,-0.273369 0.16358,-0.466966 0.06508,-0.819044 -0.443384,-0.923458 -2.754231,0.03276 -5.447987,2.290702 -4.790405,4.886524 0.189257,-0.06954 0.383694,-0.125769 0.58446,-0.167949 -0.165631,0.138514 -0.332999,0.281943 -0.505395,0.433049 0.147375,0.43392 0.386418,0.875323 0.739489,1.315682 0.06709,0.35909 0.06959,0.701038 0.03566,0.999939 1.486087,-1.63699 2.542327,-3.747794 4.494816,-2.771924 -0.0043,0.04132 -0.0131,0.08141 -0.0186,0.122473 1.071239,-0.347914 2.90737,-0.02913 2.623095,-1.336352 0.959704,-1.084161 2.21039,-4.010682 0.0646,-4.064352 z m -7.433655,5.301485 c 0.864111,-0.722632 1.599696,-1.232734 1.757516,-0.979268 -0.09625,0.13864 -0.177598,0.269564 -0.252698,0.396358 -0.510013,0.301938 -1.003071,0.513016 -1.407666,0.559656 -0.03305,0.0061 -0.06443,0.01635 -0.09715,0.02325 z m 1.504818,-0.58291 c 0.69559,-0.411803 1.4197,-0.998246 2.008146,-1.605587 -0.451337,0.716359 -0.853296,1.432327 -0.947746,1.735812 -1.410764,1.937302 -1.927492,1.333476 -1.0604,-0.130225 z m 2.008146,-1.605587 c 0.396205,-0.628849 0.824999,-1.249095 1.136365,-1.60662 -0.162797,0.464728 -0.58949,1.042188 -1.136365,1.60662 z m -8.340576,5.743319 c -0.157336,0.142003 -0.316203,0.280471 -0.47749,0.411345 0.200284,-0.265186 0.36958,-0.413645 0.47749,-0.411345 z m 16.42277,4.169255 c -0.443413,1.180581 -0.982966,1.937237 -0.347266,0.725537 0.128216,-0.3272 0.242611,-0.559637 0.347266,-0.725537 z m -6.915857,2.237072 c -0.05454,0.265896 -0.07928,0.503728 -0.03927,0.667143 -0.260419,0.05228 -0.179686,-0.229893 0.03927,-0.667143 z m 9.549805,0.296106 c -0.397961,0.706292 -0.685151,0.973093 -0.260966,0.152446 0.09027,-0.04803 0.175676,-0.09968 0.260966,-0.152446 z m 11.416357,0.791167 c 0.105122,0.414916 0.185764,0.832813 0.229444,1.249019 -0.653067,-0.866049 -0.545395,-1.147411 -0.229444,-1.249019 z m 0.229444,1.249019 c 0.02481,0.0329 0.03959,0.05839 0.06666,0.09302 1.500115,1.786533 0.633203,2.957648 -1.02061,4.021459 -1.100991,0.839484 -2.840659,3.09859 -1.128096,0.498161 1.829446,-1.227 2.261729,-2.90059 2.082043,-4.61264 z M 36.042413,34.760669 c -0.111408,0.628212 -0.349228,1.20533 -0.748792,1.636593 0.250663,-0.625231 0.507811,-1.228217 0.748792,-1.636593 z m -0.748792,1.636593 c -0.534343,1.332813 -1.040635,2.762529 -1.308964,2.612243 0.786661,-1.118982 1.104812,-1.878291 0.492993,-2.044836 0.32421,-0.134368 0.594465,-0.32833 0.815971,-0.567407 z m -0.815971,0.567407 c -0.420048,0.174035 -0.929098,0.248435 -1.540991,0.186035 0.75598,-0.212255 1.251632,-0.264795 1.540991,-0.186035 z m 13.86272,1.952852 c 0.03292,0.0063 0.322686,0.263879 0.690397,0.667143 0.01168,0.185676 -0.0052,0.39971 -0.03876,0.627869 -0.168821,-0.554292 -0.393241,-1.039842 -0.649573,-1.282093 -0.0063,-0.0097 -0.0068,-0.01381 -0.0021,-0.01292 z m 0.65164,1.295012 c 0.487621,1.601003 0.500089,3.785661 -0.606165,2.420524 1.071759,2.792299 -1.401649,5.672661 -0.710551,2.31252 1.204218,-3.660453 -1.414288,2.050826 -0.26665,-0.982369 0.58276,-0.683118 1.3956,-2.474277 1.583366,-3.750675 z m -2.655652,0.380855 c 0.01064,0.0031 0.01965,0.01007 0.02791,0.02119 -0.122916,0.183696 -0.278858,0.338588 -0.454752,0.473873 0.217465,-0.342328 0.352337,-0.516512 0.426847,-0.49506 z m -0.426847,0.49506 c -0.161207,0.25377 -0.360211,0.583913 -0.635104,1.034045 -1.327185,1.065584 -1.939989,4.347896 -2.133203,0.854212 0.0031,-0.02846 0.0095,-0.05511 0.01499,-0.08217 0.09039,-0.180708 0.138878,-0.290312 0.147278,-0.331762 0.45961,-0.636277 1.764903,-0.827374 2.606043,-1.474329 z m -2.606043,1.474329 c -0.07125,0.09863 -0.121758,0.208239 -0.147278,0.331762 -0.0073,0.01475 -0.01009,0.0214 -0.01809,0.03721 9e-4,0.01696 0.0022,0.02831 0.0031,0.04496 -1.76e-4,0.0017 -3.49e-4,0.003 -5.17e-4,0.0047 -1.691401,2.360198 0.226171,-0.732356 0.162781,-0.418579 z m -3.704683,-1.21543 c -0.03988,0.273885 -0.12302,0.500294 -0.26045,0.65164 -0.38079,0.801704 -0.566227,1.107477 -0.629418,1.142049 a 48,48 0 0 1 -0.02377,-0.01189 c -0.03001,-0.16815 0.525862,-1.568347 0.91364,-1.781803 z m 10.751281,2.48822 c -0.0741,0.06392 -0.07134,0.06737 0,0 z" /><path
       style="fill:red;stroke:lime;stroke-width:0.5;stroke-linecap:round;stroke-linejoin:round;stroke-dasharray:none"
       d="m 30.430453,19.285305 h 20"
       id="path11048"
       sodipodi:nodetypes="cc" /><path
       style="fill:red;stroke:lime;stroke-width:0.5;stroke-linecap:round;stroke-linejoin:round;stroke-dasharray:none"
       d="M 40.430453,9.2853058 V 29.285305"
       id="path3310"
       sodipodi:nodetypes="cc" /></g></svg>
