<?xml version="1.0" encoding="UTF-8" standalone="no"?>
<!-- Created with Inkscape (http://www.inkscape.org/) -->

<svg
   width="48mm"
   height="48mm"
   viewBox="0 0 47.999999 47.999999"
   version="1.1"
   id="svg5"
   xml:space="preserve"
   inkscape:version="1.2.2 (732a01da63, 2022-12-09)"
   sodipodi:docname="cruce-buton-mare-sting.svg"
   xmlns:inkscape="http://www.inkscape.org/namespaces/inkscape"
   xmlns:sodipodi="http://sodipodi.sourceforge.net/DTD/sodipodi-0.dtd"
   xmlns="http://www.w3.org/2000/svg"
   xmlns:svg="http://www.w3.org/2000/svg"><sodipodi:namedview
     id="namedview7"
     pagecolor="#ffffff"
     bordercolor="#000000"
     borderopacity="0.25"
     inkscape:showpageshadow="2"
     inkscape:pageopacity="0.0"
     inkscape:pagecheckerboard="false"
     inkscape:deskcolor="#d1d1d1"
     inkscape:document-units="mm"
     showgrid="false"
     inkscape:zoom="2.0000001"
     inkscape:cx="182.99999"
     inkscape:cy="98.499995"
     inkscape:window-width="1280"
     inkscape:window-height="971"
     inkscape:window-x="-8"
     inkscape:window-y="-8"
     inkscape:window-maximized="1"
     inkscape:current-layer="layer1"><inkscape:grid
       type="xygrid"
       id="grid1049"
       units="mm"
       spacingx="3.9999999"
       spacingy="3.9999999"
       originx="4.9999988e-07"
       originy="4.9999985e-07"
       empspacing="10" /></sodipodi:namedview><defs
     id="defs2" /><g
     inkscape:label="Layer 1"
     inkscape:groupmode="layer"
     id="layer1"><g
       id="path17247"
       transform="matrix(-1,0,0,1,59.715988,0)" /><g
       id="path3310-9"
       transform="matrix(-1,0,0,1,59.715988,0)" /><g
       id="path7525"
       transform="matrix(-1,0,0,1,59.715988,0)" /><g
       id="path3310-7"
       transform="matrix(-1,0,0,1,59.715988,0)" /><path
       id="path1110"
       style="fill:black;stroke:none;stroke-width:0.1;stroke-linecap:round;stroke-linejoin:round"
       d="M 0 0 L 0 7.3700928 C 2.4489465 9.8411007 4.8740382 12.34144 7.4383057 14.686442 C 8.4618796 16.696134 8.4870058 18.224944 8.1059652 19.96519 C 6.9272513 22.053944 6.8005527 24.616026 4.168221 25.207247 C 2.4662893 26.312517 1.5686341 28.591658 0 29.908252 L 0 30.455505 C 1.5564901 29.530308 3.5214375 29.579828 1.850533 31.900378 C 1.8881772 33.427345 1.0420184 34.230607 0 34.918282 L 0 35.43608 C 0.53304663 35.206862 0.71165032 35.307848 0 36.187972 L 0 37.002393 C 0.99178202 36.278248 2.5840274 34.830046 1.0738363 37.029781 C 0.7926496 37.213469 0.39911776 37.579931 0 37.993547 L 0 38.618315 C 1.3551554 37.424754 2.5694134 36.983032 0.51521403 38.940259 C 0.31034219 39.152217 0.1432565 39.335385 0 39.499915 L 0 40.107113 C 0.24532931 39.909782 0.55004924 39.623777 0.88780111 39.249801 C 4.0722449 36.452314 0.60196653 41.686691 0 42.863534 L 0 44.045374 C 0.73808972 43.157171 1.4856672 42.246083 1.903243 41.384554 C 1.7928684 42.416225 0.76355701 44.755666 0 46.54703 L 0 48.000171 C 0.27317073 45.449457 1.1556911 45.527502 2.0314006 43.232503 C 1.8307888 44.295506 1.7439889 45.781205 2.6086263 46.084009 C 1.6809329 45.113417 1.5937941 43.398076 2.8918132 41.864111 C 3.07448 41.128743 3.1708644 40.567956 3.2333944 40.24974 C 2.2432994 39.354626 1.8095661 37.45271 2.6365316 36.290291 C 3.3534659 34.291358 2.9512822 32.232009 4.0364461 30.459639 C 6.2430212 27.003231 5.4780763 31.674961 4.2643392 32.838306 C 3.42514 33.858458 4.4538776 33.573399 4.9640381 33.737476 C 5.1816702 32.87843 5.5033804 32.034465 5.836853 31.25804 C 5.7987691 29.426977 7.4638401 28.250228 8.2723633 26.766842 C 8.8505537 25.143839 10.922454 23.906487 11.439095 21.929411 C 13.210159 18.489454 12.686651 23.433783 11.505758 24.690999 C 10.558175 26.631015 12.117072 29.486874 10.104293 30.890621 C 9.2534217 31.820735 8.9768156 30.651004 8.6284139 29.785262 C 8.6311839 29.933235 8.6152398 30.112223 8.5715698 30.337166 C 9.1080953 32.006469 6.5541698 37.981358 6.2378621 33.222262 C 5.8150236 31.406917 3.6851157 39.303084 5.9887817 35.905819 C 8.0197627 33.872489 5.1581352 40.358954 7.1695882 36.754346 C 7.8054536 36.101232 7.8954725 40.744721 7.7716187 37.211682 C 7.3546851 35.415684 10.483639 30.44472 11.306287 31.871956 C 11.721155 33.892777 11.509015 36.735422 9.8381592 38.237459 C 8.2843847 39.824645 7.9569319 41.793478 7.7158081 44.170431 C 7.1749046 43.527584 5.565322 42.28113 5.0162313 41.671875 C 4.7760035 41.594512 4.5852581 41.520366 4.4286702 41.448116 C 4.5744231 41.503791 4.8550483 41.941428 5.3454102 42.976705 C 6.3231642 44.021166 8.9452605 48.498993 7.7716187 44.575057 C 7.9687305 44.566752 7.9203027 44.417757 7.7338949 44.191101 C 8.1346745 42.928535 9.1044771 43.610582 9.3653198 43.835567 C 9.3448198 43.816217 9.3415319 43.814803 9.3058919 43.778723 C 8.3118569 42.578703 9.7499471 40.609704 10.684619 39.584664 C 10.717075 39.068976 10.941335 38.751379 11.467 38.834839 C 11.301389 39.943435 12.841919 43.47564 13.307715 42.551925 C 13.293525 41.376293 13.255633 40.743289 13.351123 40.614575 C 13.168033 40.340949 13.055567 40.005811 13.056567 39.578979 C 13.96705 38.015771 13.0396 34.343348 13.10721 33.897156 C 14.032152 34.860116 14.362536 37.603126 14.299386 38.955245 C 14.726324 38.539749 15.598777 41.387546 14.865243 38.674642 C 14.674505 37.113216 14.745767 35.320177 14.270447 33.896639 C 15.499447 34.897524 17.640898 34.370145 14.840955 33.774683 C 14.583619 33.710285 14.350671 33.631499 14.137122 33.542139 C 13.992737 33.200972 13.809535 32.886725 13.574365 32.608346 C 13.606561 32.917618 13.701905 33.179003 13.836365 33.401062 C 11.196779 32.024146 12.397139 28.571216 13.923181 26.591659 C 14.253199 26.48573 14.487701 26.720176 14.651302 27.078451 C 14.300724 25.263969 14.369204 23.00486 16.792257 22.672001 C 18.394595 22.592411 21.35002 20.922934 21.04316 23.524146 C 20.509907 26.573174 16.654135 26.104237 15.401644 28.690755 C 13.996043 29.948171 14.682547 31.895834 16.380396 32.946309 C 15.695189 31.730147 14.678888 29.204163 16.378845 28.630811 C 19.215753 26.187263 15.991985 31.985835 17.775659 33.160767 C 18.055714 35.721053 17.859395 28.582213 19.014343 30.413131 C 18.522896 29.104635 18.149902 27.274496 19.63446 26.999386 C 21.918729 26.600118 22.324141 21.774757 23.287984 25.948287 C 22.352226 28.374366 21.7126 31.155863 20.109884 33.344735 C 18.56518 34.801968 13.594979 36.247081 16.708541 38.929407 C 15.731723 41.94482 19.312938 38.780566 16.612423 38.15271 C 15.124154 36.508614 18.257466 35.842487 19.109945 35.370968 C 21.299374 33.903336 20.42552 36.818208 19.134749 38.693245 C 19.772177 38.305927 20.284734 38.347118 19.976558 39.851314 C 20.218618 41.078311 18.036793 45.547492 19.759517 42.481128 C 19.741691 41.470755 19.903501 41.230047 20.116602 41.347347 C 19.830882 39.384978 21.781707 34.941365 22.143868 37.519674 C 22.512932 39.615836 22.67137 41.79253 22.444625 38.807967 C 25.346658 41.548054 21.632676 37.121099 22.225 35.523413 C 21.717541 34.006991 21.979803 32.220833 23.511226 34.511072 C 23.564316 34.581871 23.617984 34.667489 23.672974 34.760669 C 23.538639 34.003218 23.588272 33.171561 23.777877 32.424377 C 22.79126 31.629455 24.642642 26.681995 24.498763 29.505176 C 24.496664 30.275663 25.493142 31.777417 25.9302 32.650203 C 25.702859 31.540943 24.953167 29.941772 26.178247 31.197579 C 24.846828 29.536385 25.248764 24.437014 26.311572 28.250989 C 27.554054 30.274118 28.94543 32.067797 29.446265 34.32762 C 30.955397 35.365447 26.759625 29.309078 30.112891 31.872473 C 29.947622 31.300682 27.708449 29.89514 27.17922 28.802893 C 25.184304 26.741431 26.647927 26.208553 28.396716 27.897005 C 29.385354 28.920339 32.091406 31.431388 29.602327 28.730029 C 28.03774 26.633501 28.322169 26.6358 29.864327 28.20603 C 31.005077 29.408092 32.424688 30.166482 30.47876 28.526941 C 29.129921 27.208416 27.680166 25.825738 25.778271 25.796358 C 24.421962 25.256167 25.061167 24.325346 26.14104 23.877612 C 26.622202 25.152559 27.397269 25.716363 26.667623 23.708114 C 27.697161 23.46625 28.879444 23.695201 29.182715 24.979354 C 30.655263 26.461547 30.259716 26.997585 30.361971 25.579317 C 30.501956 26.451152 30.950198 26.872197 30.945398 26.052157 C 31.925301 26.911193 31.998534 26.969612 30.943848 26.023218 C 30.939552 25.76387 30.89276 25.391158 30.779 24.874451 C 30.816688 24.415007 31.008837 23.842579 31.298348 23.281783 C 32.077871 23.973414 32.870564 24.723524 33.399512 25.200012 C 34.425776 25.512183 36.010303 28.911135 35.478455 27.40918 C 35.253247 26.589165 35.276695 26.246859 35.43763 26.243359 C 34.158522 25.088916 32.980934 23.639224 31.472498 22.970174 C 32.261029 21.634417 33.584523 20.5068 34.758602 21.357869 C 34.758362 21.077836 34.924645 20.830523 35.324459 20.636466 C 34.300359 20.390872 33.364811 19.892914 32.788696 19.204513 C 30.2611 17.533916 36.117095 16.035193 36.860799 17.393254 C 37.348523 19.529436 40.145617 21.8349 40.183077 19.412252 C 37.957233 19.616082 37.420888 17.795211 39.366589 18.314128 C 40.807454 17.32432 42.820297 17.311637 44.427262 18.147729 A 48 48 0 0 0 44.45155 18.091402 C 44.015772 17.703647 43.746337 17.31056 43.777173 17.041854 C 42.519936 17.241178 41.36867 17.431744 39.983089 17.018083 C 38.684167 17.513339 37.39208 15.946706 39.897823 14.831136 C 40.245342 14.220726 40.825245 14.137394 41.406258 14.283883 C 41.350932 13.473274 43.23123 12.566839 44.335278 12.373922 C 44.281228 12.318916 44.237834 12.264951 44.206604 12.211141 C 43.672815 12.453172 43.216466 12.632516 42.984456 12.660726 C 42.702464 12.531631 42.417452 12.467248 42.131795 12.444718 C 42.133645 12.454048 42.130459 12.464091 42.116809 12.476241 C 41.873896 12.423154 41.438932 12.487945 40.958223 12.582694 C 39.873948 12.90155 38.807063 13.660287 37.848853 14.194999 C 36.101987 16.038827 34.815965 16.52508 32.647103 16.772103 C 31.151726 14.880846 36.387972 14.40723 37.648865 13.519071 C 37.948142 13.287296 38.429004 13.087084 38.965063 12.921175 C 38.532488 12.902356 38.513734 12.646668 39.438936 11.840104 C 40.811469 10.76181 44.54678 10.903845 44.798299 10.606071 C 42.009326 11.326 39.045519 9.7955492 37.111947 12.657625 C 35.213117 12.314938 32.926989 13.810433 31.740698 14.564486 C 29.989597 16.719032 27.865114 16.599466 25.774137 15.235246 C 23.249381 15.232096 27.300009 12.626037 27.908374 13.762467 C 30.139982 12.503083 31.502432 8.7919909 33.977254 11.491288 C 34.780335 10.817046 35.568863 10.448731 36.448421 10.414351 C 35.72225 10.068 35.99487 9.5517485 37.71191 9.2821208 C 38.71829 9.2972058 39.620164 9.3715813 40.51639 9.4433512 C 38.6287 6.5833721 35.074469 11.706638 32.242993 10.01851 C 29.255415 8.8202241 32.976216 7.8001739 34.823714 7.4853312 C 34.23004 7.0795156 34.008358 6.5179259 35.577673 6.0905843 C 37.736203 4.4667161 40.265433 3.937201 40.795443 7.3819784 C 41.228684 10.953231 41.189323 3.4401706 43.713611 5.7226481 C 44.603894 6.0369447 46.235765 6.8829232 47.43173 7.2936117 A 48 48 0 0 0 47.435864 7.2646729 C 46.802822 7.0140053 47.043896 6.5505531 47.576424 6.2321777 A 48 48 0 0 0 47.629134 5.8471883 C 46.204962 5.6111166 44.745079 5.3684198 43.415438 4.9506022 C 42.778586 3.2894171 44.533571 3.2231619 45.964119 3.7026164 C 46.069888 3.5159316 46.627919 3.439985 47.649805 3.5744588 C 47.707276 3.5624184 47.776775 3.5611368 47.850826 3.5641235 A 48 48 0 0 0 47.898885 2.9708781 C 46.196089 2.9914528 44.369904 2.6005413 42.962752 3.9682332 C 42.070183 5.6979453 38.168299 4.7591812 40.966492 3.0809489 C 42.526828 1.4559745 44.921126 0.38239602 46.952173 1.3373861 C 46.318909 0.8054756 46.168059 0 48.000171 0 L 43.836084 0 C 42.333651 1.1313633 40.789261 2.152741 38.847241 2.4716838 C 37.145707 3.5605197 35.161042 4.7705705 33.079635 5.3133708 C 31.371647 6.2459868 28.399407 7.6393005 27.310478 8.1788289 C 30.299942 6.2607922 31.526671 2.863735 33.553507 0 L 32.747355 0 C 31.325131 1.6346006 29.499683 3.0213222 27.530619 3.6519735 C 26.374612 4.082771 25.255715 5.5529381 24.032125 6.5076131 C 21.827413 7.4302402 19.604205 7.8053601 17.310055 6.8300741 C 16.416674 6.4097765 14.04495 4.964648 12.634371 4.0364461 C 10.763991 2.9408919 9.152964 1.5317903 7.6434611 0 L 0 0 z M 46.952173 1.3373861 C 47.278332 1.611341 47.677683 1.8594233 47.945394 2.0117635 A 48 48 0 0 0 47.946427 1.9766235 C 47.910878 1.955536 47.892978 1.9435922 47.849276 1.9182292 C 47.56155 1.6740604 47.260927 1.4825549 46.952173 1.3373861 z M 45.964119 3.7026164 C 45.838606 3.9241562 46.352192 4.3024293 47.515963 4.6793009 C 47.292727 4.3026893 46.666906 3.9381581 45.964119 3.7026164 z M 34.823714 7.4853312 C 35.677123 8.0686956 37.307315 8.3279412 35.555969 7.3845622 C 35.39234 7.3954522 35.128081 7.4334613 34.823714 7.4853312 z M 40.51639 9.4433512 C 40.56022 9.5097502 40.604615 9.574857 40.646615 9.650057 C 40.79297 9.594523 41.083703 9.5498038 41.419177 9.5100138 C 41.118065 9.4885239 40.815873 9.4673312 40.51639 9.4433512 z M 41.419177 9.5100138 C 42.251572 9.5694438 43.102744 9.6121388 44.047957 9.5890788 C 46.738413 9.3106351 43.177345 9.301413 41.419177 9.5100138 z M 36.448421 10.414351 C 36.813657 10.588551 37.426531 10.720789 38.245211 10.754899 C 37.591607 10.502523 37.002334 10.392691 36.448421 10.414351 z M 38.965063 12.921175 C 39.393609 12.939819 40.227897 12.726648 40.958223 12.582694 C 41.348699 12.467866 41.740887 12.413888 42.131795 12.444718 C 42.10398 12.302346 40.347717 12.493245 38.965063 12.921175 z M 44.206604 12.211141 C 44.82433 11.931052 45.544335 11.565886 46.165658 11.234456 C 46.096822 11.459106 46.242838 11.693221 46.480884 11.913485 A 48 48 0 0 0 46.618343 11.36158 C 46.475848 11.302965 46.327205 11.258314 46.175476 11.229289 C 46.381475 11.119339 46.551653 11.023932 46.726347 10.926982 A 48 48 0 0 0 46.773372 10.737329 C 46.413718 10.886819 46.224429 11.053866 46.167725 11.227738 C 45.058125 11.01908 43.827099 11.55721 44.206604 12.211141 z M 44.335278 12.373922 C 44.508843 12.550578 44.800522 12.731897 45.251501 12.905672 C 45.681146 13.200847 45.871886 13.334128 46.059204 13.464294 A 48 48 0 0 0 46.074707 13.413652 C 45.774162 13.162526 45.351606 12.802228 44.918188 12.353768 C 44.779965 12.320218 44.573806 12.332242 44.335278 12.373922 z M 41.406258 14.283883 C 41.421957 14.513886 41.593276 14.736164 41.983484 14.931388 C 44.401523 16.558646 42.900245 14.660567 41.406258 14.283883 z M 43.777173 17.041854 C 44.14274 16.98389 44.522969 16.930985 44.914571 16.886308 A 48 48 0 0 0 44.963664 16.752466 C 44.158786 16.622757 43.808888 16.765496 43.777173 17.041854 z M 35.324459 20.636466 C 35.914108 20.777874 36.531385 20.833916 37.129517 20.793046 C 36.57297 20.527587 35.995205 20.418746 35.447449 20.579106 C 35.402465 20.597486 35.364619 20.616986 35.324459 20.636466 z M 37.129517 20.793046 C 38.008253 21.212181 38.829824 22.020897 39.400696 22.78724 C 39.113816 22.128337 38.726221 21.558194 37.919649 20.795113 C 38.205924 20.599869 38.573612 20.534817 38.976949 20.551717 C 38.921775 20.490592 38.882394 20.420197 38.864294 20.340877 C 38.347184 20.607412 37.749439 20.750686 37.129517 20.793046 z M 38.976949 20.551717 C 39.16308 20.75788 39.543279 20.846596 40.00531 20.734652 C 39.654109 20.635129 39.303953 20.565367 38.976949 20.551717 z M 40.00531 20.734652 C 41.278945 21.09553 42.550872 21.857577 42.705404 21.884969 A 48 48 0 0 0 42.715739 21.864815 C 42.694762 21.838214 42.641909 21.788995 42.551925 21.712887 C 42.079461 21.426857 41.880568 21.171925 41.848608 20.951693 C 39.650242 21.513676 43.922671 17.645025 41.455868 19.786906 C 40.96305 20.337929 40.447136 20.627612 40.00531 20.734652 z M 41.848608 20.951693 C 42.009318 20.910609 42.202142 20.847335 42.437203 20.754806 C 43.141534 20.492026 43.458018 20.308483 43.544629 20.193083 A 48 48 0 0 0 43.574084 20.131071 C 43.567562 19.87112 41.740977 20.210256 41.848608 20.951693 z M 39.400696 22.78724 C 39.620999 23.293231 39.783504 23.85045 40.020813 24.595915 C 40.402539 24.54767 40.079623 23.698637 39.400696 22.78724 z M 34.758602 21.357869 C 34.759023 21.849748 35.266496 22.43976 35.893933 23.006864 C 35.823361 22.82822 35.742435 22.647458 35.639685 22.467879 C 35.365187 21.938921 35.067021 21.581437 34.758602 21.357869 z M 35.893933 23.006864 C 35.970247 23.200019 36.030341 23.388063 36.074801 23.56807 C 37.780345 23.521197 39.020488 28.48577 38.134106 24.877035 C 37.798831 24.492251 36.738884 23.77057 35.893933 23.006864 z M 36.074801 23.56807 C 36.021896 23.56953 35.967827 23.575124 35.914087 23.586674 C 35.966692 25.66631 36.396205 24.869382 36.074801 23.56807 z M 19.134749 38.693245 C 18.269915 39.218742 17.174872 40.536631 17.576188 40.096261 C 18.05395 40.01613 18.62547 39.43305 19.134749 38.693245 z M 14.651302 27.078451 C 14.699017 27.325369 14.753626 27.565633 14.812016 27.790035 C 14.984529 30.429995 15.150452 28.171555 14.651302 27.078451 z M 14.299386 38.955245 C 14.2097 39.042535 14.139503 39.270266 14.108183 39.727808 C 14.211954 39.712354 14.278016 39.413014 14.299386 38.955245 z M 8.6284139 29.785262 C 8.6225669 29.473179 8.5242934 29.317151 8.3726156 29.267981 C 8.4668845 29.404689 8.549244 29.588523 8.6284139 29.785262 z M 8.3726156 29.267981 C 8.1029668 28.876945 7.7402721 28.847396 7.1070597 29.841073 C 7.5055923 29.521055 8.0530729 29.164392 8.3726156 29.267981 z M 7.1070597 29.841073 C 6.6037682 30.245088 6.3417124 30.586407 7.1029256 29.847274 C 7.1044256 29.845174 7.1056597 29.843273 7.1070597 29.841073 z M 3.2333944 40.24974 C 3.2838833 40.295389 3.3361672 40.338244 3.3894572 40.378414 C 3.3373172 39.899164 3.3073143 39.873587 3.2333944 40.24974 z M 3.3894572 40.378414 C 3.4165172 40.627125 3.4464848 40.952049 3.5000448 41.491524 C 3.9387633 42.358711 3.0938027 45.281477 4.753715 44.972449 C 4.5793862 43.706303 4.0562533 41.319591 4.4250529 41.446566 C 3.7974895 41.155995 3.7986035 40.907064 4.0669352 40.702942 C 3.8242765 40.646658 3.596643 40.534586 3.3894572 40.378414 z M 4.0669352 40.702942 C 4.6062507 40.828035 5.2183436 40.6722 5.845638 40.086959 C 5.5291233 40.177244 4.4860298 40.384133 4.0669352 40.702942 z M 5.845638 40.086959 C 5.9429379 40.059209 5.9887923 40.039566 5.9040324 40.034766 C 5.8845824 40.053716 5.865068 40.068839 5.845638 40.086959 z M 2.6086263 46.084009 C 3.0873128 46.58483 3.7893178 46.886349 4.6420939 46.861739 C 4.5785811 47.110113 4.5743625 47.423332 4.5919678 47.76711 A 48 48 0 0 0 5.0797933 47.727319 C 5.0416387 47.406249 4.9542199 47.105175 4.7914388 46.853988 C 5.2387507 46.821698 5.7236817 46.703579 6.2378621 46.477266 C 5.2888991 46.127572 4.8643288 46.287941 4.690153 46.714978 C 4.3826803 46.343303 3.8793422 46.110068 3.0918009 46.135168 C 2.9035861 46.153548 2.7456352 46.131989 2.6086263 46.084009 z M 39.589315 0 C 39.750805 0.24598211 39.965974 0.41485128 40.230103 0.4475179 C 40.149944 0.28911002 40.06368 0.1418453 39.974304 0 L 39.589315 0 z M 23.176363 17.387569 C 25.507119 17.428564 25.724079 23.277069 25.64443 19.167306 C 25.406307 18.424028 25.600744 18.48063 25.960689 18.893937 C 25.797109 18.426971 25.895608 18.074893 26.404073 17.970479 C 29.158304 18.003237 31.85206 20.261181 31.194478 22.857003 C 31.005221 22.787467 30.810784 22.731234 30.610018 22.689054 C 30.775649 22.827568 30.943017 22.970997 31.115413 23.122103 C 30.968038 23.556023 30.728995 23.997426 30.375924 24.437785 C 30.308834 24.796875 30.306337 25.138823 30.340267 25.437724 C 28.85418 23.800734 27.79794 21.68993 25.845451 22.6658 C 25.849801 22.707124 25.858554 22.747213 25.864054 22.788273 C 24.792815 22.440359 22.956684 22.759144 23.240959 21.451921 C 22.281255 20.36776 21.030569 17.441239 23.176363 17.387569 z M 30.610018 22.689054 C 29.745907 21.966422 29.010322 21.45632 28.852502 21.709786 C 28.948755 21.848426 29.0301 21.97935 29.1052 22.106144 C 29.615213 22.408082 30.108271 22.61916 30.512866 22.6658 C 30.545916 22.67187 30.577298 22.682154 30.610018 22.689054 z M 29.1052 22.106144 C 28.40961 21.694341 27.6855 21.107898 27.097054 20.500557 C 27.548391 21.216916 27.95035 21.932884 28.0448 22.236369 C 29.455564 24.173671 29.972292 23.569845 29.1052 22.106144 z M 27.097054 20.500557 C 26.700849 19.871708 26.272055 19.251462 25.960689 18.893937 C 26.123486 19.358665 26.550179 19.936125 27.097054 20.500557 z M 35.43763 26.243876 C 35.594966 26.385879 35.753833 26.524347 35.91512 26.655221 C 35.714836 26.390035 35.54554 26.241576 35.43763 26.243876 z M 19.01486 30.413131 C 19.458273 31.593712 19.997826 32.350368 19.362126 31.138668 C 19.23391 30.811468 19.119515 30.579031 19.01486 30.413131 z M 25.930717 32.650203 C 25.985257 32.916099 26.010001 33.153931 25.969991 33.317346 C 26.23041 33.369627 26.149677 33.087453 25.930717 32.650203 z M 16.380912 32.946309 C 16.778873 33.652601 17.066063 33.919402 16.641878 33.098755 C 16.55161 33.050721 16.466202 32.999079 16.380912 32.946309 z M 4.9645549 33.737476 C 4.859433 34.152392 4.7787914 34.570289 4.7351115 34.986495 C 5.3881781 34.120446 5.2805058 33.839084 4.9645549 33.737476 z M 4.7351115 34.986495 C 4.7103015 35.019395 4.6955189 35.044883 4.6684489 35.079513 C 3.1683334 36.866046 4.0352458 38.037161 5.6890584 39.100972 C 6.7900493 39.940456 8.5297172 42.199562 6.8171549 39.599133 C 4.9877085 38.372135 4.5554247 36.698545 4.7351115 34.986495 z M 23.67349 34.760669 C 23.784898 35.388881 24.022718 35.965999 24.422282 36.397262 C 24.171619 35.772031 23.914471 35.169045 23.67349 34.760669 z M 24.422282 36.397262 C 24.956625 37.730075 25.462917 39.159791 25.731246 39.009505 C 24.944585 37.890523 24.626434 37.131214 25.238253 36.964669 C 24.914043 36.830301 24.643788 36.636339 24.422282 36.397262 z M 25.238253 36.964669 C 25.658301 37.138704 26.167351 37.213104 26.779244 37.150704 C 26.023264 36.938449 25.527612 36.885909 25.238253 36.964669 z M 11.375533 38.917521 C 11.342609 38.923794 11.052847 39.1814 10.685136 39.584664 C 10.673456 39.77034 10.690323 39.984374 10.723893 40.212533 C 10.892714 39.658241 11.117134 39.172691 11.373466 38.93044 C 11.37977 38.920766 11.380237 38.916625 11.375533 38.917521 z M 10.723893 40.212533 C 10.236272 41.813536 10.223804 43.998194 11.330058 42.633057 C 10.258299 45.425356 12.731707 48.305718 12.040609 44.945577 C 10.836391 41.285124 13.454897 46.996403 12.307259 43.963208 C 11.724499 43.28009 10.911659 41.488931 10.723893 40.212533 z M 13.379545 40.593388 C 13.368901 40.596452 13.359892 40.603455 13.35164 40.614575 C 13.474556 40.798271 13.630498 40.953163 13.806392 41.088448 C 13.588927 40.74612 13.454055 40.571936 13.379545 40.593388 z M 13.806392 41.088448 C 13.967599 41.342218 14.166603 41.672361 14.441496 42.122493 C 15.768681 43.188077 16.381485 46.470389 16.574699 42.976705 C 16.571549 42.948245 16.565213 42.921599 16.559713 42.894539 C 16.469319 42.713831 16.420835 42.604227 16.412435 42.562777 C 15.952825 41.9265 14.647532 41.735403 13.806392 41.088448 z M 16.412435 42.562777 C 16.483689 42.661405 16.534193 42.771016 16.559713 42.894539 C 16.567043 42.909289 16.569799 42.915936 16.577799 42.931746 C 16.576899 42.948706 16.57562 42.960055 16.574699 42.976705 C 16.574875 42.978405 16.575048 42.979656 16.575216 42.981356 C 18.266617 45.341554 16.349045 42.249 16.412435 42.562777 z M 20.117118 41.347347 C 20.156995 41.621232 20.240138 41.847641 20.377568 41.998987 C 20.758358 42.800691 20.943795 43.106464 21.006986 43.141036 A 48 48 0 0 0 21.030758 43.12915 C 21.060769 42.961 20.504896 41.560803 20.117118 41.347347 z M 9.3658366 43.835567 C 9.4399365 43.899487 9.4371765 43.902937 9.3658366 43.835567 z " /><path
       style="fill:red;stroke:lime;stroke-width:0.5;stroke-linecap:round;stroke-linejoin:round;stroke-dasharray:none"
       d="m 29.28545,19.285305 h -20"
       id="path11048"
       sodipodi:nodetypes="cc" /><path
       style="fill:red;stroke:lime;stroke-width:0.5;stroke-linecap:round;stroke-linejoin:round;stroke-dasharray:none"
       d="M 19.28545,9.2853058 V 29.285305"
       id="path3310"
       sodipodi:nodetypes="cc" /></g></svg>
