<?xml version="1.0" encoding="UTF-8" standalone="no"?>
<!-- Created with Inkscape (http://www.inkscape.org/) -->

<svg
   width="10mm"
   height="10mm"
   viewBox="0 0 10 10"
   version="1.1"
   id="svg5"
   xml:space="preserve"
   inkscape:version="1.2.2 (732a01da63, 2022-12-09)"
   sodipodi:docname="despre.svg"
   xmlns:inkscape="http://www.inkscape.org/namespaces/inkscape"
   xmlns:sodipodi="http://sodipodi.sourceforge.net/DTD/sodipodi-0.dtd"
   xmlns="http://www.w3.org/2000/svg"
   xmlns:svg="http://www.w3.org/2000/svg"><sodipodi:namedview
     id="namedview7"
     pagecolor="#ffffff"
     bordercolor="#000000"
     borderopacity="0.25"
     inkscape:showpageshadow="2"
     inkscape:pageopacity="0.0"
     inkscape:pagecheckerboard="0"
     inkscape:deskcolor="#d1d1d1"
     inkscape:document-units="mm"
     showgrid="false"
     inkscape:zoom="5.6568543"
     inkscape:cx="32.880465"
     inkscape:cy="-14.672466"
     inkscape:window-width="1280"
     inkscape:window-height="971"
     inkscape:window-x="-8"
     inkscape:window-y="-8"
     inkscape:window-maximized="1"
     inkscape:current-layer="g2284"><inkscape:grid
       type="xygrid"
       id="grid1049"
       units="mm"
       spacingx="0.24999999"
       spacingy="0.99999997"
       empspacing="4" /></sodipodi:namedview><defs
     id="defs2">
  </defs><g
     inkscape:label="Layer 1"
     inkscape:groupmode="layer"
     id="g2284">
  <g
   id="g4366"
   transform="matrix(-1.0568865,0,0,1.017946,10.27494,0.59310708)"
   style="stroke-width:0.964102"><path
     style="fill:none;stroke:black;stroke-width:0.482051;stroke-linecap:round;stroke-linejoin:round;stroke-dasharray:none"
     d="m 0.49999997,8.9999997 c 0,0 1.99999993,-0.4999997 2.99999993,-0.4999997 0.9999999,0 1.2499999,0.4999997 1.2499999,0.4999997"
     id="path4362"
     sodipodi:nodetypes="csc" /></g><path
   style="fill:black;stroke:black;stroke-width:0.5;stroke-linecap:square;stroke-linejoin:round;stroke-dasharray:none"
   d="m 4.9972398,1.2499999 0.00552,8.4999712"
   id="path2652" /><path
   style="fill:yellow;stroke:black;stroke-width:0.499999;stroke-linecap:round;stroke-linejoin:round;stroke-dasharray:none"
   d="m 9.7500005,1.275 -1e-6,8.4796208"
   id="path2654"
   sodipodi:nodetypes="cc" /><path
   style="fill:yellow;stroke:black;stroke-width:0.5;stroke-linecap:round;stroke-linejoin:round;stroke-dasharray:none"
   d="m 0.24999999,1.25 -10e-9,8.4999996"
   id="path2705"
   sodipodi:nodetypes="cc" /><path
   style="fill:none;stroke:black;stroke-width:0.499999;stroke-linecap:round;stroke-linejoin:round;stroke-dasharray:none"
   d="m 0.25000001,1.2499994 c 0,0 2.11111109,-0.99999991 3.16666669,-0.99999991 1.5833333,0 1.5833332,0.99999991 1.5833332,0.99999991"
   id="path4215"
   sodipodi:nodetypes="csc" /><path
   style="fill:none;stroke:black;stroke-width:0.499999;stroke-linecap:round;stroke-linejoin:round;stroke-dasharray:none"
   d="m 9.7499998,1.2499994 c 0,0 -0.067096,-0.031782 -0.1833452,-0.084015 C 9.030828,0.92523023 7.4507088,0.24999949 6.5833331,0.24999949 c -1.5833333,0 -1.5833332,0.99999991 -1.5833332,0.99999991"
   id="path4217"
   sodipodi:nodetypes="cssc" /><path
   style="fill:none;stroke:black;stroke-width:0.499999;stroke-linecap:round;stroke-linejoin:round;stroke-dasharray:none"
   d="m 0.25000001,9.3055552 c 0,0 2.11111109,-1.0555555 3.16666669,-1.0555555 1.5833333,0 1.5833332,1.0555555 1.5833332,1.0555555"
   id="path4219"
   sodipodi:nodetypes="csc" /><path
   style="fill:none;stroke:black;stroke-width:0.499999;stroke-linecap:round;stroke-linejoin:round;stroke-dasharray:none"
   d="m 9.7499998,9.305555 c 0,0 -2.1111111,-1.0555555 -3.1666667,-1.0555555 -1.5833333,0 -1.5833332,1.0555555 -1.5833332,1.0555555"
   id="path4221"
   sodipodi:nodetypes="csc" /><g
   id="g4360"
   transform="translate(0,0.74999949)"><path
     style="fill:none;stroke:black;stroke-width:0.499999;stroke-linecap:round;stroke-linejoin:round;stroke-dasharray:none"
     d="m 0.24999998,9.0000001 c 0,0 2.11764692,-0.4999998 3.17647042,-0.4999998 1.0588234,0 1.3235293,0.4999998 1.3235293,0.4999998"
     id="path4227"
     sodipodi:nodetypes="csc" /></g><path
   style="fill:black;stroke:black;stroke-width:0.5;stroke-linecap:round;stroke-linejoin:round;stroke-dasharray:none"
   d="M 0.71112178,9.377528 C 0.72723332,9.3593564 1.3017409,9.111986 1.6122497,8.9895207 2.1537733,8.7759425 2.6601819,8.6193298 3.0386811,8.5483804 3.4629209,8.4688567 3.9423273,8.5174324 4.262946,8.6724285 4.4950464,8.7846324 4.6620982,8.9790591 4.7234517,9.2083978 4.7659149,9.3671264 4.7607106,9.3719593 4.6357203,9.2898654 4.5750868,9.2500411 4.4711656,9.1948477 4.4047849,9.167213 3.8637776,8.9419913 3.1921558,8.9399854 1.8808424,9.1596751 1.5727576,9.2112897 0.84989661,9.3490257 0.74414062,9.3762654 c -0.0227375,0.00586 -0.0375961,0.00642 -0.0330188,0.00127 z"
   id="path521" /><path
   style="fill:black;stroke:black;stroke-width:0.500002;stroke-linecap:round;stroke-linejoin:round;stroke-dasharray:none"
   d="M 9.1907309,9.3723352 C 8.8299188,9.2913487 7.9976781,9.1428029 7.5946306,9.0874486 7.0292168,9.0097955 6.5233856,8.9857081 6.2135847,9.0216843 5.8598913,9.0627574 5.549629,9.1668109 5.3343899,9.3165423 c -0.040503,0.028176 -0.076514,0.051229 -0.080025,0.051229 -0.00351,0 -0.00291,-0.027625 0.00135,-0.061388 0.041251,-0.3277431 0.270722,-0.5799791 0.6402224,-0.7037355 0.2227336,-0.0746 0.5725919,-0.1126075 0.8237286,-0.089487 0.5283041,0.048638 1.344667,0.312443 2.3566654,0.7615491 0.3167877,0.1405845 0.3207102,0.1439315 0.1144069,0.097625 z"
   id="path1264" /></g></svg>
