<?xml version="1.0" encoding="UTF-8" standalone="no"?>
<svg
   width="10mm"
   height="10mm"
   viewBox="0 0 37.795275 37.795275"
   version="1.1"
   id="svg13"
   sodipodi:docname="gb.svg"
   inkscape:version="1.2.2 (732a01da63, 2022-12-09)"
   xmlns:inkscape="http://www.inkscape.org/namespaces/inkscape"
   xmlns:sodipodi="http://sodipodi.sourceforge.net/DTD/sodipodi-0.dtd"
   xmlns="http://www.w3.org/2000/svg"
   xmlns:svg="http://www.w3.org/2000/svg">
  <defs
     id="defs17" />
  <sodipodi:namedview
     id="namedview15"
     pagecolor="#ffffff"
     bordercolor="#000000"
     borderopacity="0.25"
     inkscape:showpageshadow="2"
     inkscape:pageopacity="0.0"
     inkscape:pagecheckerboard="0"
     inkscape:deskcolor="#d1d1d1"
     showgrid="false"
     inkscape:document-units="mm"
     inkscape:zoom="19.208749"
     inkscape:cx="18.897639"
     inkscape:cy="18.897639"
     inkscape:window-width="1280"
     inkscape:window-height="971"
     inkscape:window-x="-8"
     inkscape:window-y="-8"
     inkscape:window-maximized="1"
     inkscape:current-layer="svg13" />
  <mask
     id="a">
    <circle
       cx="256"
       cy="256"
       r="256"
       fill="white"
       id="circle2" />
  </mask>
  <g
     mask="url(#a)"
     id="g11"
     transform="scale(0.0738189)"
     style="stroke-width:13.5467">
    <path
       fill="#eee"
       d="M 0,0 8,22 0,45 v 23 l 32,54 -32,54 v 32 l 32,48 -32,48 v 32 l 32,54 -32,54 v 68 l 22,-8 23,8 h 23 l 54,-32 54,32 h 32 l 48,-32 48,32 h 32 l 54,-32 54,32 h 68 l -8,-22 8,-23 v -23 l -32,-54 32,-54 v -32 l -32,-48 32,-48 V 176 L 480,122 512,68 V 0 L 490,8 467,0 H 444 L 390,32 336,0 H 304 L 256,32 208,0 H 176 L 122,32 68,0 Z"
       id="path5"
       style="stroke-width:183.512" />
    <path
       fill="#0052b4"
       d="M 336,0 V 108 L 444,0 Z M 512,68 404,176 H 512 Z M 0,176 H 108 L 0,68 Z M 68,0 176,108 V 0 Z M 176,512 V 404 L 68,512 Z M 0,444 108,336 H 0 Z M 512,336 H 404 L 512,444 Z M 444,512 336,404 v 108 z"
       id="path7"
       style="stroke-width:183.512" />
    <path
       fill="#d80027"
       d="m 0,0 v 45 l 131,131 h 45 z M 208,0 V 208 H 0 v 96 h 208 v 208 h 96 V 304 H 512 V 208 H 304 V 0 Z M 467,0 336,131 v 45 L 512,0 Z M 176,336 0,512 H 45 L 176,381 Z m 160,0 176,176 V 467 L 381,336 Z"
       id="path9"
       style="stroke-width:183.512" />
  </g>
</svg>
