<?xml version="1.0" encoding="UTF-8" standalone="no"?>
<svg
   width="16"
   height="16"
   fill="currentColor"
   class="bi bi-google"
   viewBox="0 0 16 16"
   version="1.1"
   id="svg4"
   sodipodi:docname="google.svg"
   inkscape:version="1.2.2 (732a01da63, 2022-12-09)"
   xmlns:inkscape="http://www.inkscape.org/namespaces/inkscape"
   xmlns:sodipodi="http://sodipodi.sourceforge.net/DTD/sodipodi-0.dtd"
   xmlns="http://www.w3.org/2000/svg"
   xmlns:svg="http://www.w3.org/2000/svg">
  <defs
     id="defs8">
    <inkscape:path-effect
       effect="fill_between_many"
       method="originald"
       linkedpaths="#path5407,0,1|#circle5461,0,1|#path901,0,1|#path1008,0,1|#path1010,0,1|#path1013,0,1"
       id="path-effect1224" />
    <inkscape:path-effect
       effect="fill_between_many"
       method="originald"
       linkedpaths="#path1013,0,1|"
       id="path-effect3166" />
  </defs>
  <sodipodi:namedview
     id="namedview6"
     pagecolor="#ffffff"
     bordercolor="#000000"
     borderopacity="0.25"
     inkscape:showpageshadow="2"
     inkscape:pageopacity="0.0"
     inkscape:pagecheckerboard="0"
     inkscape:deskcolor="#d1d1d1"
     showgrid="false"
     inkscape:zoom="4"
     inkscape:cx="10.5"
     inkscape:cy="-6.5"
     inkscape:window-width="1280"
     inkscape:window-height="971"
     inkscape:window-x="-8"
     inkscape:window-y="-8"
     inkscape:window-maximized="1"
     inkscape:current-layer="svg4">
    <inkscape:grid
       type="xygrid"
       id="grid1990"
       originx="8"
       originy="8"
       units="px"
       spacingx="0.5"
       spacingy="0.5"
       empspacing="2" />
  </sodipodi:namedview>
  <path
     style="fill:none;stroke:green;stroke-width:0.1;stroke-linecap:round;stroke-linejoin:round"
     d="M 11.535534,4.4644659 C 9.8488233,2.7777552 7.2055106,2.5174117 5.2221487,3.842652 3.2387868,5.1678922 2.4677611,7.7096236 3.3806024,9.9134173 4.2934438,12.117211 6.6359169,13.369289 8.9754517,12.903926 10.804501,12.540105 12.2335,11.205783 12.77003,9.5009708"
     id="path6947" />
  <path
     style="fill:none;stroke:green;stroke-width:0.1;stroke-linecap:round;stroke-linejoin:round"
     d="M 15.858015,6.4994647 C 15.952461,6.9940601 16,7.4964678 16,8 v 0 c 0,4.418278 -3.581722,8 -8,8 C 3.581722,16 0,12.418278 0,8 0,3.581722 3.581722,0 8,0 c 2.12144,-1.4949873e-7 4.156016,0.84262328 5.656259,2.34255"
     id="path6945" />
  <path
     style="fill:none;stroke:green;stroke-width:0.1;stroke-linecap:round;stroke-linejoin:round"
     d="M 13.656259,2.34255 11.535534,4.4644659"
     id="path1013" />
  <path
     id="path7005"
     style="fill:black;stroke:none;stroke-width:0.1;stroke-linecap:round;stroke-linejoin:round"
     d="M 7.5351562 0.013671875 A 8 8 0 0 0 2.4804688 2.2089844 A 8 8 0 0 0 2.0761719 13.376953 A 8 8 0 0 0 13.232422 14.050781 A 8 8 0 0 0 15.855469 6.5019531 A 8 8 0 0 0 15.855469 6.5 L 12.767578 6.5 L 8 6.5 L 8 9.5 L 12.767578 9.5 A 5.0000825 5.0000825 0 0 1 11.271484 11.78125 A 5.0000825 5.0000825 0 0 1 4.2988281 11.361328 A 5.0000825 5.0000825 0 0 1 4.5507812 4.3808594 A 5.0000825 5.0000825 0 0 1 7.7089844 3.0078125 A 5.0000825 5.0000825 0 0 1 11.535156 4.4648438 L 13.65625 2.34375 A 8 8 0 0 0 7.5351562 0.013671875 z " />
</svg>
