<?xml version="1.0" encoding="UTF-8" standalone="no"?>
<!-- Created with Inkscape (http://www.inkscape.org/) -->

<svg
   width="24mm"
   height="23.999998mm"
   viewBox="0 0 24.000001 23.999999"
   version="1.1"
   id="svg5"
   xml:space="preserve"
   inkscape:version="1.2.2 (732a01da63, 2022-12-09)"
   sodipodi:docname="plateste-buton-mic-sting.svg"
   xmlns:inkscape="http://www.inkscape.org/namespaces/inkscape"
   xmlns:sodipodi="http://sodipodi.sourceforge.net/DTD/sodipodi-0.dtd"
   xmlns="http://www.w3.org/2000/svg"
   xmlns:svg="http://www.w3.org/2000/svg"><sodipodi:namedview
     id="namedview7"
     pagecolor="#ffffff"
     bordercolor="#000000"
     borderopacity="0.25"
     inkscape:showpageshadow="2"
     inkscape:pageopacity="0.0"
     inkscape:pagecheckerboard="0"
     inkscape:deskcolor="#d1d1d1"
     inkscape:document-units="mm"
     showgrid="false"
     inkscape:zoom="2.0000001"
     inkscape:cx="29.749999"
     inkscape:cy="66.999997"
     inkscape:window-width="1280"
     inkscape:window-height="971"
     inkscape:window-x="-8"
     inkscape:window-y="-8"
     inkscape:window-maximized="1"
     inkscape:current-layer="layer1"><inkscape:grid
       type="xygrid"
       id="grid1049"
       units="mm"
       spacingx="0.24999999"
       spacingy="1.9999999"
       originx="-5.8578659"
       originy="-5.8578672"
       empspacing="10" /></sodipodi:namedview><defs
     id="defs2" /><g
     inkscape:label="Layer 1"
     inkscape:groupmode="layer"
     id="layer1"
     transform="translate(-5.8578644,-5.8578657)"><g
       id="path17247"
       transform="matrix(-0.44559001,0,0,0.44260768,32.466598,5.8578656)"
       style="stroke-width:2.25177" /><g
       id="path3310-9"
       transform="matrix(-0.44559001,0,0,0.44260768,32.466598,5.8578656)"
       style="stroke-width:2.25177" /><g
       id="path7525"
       transform="matrix(-0.44559001,0,0,0.44260768,32.466598,5.8578656)"
       style="stroke-width:2.25177" /><g
       id="path3310-7"
       transform="matrix(-0.44559001,0,0,0.44260768,32.466598,5.8578656)"
       style="stroke-width:2.25177" /><path
       id="path1110"
       style="fill:black;stroke:none;stroke-width:0.0999999;stroke-linecap:round;stroke-linejoin:round"
       d="m 23.857824,12.560193 -9.7e-5,0.0026 c -0.0619,0.0328 -0.247432,0.125779 -0.410851,0.198258 0.07711,-0.109914 0.223075,-0.202461 0.410988,-0.200816 z m -0.410988,0.200816 c -0.04374,0.06235 -0.06551,0.130072 -0.0593,0.189765 -0.241018,-0.104187 -0.675312,0.08857 -0.534596,0.23788 0.275507,-0.05112 0.212456,0.06206 0.172184,0.148388 -0.05398,-0.0036 -0.104159,-0.01267 -0.142875,-0.03221 -0.198096,-0.339665 -0.391617,0.06357 -0.580866,0.189494 -0.139626,0.150545 -0.37161,0.294098 -0.454285,0.448927 0.341273,-0.198986 0.696694,-0.255742 1.047892,-0.315647 -0.08775,0.02019 -0.168236,0.05903 -0.222652,0.128454 -0.238146,0.09087 -0.26547,0.21586 -0.195113,0.309177 -0.176926,-9.79e-4 -0.360288,0.08373 -0.517502,0.210926 0.0084,0.06527 0.01425,0.106339 0.01846,0.133293 -0.01908,-0.09907 -0.0843,-0.373406 -0.205292,-0.428723 -0.291326,0.210655 -0.556418,0.490575 -0.817227,0.743696 -0.644681,0.626374 0.381127,-0.339375 0.677201,-0.170761 0.0093,0.02644 0.02347,0.04694 0.04109,0.06308 -0.08167,0.01128 -0.09743,0.03093 -0.05169,0.05459 -0.05608,0.0081 -0.108139,0.03249 -0.150463,0.08209 -0.590745,0.258495 0.808037,0.317071 0.296604,0.334787 0.107549,0.353697 0.0735,0.136672 -0.194435,-0.03329 -0.378521,-0.215004 -0.506961,0.07556 -0.472726,0.305268 -0.294202,-0.284282 -0.72892,-0.226516 -0.991991,0.13545 -0.36132,0.501045 -0.574911,1.100505 -1.103522,1.43739 0.190612,-0.09381 0.710926,-0.336111 1.009901,-0.498269 0.364345,-0.09436 0.711784,-0.30477 1.009628,-0.494089 0.568538,-0.09275 0.942928,-0.525653 1.412613,-0.82173 0.197889,-0.09124 0.954201,-0.790394 0.610309,-0.453657 -0.03907,0.131768 0.01632,0.160351 0.100136,0.147175 -0.02595,0.0155 -0.04922,0.03547 -0.06838,0.06105 -0.10306,-0.01038 -0.190711,0.01017 -0.255358,0.04164 -0.0082,3.57e-4 -0.01703,2.26e-4 -0.02483,8.9e-4 -0.169621,0.06396 -0.878891,0.643444 -0.548709,0.565657 0.229679,0.04381 0.516461,0.01736 0.792398,-0.04488 -0.03328,0.0068 -0.06773,0.0176 -0.103799,0.03396 -0.212787,0.0084 -0.277881,0.05078 -0.26187,0.100546 -0.03116,-0.005 -0.05862,-0.0072 -0.07748,-0.0037 -0.318381,-0.01675 -0.267158,0.0834 -0.15631,0.175882 -0.355525,-0.166047 -0.774628,0.02057 -1.047757,0.303111 -0.489808,0.2918 0.193148,0.455069 0.349387,0.154319 0.293077,-0.282951 0.690399,-0.131848 1.031068,-0.185048 -0.04921,0.05951 0.0014,0.131932 0.09891,0.195965 -0.121974,-0.05093 -0.246641,-0.09246 -0.309496,-0.07939 -0.178876,-0.02338 -0.2766,-0.01023 -0.295114,0.02224 -0.25041,-0.08337 -0.557608,-0.07184 -0.44613,0.216993 0.267495,0.08349 0.565654,0.126914 0.849113,0.174399 -0.21078,0.04914 -0.383037,0.259122 0.0905,0.258638 -0.109704,0.08377 -0.649872,-0.215514 -0.887377,-0.2988 -0.441864,-0.396862 -0.435016,0.909502 -0.510846,0.288567 -0.09278,-0.598955 -0.535452,-0.506887 -0.913292,-0.224538 -0.2747,0.07431 -0.235941,0.171903 -0.132022,0.242464 -0.323394,0.05474 -0.974654,0.232099 -0.451695,0.440447 0.495635,0.29352 1.11773,-0.597279 1.448161,-0.100004 -0.15688,-0.01248 -0.314746,-0.02541 -0.490907,-0.02803 -0.30056,0.04688 -0.348279,0.136686 -0.221163,0.196911 -0.153962,0.006 -0.291987,0.06997 -0.432562,0.187204 -0.433206,-0.469335 -0.671643,0.175921 -1.062275,0.394895 -0.106489,-0.197595 -0.815621,0.255527 -0.373676,0.256074 0.366016,0.237201 0.737979,0.258036 1.0445,-0.116582 0.207655,-0.131108 0.607778,-0.391135 0.940158,-0.33155 0.338462,-0.497639 0.857247,-0.231598 1.345444,-0.356769 -0.04402,0.05178 -0.697868,0.02708 -0.938123,0.214565 -0.161954,0.140239 -0.158624,0.184739 -0.08291,0.188013 -0.09384,0.02883 -0.178006,0.06362 -0.230394,0.103912 -0.220714,0.154425 -1.137331,0.236817 -0.875572,0.565656 0.379647,-0.04295 0.604799,-0.127539 0.910579,-0.448131 0.16773,-0.09297 0.354433,-0.224897 0.54423,-0.280335 0.08414,-0.01647 0.160328,-0.0277 0.202849,-0.01846 0.0024,-0.0021 0.0029,-0.0039 0.0026,-0.0055 0.05,0.0039 0.09989,0.01516 0.149253,0.0376 0.04062,-0.0049 0.120542,-0.03607 0.213975,-0.07817 0.0054,0.0093 0.01306,0.01874 0.02252,0.02831 -0.193257,0.03354 -0.522436,0.191146 -0.512751,0.33209 -0.101703,-0.02547 -0.20321,-0.01098 -0.264042,0.09515 -0.438618,0.193967 -0.212445,0.466316 0.01493,0.380204 0.242538,0.07192 0.444103,0.03883 0.664175,0.0042 -0.0063,0.05496 0.05955,0.139849 0.16065,0.217932 -0.288084,-0.171032 -0.666297,-0.178543 -0.932695,0.0032 -0.340585,-0.09023 -0.246748,0.226418 0.142874,0.19098 -0.0066,0.421234 -0.49617,0.02034 -0.581543,-0.351093 -0.130184,-0.236129 -1.155195,0.0245 -0.712752,0.314972 0.100849,0.119694 0.264561,0.206231 0.443825,0.248933 -0.06998,0.03375 -0.09909,0.07679 -0.09905,0.125477 -0.205517,-0.147976 -0.437138,0.04809 -0.575166,0.280337 0.264044,0.116329 0.470126,0.368433 0.694027,0.56916 -0.02816,6.19e-4 -0.03223,0.06013 0.0072,0.202703 0.0931,0.261151 -0.184263,-0.329835 -0.363904,-0.384115 -0.09259,-0.08285 -0.231389,-0.213315 -0.367842,-0.33357 -0.05068,0.09751 -0.08432,0.197081 -0.09091,0.276966 0.0199,0.08985 0.02815,0.154645 0.0289,0.199739 0.184616,0.164553 0.171787,0.154351 2.81e-4,0.005 8.47e-4,0.142583 -0.07767,0.06938 -0.102166,-0.08222 -0.0179,0.246599 0.05138,0.153397 -0.206377,-0.104317 -0.05309,-0.223279 -0.260075,-0.263092 -0.440296,-0.221033 0.127721,0.34918 -0.0079,0.251194 -0.09213,0.02952 -0.189029,0.07785 -0.300915,0.239649 -0.0635,0.333572 0.332916,0.0051 0.586683,0.245561 0.82279,0.474817 0.340626,0.285072 0.09209,0.153209 -0.107599,-0.05579 -0.269947,-0.273021 -0.319734,-0.273422 -0.04586,0.09111 0.4357,0.469696 -0.03793,0.03305 -0.210989,-0.144884 -0.306117,-0.293577 -0.562361,-0.200879 -0.21316,0.157555 0.09264,0.189913 0.484636,0.434296 0.513566,0.533714 -0.586971,-0.445705 0.147478,0.607287 -0.116688,0.426837 -0.08767,-0.392923 -0.331219,-0.704744 -0.548709,-1.056513 -0.186037,-0.663148 -0.256393,0.22345 -0.02334,0.512286 -0.214454,-0.21834 -0.08322,0.0597 -0.04342,0.25257 -0.07651,-0.151754 -0.250974,-0.412821 -0.250609,-0.546787 0.02519,-0.490876 -0.298889,0.369352 -0.126187,0.507568 -0.03319,0.129916 -0.04183,0.274515 -0.01831,0.406216 -0.0096,-0.01621 -0.01904,-0.0311 -0.02837,-0.0434 -0.268069,-0.398211 -0.313929,-0.08765 -0.225102,0.176015 -0.103684,0.277796 0.546385,1.047476 0.0384,0.571048 0.03969,0.518936 0.01195,0.140469 -0.05264,-0.223999 -0.0634,-0.448299 -0.404829,0.324324 -0.354815,0.665527 -0.0373,-0.0204 -0.06567,0.02151 -0.06255,0.197177 -0.301554,0.53316 0.08037,-0.243954 0.03799,-0.457296 0.05394,-0.261539 -0.03578,-0.268699 -0.147353,-0.201357 0.225943,-0.326018 0.378906,-0.832834 -0.0043,-0.577652 -0.149217,0.082 -0.697691,0.197847 -0.437177,0.483713 0.47271,0.109167 -0.154162,0.659346 0.01683,0.135046 -0.545015,-0.466373 0.32499,-0.717679 0.595382,-0.971053 0.280547,-0.380586 0.392507,-0.864206 0.556307,-1.286036 -0.168715,-0.725666 -0.239633,0.113334 -0.639481,0.182758 -0.259865,0.04784 -0.194573,0.366042 -0.108548,0.593555 -0.202166,-0.31835 -0.167802,0.922947 -0.216824,0.477782 -0.312223,-0.20429 0.252083,-1.212501 -0.244501,-0.787634 -0.297569,0.09969 -0.11968,0.538842 2.71e-4,0.7503 -0.2972,-0.182649 -0.417414,-0.521292 -0.17137,-0.739922 0.219242,-0.449726 0.894168,-0.36814 0.987511,-0.898284 0.05371,-0.452282 -0.463612,-0.162093 -0.744093,-0.148255 -0.424143,0.05788 -0.436126,0.450715 -0.374761,0.766204 -0.02864,-0.06229 -0.06964,-0.10306 -0.127407,-0.08464 -0.267126,0.344193 -0.477243,0.944603 -0.01519,1.184011 -0.02353,-0.03862 -0.04023,-0.08411 -0.04586,-0.137876 0.04116,0.0484 0.07323,0.103086 0.09851,0.162403 0.03738,0.01553 0.07816,0.02924 0.123202,0.04043 0.490116,0.103534 0.115255,0.195192 -0.09987,0.02116 0.0832,0.247516 0.07068,0.559271 0.104069,0.830761 0.128398,0.471704 -0.02431,-0.02346 -0.09905,0.04879 0.01105,-0.235096 -0.04678,-0.711981 -0.20868,-0.879416 -0.01184,0.07758 0.150558,0.716111 -0.0088,0.987911 -1.76e-4,0.07422 0.01951,0.132486 0.05157,0.180059 -0.01673,0.02237 -0.01008,0.132395 -0.0076,0.336806 -0.08153,0.16061 -0.351239,-0.453497 -0.32225,-0.646252 -0.09201,-0.01452 -0.131224,0.04066 -0.136892,0.130342 -0.163611,0.178226 -0.415382,0.520624 -0.241383,0.729275 0.0062,0.0063 0.0069,0.0065 0.01045,0.0098 -0.04567,-0.03911 -0.215461,-0.157665 -0.285615,0.06186 0.03264,0.03941 0.04114,0.06528 0.0067,0.06672 0.20544,0.682267 -0.253542,-0.09631 -0.424693,-0.277909 -0.08584,-0.180006 -0.135003,-0.256098 -0.160516,-0.265778 0.0274,0.01257 0.0608,0.0255 0.102848,0.03895 0.09612,0.105932 0.377907,0.322611 0.472589,0.434384 0.04221,-0.413288 0.09952,-0.755608 0.371504,-1.031579 0.292476,-0.261162 0.329608,-0.755415 0.256987,-1.106783 -0.144001,-0.248158 -0.691704,0.616199 -0.618722,0.928475 0.02167,0.614301 0.0059,-0.193077 -0.105426,-0.07952 -0.352095,0.626745 0.148865,-0.501122 -0.206648,-0.147579 -0.403246,0.590694 -0.03046,-0.782235 0.04355,-0.466596 0.05537,0.827479 0.502464,-0.211391 0.408547,-0.501637 0.0077,-0.03912 0.01039,-0.07023 0.0099,-0.09596 0.06098,0.150528 0.109401,0.353913 0.258343,0.192191 0.352326,-0.244075 0.07945,-0.740625 0.245317,-1.077942 0.20671,-0.218597 0.298346,-1.078325 -0.01167,-0.480208 -0.09044,0.34376 -0.453062,0.558943 -0.55427,0.841139 -0.141528,0.257921 -0.432986,0.462524 -0.426322,0.780895 -0.05837,0.134999 -0.114684,0.281783 -0.15278,0.431149 -0.0893,-0.02853 -0.269421,0.02104 -0.122521,-0.156341 0.212459,-0.202276 0.346358,-1.014606 -0.03989,-0.41363 -0.189953,0.308168 -0.119551,0.666228 -0.245046,1.013788 -0.144757,0.202113 -0.06883,0.532803 0.104476,0.688438 -0.01095,0.05533 -0.02787,0.152879 -0.05983,0.280739 -0.227212,0.266715 -0.211913,0.564963 -0.04952,0.733723 -0.151349,-0.05265 -0.136201,-0.311014 -0.101085,-0.495842 -0.153289,0.399039 0.01376,0.675682 -0.03406,1.119183 -0.100087,0.514903 0.0289,-0.138169 -0.116688,0.10688 -0.312562,0.555049 0.03943,-0.07194 0.0867,-0.30109 -0.406484,-0.369536 0.0045,-0.781402 0.04165,-1.246278 -0.153622,0.314827 -0.562201,0.668318 -0.674894,0.941009 0.0012,-0.02949 -9.81e-4,-0.05019 -0.0061,-0.06307 -0.02617,0.04913 -0.19303,0.306999 -0.283038,0.465113 -0.10452,-0.111644 0.21744,-0.915338 0.625506,-1.076324 0.09434,-0.189821 0.724788,-1.130048 0.160786,-0.637896 -0.244564,0.268977 -0.398722,0.288906 -0.06527,-0.05377 0.404792,-0.383104 0.08467,-0.238016 -0.179646,0.02763 -0.487843,0.471752 0.06948,-0.224884 0.277475,-0.359853 0.421295,-0.609548 -0.537031,0.392282 -0.250338,-0.07278 0.462425,-0.522225 -0.310042,0.02524 -0.456714,0.09354 0.269275,-0.354496 0.855995,-0.389328 0.843008,-0.912571 0.42794,-0.590345 -0.506776,-0.335978 -0.586158,0.0589 -0.148204,0.234832 -0.497505,0.609979 -0.315195,1.035219 0.274309,0.176534 -0.119986,1.156954 -0.192671,0.701241 0.01696,-0.261501 -0.01179,-0.288994 -0.06526,-0.222921 0.03824,-0.184864 0.02478,-0.391098 0.02442,-0.578055 -0.03458,-0.05418 -0.214631,0.129389 -0.341924,0.355271 -0.432885,0.225326 -0.900122,0.558315 -0.87218,1.089128 -0.01753,0.03606 -0.06928,0.141931 -0.131071,0.265375 0.11358,-0.102415 0.294006,-0.252623 0.387923,-0.350687 0.102645,-0.289894 0.388916,-0.672435 0.564448,-0.905428 -0.07552,0.163644 -0.111346,0.334556 -0.03908,0.446379 -0.291675,0.4638 0.387027,0.5618 0.163364,1.003276 0.21204,0.109754 0.113131,1.065037 -0.114246,0.596385 -0.117151,-0.249211 -0.191714,-0.514451 -0.235006,-0.786015 -0.03757,-0.04667 -0.06851,-0.04568 -0.08262,0.05096 -0.196715,0.22741 -0.277811,0.976647 -0.245182,0.992494 0.02089,-0.656601 0.05389,0.39553 -0.116688,0.128038 0.07403,-0.339161 -0.03342,-0.02042 -0.116826,0.09946 -0.02433,0.002 -0.04866,0.004 -0.073,0.006 -0.005,-0.02095 -0.0081,-0.05155 -0.0086,-0.09475 -0.24058,-0.508432 0.273529,-0.891325 0.420215,-1.344663 -0.282251,0.262461 -1.041837,1.205832 -1.319125,1.475936 l -8e-6,-0.01132 c 0.02192,-0.131972 0.732672,-0.94213 0.825481,-1.055985 0.15847,-0.169416 0.627017,-0.488644 0.108411,-0.248528 -0.07837,0.04571 -0.130617,0.07378 -0.165804,0.09044 -0.163447,0.322708 -0.357984,0.68502 -0.231071,0.314973 0.285245,-0.635113 -0.01716,0.02934 -0.284939,0.201355 -0.390424,-0.06742 0.519714,-0.510038 0.491179,-0.792485 0.182475,-0.339119 0.09137,-0.284885 -0.04737,-0.158493 0.137327,-0.153802 0.278704,-0.358886 0.226321,-0.498942 -0.308127,0.237402 -0.614355,0.550811 -0.922247,0.821866 0.01143,-0.357743 0.695854,-0.823332 0.625234,-0.733183 0.563113,-0.315736 1.064838,-0.682582 1.417769,-1.241156 0.244144,-0.267286 0.948851,-1.109959 0.217773,-0.721054 -0.04872,0.07567 -0.202743,0.256625 -0.332699,0.40689 0.184532,-0.292138 0.07301,-0.271058 -0.09606,-0.131812 0.16584,-0.157983 0.372769,-0.373404 0.596197,-0.439776 0.694086,0.05558 0.822968,-0.698359 1.272044,-0.988046 0.460776,-0.102797 0.482949,-0.548315 0.689276,-0.911493 0.0667,-0.302582 0.06235,-0.568396 -0.116823,-0.917828 -0.499115,-0.453378 -0.967997,-0.940397 -1.446129,-1.416362 L 5.8578644,8.4736806 V 5.8578657 l 9.5388186,9.4810483 c 0.312545,0.332297 0.643182,0.642945 1.040158,0.87389 0.246914,0.161389 0.662067,0.412656 0.818448,0.485734 0.401581,0.169578 0.790734,0.104354 1.176656,-0.05607 0.214184,-0.165992 0.409992,-0.421613 0.612345,-0.496517 0.435436,-0.13853 0.831278,-0.486641 1.094568,-0.866747 0.20364,-0.35816 0.566409,-0.753021 0.700403,-1.088589 0.266256,-0.293555 0.627147,-0.540809 0.909766,-0.851516 0.391322,-0.333796 0.05867,-0.03099 -0.100407,0.150949 -0.23476,0.279952 -0.647257,0.458701 -0.694298,0.824965 0.506248,-0.318583 0.90093,-0.808598 1.379233,-1.170128 0.300098,0.05304 0.811126,-0.811517 0.665397,-0.458914 -0.03991,0.05586 -0.06125,0.09068 -0.07123,0.112406 -0.285206,0.244139 0.560214,-0.196079 0.419809,-0.09326 -0.280576,0.204752 -0.118094,0.152355 0.09932,0.05593 z m -0.519129,0.03734 c 0.02763,-0.02362 0.06196,-0.05147 0.112753,-0.08909 0.119195,-0.109432 0.167757,-0.148957 0.174489,-0.149065 0.02049,-3.16e-4 -0.344662,0.363024 -0.287244,0.238152 z m -9.841065,8.523259 c -0.04105,0.03914 -0.08034,0.07567 -0.115874,0.104452 0.04004,-0.03989 0.07883,-0.07392 0.115874,-0.104452 z m 0.09606,0.131812 c -0.0076,0.01195 -0.01423,0.02297 -0.02279,0.03599 -0.285225,0.314048 -0.15581,0.170533 0.02279,-0.03599 z m -1.232151,1.965579 c -0.130588,0.146251 -0.257499,0.246279 -0.210177,0.198661 0.06478,-0.05991 0.142705,-0.137179 0.210177,-0.198661 z m 1.070957,-0.913379 c 0.01543,-0.03342 0.03271,-0.06614 0.05089,-0.09839 0.01276,-0.0067 0.0257,-0.01418 0.03838,-0.02063 -0.0221,0.03006 -0.05768,0.07706 -0.08928,0.119009 z m 0.368383,0.124399 c -0.03453,0.166939 -0.111136,0.316548 -0.279102,0.418076 0.104462,-0.101636 0.211562,-0.334612 0.279102,-0.418076 z m 0.493621,1.017562 c -0.0017,0.03917 -0.0093,0.09355 -0.02564,0.168875 -0.01034,-0.05133 5.79e-4,-0.108203 0.02564,-0.168875 z m 0.798368,-0.12386 c 0.02398,0.0084 0.05158,0.01209 0.08453,0.0089 0.137855,-0.0044 0.225959,0.03619 0.279781,0.100813 0.03049,-0.07425 0.104836,-0.102194 0.270963,-0.04138 -0.09,0.03936 -0.174889,0.05989 -0.253186,0.0655 0.138857,0.212838 -0.02385,0.627734 -0.07367,0.681565 0.120934,-0.165406 0.0036,-0.509767 0.04749,-0.680218 -0.149274,0.0043 -0.272109,-0.0481 -0.3559,-0.13518 z m 0.109362,-1.014464 c 0.01294,-0.0654 0.01814,-0.06096 0.02726,0.02238 -0.0093,-0.0069 -0.01844,-0.01443 -0.02726,-0.02238 z m 0.02726,0.02238 c 0.03626,0.02715 0.07612,0.04669 0.118588,0.05647 -0.04697,0.03548 -0.04716,0.07873 0.06269,0.129252 -0.06456,-0.02207 0.02701,0.39295 0.05753,0.613098 -0.29056,0.05373 -0.142606,-0.4545 -0.219402,-0.605281 -0.0094,-0.0938 -0.01467,-0.150294 -0.0194,-0.193538 z m 0.118588,0.05647 c 0.07336,-0.05543 0.255992,-0.09145 0.311396,-0.107147 -0.109804,0.101757 -0.216995,0.12889 -0.311396,0.107147 z m 0.311396,-0.107147 c 0.0034,-0.0031 0.0068,-0.0058 0.01017,-0.0091 0.01484,8.41e-4 0.0069,0.0042 -0.01017,0.0091 z m -0.154273,-1.103953 c 0.05531,0.01767 0.07416,0.06655 -0.04017,0.217125 0.0077,-0.07237 0.02176,-0.144983 0.04017,-0.217125 z m -0.04017,0.217125 c -0.03146,0.297679 0.04421,0.588712 0.364449,0.802053 0.299774,0.452146 -0.0047,0.0593 -0.197421,-0.08666 -0.289491,-0.184969 -0.441282,-0.388592 -0.178696,-0.69922 0.0047,-0.0061 0.0073,-0.01043 0.01168,-0.01617 z m 0.681549,-0.904357 c -0.01386,-0.0342 -0.02827,-0.06613 -0.04477,-0.0899 0.02655,0.0085 0.04376,0.03564 0.04477,0.0899 z m -0.04477,-0.0899 c -0.05593,-0.01801 -0.151806,0.04397 -0.221573,0.0996 0.110841,-0.172774 0.174382,-0.167581 0.221573,-0.0996 z m -0.221573,0.0996 c -2.45e-4,3.83e-4 -4.09e-4,7.08e-4 -6.69e-4,0.0011 -0.133266,0.128494 -0.08742,0.06919 6.69e-4,-0.0011 z m 0.395385,2.433253 c 0.01296,0.01112 0.01248,0.01171 0,0 z m 0.230943,-0.739119 c 0.07356,-0.08014 0.129321,-0.127204 0.120497,-0.113741 -0.04486,0.04212 -0.08415,0.126542 -0.113704,0.22292 -0.0059,-0.03967 -0.0088,-0.07689 -0.0068,-0.109169 z m 0.0068,0.109168 c 0.03287,0.221932 0.175193,0.533407 0.277202,0.652184 0.200889,0.527391 -0.257467,-0.465694 -0.04667,0.170761 0.120974,0.584239 -0.312027,0.08347 -0.124421,-0.402038 -0.193645,0.237361 -0.191462,-0.142534 -0.106106,-0.420907 z m 0.45997,0.06995 c 0.01156,-0.01548 0.03615,0.01433 0.07964,0.08236 -0.03079,-0.02352 -0.05813,-0.05041 -0.07964,-0.08236 z m 0.07964,0.08236 c 0.147237,0.112489 0.375719,0.145713 0.456171,0.256344 0.0014,0.0072 0.0099,0.02626 0.02578,0.05768 9.81e-4,0.0047 0.0021,0.0093 0.0026,0.01429 -0.03382,0.607458 -0.141082,0.03677 -0.373404,-0.148525 -0.04811,-0.07827 -0.08291,-0.135662 -0.111124,-0.179792 z m 0.484529,0.328315 c 1.89e-4,-0.0028 3.91e-4,-0.0049 5.79e-4,-0.0078 -0.0014,-0.0028 -0.0018,-0.0039 -0.0031,-0.0065 -0.0045,-0.02148 -0.01329,-0.04054 -0.02578,-0.05768 -0.01111,-0.05455 0.324564,0.483155 0.0285,0.07278 -2.9e-5,-2.8e-4 -8.5e-5,-5.31e-4 -1.57e-4,-7.97e-4 z M 16.72829,22.284176 c -0.0037,0.07959 -0.01535,0.131685 -0.03352,0.134373 0.0055,-0.07956 0.01781,-0.119196 0.03352,-0.134373 z m 0.0616,-2.065043 c 0.08738,0.19006 0.05828,0.582742 0.02809,0.123724 -0.01022,-0.03902 -0.01971,-0.0808 -0.02809,-0.123724 z m 0.302712,1.020256 c 0.01492,0.0092 0.02993,0.0182 0.04573,0.02656 0.07425,0.142689 0.02394,0.09626 -0.04573,-0.02656 z m 0.461056,-0.44045 c 0.01831,0.02885 0.03835,0.06926 0.06079,0.126152 0.111276,0.210682 0.01683,0.07912 -0.06079,-0.126152 z m 0.02103,1.439682 c -0.08915,0.128631 -0.18923,0.230015 -0.272862,0.243946 -0.07025,0.07657 0.121478,-0.152575 0.272862,-0.243946 z m 0.171913,0.461475 c 0.103823,0.05677 0.278243,0.599888 0.04558,0.113348 -0.02404,-0.02633 -0.03861,-0.06573 -0.04558,-0.113348 z M 18.369097,21.5549 c 0.04219,0.07099 0.08719,0.175802 0.131072,0.284512 -0.06994,-0.07498 -0.111571,-0.175284 -0.131072,-0.284512 z m 0.131072,0.284512 c 0.03878,0.04157 0.08612,0.07529 0.142877,0.09866 -0.107095,0.02896 -0.0514,0.160979 0.08629,0.355541 -0.04697,0.02612 -0.135639,-0.222455 -0.22917,-0.454198 z m 0.142877,0.09866 c 0.05065,-0.0137 0.137411,-0.0045 0.26974,0.03234 -0.107109,0.01085 -0.196214,-0.002 -0.26974,-0.03234 z m 0.121191,-0.750159 c 0.03833,0.07603 0.05251,0.125133 0.007,0.116044 0.007,-0.02841 0.0026,-0.06981 -0.007,-0.116044 z m 1.664172,-1.113927 c 0.01889,-4.05e-4 0.04853,0.02545 0.08358,0.07156 -0.02822,-0.02277 -0.05604,-0.04688 -0.08358,-0.07156 z m -0.11886,-0.849495 c 0.05399,0.03888 0.106235,0.101016 0.154273,0.193001 0.01798,0.03122 0.03216,0.0626 0.04451,0.09367 -0.10983,-0.0986 -0.198711,-0.201137 -0.198776,-0.28667 z m 0.198776,0.286669 c 0.147905,0.132788 0.333441,0.258313 0.392129,0.325217 0.155159,0.627462 -0.06199,-0.235782 -0.360513,-0.227638 -0.0078,-0.03129 -0.01827,-0.06399 -0.03162,-0.09758 z m 0.03161,0.09758 c 0.05626,0.226263 -0.01888,0.364826 -0.02807,0.0033 0.0094,-0.002 0.01883,-0.003 0.02807,-0.0033 z m -0.131342,-0.50973 c 0.007,-0.0034 0.0137,-0.0068 0.02158,-0.01 0.09588,-0.0279 0.197015,-0.009 0.294435,0.03719 -0.104699,0.0071 -0.212794,-0.0027 -0.316009,-0.02723 z m 0.316008,0.02723 c 0.108515,-0.0074 0.213145,-0.03224 0.303662,-0.07858 0.0032,0.01379 0.01002,0.02602 0.01967,0.03667 -0.0706,-0.0029 -0.134961,0.0084 -0.185073,0.04232 0.141186,0.13268 0.209078,0.231809 0.259294,0.346376 -0.09993,-0.133247 -0.243738,-0.273904 -0.397557,-0.34678 z m 0.397557,0.34678 c 0.118843,0.158468 0.175365,0.306045 0.10855,0.314433 -0.04153,-0.129621 -0.06998,-0.226459 -0.108546,-0.314438 z m -0.07422,-0.388699 c 0.05724,0.0024 0.118577,0.01451 0.180054,0.03181 -0.08087,0.01946 -0.147472,0.004 -0.180054,-0.03181 z m 0.180054,0.03181 c 0.07734,-0.01862 0.1676,-0.06902 0.253866,-0.164832 0.431802,-0.372415 -0.316021,0.300284 0.06879,0.20257 0.0056,0.0383 0.04036,0.08262 0.123064,0.132351 0.126009,0.105867 -0.160356,-0.08977 -0.445723,-0.170088 z m 0.322657,0.03774 c -0.02647,-0.181142 0.616106,-0.224394 0.102985,-0.03423 -0.04115,0.01609 -0.07485,0.02709 -0.102985,0.03423 z m 0.498233,-0.461881 c 0.03371,0.02001 0.06652,0.04171 0.09742,0.06617 -0.03491,-0.02084 -0.06767,-0.04319 -0.09742,-0.06617 z m -0.160651,-0.217932 c 0.0064,-0.05577 0.08727,-0.08068 0.28141,-0.03599 -0.09974,0.0077 -0.191944,0.0219 -0.28141,0.03599 z m -0.415067,-0.479533 c 0.261515,0.06549 0.524351,0.395474 0.101085,0.112539 -0.06831,-0.03395 -0.09834,-0.07254 -0.101085,-0.112539 z m 0.51275,-0.332092 c 0.04174,-0.0073 0.07784,-0.0093 0.102036,-0.0035 0.198612,0.204131 0.450988,0.36391 0.05835,0.09596 -0.07894,-0.03022 -0.129998,-0.06174 -0.16038,-0.09246 z m -0.02252,-0.02831 c -0.06643,-0.113701 0.149051,-0.207312 0.343281,-0.171032 0.01231,-0.03748 0.05777,-0.07332 0.155224,-0.103509 0.194103,-0.09261 0.05424,-0.0066 -0.153867,0.103778 0.115594,0.02197 0.223285,0.08996 0.258615,0.227503 0.407169,0.172326 -0.315978,-0.04632 -0.26038,-0.226557 -0.108764,0.05762 -0.234744,0.121118 -0.342875,0.169817 z m -0.363228,0.04057 c -0.06843,-0.0053 -0.137076,0.004 -0.205427,0.02398 -0.12784,0.02503 -0.273829,0.06214 -0.348844,0.0589 0.242026,-0.0744 0.549402,-0.10764 0.554271,-0.08289 z m -0.994838,-0.35298 c 0.09696,-0.0037 0.200107,0.01529 0.314516,0.05917 -0.143305,-0.006 -0.250585,-0.02887 -0.314516,-0.05917 z m 0.712075,-0.16887 c 0.05243,0.0042 0.105366,0.0078 0.158074,0.01159 -0.05872,0.0069 -0.109658,0.01474 -0.135278,0.0244 -0.0074,-0.01307 -0.01513,-0.02444 -0.02278,-0.036 z m 0.158074,0.01159 c 0.307758,-0.03627 0.931057,-0.03467 0.460106,0.01375 -0.165455,0.004 -0.3144,-0.0034 -0.460106,-0.01375 z m -1.154541,-0.352037 c 0.05328,-0.009 0.09958,-0.01563 0.128223,-0.01752 0.306565,0.164028 0.02116,0.118951 -0.128223,0.01752 z m 2.353042,-0.266314 c 0.08409,-0.01959 0.174153,-0.01433 0.23202,0.04124 -0.07527,-0.01477 -0.153405,-0.02807 -0.23202,-0.04124 z m -0.402985,-0.391387 c 0.123019,0.04096 0.232563,0.104336 0.271639,0.169818 -0.203712,-0.06553 -0.29361,-0.131299 -0.271639,-0.169818 z m 0.60461,0.05715 c 0.09481,0.03958 0.17337,0.078 0.234463,0.107822 -0.08817,-0.02852 -0.171162,-0.06625 -0.234463,-0.107822 z m 0.234463,0.107822 c 0.01699,0.0055 0.03403,0.01089 0.0513,0.01564 0.0616,0.03942 0.01924,0.0188 -0.0513,-0.01564 z M 22.776692,16.01586 c 0.03352,-0.04052 0.113222,-0.07512 0.256307,-0.09677 -0.07935,0.05495 -0.165932,0.08266 -0.256307,0.09677 z m -0.332698,-0.272384 c 0.05405,0.02524 0.106622,0.05849 0.156987,0.100948 0.173694,0.100129 -0.03055,0.0045 -0.156987,-0.100948 z m 0.233782,-0.172111 c 0.274654,0.04383 0.940112,0.369893 0.483716,0.187609 -0.174372,0.0109 -0.455491,-0.0999 -0.483716,-0.187609 z m 0.365673,-0.134511 c 0.0017,-3.19e-4 0.0034,-8.9e-4 0.005,-0.0012 -0.0017,3.6e-4 -0.0034,8.41e-4 -0.005,0.0012 z m 0.005,-0.0012 c 0.06486,-0.01474 0.128576,-0.03193 0.191314,-0.05014 -0.0061,0.02309 0.012,0.04825 0.04452,0.07385 -0.074,-0.02743 -0.1509,-0.0399 -0.23582,-0.02372 z m 0.23582,0.02372 c 0.06799,0.0252 0.133664,0.06335 0.200813,0.103373 l -0.0011,0.0049 c -0.07655,-0.03364 -0.152825,-0.07124 -0.19971,-0.108207 z m -0.04451,-0.07384 c 0.0095,-0.03547 0.07615,-0.06594 0.236906,-0.08531 0.0036,0.0012 0.0067,0.0019 0.01018,0.0031 -0.0781,0.02953 -0.161028,0.05723 -0.247081,0.08221 z m 0.247082,-0.08221 c 0.0096,-0.0036 0.0201,-0.0069 0.02957,-0.01067 0.01934,-0.0097 0.02578,-0.01264 0.04138,-0.02035 -0.0041,0.01631 -0.0081,0.03263 -0.01221,0.04892 -0.01945,-0.0058 -0.03837,-0.01104 -0.05875,-0.01792 z m -0.662262,-0.388156 c 0.293181,-0.01299 0.836859,0.19362 0.207326,0.09407 -0.385386,0.171904 -0.389585,-0.0053 -0.207326,-0.09407 z m 0.323743,-0.102699 c 0.04045,-0.02417 0.08748,-0.03703 0.135956,-0.04245 -0.04713,0.01959 -0.09484,0.036 -0.135956,0.04245 z m 0.135957,-0.04245 c 0.166951,-0.0694 0.319337,-0.173139 0.119809,6.64e-4 -0.03914,-0.004 -0.07972,-0.0052 -0.119809,-6.64e-4 z m 0.119809,6.64e-4 c 0.218463,0.02229 0.377063,0.145307 -0.03228,0.02818 0.01313,-0.01126 0.02139,-0.01862 0.03228,-0.02818 z m -2.302837,0.589513 c 0.06272,0.06062 0.11915,0.136468 0.166077,0.22858 -0.09038,-0.01111 -0.148724,-0.112144 -0.166077,-0.22858 z m 0.521027,-0.688845 c 0.333558,-0.04797 0.814144,0.504486 0.301355,0.07534 -0.155981,-0.02606 -0.25719,-0.05249 -0.301355,-0.07534 z m 0.05169,-0.05459 c 0.0542,-0.0075 0.137106,-0.01142 0.250203,-0.01011 0.06293,-0.06177 0.170268,-0.0537 0.267162,-0.02682 -0.143984,0.05174 -0.404871,0.139747 -0.517365,0.03693 z m 0.517365,-0.03693 c 0.09693,-0.03483 0.140982,-0.05305 0.04912,0.01536 -0.01595,-0.0056 -0.03223,-0.01067 -0.04912,-0.01536 z m 0.04912,0.01536 c 0.159322,0.05595 0.257181,0.143971 -0.0011,7.97e-4 4.46e-4,-3.46e-4 6.24e-4,-4.43e-4 0.0011,-7.97e-4 z M 21.978175,14.40947 c 0.008,0.04179 0.008,0.05128 0,0 z m 0.499052,-0.344215 c 0.116481,6.64e-4 0.229972,0.03905 0.331477,0.127633 -0.13559,0.01021 -0.270331,-0.04653 -0.331477,-0.127633 z m 0.331477,0.127633 c 0.08928,-0.0068 0.17841,-0.04276 0.246946,-0.12022 -0.0247,0.08746 0.101366,0.182009 -0.127001,0.256884 -0.03735,-0.05523 -0.0777,-0.0998 -0.119939,-0.136658 z m 0.246946,-0.12022 c 0.0053,-0.01873 0.01712,-0.03718 0.04124,-0.05499 -0.01255,0.02051 -0.02658,0.03841 -0.04124,0.05499 z M 22.894987,13.6276 c 0.02232,-0.0051 0.04501,-0.0091 0.06798,-0.01186 -0.02264,0.0039 -0.04529,0.008 -0.06798,0.01186 z m 0.06798,-0.01186 c 0.13867,-0.0241 0.276554,-0.05026 0.412345,-0.08734 -0.02873,0.04505 -0.03628,0.09266 0.0078,0.132082 -0.06168,-0.02619 -0.245672,-0.06612 -0.420214,-0.04474 z m 0.420215,0.04475 c 0.01583,0.0067 0.0242,0.01251 0.02157,0.01605 -0.0083,-0.0052 -0.01538,-0.01053 -0.02157,-0.01605 z m -0.0078,-0.132073 c 0.08865,-0.138986 0.387088,-0.252419 0.05753,-0.01605 -0.01911,0.0057 -0.03835,0.0108 -0.05753,0.01605 z m -0.3502,-0.191383 c 0.288309,0.01911 0.696486,-0.140349 0.185344,0.03788 -0.238246,0.09207 -0.220394,0.03725 -0.185344,-0.03788 z m 0.362416,-0.38625 c 0.06383,0.02759 0.114219,0.07574 0.136632,0.151356 -0.0868,-0.02572 -0.129533,-0.08314 -0.136632,-0.151356 z m 0.153729,2.388103 c -0.0085,0.03441 -0.01713,0.06877 -0.02592,0.103104 -0.05494,-0.01127 -0.02396,-0.05606 0.02592,-0.103104 z m -5.259134,3.195277 c -0.37561,0.0093 -0.156731,0.518126 0.01126,0.706632 -0.04976,0.227292 0.271643,0.171862 0.459156,0.232355 -9.8e-4,-0.0071 -0.0025,-0.01411 -0.0033,-0.0213 0.341775,-0.169677 0.526705,0.197332 0.786835,0.48196 -0.006,-0.05197 -0.0055,-0.111425 0.0062,-0.173861 0.0618,-0.07657 0.103644,-0.15327 0.129443,-0.228716 -0.03017,-0.02627 -0.05947,-0.05126 -0.08846,-0.07534 0.03514,0.0073 0.06917,0.01716 0.102306,0.02924 0.115107,-0.451344 -0.356416,-0.843935 -0.83853,-0.849631 -0.089,0.01816 -0.106247,0.07933 -0.07761,0.160519 -0.06302,-0.07186 -0.09704,-0.08166 -0.05536,0.04757 0.01394,0.714578 -0.02404,-0.30232 -0.43202,-0.309446 z m 0.487379,0.261871 c 0.0545,0.06217 0.129562,0.170049 0.198914,0.279391 -0.09572,-0.09815 -0.170419,-0.198586 -0.198914,-0.279391 z m 0.198914,0.279391 c 0.102988,0.105616 0.2298,0.207519 0.351559,0.279122 0.151783,0.254496 0.06133,0.359489 -0.185616,0.02264 -0.01654,-0.05277 -0.08694,-0.17721 -0.165941,-0.301765 z m 0.35156,0.279123 c -0.01315,-0.02205 -0.0274,-0.04476 -0.04425,-0.06886 0.02763,-0.04407 0.156337,0.04457 0.307596,0.170222 -0.0057,-0.0012 -0.01118,-0.0029 -0.01696,-0.004 -0.07082,-0.0081 -0.157129,-0.04481 -0.246404,-0.09731 z m -6.571067,3.661605 c -0.172125,0.218827 -0.09004,0.427745 0.03243,0.644501 -0.02759,-0.213301 -0.03695,-0.429688 -0.03243,-0.644501 z m 1.104878,0.549887 c -0.08546,0.0071 -0.309984,0.438651 -0.134191,0.230469 0.09668,-0.136712 0.142502,-0.199367 0.156307,-0.215239 -0.0053,-0.01086 -0.01271,-0.01603 -0.02212,-0.01523 z"
       sodipodi:nodetypes="cccccccccccccccccccccccccccccccccccccccccccccccccccccccccccccccccccccccccccccccccccccccccccccccccccccccccccccccccccccccccccccccccccccccccccccccccccccccccccccccccccccccccccccccccccccccccccccccccccccccccccccccccccccccccccccccccccccccccccccccccccccccccccsccccccccccccccccccccccccccccccccccccccccccccccccccccccccccccccccccscscccscccccccccccccscccccccccccccccccccccccccccscsscsccccccccscsscsccccccccscsssccccccscccccccscscscccccccccccccscsssccccccssccccccccccccccccccccccccccccccccccccccccccccccscccsccccscccccscccccccccccccccccccccccccccccccccccccccccccccccccccccccccccccscsccccccccccccccccccccscssccsscccsccssssccss" /><g
       id="g2316"
       transform="matrix(-0.44559001,0,0,0.44260768,32.466598,5.8578656)"
       style="stroke-width:2.25177"><path
         style="fill:black;stroke:black;stroke-width:1.12588;stroke-linecap:round;stroke-linejoin:round;stroke-dasharray:none"
         d="M 46.71573,39.999998 H 26.715731 m 0,0 -4.999999,-19.999999 m 0,0 H 51.71573 m 0,0 -5,19.999999"
         id="path844"
         sodipodi:nodetypes="cccccccc" /><g
         id="g2299"
         style="stroke-width:2.25177"><circle
           style="fill:none;stroke:black;stroke-width:1.12588;stroke-linecap:square;stroke-linejoin:round;stroke-dasharray:none"
           id="path846"
           cx="29.215731"
           cy="43.999996"
           r="2.45" /><circle
           style="fill:none;stroke:black;stroke-width:1.12588;stroke-linecap:square;stroke-linejoin:round;stroke-dasharray:none"
           id="circle848"
           cx="44.265732"
           cy="43.999996"
           r="2.45" /><path
           style="fill:none;stroke:black;stroke-width:1.12588;stroke-linecap:round;stroke-linejoin:round;stroke-dasharray:none"
           d="m 53.71573,11.999999 h 5"
           id="path850"
           sodipodi:nodetypes="cc" /><path
           style="fill:none;stroke:black;stroke-width:1.12588;stroke-linecap:round;stroke-linejoin:round;stroke-dasharray:none"
           d="M 51.715728,19.999999 53.71573,12.000007"
           id="path866"
           sodipodi:nodetypes="cc" /><path
           style="fill:black;stroke:black;stroke-width:1.12588;stroke-linecap:round;stroke-linejoin:round;stroke-dasharray:none"
           d="m 28.715731,39.999996 -4,-19.999997"
           id="path1476" /><path
           style="fill:black;stroke:black;stroke-width:1.12588;stroke-linecap:round;stroke-linejoin:round;stroke-dasharray:none"
           d="m 30.715731,39.999996 -3,-19.999997"
           id="path1478" /><path
           style="fill:black;stroke:black;stroke-width:1.12588;stroke-linecap:round;stroke-linejoin:round;stroke-dasharray:none"
           d="m 32.715731,39.999996 -2,-19.999997"
           id="path1480" /><path
           style="fill:black;stroke:black;stroke-width:1.12588;stroke-linecap:round;stroke-linejoin:round;stroke-dasharray:none"
           d="m 34.715731,39.999996 -1,-19.999997"
           id="path1482" /><path
           style="fill:black;stroke:black;stroke-width:1.12588;stroke-linecap:round;stroke-linejoin:round;stroke-dasharray:none"
           d="M 36.71573,39.999996 V 19.999999"
           id="path1484" /><path
           style="fill:black;stroke:black;stroke-width:1.12588;stroke-linecap:round;stroke-linejoin:round;stroke-dasharray:none"
           d="m 44.715729,39.999996 4,-19.999997"
           id="path1486" /><path
           style="fill:black;stroke:black;stroke-width:1.12588;stroke-linecap:round;stroke-linejoin:round;stroke-dasharray:none"
           d="m 42.71573,39.999996 3,-19.999997"
           id="path1488" /><path
           style="fill:black;stroke:black;stroke-width:1.12588;stroke-linecap:round;stroke-linejoin:round;stroke-dasharray:none"
           d="M 40.715729,39.999996 42.71573,19.999999"
           id="path1490" /><path
           style="fill:black;stroke:black;stroke-width:1.12588;stroke-linecap:round;stroke-linejoin:round;stroke-dasharray:none"
           d="m 38.715731,39.999996 1,-19.999997"
           id="path1492" /></g></g></g></svg>
