<?xml version="1.0" encoding="UTF-8" standalone="no"?>
<!-- Created with Inkscape (http://www.inkscape.org/) -->

<svg
   width="48mm"
   height="48.000004mm"
   viewBox="0 0 47.999999 48.000003"
   version="1.1"
   id="svg5"
   xml:space="preserve"
   inkscape:version="1.2.2 (732a01da63, 2022-12-09)"
   sodipodi:docname="plateste-buton-mare-sting.svg"
   xmlns:inkscape="http://www.inkscape.org/namespaces/inkscape"
   xmlns:sodipodi="http://sodipodi.sourceforge.net/DTD/sodipodi-0.dtd"
   xmlns="http://www.w3.org/2000/svg"
   xmlns:svg="http://www.w3.org/2000/svg"><sodipodi:namedview
     id="namedview7"
     pagecolor="#ffffff"
     bordercolor="#000000"
     borderopacity="0.25"
     inkscape:showpageshadow="2"
     inkscape:pageopacity="0.0"
     inkscape:pagecheckerboard="false"
     inkscape:deskcolor="#d1d1d1"
     inkscape:document-units="mm"
     showgrid="false"
     inkscape:zoom="2"
     inkscape:cx="-7.25"
     inkscape:cy="42.5"
     inkscape:window-width="1280"
     inkscape:window-height="971"
     inkscape:window-x="-8"
     inkscape:window-y="-8"
     inkscape:window-maximized="1"
     inkscape:current-layer="layer1"><inkscape:grid
       type="xygrid"
       id="grid1049"
       units="mm"
       spacingx="0.99999995"
       spacingy="0.99999995"
       originx="0"
       originy="0"
       empspacing="10" /></sodipodi:namedview><defs
     id="defs2"><linearGradient
       id="linearGradient3607"
       inkscape:swatch="solid"><stop
         style="stop-color:black;stop-opacity:1;"
         offset="0"
         id="stop3605" /></linearGradient><filter
       style="color-interpolation-filters:sRGB"
       inkscape:label="Blur"
       id="filter18393"
       x="-0.058536466"
       y="-0.058536466"
       width="1.1170729"
       height="1.1170729"><feGaussianBlur
         stdDeviation="0.5 0.5"
         result="blur"
         id="feGaussianBlur18391" /></filter><filter
       style="color-interpolation-filters:sRGB"
       inkscape:label="Blur"
       id="filter18393-0"
       x="-0.058536466"
       y="-0.058536466"
       width="1.1170729"
       height="1.1170729"><feGaussianBlur
         stdDeviation="0.5 0.5"
         result="blur"
         id="feGaussianBlur18391-0" /></filter></defs><g
     inkscape:label="Layer 1"
     inkscape:groupmode="layer"
     id="layer1"
     transform="translate(-11.715732)"><g
       id="path17247"
       transform="matrix(-1,0,0,1,71.431464,0)" /><g
       id="path3310-9"
       transform="matrix(-1,0,0,1,71.431464,0)" /><g
       id="path7525"
       transform="matrix(-1,0,0,1,71.431464,0)" /><g
       id="path3310-7"
       transform="matrix(-1,0,0,1,71.431464,0)" /><path
       id="path1110"
       style="fill:black;stroke:none;stroke-width:0.1;stroke-linecap:round;stroke-linejoin:round"
       d="m 52.111523,15.142818 -2.19e-4,0.0058 c -0.13892,0.07409 -0.55529,0.284177 -0.922039,0.447931 0.173053,-0.248333 0.500629,-0.457427 0.922347,-0.45371 z m -0.922348,0.45371 c -0.09817,0.140853 -0.147015,0.293877 -0.13307,0.428745 -0.540895,-0.235395 -1.515546,0.200101 -1.199749,0.537451 0.618298,-0.115513 0.4768,0.140213 0.38642,0.335256 -0.121143,-0.0081 -0.233756,-0.02861 -0.320643,-0.07278 -0.444569,-0.767417 -0.878871,0.143632 -1.303589,0.428131 -0.31335,0.340135 -0.833972,0.664467 -1.019512,1.014279 0.76589,-0.449577 1.56353,-0.577806 2.351694,-0.713153 -0.196927,0.04562 -0.377557,0.133374 -0.499677,0.290221 -0.534451,0.205312 -0.595773,0.4877 -0.437878,0.698534 -0.397059,-0.0023 -0.808563,0.189167 -1.161384,0.476553 0.0188,0.147475 0.03197,0.240257 0.04142,0.301154 -0.04282,-0.22383 -0.189179,-0.84365 -0.460719,-0.968629 -0.653797,0.475942 -1.248722,1.108375 -1.834035,1.680259 -1.446801,1.415192 0.855332,-0.766761 1.519785,-0.385805 0.02077,0.05974 0.05268,0.106051 0.09222,0.142535 -0.18328,0.02548 -0.218663,0.06987 -0.115996,0.123345 -0.12586,0.01823 -0.242687,0.07341 -0.337672,0.185487 -1.325757,0.584025 1.813408,0.716369 0.665644,0.756394 0.241363,0.799123 0.164941,0.308789 -0.436355,-0.07521 -0.849481,-0.485767 -1.137729,0.170716 -1.060899,0.689702 -0.660251,-0.64229 -1.635853,-0.511778 -2.226241,0.306027 -0.81088,1.13203 -1.290224,2.486411 -2.47654,3.247549 0.427772,-0.211947 1.595471,-0.759388 2.266434,-1.125756 0.817668,-0.213193 1.597397,-0.68858 2.265824,-1.116315 1.275921,-0.209549 2.116133,-1.187629 3.170207,-1.856566 0.444106,-0.206148 2.141434,-1.785766 1.369665,-1.024965 -0.08768,0.29771 0.03662,0.362288 0.224728,0.332518 -0.05824,0.03502 -0.110466,0.08016 -0.15347,0.137941 -0.231288,-0.02344 -0.427997,0.02299 -0.57308,0.09409 -0.01846,8.06e-4 -0.03822,5.1e-4 -0.05572,0.0021 -0.380666,0.144507 -1.972422,1.453756 -1.231422,1.278007 0.515448,0.09898 1.15905,0.03921 1.778313,-0.1014 -0.07469,0.01525 -0.152006,0.03977 -0.232947,0.07674 -0.477542,0.01897 -0.623627,0.114746 -0.587694,0.227167 -0.06992,-0.01123 -0.131562,-0.01638 -0.173873,-0.0085 -0.714513,-0.03784 -0.59956,0.188428 -0.350793,0.397377 -0.797874,-0.375156 -1.738431,0.04648 -2.351392,0.68483 -1.099236,0.659274 0.433466,1.028155 0.784102,0.348659 0.657725,-0.639283 1.549402,-0.297891 2.313936,-0.418087 -0.11044,0.134442 0.0032,0.29808 0.221986,0.442751 -0.273735,-0.115056 -0.553517,-0.208907 -0.694577,-0.179353 -0.401436,-0.05283 -0.62075,-0.0231 -0.662299,0.05024 -0.561974,-0.188346 -1.251393,-0.162322 -1.001212,0.490258 0.600316,0.188638 1.269451,0.286743 1.905593,0.394029 -0.473034,0.111013 -0.859618,0.585443 0.203101,0.584348 -0.246198,0.189266 -1.458451,-0.486919 -1.991464,-0.675089 -0.991638,-0.896645 -0.97627,2.054871 -1.146449,0.651971 -0.208209,-1.353241 -1.201669,-1.145228 -2.049626,-0.507306 -0.616486,0.167879 -0.529502,0.388385 -0.296284,0.547805 -0.725766,0.123687 -2.187333,0.524392 -1.013701,0.995119 1.112312,0.663161 2.508427,-1.349455 3.249986,-0.225943 -0.352073,-0.02819 -0.706357,-0.05741 -1.101702,-0.06334 -0.67452,0.105917 -0.781612,0.308818 -0.496338,0.444888 -0.345522,0.01351 -0.655282,0.158087 -0.970762,0.422958 -0.972208,-1.060385 -1.507311,0.397464 -2.383973,0.892202 -0.238986,-0.446436 -1.830429,0.577321 -0.838609,0.578556 0.821417,0.535917 1.656182,0.582992 2.344083,-0.263397 0.466022,-0.296217 1.363983,-0.883706 2.109917,-0.749084 0.759582,-1.124333 1.923846,-0.523258 3.019466,-0.806061 -0.0988,0.116987 -1.566167,0.06118 -2.105351,0.484773 -0.363458,0.316848 -0.355986,0.41739 -0.186052,0.424785 -0.210599,0.06513 -0.399481,0.143731 -0.517052,0.234773 -0.49533,0.348898 -2.552415,0.535049 -1.964974,1.278008 0.852012,-0.09704 1.357301,-0.288154 2.043537,-1.01248 0.376423,-0.210053 0.795423,-0.508117 1.22137,-0.633371 0.18884,-0.03722 0.35981,-0.06258 0.455236,-0.04171 0.0054,-0.0049 0.0065,-0.0088 0.0058,-0.01246 0.112224,0.0089 0.224179,0.03424 0.334956,0.08496 0.09115,-0.01109 0.270522,-0.08149 0.480206,-0.176614 0.01228,0.0211 0.0293,0.04234 0.05054,0.06396 -0.433712,0.07578 -1.17246,0.431862 -1.150725,0.750303 -0.228244,-0.05755 -0.456047,-0.02481 -0.592566,0.214983 -0.984353,0.438238 -0.476772,1.053565 0.0335,0.859009 0.544309,0.162502 0.996662,0.08774 1.490553,0.0094 -0.01425,0.124162 0.133631,0.315967 0.360534,0.492384 -0.646522,-0.386419 -1.495316,-0.403391 -2.093171,0.0073 -0.764345,-0.203849 -0.553754,0.511555 0.320642,0.431488 -0.01471,0.951708 -1.113513,0.04594 -1.305109,-0.793237 -0.29216,-0.533496 -2.592505,0.05536 -1.599568,0.711628 0.226326,0.270427 0.593732,0.465943 0.996038,0.562422 -0.15706,0.07624 -0.222386,0.173485 -0.222289,0.283496 -0.461225,-0.334329 -0.981031,0.108635 -1.290796,0.633374 0.592572,0.262828 1.055062,0.832416 1.557545,1.285925 -0.06321,0.0014 -0.07233,0.135844 0.01614,0.457977 0.208929,0.590027 -0.413527,-0.745209 -0.81668,-0.867846 -0.20779,-0.187184 -0.519286,-0.481951 -0.825518,-0.753647 -0.113729,0.220305 -0.189212,0.445272 -0.204017,0.625759 0.04466,0.202989 0.06317,0.349394 0.06486,0.451276 0.414319,0.371782 0.385529,0.348732 6.33e-4,0.01125 0.0019,0.322144 -0.174303,0.156741 -0.229284,-0.185755 -0.04017,0.557149 0.11532,0.346576 -0.463154,-0.235687 -0.119134,-0.504464 -0.583665,-0.594413 -0.98812,-0.499389 0.286634,0.788917 -0.01774,0.567534 -0.20676,0.06669 -0.424219,0.175879 -0.675317,0.541446 -0.142509,0.753649 0.747137,0.01155 1.316644,0.554806 1.846519,1.072774 0.764437,0.644073 0.206662,0.346149 -0.241476,-0.126063 -0.605817,-0.616847 -0.717551,-0.61775 -0.102921,0.205847 0.977804,1.061201 -0.08513,0.07467 -0.473504,-0.327342 -0.686992,-0.66329 -1.262059,-0.453854 -0.478377,0.35597 0.207897,0.429077 1.087626,0.981221 1.152552,1.20584 -1.31729,-1.006998 0.330974,1.372065 -0.261873,0.964368 -0.19675,-0.887745 -0.743326,-1.592254 -1.231421,-2.387017 -0.417508,-1.498277 -0.575402,0.504847 -0.05238,1.157425 -0.481282,-0.493304 -0.186748,0.134879 -0.09744,0.570642 -0.17169,-0.342864 -0.563242,-0.932703 -0.562422,-1.235377 0.05652,-1.109054 -0.670771,0.83449 -0.28319,1.146768 -0.07448,0.293522 -0.09388,0.62022 -0.04111,0.917778 -0.02159,-0.03662 -0.04275,-0.07026 -0.06365,-0.09805 -0.601605,-0.899692 -0.704523,-0.198026 -0.505178,0.397677 -0.232689,0.627633 1.226205,2.366602 0.08618,1.29019 0.08907,1.17245 0.02683,0.317366 -0.118151,-0.506088 -0.142269,-1.012858 -0.908523,0.732755 -0.796281,1.503648 -0.08372,-0.04608 -0.147373,0.0486 -0.140376,0.445491 -0.676752,1.204586 0.180352,-0.551175 0.08526,-1.033187 0.121062,-0.590905 -0.08029,-0.607082 -0.330691,-0.454932 0.507065,-0.736587 0.850346,-1.881654 -0.0097,-1.305111 -0.334873,0.185254 -1.565768,0.447002 -0.981118,1.09287 1.060864,0.246646 -0.345973,1.489683 0.03776,0.305114 -1.223129,-1.053694 0.729349,-1.621478 1.336167,-2.193936 0.629608,-0.859872 0.88087,-1.952532 1.248472,-2.905589 -0.378632,-1.639523 -0.537788,0.25606 -1.435133,0.41291 -0.583193,0.108073 -0.436664,0.827014 -0.243606,1.341042 -0.453704,-0.719258 -0.376582,2.08525 -0.486599,1.079471 -0.700695,-0.461558 0.565729,-2.739447 -0.548714,-1.77953 -0.667808,0.225236 -0.268586,1.217427 6.09e-4,1.695181 -0.66698,-0.412666 -0.936765,-1.177774 -0.384591,-1.671733 0.492026,-1.016084 2.006706,-0.831753 2.216187,-2.029528 0.120548,-1.021856 -1.040445,-0.366222 -1.669906,-0.334956 -0.951867,0.130759 -0.978761,1.018317 -0.841043,1.731112 -0.06427,-0.140746 -0.156281,-0.232847 -0.285928,-0.191231 -0.599488,0.777646 -1.071037,2.134175 -0.0341,2.675079 -0.0528,-0.08725 -0.09028,-0.190016 -0.102921,-0.311508 0.09238,0.109357 0.164351,0.232906 0.22108,0.366922 0.08389,0.03509 0.175402,0.06605 0.276492,0.09135 1.099925,0.23392 0.258657,0.441006 -0.224118,0.0478 0.18672,0.559222 0.158626,1.263583 0.233554,1.876971 0.288151,1.065736 -0.05456,-0.053 -0.222288,0.110229 0.02481,-0.531162 -0.104976,-1.608608 -0.468324,-1.986897 -0.02656,0.175281 0.337885,1.617935 -0.0198,2.232024 -3.95e-4,0.167676 0.04378,0.29933 0.115735,0.406814 -0.03754,0.05055 -0.02263,0.299125 -0.01705,0.760958 -0.182981,0.362871 -0.788257,-1.024603 -0.7232,-1.460103 -0.206502,-0.03279 -0.294496,0.09187 -0.307215,0.294488 -0.367176,0.402673 -0.932208,1.176265 -0.541715,1.647678 0.01395,0.01419 0.01538,0.01464 0.02345,0.02222 -0.1025,-0.08835 -0.48354,-0.356218 -0.640982,0.139771 0.07323,0.08904 0.09231,0.147492 0.01492,0.150729 0.461053,1.541472 -0.569002,-0.217587 -0.953101,-0.627891 -0.192634,-0.406695 -0.302976,-0.578611 -0.360233,-0.600482 0.06151,0.02839 0.136435,0.05761 0.230814,0.088 0.215708,0.239336 0.848104,0.728886 1.060591,0.981422 0.09472,-0.933758 0.223352,-1.707176 0.833736,-2.330685 0.656379,-0.590054 0.73971,-1.70674 0.576733,-2.500597 -0.323168,-0.560672 -1.552333,1.392201 -1.388545,2.097738 0.04865,1.387912 0.0132,-0.436227 -0.236598,-0.179662 -0.790177,1.41603 0.334086,-1.132203 -0.463764,-0.33343 -0.904969,1.334576 -0.06836,-1.767334 0.09774,-1.054197 0.124259,1.869555 1.127636,-0.477603 0.916866,-1.13337 0.01716,-0.08837 0.02332,-0.158672 0.02223,-0.216808 0.136867,0.340096 0.24552,0.79961 0.579776,0.434226 0.790696,-0.551448 0.1783,-1.673322 0.550546,-2.435435 0.463901,-0.493883 0.669554,-2.4363 -0.02619,-1.084952 -0.202959,0.776671 -1.016769,1.262841 -1.243904,1.900418 -0.317619,0.582731 -0.971713,1.044996 -0.956756,1.764304 -0.131001,0.305009 -0.257378,0.636645 -0.342874,0.974112 -0.200408,-0.06446 -0.604637,0.04753 -0.274963,-0.353229 0.476805,-0.457007 0.777303,-2.292337 -0.08953,-0.934528 -0.426293,0.696255 -0.268297,1.505232 -0.549935,2.290489 -0.324865,0.456641 -0.15448,1.20378 0.234467,1.555415 -0.02457,0.125004 -0.06253,0.345403 -0.134286,0.634284 -0.509913,0.602599 -0.475578,1.276441 -0.111145,1.657727 -0.339662,-0.118952 -0.305665,-0.702687 -0.226858,-1.120275 -0.344012,0.901564 0.03088,1.526595 -0.07643,2.528612 -0.224617,1.16334 0.06486,-0.312171 -0.261872,0.241477 -0.701457,1.254044 0.08848,-0.162534 0.19458,-0.680264 -0.912236,-0.834907 0.01023,-1.76545 0.09348,-2.815762 -0.344761,0.711301 -1.2617,1.509956 -1.514609,2.126057 0.0028,-0.06663 -0.0022,-0.113395 -0.0137,-0.142511 -0.05873,0.111003 -0.433198,0.693614 -0.635197,1.050847 -0.234567,-0.25224 0.487981,-2.068059 1.40377,-2.431779 0.211716,-0.42887 1.62658,-2.553159 0.360838,-1.441223 -0.548852,0.607712 -0.894817,0.652738 -0.146471,-0.121495 0.908443,-0.865563 0.190021,-0.537758 -0.403164,0.06242 -1.094822,1.065847 0.155918,-0.508089 0.622715,-0.813028 0.945476,-1.377175 -1.205214,0.886296 -0.561813,-0.164435 1.037781,-1.179881 -0.695799,0.05703 -1.024964,0.211331 0.604311,-0.800925 1.921037,-0.879622 1.891891,-2.061804 0.96039,-1.333788 -1.137315,-0.759088 -1.315463,0.133068 -0.332604,0.530564 -1.116509,1.378147 -0.707366,2.338907 0.615607,0.39885 -0.269276,2.613948 -0.432397,1.584341 0.03806,-0.590818 -0.02647,-0.652934 -0.146466,-0.503654 0.08582,-0.417671 0.05562,-0.883624 0.05481,-1.306022 -0.07761,-0.122426 -0.481678,0.292333 -0.767351,0.802677 -0.971487,0.509088 -2.020066,1.261422 -1.957359,2.460708 -0.03934,0.08148 -0.155482,0.320669 -0.294154,0.599571 0.2549,-0.23139 0.659814,-0.57076 0.870584,-0.79232 0.230358,-0.654968 0.872811,-1.519259 1.266742,-2.045668 -0.169475,0.369728 -0.249883,0.755877 -0.0877,1.008522 -0.654582,1.047879 0.868572,1.269295 0.366623,2.266738 0.475863,0.247973 0.253891,2.406278 -0.256393,1.347436 -0.26291,-0.563053 -0.430246,-1.162318 -0.527401,-1.775875 -0.08432,-0.105444 -0.15375,-0.103223 -0.185425,0.115135 -0.441473,0.513794 -0.623467,2.206574 -0.550242,2.242378 0.04688,-1.483485 0.120941,0.893635 -0.261873,0.28928 0.166139,-0.766278 -0.075,-0.04612 -0.262184,0.224719 -0.0546,0.0046 -0.109205,0.0091 -0.163824,0.0134 -0.01123,-0.04733 -0.01814,-0.116463 -0.01949,-0.21407 -0.539913,-1.14872 0.613857,-2.013805 0.943053,-3.038047 -0.633433,0.592988 -2.338108,2.724381 -2.960402,3.334636 l -1.8e-5,-0.02557 c 0.04921,-0.29817 1.644276,-2.12859 1.852558,-2.385825 0.355642,-0.382767 1.40716,-1.10401 0.243299,-0.561508 -0.17588,0.10328 -0.293133,0.166699 -0.372102,0.204327 -0.366808,0.729106 -0.803392,1.547691 -0.518573,0.711629 0.640152,-1.434934 -0.03852,0.0663 -0.639463,0.45493 -0.876196,-0.152324 1.16635,-1.152349 1.102311,-1.790491 0.409512,-0.766184 0.205052,-0.643652 -0.106303,-0.358089 0.308191,-0.347491 0.625472,-0.810843 0.507916,-1.127278 -0.691505,0.536372 -1.378746,1.244466 -2.069723,1.856873 0.02567,-0.808263 1.561645,-1.860184 1.403161,-1.656509 1.263745,-0.713354 2.389724,-1.542182 3.181778,-2.804191 0.547913,-0.603888 2.129427,-2.50777 0.48873,-1.629103 -0.109339,0.170964 -0.454999,0.579803 -0.746648,0.919302 0.414129,-0.660038 0.163862,-0.612411 -0.215587,-0.297809 0.372182,-0.356936 0.836574,-0.843645 1.337996,-0.993602 1.557678,0.125568 1.846917,-1.577827 2.854739,-2.232328 1.034081,-0.232254 1.083843,-1.238827 1.546886,-2.05937 0.149687,-0.683635 0.13992,-1.284198 -0.262178,-2.073682 -1.120119,-1.024334 -2.172393,-2.124675 -3.245423,-3.200041 L 11.715732,5.9100077 V 0 l 21.407165,21.420883 c 0.701419,0.750774 1.44344,1.452631 2.334338,1.974414 0.55413,0.364633 1.485822,0.932328 1.836776,1.097437 0.901232,0.383132 1.774576,0.235769 2.64067,-0.126674 0.480673,-0.375031 0.920109,-0.952565 1.374233,-1.121798 0.977211,-0.312986 1.865567,-1.099487 2.456446,-1.958274 0.457012,-0.809205 1.271143,-1.701328 1.571857,-2.45949 0.597534,-0.663239 1.407452,-1.22187 2.041709,-1.923863 0.878211,-0.754157 0.131664,-0.07001 -0.225335,0.341045 -0.52685,0.632507 -1.452584,1.036361 -1.558154,1.863876 1.13613,-0.719788 2.021882,-1.826897 3.095297,-2.643714 0.673484,0.119835 1.82034,-1.833492 1.493294,-1.036842 -0.08957,0.126214 -0.137454,0.204886 -0.159861,0.253963 -0.640064,0.551592 1.25724,-0.443008 0.94214,-0.210714 -0.629672,0.462603 -0.265026,0.344222 0.222903,0.126367 z m -1.165037,0.08435 c 0.06199,-0.05336 0.139052,-0.116282 0.253043,-0.201277 0.267499,-0.247244 0.376481,-0.336544 0.39159,-0.336787 0.04598,-7.15e-4 -0.773494,0.820193 -0.644637,0.538063 z M 27.938669,34.937795 c -0.09212,0.08844 -0.1803,0.170965 -0.260049,0.235992 0.08986,-0.09012 0.176927,-0.16702 0.260049,-0.235992 z m 0.215586,0.297809 c -0.01695,0.027 -0.03195,0.0519 -0.05115,0.08131 -0.640106,0.709542 -0.349671,0.385293 0.05115,-0.08131 z m -2.765212,4.440906 c -0.293067,0.330429 -0.577881,0.556427 -0.471681,0.448841 0.145381,-0.135339 0.32026,-0.309935 0.471681,-0.448841 z m 2.403459,-2.063633 c 0.03463,-0.07551 0.0734,-0.14943 0.11419,-0.222291 0.02864,-0.01502 0.05768,-0.03203 0.08615,-0.04662 -0.04961,0.0679 -0.129441,0.174106 -0.200362,0.26888 z m 0.826733,0.281059 c -0.0775,0.377172 -0.249415,0.715189 -0.626367,0.944576 0.234435,-0.229632 0.474791,-0.756002 0.626367,-0.944576 z m 1.10779,2.299015 c -0.0037,0.0885 -0.02085,0.211363 -0.05755,0.381546 -0.0232,-0.115968 0.0013,-0.244467 0.05755,-0.381546 z m 1.79171,-0.27984 c 0.05382,0.01884 0.115768,0.02732 0.189707,0.02009 0.309375,-0.0099 0.507102,0.08176 0.627889,0.227771 0.06842,-0.167757 0.235276,-0.230891 0.608099,-0.09348 -0.201988,0.08891 -0.392489,0.135304 -0.568204,0.148005 0.311626,0.480872 -0.05351,1.418263 -0.165347,1.539884 0.271404,-0.373707 0.0081,-1.151734 0.106577,-1.536839 -0.335004,0.0097 -0.610671,-0.108677 -0.798717,-0.305419 z M 31.764166,37.6211 c 0.02904,-0.147762 0.04072,-0.137721 0.06119,0.05058 -0.02097,-0.01574 -0.04138,-0.0326 -0.06119,-0.05058 z m 0.06119,0.05058 c 0.08139,0.06135 0.170813,0.105476 0.266138,0.127587 -0.105418,0.08018 -0.105849,0.177874 0.140674,0.292024 -0.144881,-0.04987 0.06063,0.887804 0.129112,1.385194 -0.652079,0.121397 -0.320038,-1.02687 -0.492386,-1.367534 -0.02105,-0.211926 -0.03292,-0.339565 -0.04355,-0.437268 z m 0.266138,0.127587 c 0.164637,-0.125239 0.574501,-0.206612 0.69884,-0.242082 -0.246426,0.229903 -0.486985,0.291207 -0.69884,0.242082 z m 0.69884,-0.242082 c 0.0076,-0.0071 0.0152,-0.01298 0.02282,-0.02044 0.0333,0.0019 0.01539,0.0095 -0.02282,0.02044 z m -0.346223,-2.494203 c 0.124117,0.03992 0.166415,0.150339 -0.09013,0.490559 0.01716,-0.1635 0.04884,-0.327563 0.09013,-0.490559 z m -0.09013,0.490559 c -0.07059,0.672558 0.09922,1.330099 0.817902,1.81211 0.672757,1.021549 -0.01054,0.133987 -0.443057,-0.195796 -0.64968,-0.417906 -0.990332,-0.877959 -0.40103,-1.579774 0.01055,-0.01371 0.01648,-0.02356 0.0262,-0.03653 z m 1.529542,-2.043247 c -0.0311,-0.07728 -0.06345,-0.149404 -0.100482,-0.203105 0.05958,0.01932 0.09819,0.08051 0.100482,0.203105 z m -0.100482,-0.203105 c -0.125526,-0.0407 -0.340685,0.09936 -0.497258,0.225028 0.24875,-0.390354 0.39135,-0.378623 0.497258,-0.225028 z m -0.497258,0.225028 c -5.49e-4,8.64e-4 -9.19e-4,0.0016 -0.0015,0.0025 -0.29908,0.290313 -0.196182,0.156313 0.0015,-0.0025 z m 0.887329,5.497539 c 0.02909,0.02513 0.02802,0.02647 0,0 z m 0.518287,-1.66992 c 0.165085,-0.181049 0.290224,-0.287396 0.270421,-0.256979 -0.100688,0.09517 -0.188859,0.285902 -0.255176,0.503651 -0.01318,-0.08963 -0.01981,-0.173708 -0.01523,-0.246649 z m 0.01523,0.246649 c 0.07376,0.501419 0.393172,1.205147 0.622103,1.473501 0.450837,1.191556 -0.577812,-1.052159 -0.104749,0.385808 0.27149,1.319992 -0.700259,0.188585 -0.27923,-0.90834 -0.434581,0.536278 -0.429681,-0.322032 -0.238123,-0.950969 z m 1.032273,0.158038 c 0.02593,-0.03496 0.08111,0.03237 0.178722,0.186076 -0.0691,-0.05315 -0.130453,-0.113894 -0.178722,-0.186076 z m 0.178722,0.186076 c 0.330432,0.254149 0.843194,0.329215 1.023747,0.579168 0.0033,0.01628 0.02232,0.05935 0.05785,0.13033 0.0022,0.01066 0.0045,0.02112 0.0058,0.03229 -0.0759,1.372453 -0.316616,0.08308 -0.837998,-0.335567 -0.107987,-0.176831 -0.186084,-0.306506 -0.249386,-0.40621 z m 1.087388,0.741774 c 4.24e-4,-0.0065 8.77e-4,-0.01102 0.0013,-0.01767 -0.0031,-0.0062 -0.004,-0.0089 -0.0069,-0.01466 -0.01,-0.04854 -0.02982,-0.0916 -0.05785,-0.13033 -0.02495,-0.123249 0.728391,1.09161 0.06395,0.164435 -6.6e-5,-6.33e-4 -1.9e-4,-0.0012 -3.52e-4,-0.0018 z m -0.893707,-1.579787 c -0.0084,0.179831 -0.03445,0.29752 -0.07521,0.303592 0.0123,-0.17974 0.03998,-0.269301 0.07521,-0.303592 z m 0.138246,-4.66563 c 0.196091,0.42941 0.1308,1.316613 0.06304,0.279534 -0.02294,-0.08815 -0.04425,-0.182547 -0.06304,-0.279534 z m 0.679353,2.305104 c 0.03348,0.02075 0.06716,0.04112 0.102614,0.06 0.166637,0.322382 0.05372,0.217474 -0.102614,-0.06 z m 1.034709,-0.995124 c 0.04109,0.06518 0.08607,0.156472 0.136416,0.285018 0.249728,0.476002 0.03775,0.178764 -0.136416,-0.285018 z m 0.0472,3.252727 c -0.200068,0.29062 -0.424674,0.51968 -0.612361,0.551154 -0.157653,0.172992 0.272622,-0.344718 0.612361,-0.551154 z m 0.385809,1.042626 c 0.233003,0.128266 0.624437,1.35535 0.102308,0.256092 -0.05396,-0.05948 -0.08665,-0.148501 -0.102308,-0.256092 z m 1.397071,-2.587382 c 0.09469,0.160411 0.195679,0.397196 0.294154,0.642809 -0.156967,-0.169414 -0.250389,-0.396025 -0.294154,-0.642809 z m 0.294154,0.642809 c 0.08701,0.09393 0.193281,0.170114 0.320646,0.222895 -0.240344,0.06543 -0.115366,0.363707 0.193665,0.803287 -0.105421,0.05901 -0.304403,-0.502602 -0.514307,-1.026185 z m 0.320646,0.222895 c 0.113672,-0.03094 0.308381,-0.01029 0.605356,0.07308 -0.240376,0.02451 -0.440346,-0.0047 -0.605356,-0.07308 z m 0.271922,-1.694876 c 0.08601,0.171774 0.117838,0.282718 0.01553,0.262181 0.01571,-0.06418 0.0059,-0.157725 -0.01553,-0.262181 z m 3.73476,-2.516736 c 0.0424,-9.15e-4 0.108906,0.05751 0.187576,0.161692 -0.06333,-0.05145 -0.125767,-0.105911 -0.187576,-0.161692 z m -0.266748,-1.919297 c 0.121159,0.08783 0.238417,0.228229 0.346221,0.436053 0.04036,0.07054 0.07219,0.141432 0.09988,0.21163 -0.24648,-0.222779 -0.445951,-0.454438 -0.446097,-0.647684 z m 0.446097,0.647683 c 0.331931,0.300012 0.748314,0.583615 0.880022,0.734773 0.34821,1.417648 -0.139116,-0.532711 -0.80907,-0.514309 -0.0175,-0.0707 -0.04101,-0.144571 -0.07095,-0.220466 z m 0.07095,0.220466 c 0.126262,0.511204 -0.04237,0.824266 -0.06301,0.0074 0.02111,-0.0045 0.04225,-0.0068 0.06301,-0.0074 z m -0.29476,-1.151641 c 0.01572,-0.0077 0.03074,-0.01528 0.04843,-0.0225 0.215166,-0.06304 0.442144,-0.02023 0.660776,0.08404 -0.234968,0.01606 -0.477557,-0.006 -0.709193,-0.06151 z m 0.709191,0.06151 c 0.243529,-0.01665 0.478343,-0.07283 0.681483,-0.17753 0.0071,0.03115 0.02248,0.05879 0.04413,0.08284 -0.158443,-0.0066 -0.302883,0.01892 -0.415344,0.09562 0.316851,0.299767 0.469216,0.523733 0.581912,0.782578 -0.22426,-0.30105 -0.547,-0.618842 -0.892203,-0.783493 z m 0.892204,0.783492 c 0.266709,0.358033 0.393556,0.69146 0.243608,0.71041 -0.09321,-0.292858 -0.157055,-0.511647 -0.2436,-0.71042 z m -0.166561,-0.878201 c 0.12846,0.0054 0.266113,0.03277 0.40408,0.07186 -0.181505,0.04397 -0.330959,0.0091 -0.40408,-0.07186 z m 0.40408,0.07186 c 0.173567,-0.04206 0.376131,-0.155944 0.56973,-0.372409 0.969057,-0.841411 -0.709217,0.678442 0.154385,0.457671 0.01256,0.08652 0.09058,0.186667 0.276184,0.299027 0.28279,0.239189 -0.359875,-0.202824 -1.000299,-0.384287 z m 0.724112,0.08526 c -0.05941,-0.409258 1.382675,-0.50698 0.231121,-0.07734 -0.09234,0.03635 -0.167981,0.06121 -0.231121,0.07734 z m 1.118143,-1.043542 c 0.07565,0.04521 0.149278,0.09424 0.218637,0.149511 -0.07833,-0.04709 -0.151859,-0.09759 -0.218637,-0.149511 z m -0.360536,-0.492384 c 0.01446,-0.125999 0.195865,-0.182283 0.631545,-0.08131 -0.223841,0.01734 -0.430763,0.04948 -0.631545,0.08131 z m -0.931498,-1.083427 c 0.586896,0.147976 1.176755,0.89351 0.226855,0.254263 -0.153292,-0.07669 -0.22069,-0.163909 -0.226855,-0.254263 z m 1.15071,-0.750304 c 0.09369,-0.01641 0.17469,-0.0211 0.22899,-0.0079 0.445729,0.461201 1.012116,0.822197 0.130945,0.216804 -0.177161,-0.06827 -0.291743,-0.139494 -0.359927,-0.208892 z m -0.05053,-0.06396 c -0.149088,-0.256887 0.334503,-0.468387 0.770397,-0.386419 0.02763,-0.08468 0.129645,-0.165644 0.348356,-0.233859 0.435608,-0.209243 0.121714,-0.0148 -0.345312,0.234469 0.25942,0.04962 0.5011,0.203241 0.580389,0.514005 0.913775,0.389342 -0.709123,-0.104653 -0.584349,-0.51187 -0.24409,0.130181 -0.526816,0.273649 -0.769485,0.383674 z m -0.815161,0.09166 c -0.153564,-0.01211 -0.307628,0.0091 -0.461023,0.0542 -0.286902,0.05654 -0.614532,0.140397 -0.782882,0.133069 0.543159,-0.168108 1.232978,-0.243195 1.243904,-0.18727 z m -2.232633,-0.797501 c 0.217597,-0.0085 0.449084,0.03454 0.705843,0.133678 -0.321608,-0.0134 -0.562366,-0.06524 -0.705843,-0.133678 z m 1.598043,-0.381544 c 0.117652,0.0094 0.236462,0.01774 0.35475,0.02619 -0.131786,0.01564 -0.246096,0.0333 -0.303593,0.05511 -0.0165,-0.02952 -0.03396,-0.05522 -0.05111,-0.08133 z m 0.35475,0.02619 c 0.690676,-0.08194 2.089491,-0.07832 1.032577,0.03106 -0.371316,0.0091 -0.705582,-0.0077 -1.032577,-0.03106 z M 44.17399,24.74995 c 0.119574,-0.02037 0.223478,-0.03531 0.287758,-0.03959 0.687998,0.370595 0.0475,0.268753 -0.287758,0.03959 z m 5.280733,-0.601703 c 0.188709,-0.04425 0.390835,-0.03238 0.520704,0.09318 -0.168914,-0.03335 -0.344276,-0.06342 -0.520704,-0.09318 z M 48.550336,23.26397 c 0.276082,0.09253 0.521923,0.235731 0.609619,0.383678 -0.457174,-0.14805 -0.658925,-0.296649 -0.609619,-0.383678 z m 1.356877,0.129111 c 0.212766,0.08943 0.389079,0.176233 0.526185,0.243605 -0.197865,-0.06443 -0.384124,-0.149677 -0.526185,-0.243605 z m 0.526185,0.243605 c 0.03812,0.0124 0.07637,0.02459 0.115111,0.03532 0.138244,0.08905 0.04318,0.04246 -0.115111,-0.03532 z m -0.748171,-0.686355 c 0.07523,-0.09156 0.254096,-0.169739 0.575209,-0.218635 -0.178085,0.124142 -0.372387,0.186754 -0.575209,0.218635 z m -0.746646,-0.615408 c 0.121294,0.05703 0.239283,0.132157 0.352313,0.228076 0.389807,0.226225 -0.06855,0.01029 -0.352313,-0.228076 z m 0.52466,-0.388856 c 0.616381,0.09903 2.109813,0.835712 1.085562,0.423872 -0.391329,0.02464 -1.022221,-0.225702 -1.085562,-0.423872 z m 0.820649,-0.303906 c 0.0038,-7.21e-4 0.0076,-0.0021 0.01123,-0.0028 -0.0038,8.15e-4 -0.0075,0.0019 -0.01123,0.0028 z m 0.01123,-0.0028 c 0.145562,-0.03331 0.288552,-0.07214 0.429351,-0.113284 -0.0139,0.05216 0.02693,0.109004 0.09991,0.16685 -0.166087,-0.06197 -0.33865,-0.09014 -0.52923,-0.05359 z m 0.52923,0.05359 c 0.15258,0.05694 0.299971,0.14314 0.450668,0.233556 l -0.0024,0.01101 c -0.171791,-0.07601 -0.34297,-0.160949 -0.448192,-0.244478 z m -0.0999,-0.166825 c 0.02137,-0.08014 0.1709,-0.148978 0.531669,-0.192744 0.008,0.0028 0.01491,0.0043 0.02284,0.007 -0.175286,0.06673 -0.361382,0.129289 -0.554503,0.185746 z m 0.554507,-0.185746 c 0.02164,-0.0082 0.0451,-0.01571 0.06637,-0.0241 0.0434,-0.02198 0.05786,-0.02856 0.09286,-0.04599 -0.0091,0.03686 -0.01818,0.07371 -0.02741,0.110529 -0.04364,-0.01313 -0.0861,-0.02494 -0.131846,-0.0405 z m -1.48629,-0.876975 c 0.657963,-0.02935 1.878092,0.437454 0.465285,0.212544 -0.864889,0.388389 -0.874311,-0.01207 -0.465285,-0.212544 z m 0.72655,-0.232031 c 0.09079,-0.05461 0.196329,-0.08366 0.305115,-0.09592 -0.105765,0.04426 -0.212836,0.08133 -0.305115,0.09592 z m 0.305116,-0.09592 c 0.374676,-0.156806 0.716663,-0.391179 0.268879,0.0015 -0.08783,-0.009 -0.178916,-0.01166 -0.268879,-0.0015 z m 0.268879,0.0015 c 0.490277,0.05035 0.846209,0.328297 -0.07244,0.06367 0.02945,-0.02543 0.048,-0.04207 0.07244,-0.06367 z m -5.168064,1.331907 c 0.140762,0.13695 0.267399,0.30833 0.372714,0.516441 -0.202842,-0.02509 -0.33377,-0.253371 -0.372714,-0.516441 z m 1.169298,-1.55633 c 0.748574,-0.108378 1.827113,1.139802 0.676306,0.170219 -0.350055,-0.05888 -0.577191,-0.118594 -0.676306,-0.170219 z m 0.11599,-0.123354 c 0.121637,-0.0169 0.307696,-0.0258 0.56151,-0.02284 0.141241,-0.139541 0.382118,-0.121324 0.599569,-0.06059 -0.32313,0.116895 -0.908617,0.315736 -1.161079,0.08343 z m 1.161079,-0.08344 c 0.217525,-0.07869 0.316394,-0.119842 0.11023,0.03471 -0.0358,-0.01266 -0.07231,-0.02412 -0.11023,-0.03471 z m 0.11023,0.03471 c 0.357553,0.126426 0.577171,0.32528 -0.0024,0.0018 10e-4,-7.82e-4 0.0014,-10e-4 0.0024,-0.0018 z m -0.588609,-0.419608 c 0.01805,0.09442 0.01795,0.115874 0,0 z m 1.119981,-0.777697 c 0.26141,0.0015 0.516106,0.08823 0.743907,0.288367 -0.304293,0.02306 -0.606681,-0.105129 -0.743907,-0.288367 z m 0.743907,0.288367 c 0.200367,-0.01519 0.40039,-0.09661 0.5542,-0.271619 -0.05543,0.197595 0.227487,0.411221 -0.285018,0.580388 -0.08382,-0.124765 -0.174381,-0.225478 -0.269169,-0.308756 z m 0.5542,-0.271619 c 0.01187,-0.04231 0.03842,-0.08401 0.09257,-0.124242 -0.02816,0.04633 -0.05965,0.08679 -0.09257,0.124242 z m -0.360533,-1.005443 c 0.0501,-0.01156 0.101013,-0.02044 0.152558,-0.0268 -0.05083,0.0089 -0.10165,0.01802 -0.152558,0.0268 z m 0.152558,-0.0268 c 0.311204,-0.05446 0.620646,-0.113544 0.925391,-0.197323 -0.06449,0.101781 -0.08142,0.209359 0.01766,0.298418 -0.138428,-0.05917 -0.551341,-0.149395 -0.943051,-0.101095 z m 0.943051,0.101096 c 0.03552,0.01518 0.05432,0.02827 0.04841,0.03625 -0.01856,-0.01162 -0.03452,-0.02378 -0.04841,-0.03625 z m -0.0176,-0.298397 c 0.198953,-0.314015 0.868708,-0.5703 0.129105,-0.03625 -0.04288,0.01284 -0.08605,0.0244 -0.129105,0.03625 z m -0.785927,-0.432398 c 0.647029,0.04318 1.563067,-0.317096 0.415953,0.08557 -0.534673,0.208012 -0.49461,0.08416 -0.415953,-0.08557 z m 0.81334,-0.872669 c 0.14324,0.06234 0.256333,0.171112 0.306633,0.341964 -0.194795,-0.05811 -0.2907,-0.18786 -0.306633,-0.341964 z m 0.345004,5.395531 c -0.01906,0.07773 -0.03844,0.155383 -0.05816,0.232946 -0.123307,-0.02545 -0.05378,-0.12666 0.05816,-0.232946 z m -11.802631,7.219207 c -0.842951,0.02108 -0.351739,1.170621 0.02527,1.59652 -0.111673,0.513529 0.609625,0.388295 1.030447,0.524969 -0.0022,-0.01615 -0.0055,-0.03188 -0.0073,-0.04811 0.767014,-0.383356 1.182037,0.445839 1.765827,1.088911 -0.01332,-0.11742 -0.01235,-0.251748 0.01401,-0.392811 0.138696,-0.172995 0.2326,-0.346288 0.290499,-0.516746 -0.06771,-0.05937 -0.13347,-0.115803 -0.19853,-0.170224 0.07886,0.01656 0.155248,0.03876 0.229596,0.06608 0.258325,-1.019739 -0.799874,-1.906734 -1.881843,-1.919604 -0.199746,0.04102 -0.23844,0.179222 -0.174177,0.362668 -0.14141,-0.162358 -0.217785,-0.184495 -0.124245,0.10748 0.03129,1.614471 -0.05393,-0.683042 -0.969545,-0.699144 z m 1.093783,0.591654 c 0.122318,0.140448 0.290764,0.384199 0.446406,0.631239 -0.214815,-0.22175 -0.382458,-0.448672 -0.446406,-0.631239 z m 0.446406,0.631239 c 0.231127,0.238623 0.515721,0.468854 0.788974,0.63063 0.340634,0.574994 0.137634,0.812208 -0.416564,0.05116 -0.03712,-0.119213 -0.195102,-0.400375 -0.372406,-0.681787 z m 0.788975,0.630633 c -0.02952,-0.04981 -0.0615,-0.101116 -0.09929,-0.155586 0.062,-0.09957 0.350856,0.100712 0.690313,0.38459 -0.01289,-0.0028 -0.02508,-0.0067 -0.03807,-0.0091 -0.158942,-0.01833 -0.352631,-0.101242 -0.552982,-0.219854 z m -14.74689,8.272801 c -0.386285,0.494402 -0.202069,0.966419 0.07278,1.456145 -0.06192,-0.481919 -0.08292,-0.970811 -0.07278,-1.456145 z m 2.479586,1.24238 c -0.191774,0.0161 -0.69567,0.991059 -0.301155,0.520707 0.21697,-0.308879 0.319805,-0.450436 0.350787,-0.486298 -0.01196,-0.02454 -0.02852,-0.03621 -0.04963,-0.03441 z"
       sodipodi:nodetypes="cccccccccccccccccccccccccccccccccccccccccccccccccccccccccccccccccccccccccccccccccccccccccccccccccccccccccccccccccccccccccccccccccccccccccccccccccccccccccccccccccccccccccccccccccccccccccccccccccccccccccccccccccccccccccccccccccccccccccccccccccccccccccccsccccccccccccccccccccccccccccccccccccccccccccccccccccccccccccccccccscscccscccccccccccccscccccccccccccccccccccccccccscsscsccccccccscsscsccccccccscsssccccccscccccccscscscccccccccccccscsssccccccssccccccccccccccccccccccccccccccccccccccccccccccscccsccccscccccscccccccccccccccccccccccccccccccccccccccccccccccccccccccccccccscsccccccccccccccccccccscssccsscccsccssssccss" /><g
       id="g2316"
       transform="matrix(-1,0,0,1,71.431464,0)"><path
         style="fill:black;stroke:black;stroke-width:0.5;stroke-linecap:round;stroke-linejoin:round;stroke-dasharray:none"
         d="M 46.71573,39.999998 H 26.715731 m 0,0 -4.999999,-19.999999 m 0,0 H 51.71573 m 0,0 -5,19.999999"
         id="path844"
         sodipodi:nodetypes="cccccccc" /><g
         id="g2299"><circle
           style="fill:none;stroke:black;stroke-width:0.5;stroke-linecap:square;stroke-linejoin:round;stroke-dasharray:none"
           id="path846"
           cx="29.215731"
           cy="43.999996"
           r="2.45" /><circle
           style="fill:none;stroke:black;stroke-width:0.5;stroke-linecap:square;stroke-linejoin:round;stroke-dasharray:none"
           id="circle848"
           cx="44.265732"
           cy="43.999996"
           r="2.45" /><path
           style="fill:none;stroke:black;stroke-width:0.5;stroke-linecap:round;stroke-linejoin:round;stroke-dasharray:none"
           d="m 53.71573,11.999999 h 5"
           id="path850"
           sodipodi:nodetypes="cc" /><path
           style="fill:none;stroke:black;stroke-width:0.5;stroke-linecap:round;stroke-linejoin:round;stroke-dasharray:none"
           d="M 51.715728,19.999999 53.71573,12.000007"
           id="path866"
           sodipodi:nodetypes="cc" /><path
           style="fill:black;stroke:black;stroke-width:0.499999;stroke-linecap:round;stroke-linejoin:round;stroke-dasharray:none"
           d="m 28.715731,39.999996 -4,-19.999997"
           id="path1476" /><path
           style="fill:black;stroke:black;stroke-width:0.499999;stroke-linecap:round;stroke-linejoin:round;stroke-dasharray:none"
           d="m 30.715731,39.999996 -3,-19.999997"
           id="path1478" /><path
           style="fill:black;stroke:black;stroke-width:0.499999;stroke-linecap:round;stroke-linejoin:round;stroke-dasharray:none"
           d="m 32.715731,39.999996 -2,-19.999997"
           id="path1480" /><path
           style="fill:black;stroke:black;stroke-width:0.499999;stroke-linecap:round;stroke-linejoin:round;stroke-dasharray:none"
           d="m 34.715731,39.999996 -1,-19.999997"
           id="path1482" /><path
           style="fill:black;stroke:black;stroke-width:0.499999;stroke-linecap:round;stroke-linejoin:round;stroke-dasharray:none"
           d="M 36.71573,39.999996 V 19.999999"
           id="path1484" /><path
           style="fill:black;stroke:black;stroke-width:0.499999;stroke-linecap:round;stroke-linejoin:round;stroke-dasharray:none"
           d="m 44.715729,39.999996 4,-19.999997"
           id="path1486" /><path
           style="fill:black;stroke:black;stroke-width:0.499999;stroke-linecap:round;stroke-linejoin:round;stroke-dasharray:none"
           d="m 42.71573,39.999996 3,-19.999997"
           id="path1488" /><path
           style="fill:black;stroke:black;stroke-width:0.499999;stroke-linecap:round;stroke-linejoin:round;stroke-dasharray:none"
           d="M 40.715729,39.999996 42.71573,19.999999"
           id="path1490" /><path
           style="fill:black;stroke:black;stroke-width:0.499999;stroke-linecap:round;stroke-linejoin:round;stroke-dasharray:none"
           d="m 38.715731,39.999996 1,-19.999997"
           id="path1492" /></g></g><path
       style="fill:none;stroke:black;stroke-width:0.1;stroke-linecap:round;stroke-linejoin:round"
       d="m 6.6032787,15.142839 c 1.72252,-0.900714 1.628976,1.73022 1.628976,1.73022"
       id="path3451" /><path
       style="fill:none;stroke:black;stroke-width:0.1;stroke-linecap:round;stroke-linejoin:round"
       d="m -21.680946,43.42721 c -1.950339,2.105494 -4.616352,2.947392 -4.616352,2.947392"
       id="path3457" /></g></svg>
