<?xml version="1.0" encoding="UTF-8" standalone="no"?>
<!-- Created with Inkscape (http://www.inkscape.org/) -->

<svg
   width="48mm"
   height="48mm"
   viewBox="0 0 47.999999 47.999999"
   version="1.1"
   id="svg5"
   xml:space="preserve"
   inkscape:version="1.2.2 (732a01da63, 2022-12-09)"
   sodipodi:docname="radacina-buton-mare-sting.svg"
   xmlns:inkscape="http://www.inkscape.org/namespaces/inkscape"
   xmlns:sodipodi="http://sodipodi.sourceforge.net/DTD/sodipodi-0.dtd"
   xmlns="http://www.w3.org/2000/svg"
   xmlns:svg="http://www.w3.org/2000/svg"><sodipodi:namedview
     id="namedview7"
     pagecolor="#ffffff"
     bordercolor="#000000"
     borderopacity="0.25"
     inkscape:showpageshadow="2"
     inkscape:pageopacity="0.0"
     inkscape:pagecheckerboard="false"
     inkscape:deskcolor="#d1d1d1"
     inkscape:document-units="mm"
     showgrid="false"
     inkscape:zoom="0.7071068"
     inkscape:cx="489.31788"
     inkscape:cy="38.183765"
     inkscape:window-width="1280"
     inkscape:window-height="971"
     inkscape:window-x="-8"
     inkscape:window-y="-8"
     inkscape:window-maximized="1"
     inkscape:current-layer="layer1"><inkscape:grid
       type="xygrid"
       id="grid1049"
       units="mm"
       spacingx="3.9999999"
       spacingy="3.9999999"
       originx="4.9999988e-07"
       originy="4.9999985e-07"
       empspacing="10" /></sodipodi:namedview><defs
     id="defs2" /><g
     inkscape:label="Layer 1"
     inkscape:groupmode="layer"
     id="layer1"><path
       id="path1110"
       style="fill:black;stroke:none;stroke-width:0.1;stroke-linecap:round;stroke-linejoin:round"
       d="m 48.000256,0 a 47.999996,48.000004 0 0 1 -5.17e-4,0.00981852 C 47.764009,0.13558825 47.057381,0.49208805 46.434977,0.76997884 46.728656,0.34854103 47.284582,-0.00629867 48.000256,0 Z M 46.434977,0.76997884 C 46.268397,1.0090264 46.185484,1.268705 46.209151,1.497583 45.291218,1.0981064 43.637175,1.8371672 44.173099,2.409672 45.222394,2.2136435 44.982262,2.6476229 44.828873,2.9786296 44.623285,2.9649106 44.432176,2.9300786 44.284721,2.8551229 43.53021,1.5527986 42.793225,3.0988806 42.072452,3.5816935 41.540673,4.158921 40.65715,4.7093354 40.342325,5.3030355 c 1.299803,-0.7628909 2.653406,-0.9805743 3.990971,-1.2102621 -0.334196,0.077439 -0.640734,0.2263521 -0.84801,0.4924764 -0.906998,0.34843 -1.011065,0.8276562 -0.743107,1.1854574 -0.673834,-0.00391 -1.372181,0.3210223 -1.970939,0.8087362 0.0319,0.2502767 0.05427,0.4077297 0.07028,0.5110799 -0.07267,-0.3798524 -0.321044,-1.4317262 -0.781865,-1.6438273 -1.109528,0.8077075 -2.119162,1.8809774 -3.112471,2.8515055 -2.455306,2.4016685 1.45156,-1.3012356 2.579171,-0.6547404 0.03522,0.1013856 0.08936,0.1799963 0.156579,0.2418457 -0.311039,0.043229 -0.371085,0.1185577 -0.196887,0.2092896 -0.213595,0.030926 -0.411848,0.1246123 -0.573092,0.3147094 -2.24989,0.9911294 3.077466,1.2157227 1.129647,1.2836426 0.409602,1.3561596 0.27992,0.5240276 -0.740523,-0.1276408 -1.441622,-0.8243758 -1.930796,0.289717 -1.800407,1.1704714 -1.120488,-1.0900023 -2.776144,-0.868517 -3.778064,0.519348 -1.376117,1.921123 -2.189593,4.219592 -4.202844,5.511291 0.725957,-0.359688 2.707612,-1.288729 3.846277,-1.910477 1.387614,-0.361869 2.71088,-1.168563 3.845243,-1.894458 2.165316,-0.355615 3.591207,-2.015481 5.380033,-3.1507123 0.753674,-0.3498517 3.634144,-3.0305531 2.324406,-1.7394287 -0.148805,0.505233 0.06214,0.6148233 0.381372,0.5643066 -0.09881,0.059467 -0.187466,0.1360367 -0.260449,0.2340942 -0.392511,-0.03978 -0.72634,0.039007 -0.97255,0.1596802 -0.03134,0.0014 -0.06486,8.453e-4 -0.09457,0.00362 -0.646016,0.2452296 -3.34732,2.467114 -2.089795,2.16886 0.874746,0.167977 1.966979,0.06654 3.017904,-0.172082 -0.126742,0.02589 -0.257957,0.0675 -0.395325,0.130224 -0.810418,0.03219 -1.058334,0.194727 -0.997355,0.385507 -0.118662,-0.01906 -0.223268,-0.02778 -0.295073,-0.01447 -1.212572,-0.06422 -1.01749,0.319769 -0.595312,0.674378 -1.35404,-0.636664 -2.950223,0.07888 -3.990454,1.162203 -1.865473,1.118829 0.735618,1.744844 1.330668,0.591695 1.1162,-1.084899 2.629429,-0.505538 3.926892,-0.709518 -0.18743,0.228149 0.0054,0.505861 0.376721,0.751376 -0.464545,-0.195258 -0.93935,-0.354528 -1.178739,-0.304375 -0.681262,-0.08965 -1.05345,-0.03919 -1.123963,0.08527 -0.953705,-0.319638 -2.123691,-0.275473 -1.699121,0.831991 1.018775,0.320133 2.154337,0.486622 3.233911,0.668693 -0.802768,0.188401 -1.458829,0.993529 0.344682,0.991671 -0.417819,0.32119 -2.475082,-0.826331 -3.379639,-1.145667 -1.682869,-1.521661 -1.656788,3.487243 -1.945617,1.106393 -0.353342,-2.296533 -2.039312,-1.943516 -3.478341,-0.86093 -1.046217,0.284896 -0.898597,0.659113 -0.502812,0.929659 -1.231673,0.209896 -3.712039,0.889924 -1.720308,1.688786 1.887663,1.125426 4.256958,-2.290104 5.515426,-0.383439 -0.597488,-0.04785 -1.19873,-0.09743 -1.869654,-0.107487 -1.144701,0.179753 -1.326443,0.52409 -0.842326,0.754993 -0.586376,0.02292 -1.112053,0.268287 -1.647444,0.717785 -1.649892,-1.799543 -2.558,0.674525 -4.045748,1.51412 -0.405579,-0.757625 -3.10635,0.979752 -1.423169,0.981852 1.393994,0.909486 2.810644,0.989372 3.978052,-0.447001 0.790866,-0.502705 2.314765,-1.4997 3.58066,-1.27124 1.289056,-1.908063 3.264908,-0.887919 5.124235,-1.367875 -0.16768,0.198517 -2.657881,0.103821 -3.572909,0.822688 -0.616805,0.537713 -0.604128,0.708341 -0.315743,0.720887 -0.357375,0.110607 -0.677946,0.243907 -0.877466,0.398425 -0.8406,0.592109 -4.331604,0.908014 -3.33468,2.16886 1.445917,-0.164683 2.303422,-0.489015 3.468006,-1.718242 0.638811,-0.356477 1.349886,-0.862297 2.072741,-1.074869 0.320475,-0.06317 0.61062,-0.106192 0.772563,-0.0708 0.0091,-0.0081 0.01103,-0.01497 0.0098,-0.02119 0.190439,0.01502 0.380445,0.05811 0.568441,0.144177 0.154674,-0.01881 0.459076,-0.138369 0.814938,-0.299724 0.02082,0.03587 0.04975,0.07185 0.08578,0.108521 -0.736036,0.128612 -1.989736,0.732898 -1.952852,1.273307 -0.387345,-0.09766 -0.773942,-0.04211 -1.005623,0.364836 -1.670506,0.743718 -0.809113,1.787965 0.05684,1.457792 0.923726,0.275776 1.691398,0.148903 2.529561,0.01602 -0.02418,0.210705 0.226793,0.536212 0.611849,0.835608 -1.097189,-0.655777 -2.537641,-0.684581 -3.552238,0.0124 -1.297142,-0.345946 -0.939752,0.868142 0.544153,0.732255 -0.02497,1.615109 -1.889701,0.07796 -2.214852,-1.346171 -0.495806,-0.905379 -4.399638,0.09394 -2.714563,1.207678 0.384079,0.458937 1.007598,0.790733 1.690336,0.954464 -0.266544,0.129372 -0.377398,0.294417 -0.377238,0.481107 -0.782724,-0.567383 -1.664873,0.18436 -2.190564,1.07487 1.005631,0.446036 1.790506,1.412662 2.64325,2.182296 -0.107291,0.0023 -0.122746,0.230534 0.02739,0.777214 0.354568,1.00131 -0.701782,-1.264664 -1.385962,-1.472779 -0.352634,-0.317661 -0.881262,-0.8179 -1.400948,-1.278991 -0.193008,0.373867 -0.321107,0.755652 -0.346232,1.06195 0.07584,0.344474 0.107207,0.592945 0.110071,0.765845 0.703129,0.630933 0.654273,0.591814 10e-4,0.01912 0.0032,0.546697 -0.295798,0.266001 -0.389123,-0.315226 -0.06817,0.945518 0.195706,0.588159 -0.785999,-0.399976 -0.202182,-0.856107 -0.990537,-1.008737 -1.6769,-0.847493 0.486434,1.338841 -0.03011,0.963141 -0.350883,0.113171 -0.71992,0.298491 -1.146057,0.918862 -0.241845,1.278992 1.267938,0.01959 2.234426,0.941539 3.133658,1.820561 1.297293,1.093035 0.350711,0.587439 -0.409794,-0.213941 -1.028112,-1.046827 -1.217731,-1.048361 -0.174666,0.349333 1.659396,1.800917 -0.144473,0.126705 -0.803569,-0.555522 -1.165867,-1.125642 -2.141788,-0.770219 -0.811836,0.604098 0.352822,0.728169 1.845773,1.66519 1.955953,2.046387 -2.235525,-1.708941 0.561677,2.328481 -0.444418,1.636592 -0.333892,-1.506559 -1.261469,-2.702154 -2.089795,-4.050915 -0.708543,-2.542666 -0.976498,0.856751 -0.08888,1.964221 -0.816725,-0.83721 -0.316926,0.228904 -0.165365,0.968416 -0.291374,-0.581861 -0.955862,-1.582852 -0.954463,-2.096513 0.09592,-1.882133 -1.13834,1.416183 -0.480591,1.946135 -0.126404,0.498125 -0.159317,1.052556 -0.06976,1.557527 -0.03666,-0.06212 -0.07261,-0.119198 -0.108004,-0.166398 -1.020955,-1.526835 -1.195621,-0.336061 -0.857312,0.674894 -0.394886,1.065131 2.080945,4.016267 0.146244,2.189531 0.151164,1.989721 0.04554,0.538588 -0.200504,-0.858862 -0.241442,-1.718883 -1.54182,1.243528 -1.351339,2.551782 -0.142068,-0.0782 -0.250112,0.08244 -0.238228,0.756026 -1.14849,2.044256 0.306068,-0.935378 0.144694,-1.753381 0.205452,-1.002804 -0.136253,-1.03026 -0.561207,-0.772046 0.860519,-1.250033 1.443089,-3.193279 -0.01654,-2.214852 -0.568323,0.314348 -2.6572,0.758596 -1.665015,1.854667 1.800355,0.418574 -0.587136,2.528086 0.06408,0.517798 -2.075721,-1.788228 1.237753,-2.751792 2.267562,-3.723287 1.068484,-1.459257 1.494891,-3.313569 2.118734,-4.930965 -0.642566,-2.782371 -0.912656,0.434552 -2.435511,0.700732 -0.989712,0.183408 -0.741045,1.403494 -0.413411,2.27583 -0.76997,-1.22062 -0.639085,3.538798 -0.825789,1.83193 -1.189124,-0.783293 0.960074,-4.649013 -0.93121,-3.019971 -1.133312,0.382237 -0.455807,2.066047 0.001,2.876827 -1.131906,-0.700321 -1.589746,-1.998754 -0.652673,-2.837036 0.834999,-1.724357 3.405505,-1.411535 3.76101,-3.444234 0.204574,-1.734152 -1.765703,-0.621501 -2.833935,-0.568441 -1.615379,0.221907 -1.661023,1.728143 -1.427303,2.937805 -0.109068,-0.238851 -0.265229,-0.395148 -0.485242,-0.324528 -1.017368,1.319713 -1.817615,3.621826 -0.05788,4.539775 -0.08964,-0.14804 -0.153202,-0.322467 -0.174666,-0.52865 0.156781,0.185588 0.278914,0.395255 0.375171,0.622701 0.142368,0.05957 0.297664,0.112097 0.469222,0.155029 1.866641,0.396978 0.438999,0.748391 -0.380339,0.08113 0.316882,0.949031 0.2692,2.144378 0.396359,3.185335 0.489026,1.808614 -0.09261,-0.08993 -0.377238,0.187069 0.0421,-0.901418 -0.178152,-2.72991 -0.794784,-3.371887 -0.04507,0.297463 0.573406,2.745736 -0.03359,3.787882 -6.71e-4,0.284556 0.07431,0.50798 0.196371,0.690398 -0.06366,0.08581 -0.0384,0.507634 -0.02894,1.291394 -0.310532,0.615814 -1.337723,-1.738816 -1.227315,-2.477885 -0.350446,-0.05564 -0.499777,0.155917 -0.521415,0.499711 -0.623118,0.683364 -1.582018,1.996194 -0.919324,2.796212 0.02376,0.02405 0.02613,0.02482 0.03979,0.03772 -0.173896,-0.149991 -0.820601,-0.604521 -1.087789,0.237195 0.124273,0.151105 0.156729,0.250261 0.02532,0.255798 0.782433,2.615974 -0.965632,-0.369256 -1.617472,-1.065568 -0.32691,-0.690189 -0.514163,-0.981942 -0.611332,-1.019059 0.104392,0.04817 0.231554,0.09777 0.391707,0.149345 0.366063,0.406173 1.439285,1.236964 1.79989,1.665531 0.16075,-1.584645 0.379045,-2.897184 1.414901,-3.955314 1.113911,-1.001365 1.255333,-2.896446 0.978752,-4.243668 -0.548435,-0.951497 -2.634403,2.362649 -2.356446,3.559989 0.08257,2.355374 0.02239,-0.740303 -0.401526,-0.304891 -1.340977,2.403087 0.566964,-1.921419 -0.787032,-0.565857 -1.535787,2.264858 -0.116012,-2.999275 0.165882,-1.789038 0.210873,3.172751 1.913663,-0.810522 1.555977,-1.923397 0.02911,-0.149964 0.03957,-0.269287 0.03772,-0.367936 0.232269,0.577165 0.416668,1.356986 0.983919,0.736906 1.341861,-0.935837 0.302584,-2.839729 0.93431,-4.133081 0.787268,-0.83815 1.136277,-4.13455 -0.04444,-1.841231 -0.34443,1.318059 -1.725519,2.143118 -2.110982,3.225126 -0.539019,0.988931 -1.649063,1.773416 -1.623673,2.994132 -0.222317,0.51762 -0.436788,1.080429 -0.581877,1.653129 -0.340109,-0.109385 -1.026108,0.08066 -0.466638,-0.599446 0.809163,-0.775568 1.31913,-3.890237 -0.151929,-1.58595 -0.723447,1.181587 -0.455317,2.554471 -0.933276,3.887101 -0.551314,0.774951 -0.26216,2.042887 0.397908,2.639633 -0.04169,0.212146 -0.106114,0.586172 -0.227893,1.07642 -0.865351,1.02265 -0.807085,2.166199 -0.188619,2.813265 -0.576428,-0.201871 -0.518731,-1.192503 -0.384989,-1.901176 -0.58381,1.530009 0.05241,2.590725 -0.129708,4.291211 -0.381189,1.974258 0.110066,-0.529775 -0.444417,0.409794 -1.190418,2.12819 0.15015,-0.275831 0.330212,-1.154452 -1.548123,-1.416884 0.01736,-2.996077 0.158647,-4.778519 -0.585081,1.207121 -2.141183,2.562488 -2.570386,3.608048 0.0047,-0.113094 -0.0038,-0.192443 -0.02325,-0.241846 -0.09967,0.188382 -0.735164,1.177103 -1.07797,1.783354 -0.398081,-0.428059 0.828134,-3.509626 2.382284,-4.12688 0.359296,-0.727819 2.760407,-4.332869 0.612365,-2.445845 -0.931431,1.031329 -1.518562,1.107736 -0.248563,-0.206189 1.541687,-1.468908 0.322473,-0.912608 -0.684196,0.105936 -1.857984,1.808807 0.2646,-0.86226 1.056783,-1.37976 1.604532,-2.337151 -2.045321,1.504099 -0.95343,-0.279053 1.761178,-2.002333 -1.180815,0.09677 -1.739429,0.358634 1.025552,-1.359221 3.260117,-1.492773 3.210657,-3.499011 1.629839,-2.263519 -1.930095,-1.288216 -2.232422,0.225826 -0.564452,0.9004 -1.894786,2.3388 -1.200444,3.969267 1.04472,0.676873 -0.456979,4.436033 -0.733805,2.688725 0.06459,-1.002653 -0.04493,-1.108068 -0.248564,-0.854729 0.145639,-0.708814 0.09438,-1.499565 0.09302,-2.216402 -0.131685,-0.20778 -0.81744,0.496104 -1.302246,1.362191 -1.648673,0.863959 -3.428173,2.140717 -3.321761,4.175972 -0.06677,0.138272 -0.263862,0.544194 -0.499195,1.017509 0.432582,-0.392683 1.119746,-0.968615 1.47743,-1.34462 0.390931,-1.111519 1.481216,-2.578276 2.149739,-3.471623 -0.287609,0.627451 -0.424066,1.282767 -0.148828,1.711523 -1.110867,1.778313 1.474021,2.154073 0.622184,3.846794 0.807568,0.420826 0.430866,4.083601 -0.435115,2.286682 -0.446169,-0.95554 -0.730156,-1.972527 -0.895036,-3.013769 -0.143099,-0.178942 -0.260922,-0.175176 -0.31471,0.195336 -0.7492,0.871947 -1.058061,3.744693 -0.933793,3.805453 0.07956,-2.517563 0.205244,1.516556 -0.444417,0.490926 0.281948,-1.300422 -0.127277,-0.07826 -0.444934,0.381372 a 47.999996,48.000004 0 0 1 -0.278019,0.02274 c -0.0191,-0.08032 -0.0308,-0.19764 -0.03307,-0.363286 C 2.5073,45.547387 4.465317,44.079285 5.023983,42.341081 3.949012,43.347424 1.05607,46.964525 0,48.000167 v -0.04341 C 0.08359,47.450788 2.790526,44.344452 3.143994,43.907908 3.747539,43.25833 5.53203,42.034335 3.556889,42.954995 3.258448,43.130328 3.05946,43.237962 2.925403,43.301744 2.302908,44.539082 1.561997,45.928271 2.045353,44.509422 3.13173,42.074249 1.979993,44.621937 0.960148,45.281468 -0.526813,45.022963 2.939488,43.325833 2.830835,42.242894 3.525802,40.94263 3.178821,41.150576 2.650484,41.635179 3.173502,41.045465 3.711948,40.259128 3.512447,39.722117 2.338919,40.632375 1.172632,41.834054 0,42.873346 0.04357,41.501674 2.650207,39.7165 2.38125,40.062148 c 2.144655,-1.2106 4.05551,-2.617178 5.399671,-4.758883 0.929849,-1.024833 3.613771,-4.25584 0.829406,-2.764689 -0.185544,0.29015 -0.772165,0.983953 -1.267106,1.560112 0.702801,-1.120126 0.278082,-1.0393 -0.365869,-0.505396 0.631614,-0.605741 1.419676,-1.431759 2.270662,-1.686202 2.643474,0.213095 3.134331,-2.677671 4.844666,-3.788399 1.754902,-0.39415 1.839349,-2.102366 2.625163,-3.494877 0.254029,-1.160171 0.237453,-2.179362 -0.444934,-3.519165 -1.900906,-1.738363 -3.686695,-3.605696 -5.507675,-5.430676 L 8.5e-5,4.8849731 V 0 H 5.144474 L 15.77535,10.65413 c 1.190345,1.274117 2.44966,2.465147 3.961515,3.3507 0.940392,0.618805 2.521532,1.582219 3.117122,1.862419 1.529444,0.650195 3.011563,0.400115 4.48138,-0.214974 0.815732,-0.636454 1.561482,-1.61656 2.332158,-1.90376 1.658389,-0.531148 3.165983,-1.865892 4.168738,-3.323312 0.77558,-1.3732717 2.157209,-2.8872592 2.667537,-4.173905 1.01406,-1.125552 2.388535,-2.0735892 3.464905,-3.264917 1.490377,-1.279855 0.223435,-0.1188337 -0.382406,0.5787761 -0.894095,1.0734038 -2.465124,1.7587687 -2.644283,3.1631144 1.928081,-1.221533 3.431257,-3.1003611 5.25291,-4.4865479 1.142942,0.203368 3.089272,-3.11150475 2.534212,-1.75958249 -0.152009,0.21419643 -0.233266,0.34770293 -0.271301,0.43098145 -1.08623,0.93608354 2.133611,-0.7518112 1.598868,-0.35760091 -1.068593,0.78506525 -0.449771,0.58416155 0.378272,0.21445719 z m -1.97714,0.14314372 C 44.562984,0.82250971 44.693809,0.71577621 44.887268,0.57154134 45.341229,0.15194829 45.526176,4.0072362e-4 45.551827,0 c 0.07804,-0.00121911 -1.312665,1.3919147 -1.09399,0.91312256 z M 6.977437,33.593298 c -0.156416,0.150009 -0.305981,0.290136 -0.441317,0.400493 0.152495,-0.15294 0.300204,-0.283495 0.441317,-0.400493 z m 0.365869,0.505396 c -0.02876,0.04584 -0.05421,0.08807 -0.08682,0.137976 -1.086304,1.204134 -0.593408,0.65387 0.08682,-0.137976 z m -4.692737,7.536491 c -0.497343,0.560764 -0.980698,0.944293 -0.800468,0.76171 0.246745,-0.229655 0.543482,-0.525996 0.800468,-0.76171 z M 6.72939,38.133073 c 0.05875,-0.128162 0.124571,-0.253586 0.193787,-0.377238 0.04863,-0.02548 0.0979,-0.0543 0.146244,-0.07906 -0.0842,0.115225 -0.21967,0.295464 -0.340031,0.456303 z m 1.403015,0.476973 c -0.131517,0.640086 -0.423272,1.213719 -1.062984,1.603003 0.397863,-0.389685 0.80575,-1.282979 1.062984,-1.603003 z m 1.879989,3.901571 c -0.0063,0.150184 -0.03538,0.358698 -0.09767,0.647506 -0.03938,-0.196798 0.0022,-0.414874 0.09767,-0.647506 z m 3.040641,-0.474906 c 0.09134,0.03199 0.196467,0.04636 0.321944,0.03411 0.525031,-0.01673 0.860585,0.138755 1.065568,0.38654 0.116118,-0.284693 0.399333,-0.391778 1.031979,-0.158647 -0.342789,0.150876 -0.666074,0.229621 -0.964283,0.251148 0.52885,0.816068 -0.09081,2.406878 -0.280603,2.613277 0.460584,-0.634208 0.01375,-1.954563 0.180868,-2.60811 -0.568521,0.01641 -1.036347,-0.184431 -1.355473,-0.518314 z m 0.416512,-3.889685 c 0.04928,-0.25077 0.06911,-0.233722 0.10387,0.08578 -0.03553,-0.02678 -0.07021,-0.05535 -0.10387,-0.08578 z m 0.10387,0.08578 c 0.138125,0.104115 0.289878,0.179002 0.451652,0.216525 -0.178889,0.136082 -0.179633,0.301862 0.238745,0.495577 -0.245868,-0.08465 0.102888,1.506658 0.219108,2.350761 -1.106615,0.20602 -0.543127,-1.742661 -0.835608,-2.320789 -0.03571,-0.359653 -0.05586,-0.576266 -0.0739,-0.742074 z m 0.451652,0.216525 c 0.279398,-0.212541 0.974963,-0.350638 1.185974,-0.410828 -0.418199,0.390163 -0.826428,0.494223 -1.185974,0.410828 z m 1.185974,-0.410828 c 0.01295,-0.01208 0.02579,-0.02199 0.03876,-0.03462 0.05651,0.0032 0.02611,0.01612 -0.03876,0.03462 z m -0.587561,-4.232817 c 0.210635,0.06774 0.282418,0.255138 -0.152962,0.832508 0.02912,-0.277472 0.08288,-0.555895 0.152962,-0.832508 z m -0.152962,0.832508 c -0.119792,1.141374 0.168391,2.25726 1.388029,3.075264 1.141716,1.73363 -0.01789,0.227381 -0.751892,-0.332279 -1.102548,-0.709212 -1.680662,-1.489943 -0.680579,-2.680973 0.01805,-0.02309 0.0279,-0.04007 0.04444,-0.06201 z m 2.595707,-3.467489 c -0.05278,-0.13116 -0.107686,-0.253543 -0.170532,-0.344682 0.101119,0.03278 0.166634,0.136625 0.170532,0.344682 z m -0.170532,-0.344682 c -0.21303,-0.06906 -0.578186,0.168543 -0.843876,0.381889 0.422144,-0.662455 0.664109,-0.642581 0.843876,-0.381889 z m -0.843876,0.381889 c -9.4e-4,0.0015 -0.0016,0.0027 -0.0026,0.0041 -0.507479,0.492759 -0.33293,0.265279 0.0026,-0.0041 z m 1.505851,9.329663 c 0.0494,0.04261 0.04756,0.04491 0,0 z m 0.879533,-2.833935 c 0.280163,-0.307251 0.492509,-0.487747 0.458886,-0.436149 -0.170889,0.161502 -0.3205,0.485198 -0.433048,0.854728 -0.02238,-0.152107 -0.03363,-0.294794 -0.02584,-0.418579 z m 0.02584,0.418579 c 0.125178,0.850938 0.66724,2.045207 1.055749,2.500622 0.765097,2.022143 -0.980584,-1.785577 -0.177767,0.654741 0.460735,2.240107 -1.188382,0.320037 -0.473872,-1.541508 -0.737507,0.910098 -0.729193,-0.546512 -0.40411,-1.613855 z m 1.751831,0.268201 c 0.04401,-0.05931 0.137652,0.05492 0.303341,0.315743 -0.117264,-0.09019 -0.221397,-0.193279 -0.303341,-0.315743 z m 0.303341,0.315743 c 0.560763,0.431306 1.430953,0.558699 1.737361,0.982885 0.0056,0.02763 0.03793,0.100703 0.09819,0.221175 0.0037,0.01804 0.0077,0.03581 0.0098,0.05478 -0.12881,2.329138 -0.537339,0.14092 -1.422135,-0.569474 -0.183263,-0.30009 -0.315758,-0.520182 -0.42323,-0.689363 z M 22.36358,39.965 c 6.14e-4,-0.0111 0.0015,-0.01866 0.0021,-0.02997 -0.0053,-0.01054 -0.007,-0.01498 -0.01189,-0.02481 -0.01701,-0.08235 -0.05069,-0.155423 -0.09819,-0.221175 -0.04226,-0.209186 1.23613,1.852529 0.108521,0.279053 -1.12e-4,-0.0011 -4e-4,-0.002 -5.17e-4,-0.0031 z m -1.516703,-2.680973 c -0.01425,0.305182 -0.05846,0.504911 -0.127641,0.515214 0.02088,-0.30503 0.06785,-0.45702 0.127641,-0.515214 z m 0.234611,-7.917863 c 0.332768,0.728741 0.221979,2.234375 0.10697,0.47439 -0.03893,-0.149602 -0.07516,-0.309777 -0.10697,-0.47439 z m 1.152901,3.911906 c 0.05686,0.03518 0.11397,0.06978 0.174149,0.101803 0.282792,0.547102 0.09116,0.369061 -0.174149,-0.101803 z m 1.755965,-1.688786 c 0.06977,0.110601 0.146032,0.265558 0.23151,0.483692 0.423802,0.807805 0.0641,0.303367 -0.23151,-0.483692 z m 0.0801,5.520077 c -0.339522,0.493207 -0.720704,0.881922 -1.039213,0.935343 -0.267546,0.293582 0.462653,-0.585009 1.039213,-0.935343 z m 0.654741,1.769401 c 0.395427,0.217667 1.059707,2.300112 0.173633,0.434599 -0.09162,-0.100898 -0.147048,-0.252008 -0.173633,-0.434599 z m 2.370915,-4.390947 c 0.160655,0.272252 0.332084,0.674067 0.499194,1.09089 -0.266377,-0.28751 -0.424921,-0.672079 -0.499194,-1.09089 z m 0.499194,1.09089 c 0.147671,0.159386 0.328011,0.288692 0.544153,0.378271 -0.407882,0.111031 -0.195782,0.617232 0.328662,1.363225 -0.178887,0.100191 -0.516583,-0.852948 -0.872815,-1.741496 z m 0.544153,0.378271 c 0.192907,-0.05251 0.523338,-0.01748 1.027327,0.124024 -0.407931,0.0416 -0.747293,-0.008 -1.027327,-0.124024 z m 0.46147,-2.87631 c 0.145974,0.291502 0.199974,0.479788 0.02636,0.444934 0.02667,-0.108944 0.01,-0.267669 -0.02636,-0.444934 z m 6.338111,-4.271055 c 0.07194,-0.0015 0.184803,0.09761 0.318327,0.274402 -0.107526,-0.08725 -0.213436,-0.179733 -0.318327,-0.274402 z m -0.452686,-3.257166 c 0.205614,0.149046 0.404561,0.387366 0.587561,0.740007 0.0685,0.11972 0.12245,0.240054 0.169499,0.359151 -0.418294,-0.378072 -0.756779,-0.771237 -0.75706,-1.099158 z m 0.75706,1.099158 c 0.563304,0.50914 1.269931,0.990429 1.493449,1.246953 0.590925,2.405839 -0.236006,-0.904064 -1.373043,-0.872815 -0.02964,-0.120006 -0.06953,-0.245367 -0.120406,-0.374138 z m 0.120406,0.374138 c 0.214271,0.867547 -0.0719,1.398833 -0.10697,0.0124 0.03583,-0.0077 0.0717,-0.01143 0.10697,-0.0124 z M 34.86359,25.071338 c 0.02677,-0.01299 0.05218,-0.02599 0.08217,-0.03824 0.365172,-0.106907 0.750344,-0.03435 1.121378,0.142627 -0.398757,0.02725 -0.810442,-0.01011 -1.203544,-0.104386 z m 1.203544,0.104386 c 0.413284,-0.02824 0.811777,-0.123582 1.156519,-0.301273 0.01207,0.05288 0.03815,0.09981 0.07493,0.14056 -0.268893,-0.01127 -0.514016,0.0321 -0.704867,0.162264 0.537718,0.508724 0.796283,0.888813 0.987537,1.328084 -0.380583,-0.510898 -0.928291,-1.05021 -1.51412,-1.329635 z m 1.51412,1.329635 c 0.45262,0.607602 0.667897,1.173448 0.413411,1.205611 -0.158206,-0.496979 -0.266542,-0.868281 -0.413411,-1.205611 z m -0.28267,-1.490348 c 0.218005,0.0091 0.451611,0.05561 0.685746,0.121956 -0.308024,0.07463 -0.561657,0.01549 -0.685746,-0.121956 z m 0.685746,0.121956 c 0.294552,-0.07136 0.638318,-0.264652 0.966866,-0.632003 1.644546,-1.42793 -1.203588,1.151355 0.261999,0.776697 0.02131,0.146823 0.153728,0.316775 0.468706,0.507463 0.479917,0.405913 -0.61073,-0.344205 -1.697571,-0.652157 z m 1.228865,0.144694 c -0.100824,-0.694538 2.346484,-0.860375 0.392225,-0.131258 -0.156708,0.06169 -0.285085,0.103869 -0.392225,0.131258 z m 1.897559,-1.770951 c 0.128373,0.07673 0.253336,0.159925 0.371037,0.253731 -0.132924,-0.07992 -0.25771,-0.165616 -0.371037,-0.253731 z m -0.611849,-0.835608 c 0.02454,-0.213835 0.332348,-0.309394 1.071769,-0.137976 -0.379871,0.02941 -0.731032,0.08395 -1.071769,0.137976 z m -1.580782,-1.838648 c 0.995997,0.251125 1.997026,1.516343 0.384989,0.431498 -0.26014,-0.130151 -0.374523,-0.278161 -0.384989,-0.431498 z m 1.952852,-1.273307 c 0.15902,-0.02779 0.296457,-0.03581 0.388607,-0.01344 0.756432,0.782686 1.717624,1.395318 0.222209,0.367936 -0.300655,-0.115851 -0.495105,-0.236729 -0.610816,-0.3545 z m -0.08578,-0.108521 c -0.253005,-0.435957 0.567675,-0.79488 1.307413,-0.655773 0.04687,-0.143709 0.220004,-0.281123 0.591179,-0.396875 0.73925,-0.355111 0.20655,-0.02511 -0.586011,0.397908 0.44025,0.08422 0.850396,0.344912 0.984953,0.872298 1.550734,0.660738 -1.203426,-0.177603 -0.991671,-0.868681 -0.414218,0.220954 -0.894043,0.464396 -1.305863,0.651123 z m -1.383379,0.155547 c -0.260607,-0.02055 -0.522062,0.01543 -0.782381,0.09198 -0.486887,0.09597 -1.042902,0.238255 -1.328601,0.225826 0.921775,-0.285289 2.092439,-0.412726 2.110982,-0.31781 z M 35.6129,18.256767 c 0.369277,-0.01444 0.762123,0.05861 1.19786,0.226859 -0.54579,-0.02274 -0.954369,-0.110725 -1.19786,-0.226859 z m 2.71198,-0.647506 c 0.199656,0.01599 0.401287,0.03011 0.60203,0.04444 -0.223651,0.02653 -0.417643,0.05651 -0.515214,0.09353 -0.028,-0.05013 -0.0576,-0.09371 -0.08682,-0.137976 z m 0.60203,0.04444 c 1.17212,-0.139068 3.545997,-0.132923 1.752348,0.05271 -0.630146,0.01537 -1.197415,-0.01309 -1.752348,-0.05271 z m -4.397148,-1.349789 c 0.202912,-0.03458 0.379257,-0.05992 0.488343,-0.06718 1.167572,0.628923 0.0806,0.456092 -0.488343,0.06718 z m 8.961727,-1.021126 c 0.320235,-0.07516 0.663273,-0.05495 0.883667,0.15813 -0.286656,-0.05659 -0.58426,-0.107635 -0.883667,-0.15813 z m -1.53479,-1.500684 c 0.468528,0.157029 0.885737,0.400048 1.034562,0.651124 -0.775852,-0.251249 -1.118238,-0.50343 -1.034562,-0.651124 z m 2.302702,0.219109 c 0.361082,0.15177 0.660291,0.299076 0.892969,0.413411 -0.335789,-0.109346 -0.65188,-0.25401 -0.892969,-0.413411 z m 0.892969,0.413411 c 0.06468,0.02106 0.1296,0.04174 0.195337,0.05995 0.234614,0.151118 0.07329,0.07205 -0.195337,-0.05995 z m -1.26969,-1.164787 c 0.127672,-0.155408 0.431211,-0.288063 0.976168,-0.371037 -0.302221,0.210685 -0.63197,0.316924 -0.976168,0.371037 z m -1.267106,-1.04438 c 0.205837,0.09678 0.406077,0.224276 0.597896,0.387056 0.661524,0.383919 -0.116345,0.01742 -0.597896,-0.387056 z m 0.890385,-0.659908 c 1.046036,0.168058 3.580483,1.418254 1.842264,0.719335 -0.664105,0.04183 -1.73477,-0.383027 -1.842264,-0.719335 z m 1.39268,-0.515731 c 0.0063,-0.0013 0.01281,-0.0034 0.01912,-0.0047 -0.0064,0.0015 -0.0127,0.0032 -0.01912,0.0047 z m 0.01912,-0.0047 c 0.247037,-0.05651 0.489703,-0.122377 0.728638,-0.192236 -0.02359,0.08851 0.04576,0.184961 0.169498,0.283186 -0.281856,-0.105176 -0.574711,-0.152978 -0.898136,-0.09095 z m 0.898136,0.09095 c 0.258935,0.09662 0.509068,0.242918 0.764811,0.396359 a 47.999996,48.000004 0 0 1 -0.0041,0.0186 c -0.291608,-0.129063 -0.58211,-0.273209 -0.760677,-0.414962 z M 45.646397,10.83288 c 0.03625,-0.136 0.29003,-0.252825 0.90227,-0.327112 0.01353,0.0047 0.02531,0.0073 0.03876,0.01188 -0.297475,0.113245 -0.613292,0.219403 -0.941027,0.315227 z m 0.941027,-0.315227 c 0.03669,-0.01397 0.07657,-0.02667 0.112655,-0.04082 0.07364,-0.03728 0.09823,-0.04841 0.157613,-0.07803 a 47.999996,48.000004 0 0 1 -0.04651,0.187586 c -0.07405,-0.02227 -0.146117,-0.04234 -0.223759,-0.06873 z M 44.065098,9.029372 c 1.116601,-0.049809 3.187237,0.7423858 0.789616,0.3607015 -1.467766,0.6591285 -1.48376,-0.020487 -0.789616,-0.3607015 z m 1.232997,-0.3937234 c 0.154053,-0.092714 0.333188,-0.1419745 0.517798,-0.1627808 -0.179489,0.075118 -0.361207,0.1380013 -0.517798,0.1627808 z m 0.517798,-0.1627808 c 0.635848,-0.2661077 1.216217,-0.6638601 0.456303,0.00258 -0.149042,-0.015305 -0.303629,-0.019791 -0.456303,-0.00258 z m 0.456303,0.00258 c 0.832029,0.08544 1.436069,0.5571399 -0.12299,0.1080037 0.05,-0.043189 0.08134,-0.07148 0.12299,-0.1080037 z m -8.770524,2.2603272 c 0.2389,0.2324 0.453801,0.523252 0.63252,0.876432 -0.344232,-0.04257 -0.566427,-0.429986 -0.63252,-0.876432 z m 1.984375,-2.6411786 c 1.270375,-0.1839337 3.100724,1.9343136 1.147734,0.2888712 -0.594066,-0.099923 -0.97953,-0.201261 -1.147734,-0.2888712 z m 0.196887,-0.2092896 c 0.206416,-0.028688 0.522178,-0.043775 0.952914,-0.038757 0.239687,-0.2368254 0.648479,-0.2059003 1.017509,-0.1028361 -0.548372,0.1983811 -1.541977,0.5358277 -1.970423,0.1415934 z m 1.970423,-0.1415934 c 0.369154,-0.1335468 0.536937,-0.2033863 0.187068,0.058911 -0.06074,-0.021478 -0.122709,-0.040936 -0.187068,-0.058911 z m 0.187068,0.058911 c 0.606789,0.214551 0.979495,0.5520214 -0.0041,0.0031 0.0018,-0.00133 0.0024,-0.00178 0.0041,-0.0031 z M 40.84152,7.0905232 c 0.03065,0.1602322 0.03047,0.1966438 0,0 z m 1.900659,-1.319816 c 0.44363,0.00257 0.87586,0.1497254 1.262455,0.4893758 C 43.488231,6.299227 42.975062,6.0816724 42.742179,5.7707072 Z M 44.004634,6.260083 C 44.344668,6.234308 44.684124,6.0961318 44.945145,5.7991292 44.851075,6.1344617 45.33127,6.4969607 44.461454,6.784082 44.319186,6.5723258 44.165495,6.4014106 44.004634,6.260083 Z m 0.940511,-0.4609538 c 0.02015,-0.071826 0.06519,-0.1425579 0.157097,-0.2108398 -0.04779,0.078623 -0.101234,0.1472762 -0.157097,0.2108398 z M 44.333296,4.0927734 c 0.08498,-0.019692 0.171416,-0.034688 0.258899,-0.045475 -0.08625,0.015092 -0.172497,0.030638 -0.258899,0.045475 z m 0.258899,-0.045475 c 0.528137,-0.092418 1.053276,-0.192691 1.570447,-0.3348633 -0.109445,0.172737 -0.138166,0.3552934 0.02997,0.506429 -0.23492,-0.1004097 -0.935663,-0.2535328 -1.600419,-0.1715657 z m 1.600419,0.1715657 c 0.06027,0.025761 0.09216,0.047979 0.08217,0.061495 -0.03143,-0.019799 -0.05861,-0.040326 -0.08217,-0.061495 z m -0.02997,-0.506429 c 0.33764,-0.5328977 1.474251,-0.9678335 0.219108,-0.061495 -0.07276,0.021869 -0.146032,0.041406 -0.219108,0.061495 z M 44.828875,2.9786298 c 1.098048,0.073274 2.652626,-0.5381308 0.7059,0.1452107 -0.907372,0.3530125 -0.83938,0.1428351 -0.7059,-0.1452107 z M 46.209151,1.497583 c 0.24309,0.1057908 0.435013,0.2903849 0.520382,0.5803263 -0.330584,-0.098615 -0.493339,-0.318804 -0.520382,-0.5803263 z m 0.585494,9.156547 a 47.999996,48.000004 0 0 1 -0.0987,0.395325 c -0.209253,-0.0432 -0.09127,-0.21495 0.0987,-0.395325 z M 26.76486,22.905579 c -1.430538,0.03578 -0.59692,1.986616 0.04289,2.709395 -0.189518,0.871488 1.034567,0.658958 1.748731,0.890902 -0.0037,-0.02737 -0.0095,-0.0541 -0.0124,-0.08165 1.301667,-0.650584 2.005987,0.756616 2.996717,1.847949 -0.02262,-0.199268 -0.02096,-0.427231 0.02377,-0.666626 0.235383,-0.293574 0.394742,-0.587667 0.492993,-0.876949 -0.114932,-0.100738 -0.226509,-0.196528 -0.33693,-0.288871 0.133844,0.02812 0.263468,0.06578 0.38964,0.112138 0.438391,-1.730559 -1.357438,-3.235844 -3.193604,-3.257683 -0.338979,0.06961 -0.404643,0.304154 -0.295589,0.615467 -0.239965,-0.27554 -0.369589,-0.313104 -0.21084,0.182417 0.0531,2.73986 -0.09153,-1.15916 -1.645377,-1.18649 z m 1.856217,1.004073 c 0.207579,0.238351 0.493439,0.652016 0.757577,1.071252 -0.364586,-0.376291 -0.649045,-0.761432 -0.757577,-1.071252 z m 0.757577,1.071252 c 0.3923,0.404896 0.875206,0.795681 1.338936,1.070219 0.578065,0.975806 0.233582,1.378363 -0.706934,0.08682 -0.06297,-0.202324 -0.331109,-0.67946 -0.632002,-1.157035 z m 1.338936,1.070219 c -0.05007,-0.08453 -0.104296,-0.17164 -0.168465,-0.264067 0.105214,-0.168978 0.595427,0.170916 1.171505,0.652674 -0.02181,-0.0046 -0.04257,-0.01145 -0.0646,-0.0155 -0.269732,-0.03109 -0.598434,-0.171811 -0.938444,-0.373104 z M 5.691211,40.090576 C 5.035656,40.929599 5.348287,41.730646 5.814717,42.561743 5.709642,41.743896 5.674,40.914217 5.691211,40.090576 Z m 4.208011,2.108399 c -0.325454,0.02732 -1.180595,1.681884 -0.511079,0.883667 0.368205,-0.524191 0.542728,-0.764421 0.595312,-0.825273 -0.02025,-0.04171 -0.04847,-0.0614 -0.08423,-0.05839 z" /></g></svg>
