<?xml version="1.0" encoding="UTF-8" standalone="no"?>
<!-- Created with Inkscape (http://www.inkscape.org/) -->

<svg
   width="48mm"
   height="48.000004mm"
   viewBox="0 0 47.999999 48.000003"
   version="1.1"
   id="svg5"
   xml:space="preserve"
   inkscape:version="1.2.2 (732a01da63, 2022-12-09)"
   sodipodi:docname="radacina-buton-mare-drept.svg"
   xmlns:inkscape="http://www.inkscape.org/namespaces/inkscape"
   xmlns:sodipodi="http://sodipodi.sourceforge.net/DTD/sodipodi-0.dtd"
   xmlns="http://www.w3.org/2000/svg"
   xmlns:svg="http://www.w3.org/2000/svg"><sodipodi:namedview
     id="namedview7"
     pagecolor="#ffffff"
     bordercolor="#000000"
     borderopacity="0.25"
     inkscape:showpageshadow="2"
     inkscape:pageopacity="0.0"
     inkscape:pagecheckerboard="false"
     inkscape:deskcolor="#d1d1d1"
     inkscape:document-units="mm"
     showgrid="false"
     inkscape:zoom="1"
     inkscape:cx="264"
     inkscape:cy="-40"
     inkscape:window-width="1280"
     inkscape:window-height="971"
     inkscape:window-x="-8"
     inkscape:window-y="-8"
     inkscape:window-maximized="1"
     inkscape:current-layer="layer1"><inkscape:grid
       type="xygrid"
       id="grid1049"
       units="mm"
       spacingx="0.24999999"
       spacingy="3.9999999"
       originx="-11.715728"
       originy="4.9999992e-07"
       empspacing="10" /></sodipodi:namedview><defs
     id="defs2"><linearGradient
       id="linearGradient3607"
       inkscape:swatch="solid"><stop
         style="stop-color:black;stop-opacity:1;"
         offset="0"
         id="stop3605" /></linearGradient><filter
       style="color-interpolation-filters:sRGB"
       inkscape:label="Blur"
       id="filter18393"
       x="-0.058536466"
       y="-0.058536466"
       width="1.1170729"
       height="1.1170729"><feGaussianBlur
         stdDeviation="0.5 0.5"
         result="blur"
         id="feGaussianBlur18391" /></filter><filter
       style="color-interpolation-filters:sRGB"
       inkscape:label="Blur"
       id="filter18393-0"
       x="-0.058536466"
       y="-0.058536466"
       width="1.1170729"
       height="1.1170729"><feGaussianBlur
         stdDeviation="0.5 0.5"
         result="blur"
         id="feGaussianBlur18391-0" /></filter></defs><g
     inkscape:label="Layer 1"
     inkscape:groupmode="layer"
     id="layer1"
     transform="translate(-11.715732)"><g
       id="path17247" /><g
       id="path3310-9" /><g
       id="path7525" /><g
       id="path3310-7" /><path
       id="path1110"
       style="fill:black;stroke:none;stroke-width:0.1;stroke-linecap:round;stroke-linejoin:round"
       d="M 11.715732 0 A 47.999996 48.000004 0 0 0 11.716249 0.0098185221 C 11.951979 0.13558825 12.658607 0.49208805 13.281011 0.76997884 C 12.987332 0.34854103 12.431406 -0.0062986678 11.715732 0 z M 13.281011 0.76997884 C 13.447591 1.0090264 13.530504 1.268705 13.506837 1.497583 C 14.42477 1.0981064 16.078813 1.8371672 15.542889 2.409672 C 14.493594 2.2136435 14.733726 2.6476229 14.887115 2.9786296 C 15.092703 2.9649104 15.283812 2.9300785 15.431267 2.8551229 C 16.185778 1.5527986 16.922763 3.0988806 17.643536 3.5816935 C 18.175315 4.158921 19.058838 4.7093354 19.373663 5.3030355 C 18.07386 4.5401446 16.720257 4.3224612 15.382692 4.0927734 C 15.716888 4.1702122 16.023426 4.3191255 16.230702 4.5852498 C 17.1377 4.9336798 17.241767 5.412906 16.973809 5.7707072 C 17.647643 5.7667984 18.34599 6.0917295 18.944748 6.5794434 C 18.912846 6.8297201 18.890481 6.9871731 18.874468 7.0905233 C 18.947135 6.7106709 19.195512 5.6587971 19.656333 5.446696 C 20.765861 6.2544035 21.775495 7.3276734 22.768804 8.2982015 C 25.22411 10.69987 21.317244 6.9969659 20.189633 7.6434611 C 20.154411 7.7448467 20.10027 7.8234574 20.033054 7.8853068 C 20.344093 7.9285354 20.404139 8.0038645 20.229941 8.0945964 C 20.443536 8.1255221 20.641789 8.2192087 20.803033 8.4093058 C 23.052923 9.4004352 17.725567 9.6250285 19.673386 9.6929484 C 19.263784 11.049108 19.393466 10.216976 20.413909 9.5653076 C 21.855531 8.7409318 22.344705 9.8550246 22.214316 10.735779 C 23.334804 9.6457767 24.99046 9.867262 25.99238 11.255127 C 27.368497 13.17625 28.181973 15.474719 30.195224 16.766418 C 29.469267 16.40673 27.487612 15.477689 26.348947 14.855941 C 24.961333 14.494072 23.638067 13.687378 22.503704 12.961483 C 20.338388 12.605868 18.912497 10.946002 17.123671 9.8107707 C 16.369997 9.460919 13.489527 6.7802176 14.799265 8.071342 C 14.94807 8.576575 14.737126 8.6861653 14.417893 8.6356486 C 14.516703 8.6951156 14.605359 8.7716853 14.678342 8.8697428 C 15.070853 8.829963 15.404682 8.9087497 15.650892 9.029423 C 15.682228 9.0308208 15.715752 9.0302683 15.74546 9.0330404 C 16.391476 9.27827 19.09278 11.500154 17.835255 11.2019 C 16.960509 11.369877 15.868276 11.26844 14.817351 11.029818 C 14.944093 11.055711 15.075308 11.097319 15.212676 11.160042 C 16.023094 11.192234 16.27101 11.354769 16.210031 11.545549 C 16.328693 11.526484 16.433299 11.517768 16.505104 11.531079 C 17.717676 11.466857 17.522594 11.850848 17.100416 12.205457 C 18.454456 11.568793 20.050639 12.284337 21.09087 13.36766 C 22.956343 14.486489 20.355252 15.112504 19.760202 13.959355 C 18.644002 12.874456 17.130773 13.453817 15.83331 13.249837 C 16.02074 13.477986 15.827922 13.755698 15.456589 14.001213 C 15.921134 13.805955 16.395939 13.646685 16.635328 13.696838 C 17.31659 13.607185 17.688778 13.657644 17.759291 13.782104 C 18.712996 13.462466 19.882982 13.506631 19.458412 14.614095 C 18.439637 14.934228 17.304075 15.100717 16.224501 15.282788 C 17.027269 15.471189 17.68333 16.276317 15.879819 16.274459 C 16.297638 16.595649 18.354901 15.448128 19.259458 15.128792 C 20.942327 13.607131 20.916246 18.616035 21.205075 16.235185 C 21.558417 13.938652 23.244387 14.291669 24.683416 15.374255 C 25.729633 15.659151 25.582013 16.033368 25.186228 16.303914 C 26.417901 16.51381 28.898267 17.193838 26.906536 17.9927 C 25.018873 19.118126 22.649578 15.702596 21.39111 17.609261 C 21.988598 17.561412 22.58984 17.511832 23.260764 17.501774 C 24.405465 17.681527 24.587207 18.025864 24.10309 18.256767 C 24.689466 18.279689 25.215143 18.525054 25.750534 18.974552 C 27.400426 17.175009 28.308534 19.649077 29.796282 20.488672 C 30.201861 19.731047 32.902632 21.468424 31.219451 21.470524 C 29.825457 22.38001 28.408807 22.459896 27.241399 21.023523 C 26.450533 20.520818 24.926634 19.523823 23.660739 19.752283 C 22.371683 17.84422 20.395831 18.864364 18.536504 18.384408 C 18.704184 18.582925 21.194385 18.488229 22.109413 19.207096 C 22.726218 19.744809 22.713541 19.915437 22.425156 19.927983 C 22.782531 20.03859 23.103102 20.17189 23.302622 20.326408 C 24.143222 20.918517 27.634226 21.234422 26.637302 22.495268 C 25.191385 22.330585 24.33388 22.006253 23.169296 20.777026 C 22.530485 20.420549 21.81941 19.914729 21.096555 19.702157 C 20.77608 19.63899 20.485935 19.595965 20.323992 19.63136 C 20.314883 19.623215 20.312958 19.616394 20.314174 19.610173 C 20.123735 19.62519 19.933729 19.668284 19.745733 19.75435 C 19.591059 19.735539 19.286657 19.615981 18.930795 19.454626 C 18.909977 19.490498 18.881046 19.526472 18.845013 19.563147 C 19.581049 19.691759 20.834749 20.296045 20.797865 20.836454 C 21.18521 20.738791 21.571807 20.794343 21.803488 21.20129 C 23.473994 21.945008 22.612601 22.989255 21.746644 22.659082 C 20.822918 22.934858 20.055246 22.807985 19.217083 22.675102 C 19.241267 22.885807 18.99029 23.211314 18.605234 23.51071 C 19.702423 22.854933 21.142875 22.826129 22.157472 23.523112 C 23.454614 23.177166 23.097224 24.391254 21.613319 24.255367 C 21.638286 25.870476 23.50302 24.333329 23.828171 22.909196 C 24.323977 22.003817 28.227809 23.003141 26.542734 24.116874 C 26.158655 24.575811 25.535136 24.907607 24.852398 25.071338 C 25.118942 25.20071 25.229796 25.365755 25.229636 25.552445 C 26.01236 24.985062 26.894509 25.736805 27.4202 26.627315 C 26.414569 27.073351 25.629694 28.039977 24.77695 28.809611 C 24.884241 28.811907 24.899696 29.040145 24.749562 29.586825 C 24.394994 30.588135 25.451344 28.322161 26.135524 28.114046 C 26.488158 27.796385 27.016786 27.296146 27.536472 26.835055 C 27.72948 27.208922 27.857579 27.590707 27.882704 27.897005 C 27.806867 28.241479 27.775497 28.48995 27.772633 28.66285 C 27.069504 29.293783 27.11836 29.254664 27.7716 28.68197 C 27.768427 29.228667 28.067398 28.947971 28.160723 28.366744 C 28.228889 29.312262 27.965017 28.954903 28.946722 27.966768 C 29.148904 27.110661 29.937259 26.958031 30.623622 27.119275 C 30.137188 28.458116 30.653737 28.082416 30.974505 27.232446 C 31.694425 27.530937 32.120562 28.151308 31.21635 28.511438 C 29.948412 28.531031 28.981924 29.452977 28.082692 30.331999 C 26.785399 31.425034 27.731981 30.919438 28.492486 30.118058 C 29.520598 29.071231 29.710217 29.069697 28.667152 30.467391 C 27.007756 32.268308 28.811625 30.594096 29.470721 29.911869 C 30.636588 28.786227 31.612509 29.14165 30.282557 30.515967 C 29.929735 31.244136 28.436784 32.181157 28.326604 32.562354 C 30.562129 30.853413 27.764927 34.890835 28.771022 34.198946 C 29.104914 32.692387 30.032491 31.496792 30.860817 30.148031 C 31.56936 27.605365 31.837315 31.004782 30.9497 32.112252 C 31.766425 31.275042 31.266626 32.341156 31.115065 33.080668 C 31.406439 32.498807 32.070927 31.497816 32.069528 30.984155 C 31.973611 29.102022 33.207868 32.400338 32.550119 32.93029 C 32.676523 33.428415 32.709436 33.982846 32.619882 34.487817 C 32.656541 34.425695 32.692493 34.368619 32.727886 34.321419 C 33.748841 32.794584 33.923507 33.985358 33.585198 34.996313 C 33.980084 36.061444 31.504253 39.01258 33.438954 37.185844 C 33.28779 39.175565 33.393411 37.724432 33.639458 36.326982 C 33.8809 34.608099 35.181278 37.57051 34.990797 38.878764 C 35.132865 38.800561 35.240909 38.961202 35.229025 39.63479 C 36.377515 41.679046 34.922957 38.699412 35.084331 37.881409 C 34.878879 36.878605 35.220584 36.851149 35.645538 37.109363 C 34.785019 35.85933 34.202449 33.916084 35.662074 34.894511 C 36.230397 35.208859 38.319274 35.653107 37.327089 36.749178 C 35.526734 37.167752 37.914225 39.277264 37.26301 37.266976 C 39.338731 35.478748 36.025257 34.515184 34.995448 33.543689 C 33.926964 32.084432 33.500557 30.23012 32.876714 28.612724 C 33.51928 25.830353 33.78937 29.047276 35.312225 29.313456 C 36.301937 29.496864 36.05327 30.71695 35.725636 31.589286 C 36.495606 30.368666 36.364721 35.128084 36.551425 33.421216 C 37.740549 32.637923 35.591351 28.772203 37.482635 30.401245 C 38.615947 30.783482 37.938442 32.467292 37.481601 33.278072 C 38.613507 32.577751 39.071347 31.279318 38.134274 30.441036 C 37.299275 28.716679 34.728769 29.029501 34.373264 26.996802 C 34.16869 25.26265 36.138967 26.375301 37.207199 26.428361 C 38.822578 26.650268 38.868222 28.156504 38.634502 29.366166 C 38.74357 29.127315 38.899731 28.971018 39.119744 29.041638 C 40.137112 30.361351 40.937359 32.663464 39.177622 33.581413 C 39.267263 33.433373 39.330824 33.258946 39.352288 33.052763 C 39.195507 33.238351 39.073374 33.448018 38.977117 33.675464 C 38.834749 33.73503 38.679453 33.787561 38.507895 33.830493 C 36.641254 34.227471 38.068896 34.578884 38.888234 33.911625 C 38.571352 34.860656 38.619034 36.056003 38.491875 37.09696 C 38.002849 38.905574 38.584489 37.007026 38.869113 37.284029 C 38.827014 36.382611 39.047265 34.554119 39.663897 33.912142 C 39.708967 34.209605 39.090491 36.657878 39.697487 37.700024 C 39.698158 37.98458 39.623176 38.208004 39.501116 38.390422 C 39.564779 38.476227 39.539515 38.898056 39.530055 39.681816 C 39.840587 40.29763 40.867778 37.943 40.75737 37.203931 C 41.107816 37.14829 41.257147 37.359848 41.278785 37.703642 C 41.901903 38.387006 42.860803 39.699836 42.198109 40.499854 C 42.174351 40.523907 42.171978 40.524679 42.158318 40.537577 C 42.332214 40.387586 42.978919 39.933056 43.246107 40.774772 C 43.121834 40.925877 43.089378 41.025033 43.220786 41.03057 C 42.438353 43.646544 44.186418 40.661314 44.838258 39.965002 C 45.165168 39.274813 45.352421 38.98306 45.44959 38.945943 C 45.345198 38.994109 45.218036 39.043709 45.057883 39.095288 C 44.69182 39.501461 43.618598 40.332252 43.257993 40.760819 C 43.097243 39.176174 42.878948 37.863635 41.843092 36.805505 C 40.729181 35.80414 40.587759 33.909059 40.86434 32.561837 C 41.412775 31.61034 43.498743 34.924486 43.220786 36.121826 C 43.13822 38.4772 43.198392 35.381523 43.622312 35.816935 C 44.963289 38.220022 43.055348 33.895516 44.409344 35.251078 C 45.945131 37.515936 44.525356 32.251803 44.243462 33.46204 C 44.032589 36.634791 42.329799 32.651518 42.687485 31.538643 C 42.658372 31.388679 42.647913 31.269356 42.649761 31.170707 C 42.417492 31.747872 42.233093 32.527693 41.665842 31.907613 C 40.323981 30.971776 41.363258 29.067884 40.731532 27.774532 C 39.944264 26.936382 39.595255 23.639982 40.775974 25.933301 C 41.120404 27.25136 42.501493 28.076419 42.886956 29.158427 C 43.425975 30.147358 44.536019 30.931843 44.510629 32.152559 C 44.732946 32.670179 44.947417 33.232988 45.092506 33.805688 C 45.432615 33.696303 46.118614 33.886345 45.559144 33.206242 C 44.749981 32.430674 44.240014 29.316005 45.711073 31.620292 C 46.43452 32.801879 46.16639 34.174763 46.644349 35.507393 C 47.195663 36.282344 46.906509 37.55028 46.246441 38.147026 C 46.288133 38.359172 46.352555 38.733198 46.474334 39.223446 C 47.339685 40.246096 47.281419 41.389645 46.662953 42.036711 C 47.239381 41.83484 47.181684 40.844208 47.047942 40.135535 C 47.631752 41.665544 46.995535 42.72626 47.17765 44.426746 C 47.558839 46.401004 47.067584 43.896971 47.622067 44.83654 C 48.812485 46.96473 47.471917 44.560709 47.291855 43.682088 C 48.839978 42.265204 47.27449 40.686011 47.133208 38.903569 C 47.718289 40.11069 49.274391 41.466057 49.703594 42.511617 C 49.698847 42.398523 49.707359 42.319174 49.726849 42.269771 C 49.826523 42.458153 50.462013 43.446874 50.804819 44.053125 C 51.2029 43.625066 49.976685 40.543499 48.422535 39.926245 C 48.063239 39.198426 45.662128 35.593376 47.81017 37.4804 C 48.741601 38.511729 49.328732 38.588136 48.058733 37.274211 C 46.517046 35.805303 47.73626 36.361603 48.742929 37.380147 C 50.600913 39.188954 48.478329 36.517887 47.686146 36.000387 C 46.081614 33.663236 49.731467 37.504486 48.639576 35.721334 C 46.878398 33.719001 49.820391 35.818108 50.379005 36.079968 C 49.353453 34.720747 47.118888 34.587195 47.168348 32.580957 C 45.538509 30.317438 49.098443 31.292741 49.40077 32.806783 C 49.965222 33.707183 51.295556 35.145583 50.601214 36.77605 C 49.556494 37.452923 51.058193 41.212083 51.335019 39.464775 C 51.270433 38.462122 51.379949 38.356707 51.583583 38.610046 C 51.437944 37.901232 51.489199 37.110481 51.490565 36.393644 C 51.62225 36.185864 52.308005 36.889748 52.792811 37.755835 C 54.441484 38.619794 56.220984 39.896552 56.114572 41.931807 C 56.181342 42.070079 56.378434 42.476001 56.613767 42.949316 C 56.181185 42.556633 55.494021 41.980701 55.136337 41.604696 C 54.745406 40.493177 53.655121 39.02642 52.986598 38.133073 C 53.274207 38.760524 53.410664 39.41584 53.135426 39.844596 C 54.246293 41.622909 51.661405 41.998669 52.513242 43.69139 C 51.705674 44.112216 52.082376 47.774991 52.948357 45.978072 C 53.394526 45.022532 53.678513 44.005545 53.843393 42.964303 C 53.986492 42.785361 54.104315 42.789127 54.158103 43.159639 C 54.907303 44.031586 55.216164 46.904332 55.091896 46.965092 C 55.012335 44.447529 54.886652 48.481648 55.536313 47.456018 C 55.254365 46.155596 55.66359 47.377757 55.981247 47.83739 A 47.999996 48.000004 0 0 0 56.259266 47.860128 C 56.27837 47.779811 56.290065 47.662488 56.292339 47.496842 C 57.208603 45.547391 55.250586 44.079289 54.69192 42.341085 C 55.766891 43.347428 58.659833 46.964529 59.715903 48.000171 L 59.715903 47.956763 C 59.63231 47.450794 56.925377 44.344458 56.571909 43.907914 C 55.968364 43.258336 54.183873 42.034341 56.159014 42.955001 C 56.457455 43.130334 56.656443 43.237968 56.7905 43.30175 C 57.412995 44.539088 58.153906 45.928277 57.67055 44.509428 C 56.584173 42.074255 57.735913 44.621943 58.755755 45.281474 C 60.242716 45.022969 56.776415 43.325839 56.885068 42.2429 C 56.190101 40.942636 56.537082 41.150582 57.065419 41.635185 C 56.542401 41.045471 56.003955 40.259134 56.203456 39.722123 C 57.376984 40.632381 58.543271 41.83406 59.715903 42.873352 C 59.672331 41.50168 57.065696 39.716506 57.334653 40.062154 C 55.189998 38.851554 53.279143 37.444976 51.934982 35.303271 C 51.005133 34.278438 48.321211 31.047431 51.105576 32.538582 C 51.29112 32.828732 51.877741 33.522535 52.372682 34.098694 C 51.669881 32.978568 52.0946 33.059394 52.738551 33.593298 C 52.106937 32.987557 51.318875 32.161539 50.467889 31.907096 C 47.824415 32.120191 47.333558 29.229425 45.623223 28.118697 C 43.868321 27.724547 43.783874 26.016331 42.99806 24.62382 C 42.744031 23.463649 42.760607 22.444458 43.442994 21.104655 C 45.3439 19.366292 47.129689 17.498959 48.950669 15.673979 L 59.715903 4.8849731 L 59.715903 0 L 54.571514 0 L 43.940638 10.65413 C 42.750293 11.928247 41.490978 13.119277 39.979123 14.00483 C 39.038731 14.623635 37.457591 15.587049 36.862001 15.867249 C 35.332557 16.517444 33.850438 16.267364 32.380621 15.652275 C 31.564889 15.015821 30.819139 14.035715 30.048463 13.748515 C 28.390074 13.217367 26.88248 11.882623 25.879725 10.425203 C 25.104145 9.0519313 23.722516 7.5379438 23.212188 6.251298 C 22.198128 5.125746 20.823653 4.1777088 19.747283 2.986381 C 18.256906 1.706526 19.523848 2.8675473 20.129689 3.5651571 C 21.023784 4.6385609 22.594813 5.3239258 22.773972 6.7282715 C 20.845891 5.5067385 19.342715 3.6279104 17.521062 2.2417236 C 16.37812 2.4450916 14.43179 -0.86978115 14.98685 0.48214111 C 15.138859 0.69633754 15.220116 0.82984404 15.258151 0.91312256 C 16.344381 1.8492061 13.12454 0.16131136 13.659283 0.55552165 C 14.727876 1.3405869 14.109054 1.1396832 13.281011 0.76997884 z M 15.258151 0.91312256 C 15.153004 0.82250971 15.022179 0.71577621 14.82872 0.57154134 C 14.374759 0.15194829 14.189812 0.00040072362 14.164161 0 C 14.086124 -0.0012191103 15.476826 1.3919147 15.258151 0.91312256 z M 52.738551 33.593298 C 52.894967 33.743307 53.044532 33.883434 53.179868 33.993791 C 53.027373 33.840851 52.879664 33.710296 52.738551 33.593298 z M 52.372682 34.098694 C 52.401443 34.144534 52.426895 34.186765 52.459498 34.23667 C 53.545802 35.440804 53.052906 34.89054 52.372682 34.098694 z M 57.065419 41.635185 C 57.562762 42.195949 58.046117 42.579478 57.865887 42.396895 C 57.619142 42.16724 57.322405 41.870899 57.065419 41.635185 z M 52.986598 38.133073 C 52.927851 38.004911 52.862027 37.879487 52.792811 37.755835 C 52.744183 37.730352 52.694915 37.701536 52.646567 37.67677 C 52.730765 37.791995 52.866237 37.972234 52.986598 38.133073 z M 51.583583 38.610046 C 51.7151 39.250132 52.006855 39.823765 52.646567 40.213049 C 52.248704 39.823364 51.840817 38.93007 51.583583 38.610046 z M 49.703594 42.511617 C 49.709898 42.661801 49.738976 42.870315 49.801263 43.159123 C 49.840644 42.962325 49.79909 42.744249 49.703594 42.511617 z M 46.662953 42.036711 C 46.571615 42.068698 46.466486 42.083072 46.341009 42.070817 C 45.815978 42.054082 45.480424 42.209572 45.275441 42.457357 C 45.159323 42.172664 44.876108 42.065579 44.243462 42.29871 C 44.586251 42.449586 44.909536 42.528331 45.207745 42.549858 C 44.678895 43.365926 45.298558 44.956736 45.488348 45.163135 C 45.027764 44.528927 45.474598 43.208572 45.30748 42.555025 C 45.876001 42.571433 46.343827 42.370594 46.662953 42.036711 z M 46.246441 38.147026 C 46.197159 37.896256 46.177336 37.913304 46.142571 38.232808 C 46.178104 38.206025 46.212777 38.17746 46.246441 38.147026 z M 46.142571 38.232808 C 46.004446 38.336923 45.852693 38.41181 45.690919 38.449333 C 45.869808 38.585415 45.870552 38.751195 45.452174 38.94491 C 45.698042 38.860264 45.349286 40.451568 45.233066 41.295671 C 46.339681 41.501691 45.776193 39.55301 46.068674 38.974882 C 46.104386 38.615229 46.12453 38.398616 46.142571 38.232808 z M 45.690919 38.449333 C 45.411521 38.236792 44.715956 38.098695 44.504945 38.038505 C 44.923144 38.428668 45.331373 38.532728 45.690919 38.449333 z M 44.504945 38.038505 C 44.491993 38.026421 44.479157 38.016519 44.466188 38.003882 C 44.409682 38.0071 44.440074 38.020001 44.504945 38.038505 z M 45.092506 33.805688 C 44.881871 33.873433 44.810088 34.060826 45.245468 34.638196 C 45.216346 34.360724 45.162584 34.082301 45.092506 33.805688 z M 45.245468 34.638196 C 45.36526 35.77957 45.077077 36.895456 43.857439 37.71346 C 42.715723 39.44709 43.875327 37.940841 44.609331 37.381181 C 45.711879 36.671969 46.289993 35.891238 45.28991 34.700208 C 45.271865 34.677114 45.262013 34.660136 45.245468 34.638196 z M 42.649761 31.170707 C 42.702544 31.039547 42.757447 30.917164 42.820293 30.826025 C 42.719174 30.858805 42.653659 30.96265 42.649761 31.170707 z M 42.820293 30.826025 C 43.033323 30.756967 43.398479 30.994568 43.664169 31.207914 C 43.242025 30.545459 43.00006 30.565333 42.820293 30.826025 z M 43.664169 31.207914 C 43.665109 31.209389 43.665812 31.210567 43.666753 31.212048 C 44.174232 31.704807 43.999683 31.477327 43.664169 31.207914 z M 42.158318 40.537577 C 42.108915 40.580189 42.110757 40.582489 42.158318 40.537577 z M 41.278785 37.703642 C 40.998622 37.396391 40.786276 37.215895 40.819899 37.267493 C 40.990788 37.428995 41.140399 37.752691 41.252947 38.122221 C 41.275323 37.970114 41.286576 37.827427 41.278785 37.703642 z M 41.252947 38.122221 C 41.127769 38.973159 40.585707 40.167428 40.197198 40.622843 C 39.432101 42.644986 41.177782 38.837266 40.374965 41.277584 C 39.91423 43.517691 41.563347 41.597621 40.848837 39.736076 C 41.586344 40.646174 41.57803 39.189564 41.252947 38.122221 z M 39.501116 38.390422 C 39.457111 38.33111 39.363464 38.445341 39.197775 38.706165 C 39.315039 38.615972 39.419172 38.512886 39.501116 38.390422 z M 39.197775 38.706165 C 38.637012 39.137471 37.766822 39.264864 37.460414 39.68905 C 37.454832 39.71668 37.422479 39.789753 37.362229 39.910225 C 37.358504 39.928261 37.354481 39.946039 37.35241 39.965002 C 37.48122 42.29414 37.889749 40.105922 38.774545 39.395528 C 38.957808 39.095438 39.090303 38.875346 39.197775 38.706165 z M 37.35241 39.965002 C 37.351796 39.953899 37.350944 39.94634 37.350343 39.93503 C 37.355683 39.924488 37.357314 39.920052 37.362229 39.910225 C 37.379237 39.82787 37.412919 39.754802 37.460414 39.68905 C 37.502674 39.479864 36.224284 41.541579 37.351893 39.968103 C 37.352005 39.967029 37.352293 39.966073 37.35241 39.965002 z M 38.869113 37.284029 C 38.883366 37.589211 38.92757 37.78894 38.996754 37.799243 C 38.975875 37.494213 38.928908 37.342223 38.869113 37.284029 z M 38.634502 29.366166 C 38.301734 30.094907 38.412523 31.600541 38.527532 29.840556 C 38.56646 29.690954 38.602697 29.530779 38.634502 29.366166 z M 37.481601 33.278072 C 37.42474 33.313253 37.367631 33.347854 37.307452 33.379875 C 37.02466 33.926977 37.216289 33.748936 37.481601 33.278072 z M 35.725636 31.589286 C 35.655869 31.699887 35.579604 31.854844 35.494126 32.072978 C 35.070324 32.880783 35.430031 32.376345 35.725636 31.589286 z M 35.645538 37.109363 C 35.98506 37.60257 36.366242 37.991285 36.684751 38.044706 C 36.952297 38.338288 36.222098 37.459697 35.645538 37.109363 z M 34.990797 38.878764 C 34.59537 39.096431 33.93109 41.178876 34.817164 39.313363 C 34.908783 39.212465 34.964212 39.061355 34.990797 38.878764 z M 32.619882 34.487817 C 32.459227 34.760069 32.287798 35.161884 32.120688 35.578707 C 32.387065 35.291197 32.545609 34.906628 32.619882 34.487817 z M 32.120688 35.578707 C 31.973017 35.738093 31.792677 35.867399 31.576535 35.956978 C 31.984417 36.068009 31.772317 36.57421 31.247873 37.320203 C 31.42676 37.420394 31.764456 36.467255 32.120688 35.578707 z M 31.576535 35.956978 C 31.383628 35.904467 31.053197 35.939496 30.549208 36.081002 C 30.957139 36.122602 31.296501 36.073037 31.576535 35.956978 z M 31.115065 33.080668 C 30.969091 33.37217 30.915091 33.560456 31.08871 33.525602 C 31.062041 33.416658 31.078735 33.257933 31.115065 33.080668 z M 24.77695 28.809611 C 24.705009 28.808071 24.592147 28.907219 24.458623 29.084013 C 24.566149 28.996758 24.672059 28.90428 24.77695 28.809611 z M 25.229636 25.552445 C 25.024022 25.701491 24.825075 25.939811 24.642075 26.292452 C 24.573571 26.412172 24.519625 26.532506 24.472576 26.651603 C 24.89087 26.273531 25.229355 25.880366 25.229636 25.552445 z M 24.472576 26.651603 C 23.909272 27.160743 23.202645 27.642032 22.979127 27.898556 C 22.388202 30.304395 23.215133 26.994492 24.35217 27.025741 C 24.38181 26.905735 24.421705 26.780374 24.472576 26.651603 z M 24.35217 27.025741 C 24.137899 27.893288 24.424067 28.424574 24.45914 27.038143 C 24.423307 27.030472 24.38744 27.02671 24.35217 27.025741 z M 24.852398 25.071338 C 24.825627 25.058344 24.800222 25.045347 24.770232 25.033097 C 24.40506 24.92619 24.019888 24.998751 23.648854 25.175724 C 24.047611 25.202975 24.459296 25.16561 24.852398 25.071338 z M 23.648854 25.175724 C 23.23557 25.147481 22.837077 25.052142 22.492335 24.874451 C 22.480261 24.927331 22.45419 24.974266 22.417404 25.015011 C 22.686297 25.003743 22.93142 25.047108 23.122271 25.177275 C 22.584553 25.685999 22.325988 26.066088 22.134734 26.505359 C 22.515317 25.994461 23.063025 25.455149 23.648854 25.175724 z M 22.134734 26.505359 C 21.682114 27.112961 21.466837 27.678807 21.721323 27.71097 C 21.879529 27.213991 21.987865 26.842689 22.134734 26.505359 z M 22.417404 25.015011 C 22.199399 25.024146 21.965793 25.070626 21.731658 25.136967 C 22.039682 25.211594 22.293315 25.152453 22.417404 25.015011 z M 21.731658 25.136967 C 21.437106 25.065603 21.09334 24.872315 20.764792 24.504964 C 19.120246 23.077034 21.96838 25.656319 20.502793 25.281661 C 20.481479 25.428484 20.349065 25.598436 20.034087 25.789124 C 19.55417 26.195037 20.644817 25.444919 21.731658 25.136967 z M 20.502793 25.281661 C 20.603617 24.587123 18.156309 24.421286 20.110568 25.150403 C 20.267276 25.212095 20.395653 25.254272 20.502793 25.281661 z M 18.605234 23.51071 C 18.476861 23.587437 18.351898 23.670635 18.234197 23.764441 C 18.367121 23.684522 18.491907 23.598825 18.605234 23.51071 z M 19.217083 22.675102 C 19.19254 22.461267 18.884735 22.365708 18.145314 22.537126 C 18.525185 22.56654 18.876346 22.621081 19.217083 22.675102 z M 20.797865 20.836454 C 19.801868 21.087579 18.800839 22.352797 20.412876 21.267952 C 20.673016 21.137801 20.787399 20.989791 20.797865 20.836454 z M 18.845013 19.563147 C 18.685993 19.535361 18.548556 19.527335 18.456406 19.549711 C 17.699974 20.332397 16.738782 20.945029 18.234197 19.917647 C 18.534852 19.801796 18.729302 19.680918 18.845013 19.563147 z M 18.930795 19.454626 C 19.1838 19.018669 18.36312 18.659746 17.623382 18.798853 C 17.576509 18.655144 17.403378 18.51773 17.032203 18.401978 C 16.292953 18.046867 16.825653 18.376864 17.618214 18.799886 C 17.177964 18.884101 16.767818 19.144798 16.633261 19.672184 C 15.082527 20.332922 17.836687 19.494581 17.624932 18.803503 C 18.03915 19.024457 18.518975 19.267899 18.930795 19.454626 z M 20.314174 19.610173 C 20.574781 19.589621 20.836236 19.625604 21.096555 19.702157 C 21.583442 19.798124 22.139457 19.940412 22.425156 19.927983 C 21.503381 19.642694 20.332717 19.515257 20.314174 19.610173 z M 24.10309 18.256767 C 23.733813 18.242331 23.340967 18.315374 22.90523 18.483626 C 23.45102 18.460887 23.859599 18.372901 24.10309 18.256767 z M 21.39111 17.609261 C 21.191454 17.62525 20.989823 17.639369 20.78908 17.653703 C 21.012731 17.680238 21.206723 17.710209 21.304294 17.747237 C 21.332291 17.697109 21.361895 17.653525 21.39111 17.609261 z M 20.78908 17.653703 C 19.61696 17.514635 17.243083 17.52078 19.036732 17.706413 C 19.666878 17.72178 20.234147 17.693326 20.78908 17.653703 z M 25.186228 16.303914 C 24.983316 16.269335 24.806971 16.243993 24.697885 16.236735 C 23.530313 16.865658 24.617282 16.692827 25.186228 16.303914 z M 16.224501 15.282788 C 15.904266 15.207632 15.561228 15.227842 15.340834 15.440918 C 15.62749 15.384324 15.925094 15.333283 16.224501 15.282788 z M 17.759291 13.782104 C 17.290763 13.939133 16.873554 14.182152 16.724729 14.433228 C 17.500581 14.181979 17.842967 13.929798 17.759291 13.782104 z M 15.456589 14.001213 C 15.095507 14.152983 14.796298 14.300289 14.56362 14.414624 C 14.899409 14.305278 15.2155 14.160614 15.456589 14.001213 z M 14.56362 14.414624 C 14.498944 14.435685 14.43402 14.456364 14.368283 14.474569 C 14.133669 14.625687 14.294996 14.546622 14.56362 14.414624 z M 15.83331 13.249837 C 15.705638 13.094429 15.402099 12.961774 14.857142 12.8788 C 15.159363 13.089485 15.489112 13.195724 15.83331 13.249837 z M 17.100416 12.205457 C 16.894579 12.30224 16.694339 12.429733 16.50252 12.592513 C 15.840996 12.976432 16.618865 12.609935 17.100416 12.205457 z M 16.210031 11.545549 C 15.163995 11.713607 12.629548 12.963803 14.367767 12.264884 C 15.031872 12.306715 16.102537 11.881857 16.210031 11.545549 z M 14.817351 11.029818 C 14.811024 11.028525 14.804536 11.026376 14.798231 11.025167 C 14.804648 11.026635 14.810932 11.02836 14.817351 11.029818 z M 14.798231 11.025167 C 14.551194 10.968655 14.308528 10.90279 14.069593 10.832931 C 14.093187 10.921437 14.02383 11.017892 13.900095 11.116117 C 14.181951 11.010941 14.474806 10.963139 14.798231 11.025167 z M 13.900095 11.116117 C 13.64116 11.21274 13.391027 11.359035 13.135284 11.512476 A 47.999996 48.000004 0 0 0 13.139418 11.531079 C 13.431026 11.402016 13.721528 11.25787 13.900095 11.116117 z M 14.069593 10.832931 C 14.03334 10.696931 13.779563 10.580106 13.167323 10.505819 C 13.15379 10.510521 13.142012 10.513134 13.128566 10.517704 C 13.426041 10.630949 13.741858 10.737107 14.069593 10.832931 z M 13.128566 10.517704 C 13.091876 10.503737 13.051992 10.491036 13.015911 10.47688 C 12.942268 10.4396 12.917685 10.428471 12.858298 10.398848 A 47.999996 48.000004 0 0 0 12.904807 10.586434 C 12.978855 10.564166 13.050924 10.544095 13.128566 10.517704 z M 15.650892 9.029423 C 14.534291 8.9796144 12.463655 9.7718088 14.861276 9.3901245 C 16.329042 10.049253 16.345036 9.369638 15.650892 9.029423 z M 14.417893 8.6356486 C 14.26384 8.5429351 14.084705 8.4936741 13.900095 8.4728678 C 14.079584 8.5479858 14.261302 8.6108691 14.417893 8.6356486 z M 13.900095 8.4728678 C 13.264247 8.2067601 12.683878 7.8090077 13.443792 8.4754517 C 13.592834 8.4601466 13.747421 8.4556609 13.900095 8.4728678 z M 13.443792 8.4754517 C 12.611763 8.5608921 12.007723 9.0325916 13.566782 8.5834554 C 13.516786 8.5402666 13.485438 8.511975 13.443792 8.4754517 z M 22.214316 10.735779 C 21.975416 10.968179 21.760515 11.259031 21.581796 11.612211 C 21.926028 11.569643 22.148223 11.182225 22.214316 10.735779 z M 20.229941 8.0945964 C 18.959566 7.9106627 17.129217 10.02891 19.082207 8.3834676 C 19.676273 8.2835446 20.061737 8.1822066 20.229941 8.0945964 z M 20.033054 7.8853068 C 19.826638 7.8566189 19.510876 7.8415322 19.08014 7.8465495 C 18.840453 7.6097241 18.431661 7.6406492 18.062631 7.7437134 C 18.611003 7.9420945 19.604608 8.2795411 20.033054 7.8853068 z M 18.062631 7.7437134 C 17.693477 7.6101666 17.525694 7.5403271 17.875563 7.8026245 C 17.936306 7.7811467 17.998272 7.761688 18.062631 7.7437134 z M 17.875563 7.8026245 C 17.268774 8.0171755 16.896068 8.3546459 17.879697 7.8057251 C 17.877915 7.8043918 17.877319 7.803941 17.875563 7.8026245 z M 18.874468 7.0905233 C 18.843815 7.2507555 18.844 7.2871671 18.874468 7.0905233 z M 16.973809 5.7707072 C 16.530179 5.7732806 16.097949 5.9204326 15.711354 6.260083 C 16.227757 6.299227 16.740926 6.0816724 16.973809 5.7707072 z M 15.711354 6.260083 C 15.37132 6.234308 15.031864 6.0961318 14.770843 5.7991292 C 14.864911 6.1344617 14.384718 6.4969607 15.254534 6.784082 C 15.396802 6.5723258 15.550493 6.4014106 15.711354 6.260083 z M 14.770843 5.7991292 C 14.750694 5.7273034 14.70565 5.6565713 14.613746 5.5882894 C 14.661532 5.6669129 14.71498 5.7355656 14.770843 5.7991292 z M 15.382692 4.0927734 C 15.29771 4.0730817 15.211276 4.0580852 15.123793 4.0472982 C 15.210038 4.06239 15.29629 4.0779365 15.382692 4.0927734 z M 15.123793 4.0472982 C 14.595656 3.9548803 14.070517 3.8546072 13.553346 3.7124349 C 13.662791 3.8851719 13.691512 4.0677283 13.523374 4.2188639 C 13.758294 4.1184542 14.459037 3.9653311 15.123793 4.0472982 z M 13.523374 4.2188639 C 13.463102 4.2446253 13.431211 4.2668429 13.441208 4.2803589 C 13.47264 4.26056 13.499823 4.2400328 13.523374 4.2188639 z M 13.553346 3.7124349 C 13.215706 3.1795372 12.079095 2.7446014 13.334238 3.6509399 C 13.406995 3.6728093 13.48027 3.6923462 13.553346 3.7124349 z M 14.887115 2.9786296 C 13.789067 3.0519035 12.234489 2.4404988 14.181215 3.1238403 C 15.088587 3.4768528 15.020595 3.2666754 14.887115 2.9786296 z M 13.506837 1.497583 C 13.263747 1.6033738 13.071824 1.7879679 12.986455 2.0779093 C 13.317039 1.9792941 13.479794 1.7591053 13.506837 1.497583 z M 12.921343 10.65413 A 47.999996 48.000004 0 0 0 13.020045 11.049455 C 13.229298 11.006259 13.111319 10.834505 12.921343 10.65413 z M 32.951128 22.905579 C 34.381666 22.941356 33.548048 24.892195 32.908237 25.614974 C 33.097755 26.486462 31.87367 26.273932 31.159506 26.505876 C 31.163225 26.47851 31.168971 26.451781 31.171909 26.424227 C 29.870242 25.773643 29.165922 27.180843 28.175192 28.272176 C 28.197809 28.072908 28.196153 27.844945 28.151421 27.60555 C 27.916038 27.311976 27.756679 27.017883 27.658428 26.728601 C 27.77336 26.627863 27.884937 26.532073 27.995358 26.43973 C 27.861514 26.467847 27.73189 26.505507 27.605718 26.551868 C 27.167327 24.821309 28.963156 23.316024 30.799322 23.294185 C 31.138301 23.363796 31.203965 23.598339 31.094911 23.909652 C 31.334876 23.634112 31.4645 23.596548 31.305751 24.092069 C 31.252651 26.831929 31.397277 22.932909 32.951128 22.905579 z M 31.094911 23.909652 C 30.887332 24.148003 30.601472 24.561668 30.337334 24.980904 C 30.70192 24.604613 30.986379 24.219472 31.094911 23.909652 z M 30.337334 24.980904 C 29.945034 25.3858 29.462128 25.776585 28.998398 26.051123 C 28.420333 27.026929 28.764816 27.429486 29.705332 26.137939 C 29.768303 25.935615 30.036441 25.458479 30.337334 24.980904 z M 28.998398 26.051123 C 29.048471 25.966597 29.102694 25.879483 29.166863 25.787056 C 29.061649 25.618078 28.571436 25.957972 27.995358 26.43973 C 28.017164 26.435149 28.037928 26.428283 28.059954 26.424227 C 28.329686 26.393136 28.658388 26.252416 28.998398 26.051123 z M 54.024777 40.090576 C 54.680332 40.929599 54.367701 41.730646 53.901271 42.561743 C 54.006346 41.743896 54.041988 40.914217 54.024777 40.090576 z M 49.816766 42.198975 C 50.14222 42.226296 50.997361 43.880859 50.327845 43.082642 C 49.95964 42.558451 49.785117 42.318221 49.732533 42.257369 C 49.752781 42.215655 49.781002 42.195972 49.816766 42.198975 z " /></g></svg>
