<?xml version="1.0" encoding="UTF-8" standalone="no"?>
<!-- Created with Inkscape (http://www.inkscape.org/) -->

<svg
   width="24mm"
   height="23.999998mm"
   viewBox="0 0 24.000001 23.999999"
   version="1.1"
   id="svg5"
   xml:space="preserve"
   inkscape:version="1.2.2 (732a01da63, 2022-12-09)"
   sodipodi:docname="radacina-buton-mic-sting.svg"
   xmlns:inkscape="http://www.inkscape.org/namespaces/inkscape"
   xmlns:sodipodi="http://sodipodi.sourceforge.net/DTD/sodipodi-0.dtd"
   xmlns="http://www.w3.org/2000/svg"
   xmlns:svg="http://www.w3.org/2000/svg"><sodipodi:namedview
     id="namedview7"
     pagecolor="#ffffff"
     bordercolor="#000000"
     borderopacity="0.25"
     inkscape:showpageshadow="2"
     inkscape:pageopacity="0.0"
     inkscape:pagecheckerboard="0"
     inkscape:deskcolor="#d1d1d1"
     inkscape:document-units="mm"
     showgrid="false"
     inkscape:zoom="1.6978297"
     inkscape:cx="74.801377"
     inkscape:cy="23.559489"
     inkscape:window-width="1280"
     inkscape:window-height="971"
     inkscape:window-x="-8"
     inkscape:window-y="-8"
     inkscape:window-maximized="1"
     inkscape:current-layer="layer1"><inkscape:grid
       type="xygrid"
       id="grid1049"
       units="mm"
       spacingx="1.9999999"
       spacingy="1.9999999"
       originx="5.0000003e-07"
       originy="-5.8578639"
       empspacing="10" /></sodipodi:namedview><defs
     id="defs2" /><g
     inkscape:label="Layer 1"
     inkscape:groupmode="layer"
     id="layer1"
     transform="translate(5e-7,-5.8578636)"><path
       id="path1110"
       style="fill:black;stroke:none;stroke-width:0.1;stroke-linecap:round;stroke-linejoin:round"
       d="m 24.000021,29.857762 a 23.99987,23.999874 0 0 0 -2.58e-4,-0.0049 c -0.117865,-0.06289 -0.471177,-0.241143 -0.782377,-0.380088 0.146838,0.210718 0.4248,0.388137 0.782635,0.384988 z m -0.782635,-0.384988 c -0.08329,-0.119523 -0.124746,-0.249361 -0.112913,-0.3638 -0.458964,0.199738 -1.285981,-0.169791 -1.01802,-0.456042 0.524644,0.09801 0.404579,-0.118975 0.327885,-0.284477 -0.102794,0.0069 -0.198348,0.02427 -0.272075,0.06175 -0.377253,0.651159 -0.745744,-0.121878 -1.106128,-0.363283 -0.265888,-0.288613 -0.707647,-0.563818 -0.865059,-0.860667 0.649898,0.381444 1.326696,0.490285 1.995475,0.605128 -0.167097,-0.03872 -0.320366,-0.113175 -0.424003,-0.246237 -0.453497,-0.174214 -0.50553,-0.413826 -0.371552,-0.592725 -0.336915,0.002 -0.686086,-0.160511 -0.985464,-0.404366 0.01595,-0.125138 0.02713,-0.203864 0.03514,-0.255539 -0.03634,0.189925 -0.160521,0.715859 -0.39093,0.821909 -0.554761,-0.403851 -1.059575,-0.940483 -1.556227,-1.425745 -1.227647,-1.200828 0.725776,0.650614 1.289578,0.327369 0.01761,-0.05069 0.04468,-0.09 0.07829,-0.120923 -0.155518,-0.02162 -0.185541,-0.05928 -0.09844,-0.104644 -0.106797,-0.01546 -0.205923,-0.06231 -0.286544,-0.157354 -1.124939,-0.495562 1.538725,-0.607858 0.56482,-0.641818 0.2048,-0.678076 0.13996,-0.262012 -0.370259,0.06382 -0.720807,0.412186 -0.965393,-0.144857 -0.900199,-0.585232 -0.560241,0.544998 -1.388065,0.434256 -1.889022,-0.259673 -0.688055,-0.960556 -1.09479,-2.109785 -2.101411,-2.755631 0.362977,0.179843 1.353799,0.644361 1.923129,0.955234 0.693803,0.180933 1.355432,0.584278 1.922611,0.947224 1.082652,0.177806 1.795594,1.007735 2.690002,1.575347 0.376835,0.174925 1.817062,1.515269 1.162197,0.86971 -0.0744,-0.252615 0.03107,-0.30741 0.190685,-0.282152 -0.04941,-0.02973 -0.09373,-0.06802 -0.130224,-0.117046 -0.196254,0.01989 -0.363168,-0.01951 -0.486272,-0.07984 -0.01567,-7e-4 -0.03243,-4.22e-4 -0.04728,-0.0018 -0.323007,-0.122614 -1.673651,-1.23355 -1.044892,-1.084424 0.43737,-0.08399 0.983484,-0.03327 1.508944,0.08604 -0.06337,-0.01295 -0.128978,-0.03375 -0.197662,-0.06511 -0.405207,-0.01609 -0.529164,-0.09736 -0.498675,-0.192753 -0.05933,0.0095 -0.111633,0.01389 -0.147535,0.0072 -0.606283,0.03211 -0.508743,-0.159883 -0.297655,-0.337187 -0.677016,0.31833 -1.475103,-0.03944 -1.995216,-0.581098 -0.932732,-0.559412 0.367807,-0.872418 0.66533,-0.295846 0.558097,0.542446 1.314708,0.252767 1.963436,0.354757 -0.09371,-0.114074 0.0027,-0.252929 0.188359,-0.375686 -0.232271,0.09763 -0.469672,0.177263 -0.589366,0.152187 -0.340629,0.04482 -0.526722,0.01959 -0.561979,-0.04263 -0.476849,0.159818 -1.061839,0.137736 -0.849555,-0.415994 0.509384,-0.160065 1.077162,-0.243309 1.616946,-0.334344 -0.401381,-0.0942 -0.72941,-0.496762 0.17234,-0.495833 -0.208908,-0.160594 -1.237534,0.413163 -1.68981,0.57283 -0.84143,0.760827 -0.82839,-1.743612 -0.972803,-0.553193 -0.17667,1.14826 -1.019651,0.971753 -1.739162,0.430462 -0.523105,-0.142447 -0.449296,-0.329554 -0.251404,-0.464827 -0.615833,-0.104947 -1.85601,-0.444959 -0.86015,-0.844388 0.943827,-0.56271 2.128468,1.145046 2.757699,0.191718 -0.298743,0.02393 -0.599362,0.04871 -0.934822,0.05374 -0.572348,-0.08988 -0.663218,-0.262041 -0.421161,-0.377492 -0.293187,-0.01146 -0.556024,-0.134143 -0.823718,-0.35889 -0.824941,0.899766 -1.278993,-0.337261 -2.022863,-0.757056 -0.202788,0.37881 -1.553166,-0.489874 -0.711581,-0.490924 0.696994,-0.45474 1.405315,-0.494683 1.989016,0.2235 0.395431,0.251384 1.157376,0.749879 1.79032,0.635649 0.644525,0.954027 1.632446,0.443957 2.562104,0.683934 -0.08384,-0.09926 -1.328933,-0.05191 -1.786445,-0.411342 -0.308401,-0.268855 -0.302062,-0.354168 -0.15787,-0.360441 -0.178687,-0.0553 -0.338972,-0.121953 -0.438731,-0.199212 -0.420298,-0.296053 -2.165791,-0.454004 -1.667331,-1.084424 0.722954,0.08234 1.151705,0.244506 1.733994,0.859116 0.319403,0.178238 0.674939,0.431147 1.036364,0.537432 0.160237,0.03158 0.305309,0.0531 0.38628,0.0354 0.0045,0.004 0.0055,0.0075 0.0049,0.0106 0.09522,-0.0075 0.190221,-0.02905 0.284219,-0.07209 0.07734,0.0094 0.229537,0.06918 0.407467,0.149861 0.01041,-0.01794 0.02487,-0.03593 0.04289,-0.05426 -0.368016,-0.06431 -0.994863,-0.366447 -0.976421,-0.63665 -0.193671,0.04883 -0.386969,0.02105 -0.502809,-0.182417 -0.835248,-0.371857 -0.404554,-0.893978 0.02842,-0.728893 0.461861,-0.137887 0.845695,-0.07445 1.264774,-0.008 -0.01209,-0.105351 0.113396,-0.268104 0.305923,-0.417801 -0.548592,0.327886 -1.268814,0.342288 -1.77611,-0.0062 -0.648567,0.172972 -0.469873,-0.434069 0.272075,-0.366126 -0.01249,-0.80755 -0.944845,-0.03898 -1.10742,0.673082 -0.247901,0.452687 -2.199807,-0.04697 -1.357274,-0.603836 0.192038,-0.229467 0.503796,-0.395364 0.845163,-0.477229 -0.133271,-0.06469 -0.188698,-0.147208 -0.188618,-0.240552 -0.391359,0.28369 -0.832432,-0.09218 -1.095276,-0.537432 0.502813,-0.223017 0.895249,-0.706328 1.321618,-1.091143 -0.05364,-0.0011 -0.06137,-0.115266 0.0137,-0.388605 0.177283,-0.500652 -0.350889,0.632329 -0.692977,0.736386 -0.176316,0.15883 -0.440629,0.408948 -0.70047,0.639492 -0.0965,-0.186932 -0.160553,-0.377824 -0.173115,-0.530972 0.03792,-0.172236 0.0536,-0.296471 0.05504,-0.382921 0.351562,-0.315464 0.327134,-0.295905 5e-4,-0.0096 0.0016,-0.273348 -0.147899,-0.133 -0.194561,0.157612 -0.03408,-0.472757 0.09785,-0.294078 -0.392997,0.199987 -0.101091,0.428051 -0.495266,0.504365 -0.838446,0.423744 0.243216,-0.669417 -0.01506,-0.481568 -0.17544,-0.05659 -0.359958,-0.149245 -0.573026,-0.459429 -0.120922,-0.639493 0.633965,-0.0098 1.117207,-0.470767 1.56682,-0.910276 0.648643,-0.546514 0.175355,-0.293718 -0.204895,0.10697 -0.514054,0.523411 -0.608863,0.524178 -0.08733,-0.174665 0.829693,-0.900454 -0.07224,-0.06335 -0.401783,0.277759 -0.58293,0.562818 -1.070888,0.385108 -0.405916,-0.302047 0.17641,-0.364083 0.922882,-0.832591 0.977972,-1.023188 -1.117757,0.854466 0.280837,-1.164234 -0.222208,-0.818292 -0.166945,0.753276 -0.630731,1.35107 -1.044892,2.025447 -0.35427,1.271326 -0.488246,-0.428373 -0.04444,-0.982105 -0.40836,0.418602 -0.158462,-0.114452 -0.08268,-0.484206 -0.145686,0.290929 -0.477928,0.791422 -0.477229,1.048251 0.04796,0.941062 -0.569167,-0.708088 -0.240294,-0.973062 -0.0632,-0.249061 -0.07966,-0.526275 -0.03488,-0.778759 -0.01833,0.03106 -0.0363,0.0596 -0.054,0.0832 -0.510475,0.763414 -0.597808,0.16803 -0.428654,-0.337445 -0.197442,-0.532563 1.040466,-2.008123 0.07312,-1.09476 0.07558,-0.994855 0.02277,-0.269292 -0.100252,0.429429 -0.12072,0.859437 -0.770906,-0.621761 -0.675666,-1.275884 -0.07103,0.0391 -0.125055,-0.04122 -0.119113,-0.378011 -0.574242,-1.0221228 0.153033,0.467686 0.07235,0.876686 0.102726,0.501399 -0.06813,0.515127 -0.280602,0.386021 0.430258,0.625013 0.721541,1.59663 -0.0083,1.10742 -0.28416,-0.157174 -1.328592,-0.379296 -0.832503,-0.927329 0.900173,-0.209286 -0.293566,-1.264036 0.03204,-0.258898 -1.037855,0.89411 0.618873,1.375889 1.133775,1.861634 0.534239,0.729625 0.747442,1.656776 1.059361,2.465469 -0.321281,1.391178 -0.456325,-0.217275 -1.217748,-0.350364 -0.494854,-0.0917 -0.370521,-0.701743 -0.206705,-1.137909 -0.384983,0.610307 -0.319541,-1.769389 -0.412892,-0.91596 -0.594559,0.391645 0.480034,2.324494 -0.465603,1.509978 -0.566653,-0.191118 -0.227902,-1.033018 5e-4,-1.438406 -0.56595,0.350158 -0.794868,0.999371 -0.326334,1.41851 0.417497,0.862174 1.702743,0.705764 1.880494,1.722108 0.102287,0.867071 -0.882846,0.310749 -1.416959,0.284219 -0.807686,-0.110953 -0.830508,-0.864067 -0.713648,-1.468895 -0.05453,0.119425 -0.132614,0.197573 -0.24262,0.162263 -0.508681,-0.659852 -0.908802,-1.810903 -0.02894,-2.269875 -0.04482,0.07402 -0.0766,0.161233 -0.08733,0.264324 0.07839,-0.09279 0.139456,-0.197627 0.187584,-0.311349 0.07118,-0.02979 0.148831,-0.05605 0.23461,-0.07751 0.933316,-0.198488 0.219498,-0.374194 -0.190168,-0.04057 0.15844,-0.474513 0.134599,-1.072183 0.198178,-1.592659 0.244512,-0.904302 -0.0463,0.04497 -0.188618,-0.09353 0.02105,0.450707 -0.08908,1.364948 -0.39739,1.685934 -0.02253,-0.14873 0.286702,-1.37286 -0.0168,-1.89393 -3.35e-4,-0.142278 0.03716,-0.253989 0.09819,-0.345198 -0.03183,-0.0429 -0.0192,-0.253815 -0.01447,-0.645693 C 9.937599,9.7090382 9.424006,10.886346 9.47921,11.255879 9.303988,11.283699 9.229323,11.177919 9.218504,11.006025 8.906947,10.664344 8.427499,10.007933 8.758844,9.6079262 c 0.01188,-0.01202 0.01306,-0.01241 0.01989,-0.01886 -0.08695,0.075 -0.410298,0.302259 -0.543891,-0.118597 0.06214,-0.07555 0.07836,-0.12513 0.01266,-0.127898 0.391214,-1.30798 -0.482814,0.184627 -0.808732,0.532781 -0.163454,0.3450928 -0.25708,0.4909688 -0.305664,0.5095268 0.05219,-0.02409 0.115776,-0.04889 0.195852,-0.07467 0.183031,-0.203086 0.719639,-0.6184788 0.89994,-0.8327608 0.08038,0.7923178 0.189522,1.4485838 0.707447,1.9776458 0.556952,0.50068 0.627663,1.448215 0.489373,2.121823 -0.274216,0.475746 -1.317194,-1.181318 -1.178216,-1.779985 0.04128,-1.177681 0.01119,0.370149 -0.200762,0.152445 -0.670485,-1.201538 0.28348,0.960704 -0.393514,0.282927 -0.76789,-1.132423 -0.05801,1.499629 0.08294,0.894514 0.105436,-1.586367 0.956827,0.405259 0.777985,0.961693 0.01455,0.07498 0.01979,0.134643 0.01886,0.183967 0.116133,-0.288581 0.208332,-0.678489 0.491956,-0.368451 0.670927,0.467916 0.151292,1.419857 0.467153,2.06653 0.393632,0.419072 0.568135,2.067264 -0.02222,0.92061 C 9.297687,16.232141 8.607146,15.819614 8.414416,15.278613 8.144908,14.78415 7.589889,14.39191 7.602584,13.781555 7.491426,13.522746 7.384191,13.241343 7.311647,12.954995 7.141593,13.009685 6.798595,12.914665 7.078329,13.254716 7.482908,13.642498 7.73789,15.199824 7.002369,14.047687 6.640647,13.456897 6.774711,12.770458 6.535733,12.104147 6.260078,11.716673 6.404654,11.082709 6.734686,10.784337 6.713836,10.678265 6.681626,10.491253 6.62074,10.24613 6.188067,9.7348082 6.2172,9.1630362 6.52643,8.8395052 c -0.288212,0.100935 -0.259364,0.596248 -0.192493,0.950583 -0.291904,-0.765 0.0262,-1.295355 -0.06485,-2.145594 -0.190593,-0.987124 0.05503,0.264886 -0.222207,-0.204896 -0.595206,-1.064089 0.07507,0.137915 0.165105,0.577223 -0.774057,0.708438 0.0087,1.498031 0.07932,2.3892468 C 5.998766,9.8025112 5.220719,9.1248312 5.006119,8.6020532 c 0.0023,0.05655 -0.0019,0.09622 -0.01162,0.120923 -0.04984,-0.09419 -0.36758,-0.588549 -0.538982,-0.891672 -0.19904,0.214028 0.414065,1.754803 1.191136,2.063429 0.179647,0.3639068 1.380196,2.1664218 0.30618,1.2229158 -0.465713,-0.515662 -0.759277,-0.553866 -0.12428,0.103093 0.770839,0.734451 0.161235,0.456302 -0.342097,-0.05297 -0.928987,-0.904399 0.1323,0.431127 0.528389,0.689876 0.802262,1.168569 -1.022655,-0.752045 -0.476712,0.139526 0.880584,1.001161 -0.590405,-0.04838 -0.86971,-0.179316 0.512773,0.679607 1.63005,0.746382 1.60532,1.749496 C 7.088658,14.699107 5.3087,14.211458 5.157538,13.454442 4.875313,13.004244 4.21015,12.285048 4.557319,11.469819 5.079676,11.131384 4.328831,9.2518142 4.190418,10.125463 c 0.03229,0.501324 -0.02247,0.554031 -0.124281,0.427363 0.07282,0.354405 0.04719,0.749778 0.04651,1.108195 C 4.046807,11.76491 3.703929,11.41297 3.461527,10.979929 2.637195,10.547952 1.74745,9.9095762 1.800656,8.8919542 1.767276,8.8228142 1.668725,8.6198582 1.551059,8.3832022 1.767349,8.5795432 2.110929,8.8675072 2.28977,9.0555092 2.485235,9.6112652 3.030374,10.34464 3.364634,10.791311 3.22083,10.477587 3.152602,10.149931 3.290224,9.9355542 2.734793,9.0464022 4.02723,8.8585232 3.601314,8.0121672 4.005096,7.8017552 3.816746,5.9703772 3.383758,6.8688322 3.160674,7.3466002 3.018682,7.8550902 2.936242,8.3757092 2.864692,8.4651792 2.805782,8.4632992 2.778888,8.2780392 2.40429,7.8420682 2.24986,6.4057032 2.311994,6.3753232 c 0.03978,1.258775 0.102621,-0.758274 -0.222207,-0.245462 0.140973,0.650208 -0.06364,0.03913 -0.222466,-0.190685 a 23.99987,23.999874 0 0 0 -0.139009,-0.01137 c -0.0096,0.04016 -0.0154,0.09882 -0.01654,0.181642 -0.45813,0.974721 0.520874,1.708768 0.800205,2.577865 C 1.974495,8.1841442 0.528031,6.3756032 -10e-7,5.8577852 v 0.02171 c 0.0418,0.252983 1.395256,1.806143 1.571989,2.024414 0.301771,0.324787 1.194011,0.936781 0.206446,0.476454 -0.14922,-0.08767 -0.248713,-0.141483 -0.315741,-0.173374 -0.311246,-0.618666 -0.6817,-1.313256 -0.440023,-0.603836 0.543186,1.21758 -0.03268,-0.05626 -0.542599,-0.386021 -0.743477,0.129252 0.989664,0.977813 0.935338,1.519279 0.347482,0.650129 0.173992,0.546156 -0.09017,0.303856 0.261508,0.294856 0.530729,0.688022 0.430979,0.956526 C 1.169457,9.5416662 0.586317,8.9408302 4e-6,8.4211872 c 0.02178,0.685832 1.325097,1.578414 1.190619,1.405591 1.072322,0.6052968 2.027744,1.3085818 2.699821,2.3794288 0.464922,0.512414 1.806876,2.127909 0.414701,1.382337 -0.09277,-0.145074 -0.386081,-0.491974 -0.63355,-0.780052 0.351399,0.56006 0.13904,0.519648 -0.182933,0.252697 0.315805,0.302869 0.709834,0.715876 1.135324,0.843097 1.32173,-0.106547 1.567158,1.338828 2.422321,1.894189 0.877446,0.197074 0.919669,1.051177 1.312574,1.747429 0.127014,0.580083 0.118726,1.089675 -0.222466,1.759573 -0.950448,0.869177 -1.843337,1.802839 -2.753823,2.715324 L 6.4e-5,27.415298 v 2.442464 h 2.57218 l 5.31541,-5.327037 c 0.595169,-0.637055 1.224823,-1.232567 1.980747,-1.675341 0.470193,-0.309401 1.260759,-0.791105 1.558553,-0.931205 0.764718,-0.325095 1.505773,-0.200056 2.240678,0.107487 0.407863,0.318225 0.780736,0.808275 1.166072,0.951875 0.82919,0.265572 1.582983,0.932941 2.084358,1.661647 0.387788,0.686632 1.078599,1.443622 1.333762,2.086941 0.507027,0.562773 1.194261,1.036789 1.732443,1.63245 0.745184,0.639924 0.111717,0.05942 -0.191202,-0.289386 -0.447045,-0.536699 -1.232556,-0.87938 -1.322135,-1.581549 0.964036,0.610763 1.71562,1.550172 2.626441,2.243262 0.571468,-0.101683 1.544628,1.555744 1.2671,0.879787 -0.076,-0.107098 -0.116633,-0.173851 -0.13565,-0.21549 -0.543112,-0.468039 1.0668,0.375904 0.79943,0.178799 -0.534294,-0.39253 -0.224885,-0.292079 0.189135,-0.107228 z m -0.988565,-0.07157 c 0.05257,0.04531 0.117985,0.09867 0.214714,0.17079 0.22698,0.209795 0.319453,0.285568 0.332278,0.285769 0.03902,6.1e-4 -0.656329,-0.695954 -0.546992,-0.456559 z M 3.488721,13.061202 c -0.07821,-0.075 -0.15299,-0.145067 -0.220657,-0.200245 0.07625,0.07647 0.150101,0.141746 0.220657,0.200245 z m 0.182934,-0.252697 c -0.01438,-0.02292 -0.0271,-0.04403 -0.04341,-0.06899 -0.543149,-0.602064 -0.296703,-0.326933 0.04341,0.06899 z M 1.325299,9.0402802 c -0.248671,-0.28038 -0.490347,-0.472144 -0.400232,-0.380853 0.123372,0.114827 0.271739,0.262997 0.400232,0.380853 z m 2.039399,1.7510468 c 0.02937,0.06408 0.06228,0.126792 0.09689,0.188618 0.02432,0.01274 0.04895,0.02715 0.07312,0.03953 -0.0421,-0.05761 -0.109835,-0.147732 -0.170015,-0.228151 z M 4.066202,10.552842 C 4.000442,10.2328 3.854567,9.9459852 3.534713,9.7513442 3.733643,9.9461862 3.937586,10.39283 4.066202,10.552842 Z M 5.006191,8.6020662 c -0.0031,-0.07509 -0.01769,-0.179348 -0.04883,-0.323751 -0.01969,0.0984 0.0011,0.207436 0.04883,0.323751 z m 1.520313,0.237452 c 0.04567,-0.016 0.09823,-0.02318 0.160971,-0.01706 0.262514,0.0084 0.43029,-0.06938 0.532781,-0.193269 0.05806,0.142346 0.199666,0.195888 0.515987,0.07932 -0.171394,-0.07544 -0.333035,-0.11481 -0.482139,-0.125573 0.264424,-0.408032 -0.0454,-1.203433 -0.140301,-1.306631 0.230291,0.317102 0.0069,0.977276 0.09043,1.304048 -0.284259,-0.0082 -0.518171,0.09221 -0.677733,0.259155 z M 6.734759,10.78435 c 0.02464,0.125385 0.03455,0.116861 0.05193,-0.04289 -0.01776,0.01339 -0.0351,0.02767 -0.05193,0.04289 z m 0.05193,-0.04289 C 6.855749,10.6894 6.931628,10.65196 7.012514,10.633198 6.923074,10.565158 6.922694,10.482267 7.131886,10.38541 7.008953,10.42773 7.183326,9.6320852 7.241439,9.2100362 6.688135,9.1070272 6.969877,10.081362 6.823638,10.370425 6.805778,10.55025 6.795708,10.658556 6.786688,10.74146 Z m 0.225825,-0.108262 c 0.139698,0.10627 0.487479,0.175318 0.592984,0.205413 C 7.3964,10.64353 7.192286,10.5915 7.012514,10.633198 Z m 0.592984,0.205413 c 0.0065,0.006 0.0129,0.01099 0.01938,0.01731 0.02826,-0.0016 0.01306,-0.0081 -0.01938,-0.01731 z m -0.293779,2.116397 c 0.105317,-0.03387 0.141208,-0.127569 -0.07648,-0.416252 0.01456,0.138735 0.04144,0.277946 0.07648,0.416252 z m -0.07648,-0.416252 c -0.0599,-0.570684 0.08419,-1.128624 0.69401,-1.537624 0.570855,-0.86681 -0.0089,-0.11369 -0.375944,0.166139 -0.551271,0.354604 -0.840326,0.744967 -0.340287,1.340479 0.009,0.01155 0.01395,0.02004 0.02222,0.03101 z m 1.297846,1.733735 c -0.02639,0.06558 -0.05384,0.126771 -0.08526,0.17234 0.05056,-0.01639 0.08332,-0.06831 0.08526,-0.17234 z m -0.08526,0.17234 c -0.106515,0.03453 -0.289092,-0.08427 -0.421936,-0.190943 0.211071,0.331225 0.332053,0.321289 0.421936,0.190943 z M 8.025889,14.253888 c -4.7e-4,-7.5e-4 -8e-4,-0.0014 -0.0013,-0.0021 -0.253738,-0.246378 -0.166464,-0.132639 0.0013,0.0021 z M 8.77881,9.5890812 c 0.0247,-0.02131 0.02378,-0.02246 0,0 z m 0.439764,1.4169598 c 0.140081,0.153625 0.246254,0.243872 0.229442,0.218073 -0.08544,-0.08075 -0.160249,-0.242597 -0.216523,-0.427361 -0.01119,0.07605 -0.01681,0.147396 -0.012919,0.209288 z m 0.01292,-0.209288 C 9.294084,10.371286 9.565113,9.7741552 9.759366,9.5464482 10.141913,8.5353822 9.269077,10.439232 9.670486,9.2190802 9.900852,8.0990322 9.076298,9.0590622 9.433551,9.9898302 9.0648,9.5347832 9.068957,10.263084 9.231497,10.796753 Z m 0.875911,-0.1341 c 0.02201,0.02966 0.06883,-0.02746 0.15167,-0.157871 -0.05863,0.04509 -0.110698,0.09664 -0.15167,0.157871 z m 0.15167,-0.157871 c 0.28038,-0.215652 0.715473,-0.279348 0.868676,-0.49144 0.0028,-0.01381 0.01896,-0.05035 0.04909,-0.1105858 0.0019,-0.009 0.0038,-0.01791 0.0049,-0.02739 -0.0644,-1.164563 -0.268668,-0.07046 -0.711063,0.2847348 -0.09163,0.150044 -0.157878,0.26009 -0.211614,0.34468 z m 0.922677,-0.6294148 c 3.07e-4,0.0055 7.5e-4,0.0093 0.0011,0.01498 -0.0027,0.0053 -0.0035,0.0075 -0.0059,0.0124 -0.0085,0.04118 -0.02534,0.07771 -0.04909,0.1105868 -0.02113,0.104592 0.618061,-0.9262598 0.05426,-0.1395258 -5.6e-5,5.5e-4 -2e-4,0.001 -2.59e-4,0.0015 z m -0.758347,1.3404788 c -0.0071,-0.15259 -0.02923,-0.252454 -0.06382,-0.257605 0.01044,0.152514 0.03392,0.228509 0.06382,0.257605 z m 0.117304,3.958912 c 0.166383,-0.364369 0.110989,-1.117182 0.05349,-0.237194 -0.01947,0.0748 -0.03758,0.154888 -0.05349,0.237194 z m 0.576447,-1.955943 c 0.02843,-0.01759 0.05698,-0.03489 0.08707,-0.0509 0.141396,-0.273549 0.04558,-0.184529 -0.08707,0.0509 z m 0.877978,0.844389 c 0.03489,-0.0553 0.07302,-0.132779 0.115754,-0.241845 0.2119,-0.4039 0.03205,-0.151683 -0.115754,0.241845 z m 0.04005,-2.760024 c -0.16976,-0.246602 -0.36035,-0.440959 -0.519604,-0.467669 -0.133772,-0.14679 0.231325,0.292503 0.519604,0.467669 z m 0.327369,-0.884696 c 0.197712,-0.108833 0.52985,-1.1500498 0.08682,-0.217298 -0.04581,0.05045 -0.07352,0.126003 -0.08682,0.217298 z m 1.185451,2.195462 c 0.08033,-0.136125 0.166041,-0.337032 0.249595,-0.545442 -0.133187,0.143754 -0.212459,0.336038 -0.249595,0.545442 z m 0.249595,-0.545442 c 0.07384,-0.07969 0.164005,-0.144345 0.272075,-0.189135 -0.203939,-0.05551 -0.09789,-0.308614 0.164331,-0.681608 -0.08944,-0.0501 -0.25829,0.426471 -0.436406,0.870743 z m 0.272075,-0.189135 c 0.09645,0.02625 0.261668,0.0087 0.513661,-0.06201 -0.203964,-0.0208 -0.373644,0.004 -0.513661,0.06201 z m 0.230734,1.438148 c 0.07299,-0.14575 0.09999,-0.239893 0.01318,-0.222466 0.01334,0.05447 0.005,0.133834 -0.01318,0.222466 z m 3.169039,2.135516 c 0.03597,7.5e-4 0.0924,-0.04881 0.159162,-0.1372 -0.05376,0.04362 -0.106717,0.08987 -0.159162,0.1372 z m -0.226342,1.628574 c 0.102806,-0.07452 0.202279,-0.193682 0.293779,-0.370001 0.03425,-0.05986 0.06123,-0.120027 0.08475,-0.179575 -0.209146,0.189035 -0.378388,0.385617 -0.378528,0.549576 z m 0.378528,-0.549576 c 0.281651,-0.254569 0.634962,-0.495212 0.746721,-0.623473 0.29546,-1.202913 -0.118003,0.45203 -0.686518,0.436405 -0.01482,0.06 -0.03477,0.122683 -0.0602,0.187068 z m 0.0602,-0.187068 c 0.107135,-0.433771 -0.03595,-0.699413 -0.05349,-0.0062 0.01792,0.0038 0.03585,0.0057 0.05349,0.0062 z m -0.250113,0.977196 c 0.01338,0.0065 0.02609,0.013 0.04108,0.01912 0.182585,0.05345 0.37517,0.01718 0.560686,-0.07131 -0.199377,-0.01363 -0.405218,0.0051 -0.601768,0.05219 z m 0.601769,-0.05219 c 0.206641,0.01412 0.405887,0.06179 0.578257,0.150635 0.006,-0.02644 0.01908,-0.0499 0.03747,-0.07028 -0.134446,0.0056 -0.257007,-0.01605 -0.352432,-0.08113 0.268858,-0.25436 0.398139,-0.444404 0.493766,-0.664038 -0.190291,0.255447 -0.464143,0.525102 -0.757056,0.664814 z m 0.757056,-0.664814 c 0.226309,-0.3038 0.333947,-0.586721 0.206705,-0.602803 -0.0791,0.248489 -0.133271,0.434139 -0.206705,0.602803 z m -0.141334,0.74517 c 0.109002,-0.0045 0.225804,-0.02781 0.342871,-0.06098 -0.154011,-0.03731 -0.280827,-0.0077 -0.342871,0.06098 z m 0.342871,-0.06098 c 0.147275,0.03568 0.319157,0.132325 0.48343,0.316 0.822269,0.713961 -0.601791,-0.575675 0.130999,-0.388347 0.01065,-0.07341 0.07686,-0.158386 0.234352,-0.25373 0.239957,-0.202955 -0.305364,0.172102 -0.848781,0.326077 z m 0.614429,-0.07235 c -0.05041,0.347268 1.173236,0.430186 0.196111,0.06563 -0.07835,-0.03085 -0.142541,-0.05193 -0.196111,-0.06563 z m 0.948774,0.885471 c 0.06419,-0.03836 0.126668,-0.07996 0.185518,-0.126865 -0.06646,0.03996 -0.128854,0.08281 -0.185518,0.126865 z m -0.305923,0.417802 c 0.01227,0.106917 0.166174,0.154696 0.535882,0.06899 -0.189934,-0.01471 -0.365514,-0.04198 -0.535882,-0.06899 z m -0.790386,0.919319 c 0.497996,-0.125562 0.998507,-0.758167 0.192493,-0.215748 -0.130069,0.06508 -0.18726,0.13908 -0.192493,0.215748 z m 0.97642,0.63665 c 0.07951,0.01389 0.148228,0.01791 0.194303,0.0067 0.378214,-0.391341 0.858807,-0.697655 0.111104,-0.183967 -0.150327,0.05792 -0.247551,0.118364 -0.305407,0.177249 z m -0.04289,0.05426 c -0.126501,0.217978 0.283837,0.397438 0.653704,0.327885 0.02343,0.07185 0.110001,0.140561 0.295588,0.198437 0.369623,0.177554 0.103274,0.01256 -0.293004,-0.198953 0.220124,-0.04211 0.425195,-0.172455 0.492474,-0.436147 0.775362,-0.330367 -0.60171,0.0888 -0.495833,0.434338 -0.207108,-0.110476 -0.447019,-0.232197 -0.652929,-0.32556 z m -0.691685,-0.07777 c -0.130303,0.01028 -0.26103,-0.0077 -0.391189,-0.04599 -0.243442,-0.04799 -0.521448,-0.119127 -0.664297,-0.112913 0.460886,0.142642 1.046214,0.20636 1.055486,0.158902 z m -1.894448,0.6767 c 0.184637,0.0072 0.381059,-0.02931 0.598927,-0.113429 -0.272894,0.01137 -0.477182,0.05536 -0.598927,0.113429 z m 1.355983,0.323748 c 0.09983,-0.008 0.200642,-0.01506 0.301013,-0.02222 -0.111825,-0.01327 -0.20882,-0.02825 -0.257605,-0.04676 -0.014,0.02506 -0.0288,0.04685 -0.04341,0.06899 z m 0.301013,-0.02222 c 0.586057,0.06953 1.772989,0.06646 0.876169,-0.02636 -0.315071,-0.0077 -0.598704,0.0065 -0.876169,0.02636 z m -2.198562,0.674891 c 0.101455,0.01729 0.189627,0.02996 0.24417,0.03359 0.583783,-0.31446 0.0403,-0.228045 -0.24417,-0.03359 z m 4.480839,0.51056 c 0.160117,0.03758 0.331635,0.02747 0.441832,-0.07906 -0.143328,0.02829 -0.292129,0.05382 -0.441832,0.07906 z m -0.76739,0.750338 c 0.234262,-0.07851 0.442866,-0.200023 0.517278,-0.32556 -0.387924,0.125624 -0.559116,0.251714 -0.517278,0.32556 z m 1.151344,-0.109554 c 0.18054,-0.07588 0.330144,-0.149537 0.446483,-0.206704 -0.167894,0.05467 -0.325939,0.127004 -0.446483,0.206704 z m 0.446483,-0.206704 c 0.03234,-0.01053 0.0648,-0.02087 0.09767,-0.02998 0.117306,-0.07556 0.03665,-0.03603 -0.09767,0.02998 z m -0.634842,0.58239 c 0.06384,0.0777 0.215604,0.144031 0.488081,0.185518 -0.151109,-0.105342 -0.315983,-0.158461 -0.488081,-0.185518 z m -0.63355,0.522188 c 0.102918,-0.04839 0.203038,-0.112138 0.298947,-0.193527 0.33076,-0.191959 -0.05817,-0.0087 -0.298947,0.193527 z m 0.44519,0.329952 c 0.523016,-0.08403 1.790232,-0.709123 0.921128,-0.359666 -0.332051,-0.02092 -0.867381,0.191513 -0.921128,0.359666 z m 0.696337,0.257864 c 0.0031,6.5e-4 0.0064,0.0017 0.0096,0.0023 -0.0032,-7.5e-4 -0.0063,-0.0016 -0.0096,-0.0023 z m 0.0096,0.0023 c 0.123518,0.02825 0.24485,0.06119 0.364317,0.09612 -0.0118,-0.04425 0.02288,-0.09248 0.08475,-0.141592 -0.140927,0.05259 -0.287354,0.07649 -0.449066,0.04547 z m 0.449065,-0.04547 c 0.129467,-0.04831 0.254533,-0.121458 0.382404,-0.198178 a 23.99987,23.999874 0 0 0 -0.0021,-0.0093 c -0.145803,0.06453 -0.291054,0.136603 -0.380337,0.20748 z m -0.08475,0.141592 c 0.01812,0.068 0.145015,0.126412 0.451133,0.163555 0.0068,-0.0023 0.01265,-0.0036 0.01938,-0.0059 -0.148737,-0.05662 -0.306645,-0.109701 -0.470511,-0.157613 z m 0.470511,0.157658 c 0.01835,0.007 0.03828,0.01334 0.05633,0.02041 0.03682,0.01864 0.04912,0.02421 0.07881,0.03902 a 23.99987,23.999874 0 0 0 -0.02325,-0.09379 c -0.03702,0.01113 -0.07306,0.02117 -0.111878,0.03436 z M 22.032452,25.3431 c 0.558298,0.0249 1.59361,-0.371191 0.394806,-0.18035 -0.733879,-0.329563 -0.741876,0.01024 -0.394806,0.18035 z m 0.616496,0.19686 c 0.07703,0.04636 0.166593,0.07099 0.258897,0.08139 -0.08974,-0.03756 -0.180602,-0.069 -0.258897,-0.08139 z m 0.258897,0.08139 c 0.317923,0.133054 0.608106,0.331929 0.228151,-0.0013 -0.07452,0.0076 -0.151814,0.0099 -0.228151,0.0013 z m 0.228151,-0.0013 c 0.416012,-0.04272 0.71803,-0.278568 -0.06149,-0.054 0.025,0.0216 0.04067,0.03574 0.06149,0.054 z m -4.385239,-1.130157 c 0.119449,-0.1162 0.226899,-0.261625 0.316258,-0.438214 -0.172115,0.02129 -0.283212,0.214992 -0.316258,0.438214 z m 0.992182,1.320592 c 0.635184,0.09197 1.550354,-0.967152 0.573864,-0.144435 -0.297031,0.04996 -0.489762,0.100631 -0.573864,0.144435 z m 0.09844,0.104644 c 0.103208,0.01434 0.261088,0.02189 0.476455,0.01938 0.119842,0.118412 0.324237,0.10295 0.508751,0.05142 -0.274184,-0.09919 -0.770984,-0.267913 -0.985206,-0.0708 z m 0.985206,0.0708 c 0.184576,0.06677 0.268467,0.101692 0.09353,-0.02945 -0.03037,0.01074 -0.06135,0.02047 -0.09353,0.02945 z m 0.09353,-0.02945 c 0.303393,-0.107275 0.489745,-0.27601 -0.0021,-0.0016 9e-4,6.5e-4 0.0012,9e-4 0.0021,0.0016 z m -0.499449,0.356049 c 0.01533,-0.08012 0.01524,-0.09832 0,0 z m 0.950324,0.659904 c 0.221814,-0.0013 0.437928,-0.07486 0.631225,-0.244687 -0.258201,-0.01957 -0.514784,0.0892 -0.631225,0.244687 z m 0.631225,-0.244695 c 0.170016,0.01289 0.339743,0.08197 0.470253,0.230476 -0.04703,-0.167666 0.193061,-0.348914 -0.241845,-0.492474 -0.07113,0.105877 -0.147978,0.191335 -0.228408,0.261998 z m 0.470253,0.230476 c 0.01008,0.03591 0.0326,0.07128 0.07855,0.105419 -0.02389,-0.03931 -0.05062,-0.07364 -0.07855,-0.105419 z m -0.305923,0.853173 c 0.04249,0.0099 0.08571,0.01734 0.129449,0.02274 -0.04312,-0.0076 -0.08625,-0.01532 -0.129449,-0.02274 z m 0.129449,0.02274 c 0.264067,0.04621 0.526635,0.09634 0.785219,0.167431 -0.05472,-0.08637 -0.06908,-0.177646 0.01498,-0.253213 -0.11746,0.05021 -0.467829,0.126766 -0.800205,0.08578 z m 0.800205,-0.08578 c 0.03013,-0.01288 0.04608,-0.02399 0.04108,-0.03075 -0.01572,0.0099 -0.02931,0.02017 -0.04108,0.03075 z m -0.01499,0.253213 c 0.168819,0.266448 0.737121,0.483914 0.109553,0.03075 -0.03638,-0.01093 -0.07302,-0.0207 -0.109553,-0.03075 z m -0.666881,0.366896 c 0.549021,-0.03664 1.326306,0.269064 0.352948,-0.0726 -0.453684,-0.176505 -0.419688,-0.07142 -0.352948,0.0726 z m 0.690134,0.740519 c 0.121545,-0.05289 0.217506,-0.145191 0.26019,-0.290161 -0.165291,0.04931 -0.246668,0.159401 -0.26019,0.290161 z m 0.292746,-4.578249 a 23.99987,23.999874 0 0 0 -0.04935,-0.197662 c -0.104626,0.0216 -0.04564,0.107475 0.04935,0.197662 z M 13.38238,18.405033 c -0.715265,-0.01789 -0.298459,-0.993303 0.02144,-1.35469 -0.09476,-0.435742 0.51728,-0.329477 0.87436,-0.445449 -0.0019,0.01368 -0.0048,0.02705 -0.0062,0.04082 0.65083,0.32529 1.002989,-0.378306 1.498351,-0.92397 -0.01131,0.09963 -0.01048,0.213615 0.01188,0.333312 0.117691,0.146786 0.19737,0.293832 0.246495,0.438472 -0.05747,0.05037 -0.113254,0.09826 -0.168464,0.144435 0.06692,-0.01406 0.131733,-0.03289 0.194819,-0.05607 0.219194,0.865275 -0.678715,1.617913 -1.596794,1.628833 -0.169488,-0.0348 -0.20232,-0.152077 -0.147793,-0.307732 -0.119982,0.137769 -0.184794,0.156551 -0.10542,-0.09121 0.02655,-1.369923 -0.04577,0.579577 -0.822684,0.593242 z m 0.928103,-0.502034 c 0.103789,-0.119175 0.246718,-0.326006 0.378787,-0.535623 -0.182292,0.188145 -0.324521,0.380714 -0.378787,0.535623 z m 0.378787,-0.535623 c 0.196149,-0.202447 0.4376,-0.397838 0.669464,-0.535107 0.289031,-0.4879 0.11679,-0.689177 -0.353465,-0.04341 -0.03148,0.101161 -0.165554,0.339728 -0.315999,0.578514 z m 0.669464,-0.535107 c -0.02504,0.04227 -0.05215,0.08582 -0.08423,0.132033 0.05261,0.08449 0.297712,-0.08546 0.585749,-0.326335 -0.0109,0.0023 -0.02129,0.0057 -0.0323,0.0078 -0.134865,0.01554 -0.299215,0.08591 -0.469219,0.186551 z M 2.845611,9.8125802 c -0.327775,-0.419509 -0.171461,-0.82003 0.06175,-1.235576 -0.05254,0.408921 -0.07036,0.823758 -0.06175,1.235576 z M 4.949606,8.7583872 C 4.78688,8.7447272 4.359311,7.9174492 4.694068,8.3165552 c 0.184101,0.262095 0.271362,0.382209 0.297654,0.412635 -0.01012,0.02086 -0.02424,0.0307 -0.04211,0.0292 z" /></g></svg>
