<?xml version="1.0" encoding="UTF-8" standalone="no"?>
<!-- Created with Inkscape (http://www.inkscape.org/) -->

<svg
   width="24mm"
   height="23.999998mm"
   viewBox="0 0 24.000001 23.999999"
   version="1.1"
   id="svg5"
   xml:space="preserve"
   inkscape:version="1.2.2 (732a01da63, 2022-12-09)"
   sodipodi:docname="radacina-buton-mic-drept.svg"
   xmlns:inkscape="http://www.inkscape.org/namespaces/inkscape"
   xmlns:sodipodi="http://sodipodi.sourceforge.net/DTD/sodipodi-0.dtd"
   xmlns="http://www.w3.org/2000/svg"
   xmlns:svg="http://www.w3.org/2000/svg"><sodipodi:namedview
     id="namedview7"
     pagecolor="#ffffff"
     bordercolor="#000000"
     borderopacity="0.25"
     inkscape:showpageshadow="2"
     inkscape:pageopacity="0.0"
     inkscape:pagecheckerboard="0"
     inkscape:deskcolor="#d1d1d1"
     inkscape:document-units="mm"
     showgrid="false"
     inkscape:zoom="1.4142136"
     inkscape:cx="309.00566"
     inkscape:cy="-32.526911"
     inkscape:window-width="1280"
     inkscape:window-height="971"
     inkscape:window-x="-8"
     inkscape:window-y="-8"
     inkscape:window-maximized="1"
     inkscape:current-layer="layer1"><inkscape:grid
       type="xygrid"
       id="grid1049"
       units="mm"
       spacingx="0.24999999"
       spacingy="1.9999999"
       originx="-5.8578659"
       originy="-5.8578672"
       empspacing="10" /></sodipodi:namedview><defs
     id="defs2" /><g
     inkscape:label="Layer 1"
     inkscape:groupmode="layer"
     id="layer1"
     transform="translate(-5.8578644,-5.8578657)"><path
       id="path1110"
       style="fill:black;stroke:none;stroke-width:0.1;stroke-linecap:round;stroke-linejoin:round"
       d="m 5.8578644,29.857805 a 23.99987,23.999874 0 0 1 2.585e-4,-0.0049 C 5.9759873,29.79001 6.3292994,29.611761 6.6404998,29.472817 6.493661,29.683535 6.2156995,29.860954 5.8578644,29.857805 Z m 0.7826354,-0.384988 c 0.08329,-0.119523 0.1247458,-0.249361 0.1129124,-0.3638 0.458964,0.199738 1.2859809,-0.169791 1.0180205,-0.456042 C 7.246788,28.750989 7.3668534,28.534 7.4435475,28.368498 c 0.1027934,0.0069 0.1983474,0.02427 0.2720745,0.06175 0.3772533,0.651159 0.7457439,-0.121878 1.1061285,-0.363283 0.265888,-0.288613 0.7076472,-0.563818 0.8650588,-0.860667 -0.649898,0.381444 -1.3266959,0.490285 -1.9954746,0.605128 0.1670971,-0.03872 0.3203651,-0.113175 0.4240025,-0.246237 0.4534966,-0.174214 0.5055298,-0.413826 0.3715515,-0.592725 0.3369152,0.0019 0.6860869,-0.160511 0.9854643,-0.404366 -0.01595,-0.125138 -0.027135,-0.203864 -0.03514,-0.255539 0.036335,0.189925 0.1605211,0.715859 0.3909304,0.821909 0.5547616,-0.403851 1.0595756,-0.940483 1.5562276,-1.425745 1.227646,-1.200828 -0.725776,0.650614 -1.289579,0.327369 -0.01761,-0.05069 -0.04468,-0.09 -0.07829,-0.120923 0.155519,-0.02161 0.185542,-0.05928 0.09844,-0.104644 0.106797,-0.01547 0.205923,-0.06231 0.286545,-0.157354 1.124939,-0.495562 -1.5387255,-0.607858 -0.5648211,-0.641818 -0.2048,-0.678076 -0.1399593,-0.262013 0.3702601,0.06382 0.720807,0.412186 0.965392,-0.144858 0.900198,-0.585233 0.560241,0.544998 1.388065,0.434257 1.889022,-0.259672 0.688055,-0.960557 1.094791,-2.109785 2.101411,-2.755631 -0.362973,0.179843 -1.353795,0.644361 -1.923124,0.955233 -0.693804,0.180934 -1.355433,0.584279 -1.922611,0.947224 -1.082653,0.177807 -1.7955944,1.007735 -2.6900027,1.575348 -0.376835,0.174925 -1.8170621,1.515269 -1.1621966,0.86971 0.074402,-0.252615 -0.03107,-0.30741 -0.190685,-0.282152 0.049405,-0.02974 0.093732,-0.06802 0.1302238,-0.117047 0.1962545,0.01989 0.3631681,-0.01951 0.4862725,-0.07984 0.01567,-7e-4 0.03243,-4.23e-4 0.047285,-0.0018 0.3230061,-0.122614 1.6736509,-1.233551 1.0448917,-1.084424 -0.4373706,-0.08399 -0.9834842,-0.03327 -1.5089437,0.08604 0.063371,-0.01295 0.1289778,-0.03375 0.1976614,-0.06511 0.4052067,-0.01609 0.529164,-0.09736 0.4986747,-0.192752 0.059331,0.0095 0.1116334,0.01389 0.1475357,0.0072 0.6062828,0.03211 0.5087423,-0.159884 0.2976544,-0.337187 0.6770164,0.31833 1.4751038,-0.03944 1.9952158,-0.581099 0.932732,-0.559411 -0.367807,-0.872417 -0.6653299,-0.295846 -0.558097,0.542447 -1.3147075,0.252768 -1.9634353,0.354758 0.093714,-0.114074 -0.0027,-0.25293 -0.1883595,-0.375686 0.232271,0.09763 0.4696723,0.177263 0.5893661,0.152186 0.3406292,0.04483 0.5267222,0.0196 0.5619785,-0.04263 0.47685,0.159819 1.0618399,0.137736 0.849556,-0.415993 -0.5093848,-0.160065 -1.0771627,-0.24331 -1.6169469,-0.334345 0.4013819,-0.0942 0.7294106,-0.496761 -0.1723401,-0.495832 0.2089084,-0.160595 1.2375345,0.413163 1.6898106,0.57283 0.8414295,0.760826 0.8283895,-1.743612 0.9728025,-0.553194 0.176671,1.148261 1.019651,0.971753 1.739162,0.430463 0.523105,-0.142447 0.449296,-0.329555 0.251404,-0.464827 0.615834,-0.104947 1.85601,-0.444959 0.86015,-0.844388 -0.943827,-0.56271 -2.128468,1.145046 -2.757699,0.191718 0.298743,0.02393 0.599362,0.04872 0.934823,0.05374 0.572347,-0.08988 0.663217,-0.262043 0.42116,-0.377494 0.293187,-0.01146 0.556024,-0.134143 0.823718,-0.358891 0.824941,0.899767 1.278993,-0.33726 2.022863,-0.757056 0.202789,0.378811 1.553167,-0.489873 0.711581,-0.490923 -0.696993,-0.454741 -1.405315,-0.494683 -1.989016,0.223499 -0.39543,0.251351 -1.157376,0.749846 -1.79032,0.635617 -0.644525,0.954026 -1.632445,0.443957 -2.5621036,0.683934 0.083839,-0.09926 1.3289336,-0.05191 1.7864446,-0.411342 0.308401,-0.268855 0.302062,-0.354169 0.157871,-0.360442 0.178686,-0.0553 0.338971,-0.121953 0.43873,-0.199211 0.420298,-0.296053 2.165791,-0.454005 1.667332,-1.084424 -0.722955,0.08234 -1.151705,0.244506 -1.733994,0.859116 -0.319404,0.178238 -0.67494,0.431146 -1.036365,0.537432 -0.160237,0.03158 -0.305309,0.05309 -0.38628,0.0354 -0.0046,0.004 -0.0055,0.0075 -0.0049,0.01059 -0.09522,-0.0075 -0.1902208,-0.02905 -0.2842183,-0.07209 -0.077337,0.0094 -0.2295368,0.06918 -0.4074669,0.149862 -0.01041,-0.01793 -0.024875,-0.03593 -0.04289,-0.05426 0.368016,-0.06431 0.9948622,-0.366447 0.9764212,-0.63665 0.193671,0.04883 0.386969,0.02106 0.502808,-0.182417 0.835249,-0.371857 0.404555,-0.893978 -0.02842,-0.728892 -0.461861,-0.137887 -0.845695,-0.07445 -1.2647742,-0.008 0.01209,-0.105352 -0.1133959,-0.268104 -0.3059229,-0.417802 0.5485916,0.327887 1.2688141,0.342289 1.7761091,-0.0062 0.648568,0.172972 0.469874,-0.434068 -0.272075,-0.366125 0.01248,-0.80755 0.944846,-0.03898 1.10742,0.673082 0.247902,0.452687 2.199808,-0.04697 1.357275,-0.603836 -0.192039,-0.229467 -0.503797,-0.395364 -0.845164,-0.47723 0.133272,-0.06469 0.188698,-0.147207 0.188618,-0.240552 0.39136,0.28369 0.832432,-0.09218 1.095276,-0.537432 -0.502812,-0.223017 -0.895248,-0.706327 -1.321618,-1.091142 0.05365,-0.0011 0.06137,-0.115266 -0.01369,-0.388605 -0.177284,-0.500652 0.350889,0.632329 0.692977,0.736386 0.176316,0.158829 0.440629,0.408947 0.70047,0.639492 0.0965,-0.186933 0.160553,-0.377824 0.173115,-0.530973 -0.03792,-0.172236 -0.0536,-0.29647 -0.05504,-0.38292 -0.351563,-0.315465 -0.327135,-0.295905 -5e-4,-0.0096 -0.0016,-0.273347 0.147898,-0.133 0.19456,0.157612 0.03408,-0.472756 -0.09785,-0.294078 0.392998,0.199987 0.10109,0.428051 0.495266,0.504366 0.838445,0.423744 -0.243215,-0.669417 0.01505,-0.481568 0.175441,-0.05659 0.359958,-0.149244 0.573025,-0.459428 0.120922,-0.639492 -0.633966,-0.0098 -1.117207,-0.470767 -1.566821,-0.910276 -0.648643,-0.546515 -0.175354,-0.293718 0.204896,0.10697 0.514053,0.523411 0.608862,0.524178 0.08733,-0.174666 -0.829694,-0.900453 0.07224,-0.06335 0.401782,0.27776 0.58293,0.562818 1.070888,0.385107 0.405916,-0.302048 -0.17641,-0.364082 -0.922882,-0.83259 -0.977971,-1.023188 1.117756,0.854466 -0.280837,-1.164234 0.222207,-0.818291 0.166945,0.753275 0.630731,1.35107 1.044892,2.025446 0.35427,1.271327 0.488247,-0.428373 0.04444,-0.982105 0.40836,0.418603 0.158462,-0.114451 0.08268,-0.484205 0.145686,0.290929 0.477929,0.791422 0.477229,1.048251 -0.04796,0.941061 0.569167,-0.708088 0.240294,-0.973063 0.0632,-0.249061 0.07966,-0.526275 0.03488,-0.778759 0.01833,0.03106 0.0363,0.0596 0.054,0.0832 0.510475,0.763413 0.597807,0.168029 0.428654,-0.337446 0.197441,-0.532562 -1.040467,-2.008122 -0.07312,-1.094759 -0.07558,-0.994856 -0.02277,-0.269293 0.100251,0.429428 0.120721,0.859437 0.770906,-0.62176 0.675666,-1.275884 0.07103,0.0391 0.125056,-0.04122 0.119114,-0.378011 0.574242,-1.0221216 -0.153034,0.467687 -0.07235,0.876686 -0.102725,0.501399 0.06813,0.515127 0.280602,0.386021 -0.430257,0.625013 -0.721541,1.596631 0.0083,1.10742 0.28416,-0.157173 1.328593,-0.379296 0.832503,-0.927328 -0.900173,-0.209286 0.293567,-1.264037 -0.03204,-0.258898 1.037855,0.894109 -0.618873,1.375889 -1.133775,1.861634 -0.534239,0.729624 -0.747441,1.656775 -1.059361,2.465469 0.321281,1.391178 0.456326,-0.217275 1.217749,-0.350364 0.494853,-0.0917 0.37052,-0.701744 0.206704,-1.137909 0.384983,0.610307 0.319541,-1.76939 0.412893,-0.91596 0.594558,0.391644 -0.480035,2.324494 0.465602,1.509977 0.566653,-0.191117 0.227902,-1.033018 -5e-4,-1.438406 0.56595,0.350159 0.794869,0.999372 0.326335,1.418511 -0.417497,0.862174 -1.702743,0.705764 -1.880495,1.722108 -0.102287,0.867071 0.882847,0.310748 1.41696,0.284219 0.807685,-0.110953 0.830507,-0.864067 0.713648,-1.468895 0.05453,0.119425 0.132613,0.197573 0.242619,0.162263 0.508682,-0.659853 0.908803,-1.810903 0.02894,-2.269875 0.04482,0.07402 0.0766,0.161232 0.08733,0.264323 -0.07839,-0.09279 -0.139457,-0.197626 -0.187585,-0.311349 -0.07118,-0.02978 -0.148831,-0.05605 -0.23461,-0.07751 -0.933315,-0.198488 -0.219498,-0.374193 0.190169,-0.04057 -0.15844,-0.474512 -0.134599,-1.072183 -0.198179,-1.592659 -0.244511,-0.904302 0.04631,0.04497 0.188618,-0.09353 -0.02105,0.450707 0.08908,1.364948 0.39739,1.685935 0.02253,-0.148731 -0.286701,-1.372861 0.01679,-1.893931 3.36e-4,-0.142277 -0.03715,-0.253989 -0.09818,-0.345197 0.03183,-0.04291 0.0192,-0.253816 0.01447,-0.645694 0.155265,-0.3079046 0.668858,0.869404 0.613654,1.238936 0.175223,0.02782 0.249888,-0.07796 0.260707,-0.249854 0.311557,-0.34168 0.791004,-0.998092 0.459659,-1.3980976 -0.01188,-0.01203 -0.01307,-0.01241 -0.01989,-0.01886 0.08695,0.075 0.410299,0.302259 0.543892,-0.118597 -0.06214,-0.07555 -0.07836,-0.12513 -0.01266,-0.127899 -0.391215,-1.30798 0.482813,0.184627 0.808732,0.532782 0.163454,0.3450916 0.25708,0.4909676 0.305664,0.5095256 -0.0522,-0.02408 -0.115776,-0.04888 -0.195852,-0.07467 -0.183031,-0.203085 -0.719639,-0.6184776 -0.899941,-0.8327606 -0.08037,0.7923176 -0.189521,1.4485836 -0.707446,1.9776466 -0.556953,0.50068 -0.627664,1.448215 -0.489374,2.121822 0.274216,0.475746 1.317195,-1.181318 1.178217,-1.779985 -0.04129,-1.17768 -0.0112,0.37015 0.200762,0.152445 0.670485,-1.201537 -0.283481,0.960704 0.393514,0.282927 0.767889,-1.132423 0.058,1.49963 -0.08294,0.894514 -0.105436,-1.586367 -0.956826,0.405259 -0.777984,0.961694 -0.01456,0.07498 -0.01978,0.134642 -0.01886,0.183967 -0.116134,-0.288581 -0.208333,-0.67849 -0.491957,-0.368451 -0.670927,0.467916 -0.151291,1.419857 -0.467152,2.066529 -0.393632,0.419073 -0.568136,2.067264 0.02222,0.920611 0.172215,-0.659026 0.862755,-1.071554 1.055486,-1.612555 0.269508,-0.494463 0.824527,-0.886703 0.811832,-1.497058 0.111158,-0.258808 0.218393,-0.540211 0.290937,-0.82656 0.170054,0.05469 0.513051,-0.04033 0.233318,0.299722 -0.40458,0.387782 -0.659562,1.945108 0.07596,0.79297 0.361721,-0.59079 0.227657,-1.277228 0.466635,-1.94354 0.275656,-0.387473 0.13108,-1.021438 -0.198953,-1.319809 0.02085,-0.106073 0.05306,-0.293085 0.113946,-0.538207 0.432673,-0.5113226 0.403541,-1.0830936 0.09431,-1.4066246 0.288213,0.100935 0.259364,0.596248 0.192494,0.950583 0.291903,-0.765001 -0.02621,-1.295356 0.06485,-2.145595 0.190594,-0.987123 -0.05503,0.264887 0.222208,-0.204895 0.595206,-1.06409 -0.07508,0.137914 -0.165105,0.577222 0.774057,0.708439 -0.0087,1.498031 -0.07932,2.3892466 0.292538,-0.6035566 1.070585,-1.2812366 1.285186,-1.8040136 -0.0023,0.05655 0.0019,0.09622 0.01162,0.120922 0.04983,-0.09419 0.36758,-0.588548 0.538982,-0.891672 0.199039,0.214028 -0.414065,1.754804 -1.191136,2.063429 -0.179647,0.3639076 -1.380196,2.1664226 -0.306181,1.2229156 0.465713,-0.515662 0.759277,-0.553865 0.124281,0.103094 -0.770839,0.73445 -0.161236,0.456302 0.342096,-0.05297 0.928987,-0.904398 -0.132299,0.431128 -0.528388,0.689877 -0.802262,1.168569 1.022655,-0.752046 0.476712,0.139525 -0.880584,1.001161 0.590404,-0.04838 0.86971,-0.179316 -0.512773,0.679607 -1.63005,0.746383 -1.60532,1.749496 -0.814915,1.131754 0.965042,0.644105 1.116205,-0.112912 0.282224,-0.450198 0.947388,-1.169394 0.600219,-1.984623 -0.522357,-0.338435 0.228488,-2.2180046 0.3669,-1.344355 -0.03229,0.501324 0.02247,0.554031 0.124282,0.427362 -0.07282,0.354405 -0.04719,0.749778 -0.04651,1.108195 0.06584,0.10389 0.408718,-0.248051 0.651119,-0.681092 0.824333,-0.431977 1.714078,-1.0703526 1.660872,-2.0879746 0.03338,-0.06913 0.13193,-0.272095 0.249596,-0.508751 -0.21629,0.19634 -0.55987,0.484304 -0.738711,0.672306 -0.195464,0.555756 -0.740604,1.2891306 -1.074864,1.7358016 0.143804,-0.313724 0.212032,-0.64138 0.07441,-0.8557566 0.555431,-0.889152 -0.737007,-1.077031 -0.31109,-1.923386 -0.403782,-0.210412 -0.215432,-2.04179 0.217556,-1.143335 0.223083,0.477767 0.365076,0.986258 0.447516,1.506876 0.07155,0.08947 0.13046,0.08759 0.157354,-0.09767 0.374598,-0.435972 0.529028,-1.872337 0.466894,-1.902717 -0.03978,1.258775 -0.102622,-0.758274 0.222207,-0.245461 -0.140973,0.650207 0.06364,0.03913 0.222466,-0.190685 a 23.99987,23.999874 0 0 1 0.139009,-0.01137 c 0.0096,0.04016 0.0154,0.09882 0.01654,0.181642 0.458129,0.97472 -0.520874,1.708767 -0.800206,2.577864 0.537483,-0.503168 1.983946,-2.311709 2.511979,-2.829528 v 0.02171 c -0.0418,0.252974 -1.395256,1.806133 -1.571989,2.024404 -0.301771,0.324787 -1.194012,0.936782 -0.206447,0.476454 0.14922,-0.08767 0.248714,-0.141483 0.315742,-0.173374 0.311246,-0.618665 0.681699,-1.313256 0.440022,-0.603835 -0.543185,1.21758 0.03268,-0.05626 0.5426,-0.386021 0.743477,0.129252 -0.989665,0.977812 -0.935338,1.519279 -0.347482,0.650128 -0.173993,0.546156 0.09018,0.303856 -0.261508,0.294855 -0.53073,0.688021 -0.43098,0.956525 0.586761,-0.455126 1.169902,-1.055962 1.756215,-1.575606 -0.02179,0.685833 -1.325097,1.578415 -1.190619,1.405592 -1.072322,0.6052966 -2.027744,1.3085816 -2.699821,2.3794286 -0.464922,0.512413 -1.806876,2.127908 -0.414701,1.382337 0.09277,-0.145074 0.38608,-0.491974 0.63355,-0.780052 -0.351399,0.56006 -0.139041,0.519647 0.182933,0.252697 -0.315805,0.302869 -0.709834,0.715875 -1.135325,0.843096 -1.32173,-0.106547 -1.567157,1.338829 -2.42232,1.89419 -0.877446,0.197074 -0.91967,1.051177 -1.312574,1.747429 -0.127014,0.580082 -0.118726,1.089675 0.222465,1.759573 0.950448,0.869177 1.843338,1.802838 2.753823,2.715323 l 5.382524,5.394538 v 2.442474 h -2.572181 l -5.31541,-5.327037 c -0.595169,-0.637055 -1.224823,-1.232567 -1.980746,-1.675341 -0.470194,-0.309401 -1.26076,-0.791106 -1.558553,-0.931205 -0.764718,-0.325096 -1.505774,-0.200056 -2.240678,0.107486 -0.407864,0.318226 -0.780737,0.808276 -1.166073,0.951875 -0.82919,0.265573 -1.582983,0.932941 -2.084358,1.661648 -0.387788,0.686632 -1.078599,1.443622 -1.333761,2.086941 -0.507028,0.562773 -1.194262,1.036789 -1.7324436,1.63245 -0.7451846,0.639924 -0.111717,0.05942 0.1912016,-0.289386 0.447045,-0.536699 1.232556,-0.87938 1.322135,-1.581549 -0.964036,0.610763 -1.7156196,1.550172 -2.6264412,2.243262 -0.571468,-0.101684 -1.5446276,1.555744 -1.2670991,0.879787 0.076004,-0.107098 0.1166324,-0.173851 0.1356498,-0.21549 0.5431119,-0.468039 -1.0667998,0.375904 -0.7994298,0.178799 0.5342937,-0.39253 0.2248844,-0.292079 -0.1891349,-0.107228 z m 0.9885647,-0.07157 c -0.052573,0.04531 -0.1179854,0.09867 -0.2147144,0.17079 -0.2269793,0.209795 -0.3194523,0.285568 -0.3322777,0.285769 -0.03902,6.1e-4 0.656329,-0.695954 0.5469921,-0.456559 z M 26.369165,13.061245 c 0.07821,-0.075 0.152989,-0.145068 0.220657,-0.200246 -0.07625,0.07647 -0.150101,0.141747 -0.220657,0.200246 z m -0.182934,-0.252697 c 0.01438,-0.02292 0.02711,-0.04404 0.04341,-0.06899 0.543149,-0.602063 0.296702,-0.326933 -0.04341,0.06899 z m 2.346356,-3.7682246 c 0.24867,-0.280381 0.490346,-0.472144 0.400232,-0.380853 -0.123372,0.114826 -0.27174,0.262996 -0.400232,0.380853 z m -2.0394,1.7510456 c -0.02937,0.06408 -0.06228,0.126793 -0.09689,0.188618 -0.02431,0.01274 -0.04895,0.02715 -0.07312,0.03953 0.0421,-0.05761 0.109834,-0.147731 0.170014,-0.22815 z m -0.701503,-0.238485 c 0.06576,-0.320041 0.211635,-0.6068556 0.531489,-0.8014966 -0.198931,0.194841 -0.402873,0.6414856 -0.531489,0.8014966 z m -0.93999,-1.9507746 c 0.0032,-0.07509 0.01769,-0.179348 0.04884,-0.323751 0.01969,0.0984 -0.0011,0.207435 -0.04884,0.323751 z m -1.520312,0.237452 c -0.04567,-0.016 -0.09823,-0.02318 -0.160971,-0.01705 -0.262514,0.0084 -0.430291,-0.06938 -0.532782,-0.193269 -0.05806,0.142345 -0.199665,0.195888 -0.515986,0.07932 0.171393,-0.07544 0.333035,-0.11481 0.482139,-0.125574 -0.264424,-0.408031 0.0454,-1.203432 0.1403,-1.306631 -0.23029,0.317102 -0.0069,0.977276 -0.09043,1.304048 0.284259,-0.0082 0.518171,0.09221 0.677733,0.259156 z m -0.208255,1.9448316 c -0.02464,0.125384 -0.03456,0.11686 -0.05194,-0.04289 0.01777,0.01339 0.03511,0.02767 0.05194,0.04289 z m -0.05194,-0.04289 c -0.06906,-0.05206 -0.144938,-0.0895 -0.225825,-0.108262 0.08944,-0.06804 0.08982,-0.15093 -0.119372,-0.247787 0.122934,0.04233 -0.05144,-0.7533246 -0.109553,-1.1753736 0.553305,-0.10301 0.271562,0.8713246 0.417802,1.1603876 0.01785,0.179825 0.02793,0.288131 0.03695,0.371035 z m -0.225825,-0.108262 c -0.139698,0.10627 -0.487479,0.175318 -0.592984,0.205413 0.209099,-0.19508 0.413212,-0.24711 0.592984,-0.205413 z m -0.592984,0.205413 c -0.0065,0.006 -0.01289,0.01099 -0.01938,0.01731 -0.02826,-0.0016 -0.01306,-0.0081 0.01938,-0.01731 z m 0.293779,2.116397 c -0.105317,-0.03387 -0.141208,-0.127568 0.07648,-0.416252 -0.01456,0.138736 -0.04144,0.277946 -0.07648,0.416252 z m 0.07648,-0.416252 c 0.0599,-0.570684 -0.0842,-1.128624 -0.694011,-1.537623 -0.570855,-0.866811 0.0089,-0.11369 0.375944,0.166138 0.551271,0.354604 0.840327,0.744968 0.340288,1.34048 -0.009,0.01154 -0.01395,0.02003 -0.02222,0.031 z m -1.297847,1.733736 c 0.02639,0.06558 0.05384,0.126771 0.08527,0.17234 -0.05056,-0.01639 -0.08332,-0.06831 -0.08527,-0.17234 z m 0.08527,0.17234 c 0.106514,0.03453 0.289091,-0.08427 0.421936,-0.190944 -0.211071,0.331226 -0.332053,0.321289 -0.421936,0.190944 z m 0.421936,-0.190944 c 4.7e-4,-7.5e-4 8e-4,-0.0014 0.0013,-0.0021 0.253738,-0.246378 0.166464,-0.132638 -0.0013,0.0021 z M 21.079074,9.5891254 c -0.0247,-0.0213 -0.02378,-0.02245 0,0 z M 20.63931,11.006085 c -0.140081,0.153624 -0.246253,0.243872 -0.229442,0.218073 0.08544,-0.08075 0.160249,-0.242598 0.216523,-0.427362 0.01119,0.07605 0.01682,0.147396 0.01292,0.209289 z M 20.62639,10.796796 C 20.5638,10.371329 20.292772,9.7741984 20.098518,9.5464924 c -0.382546,-1.011066 0.49029,0.8927836 0.08888,-0.327369 -0.230366,-1.120047 0.594188,-0.160018 0.236935,0.77075 0.368752,-0.455047 0.364595,0.2732546 0.202054,0.8069226 z m -0.875911,-0.1341 c -0.02201,0.02966 -0.06883,-0.02746 -0.151669,-0.15787 0.05863,0.04509 0.110698,0.09664 0.151669,0.15787 z m -0.151669,-0.15787 c -0.28038,-0.215652 -0.715473,-0.279348 -0.868676,-0.49144 -0.0028,-0.01382 -0.01897,-0.05035 -0.0491,-0.1105866 -0.0019,-0.009 -0.0038,-0.01791 -0.0049,-0.02739 0.0644,-1.164563 0.268668,-0.07046 0.711064,0.2847356 0.09163,0.150044 0.157878,0.260089 0.211614,0.344679 z M 18.676132,9.8754114 c -3.07e-4,0.0055 -7.5e-4,0.0093 -0.0011,0.01498 0.0027,0.0053 0.0035,0.0075 0.0059,0.0124 0.0085,0.04118 0.02535,0.07771 0.0491,0.1105866 0.02113,0.104593 -0.618062,-0.9262586 -0.05426,-0.1395246 5.6e-5,5.5e-4 2e-4,10e-4 2.58e-4,0.0016 z m 0.758347,1.3404786 c 0.0071,-0.15259 0.02923,-0.252454 0.06382,-0.257606 -0.01044,0.152515 -0.03392,0.228509 -0.06382,0.257606 z m -0.117304,3.95891 c -0.166384,-0.364368 -0.110989,-1.117181 -0.05349,-0.237193 0.01947,0.0748 0.03758,0.154887 0.05349,0.237193 z m -0.576448,-1.955942 c -0.02843,-0.01759 -0.05699,-0.03489 -0.08707,-0.0509 -0.141395,-0.27355 -0.04558,-0.18453 0.08707,0.0509 z m -0.877978,0.844388 c -0.03488,-0.0553 -0.07301,-0.132778 -0.115754,-0.241844 -0.2119,-0.403901 -0.03205,-0.151683 0.115754,0.241844 z m -0.04005,-2.760024 c 0.16976,-0.246602 0.36035,-0.440958 0.519603,-0.467669 0.133773,-0.14679 -0.231325,0.292503 -0.519603,0.467669 z M 17.49533,10.418527 c -0.197713,-0.108833 -0.529851,-1.1500496 -0.08682,-0.217299 0.04581,0.05045 0.07352,0.126004 0.08682,0.217299 z m -1.185451,2.195462 c -0.08033,-0.136126 -0.166042,-0.337032 -0.249596,-0.545443 0.133188,0.143755 0.212459,0.336038 0.249596,0.545443 z m -0.249596,-0.545443 c -0.07384,-0.07969 -0.164005,-0.144345 -0.272075,-0.189134 0.20394,-0.05552 0.09789,-0.308614 -0.16433,-0.681609 0.08944,-0.05009 0.25829,0.426472 0.436405,0.870743 z m -0.272075,-0.189134 c -0.09645,0.02625 -0.261668,0.0087 -0.513661,-0.06201 0.203965,-0.0208 0.373645,0.004 0.513661,0.06201 z m -0.230734,1.438147 c -0.07299,-0.14575 -0.09999,-0.239892 -0.01318,-0.222466 -0.01333,0.05447 -0.005,0.133834 0.01318,0.222466 z m -3.169039,2.135516 c -0.03597,7.5e-4 -0.0924,-0.0488 -0.159162,-0.1372 0.05376,0.04362 0.106717,0.08987 0.159162,0.1372 z m 0.226342,1.628575 c -0.102806,-0.07452 -0.202279,-0.193682 -0.293779,-0.370002 -0.03425,-0.05986 -0.06122,-0.120026 -0.08475,-0.179574 0.209146,0.189035 0.378388,0.385616 0.378528,0.549576 z m -0.378528,-0.549576 c -0.28165,-0.254569 -0.634962,-0.495212 -0.74672,-0.623474 -0.295461,-1.202913 0.118002,0.45203 0.686518,0.436406 0.01482,0.06 0.03476,0.122683 0.0602,0.187068 z m -0.0602,-0.187068 c -0.107135,-0.433772 0.03595,-0.699413 0.05348,-0.0062 -0.01791,0.0038 -0.03585,0.0057 -0.05348,0.0062 z m 0.250112,0.977196 c -0.01338,0.0065 -0.02609,0.013 -0.04108,0.01912 -0.182585,0.05345 -0.37517,0.01717 -0.560686,-0.07131 0.199378,-0.01363 0.405219,0.0051 0.601769,0.05219 z m -0.601769,-0.05219 c -0.20664,0.01412 -0.405886,0.06179 -0.578256,0.150636 -0.006,-0.02644 -0.01907,-0.0499 -0.03746,-0.07028 0.134446,0.0056 0.257007,-0.01605 0.352432,-0.08113 -0.268858,-0.254361 -0.39814,-0.444404 -0.493766,-0.664039 0.19029,0.255448 0.464143,0.525102 0.757056,0.664814 z m -0.757055,-0.664814 c -0.226309,-0.303799 -0.333947,-0.586721 -0.206705,-0.602802 0.0791,0.248488 0.13327,0.434138 0.206705,0.602802 z m 0.141334,0.74517 c -0.109002,-0.0045 -0.225805,-0.02781 -0.342871,-0.06098 0.154011,-0.03731 0.280827,-0.0077 0.342871,0.06098 z M 10.8658,17.289388 c -0.147276,0.03568 -0.319158,0.132325 -0.483431,0.315999 -0.8222685,0.713962 0.601791,-0.575674 -0.130999,-0.388346 -0.01065,-0.07341 -0.07686,-0.158387 -0.234351,-0.25373 -0.2399576,-0.202956 0.305363,0.172101 0.848781,0.326077 z m -0.61443,-0.07235 c 0.05041,0.347267 -1.1732354,0.430185 -0.196111,0.06563 0.07835,-0.03084 0.142542,-0.05194 0.196111,-0.06563 z m -0.9487731,0.885474 c -0.064186,-0.03836 -0.1266673,-0.07996 -0.1855175,-0.126865 0.066462,0.03996 0.1288543,0.08281 0.1855175,0.126865 z m 0.3059229,0.417802 c -0.01227,0.106917 -0.1661732,0.154696 -0.5358817,0.06899 0.1899345,-0.0147 0.3655141,-0.04197 0.5358817,-0.06899 z m 0.7903872,0.919319 c -0.4979963,-0.125562 -0.9985081,-0.758168 -0.192494,-0.215748 0.130069,0.06508 0.187261,0.13908 0.192494,0.215748 z m -0.9764212,0.63665 c -0.07951,0.01389 -0.1482278,0.01791 -0.1943025,0.0067 -0.378214,-0.391341 -0.8588074,-0.697656 -0.1111039,-0.183967 0.1503267,0.05792 0.2475512,0.118364 0.3054064,0.177249 z m 0.04289,0.05426 c 0.1265019,0.217977 -0.283836,0.397438 -0.653703,0.327885 -0.023435,0.07185 -0.1100014,0.140561 -0.2955879,0.198436 -0.3696231,0.177555 -0.1032745,0.01255 0.2930039,-0.198953 -0.2201238,-0.04211 -0.4251957,-0.172455 -0.4924739,-0.436146 -0.7753626,-0.330368 0.6017098,0.0888 0.4958329,0.434338 0.2071079,-0.110477 0.4470191,-0.232197 0.652928,-0.32556 z m 0.6916852,-0.07777 c 0.130303,0.01028 0.26103,-0.0077 0.391189,-0.04599 0.243442,-0.04799 0.521448,-0.119127 0.664297,-0.112912 -0.460885,0.142644 -1.046214,0.206362 -1.055486,0.158904 z m 1.894448,0.676699 c -0.184637,0.0072 -0.381059,-0.0293 -0.598927,-0.113429 0.272894,0.01137 0.477182,0.05536 0.598927,0.113429 z m -1.355983,0.323752 c -0.09983,-0.008 -0.200642,-0.01506 -0.301013,-0.02222 0.111825,-0.01326 0.20882,-0.02825 0.257606,-0.04676 0.014,0.02506 0.0288,0.04685 0.04341,0.06899 z m -0.301013,-0.02222 c -0.5860565,0.06953 -1.7729887,0.06646 -0.876169,-0.02635 0.3150714,-0.0077 0.598704,0.0065 0.876169,0.02635 z m 2.198562,0.674891 c -0.101455,0.01729 -0.189627,0.02996 -0.24417,0.03359 -0.583783,-0.314459 -0.0403,-0.228044 0.24417,-0.03359 z m -4.480839,0.51056 c -0.1601166,0.03758 -0.3316345,0.02748 -0.4418309,-0.07906 0.1433272,0.02829 0.2921282,0.05382 0.4418309,0.07906 z m 0.7673909,0.750338 c -0.2342627,-0.07851 -0.4428661,-0.200023 -0.5172782,-0.32556 0.3879239,0.125624 0.559116,0.251713 0.5172782,0.32556 z M 7.728282,22.857236 c -0.1805401,-0.07588 -0.3301438,-0.149537 -0.4464822,-0.206704 0.1678936,0.05467 0.3259383,0.127004 0.4464822,0.206704 z M 7.2817998,22.650532 c -0.03234,-0.01053 -0.0648,-0.02087 -0.097668,-0.02998 -0.1173064,-0.07556 -0.036645,-0.03602 0.097668,0.02998 z m 0.6348417,0.58239 c -0.063836,0.0777 -0.2156044,0.144031 -0.4880814,0.185518 0.1511097,-0.105342 0.3159833,-0.158462 0.4880814,-0.185518 z m 0.6335494,0.522187 c -0.102918,-0.04839 -0.2030374,-0.112137 -0.2989464,-0.193527 -0.3307601,-0.191958 0.058172,-0.0087 0.2989464,0.193527 z M 8.1050008,24.085061 C 7.5819857,24.001033 6.314769,23.375938 7.1838739,23.725396 c 0.3320507,-0.02091 0.8673801,0.191512 0.9211269,0.359665 z m -0.6963361,0.257865 c -0.00315,6.5e-4 -0.0064,0.0017 -0.00956,0.0023 0.0032,-7.5e-4 0.00635,-0.0016 0.00956,-0.0023 z m -0.00956,0.0023 c -0.1235178,0.02825 -0.2448502,0.06119 -0.364317,0.09612 0.011795,-0.04425 -0.02288,-0.09248 -0.084749,-0.141592 0.1409273,0.05259 0.287354,0.07649 0.4490656,0.04547 z M 6.9500391,24.299756 C 6.8205723,24.251446 6.6955065,24.178297 6.5676356,24.101577 a 23.99987,23.999874 0 0 1 0.00205,-0.0093 c 0.1458033,0.06453 0.2910535,0.136604 0.3803365,0.20748 z m 0.084749,0.141592 c -0.018125,0.068 -0.1450143,0.126412 -0.4511326,0.163555 -0.00676,-0.0023 -0.012655,-0.0037 -0.01938,-0.0059 0.1487367,-0.05662 0.3066443,-0.109701 0.470511,-0.157612 z m -0.470511,0.157613 c -0.018345,0.007 -0.038285,0.01333 -0.056327,0.02041 -0.03682,0.01864 -0.049115,0.0242 -0.078806,0.03901 a 23.99987,23.999874 0 0 1 0.023255,-0.09379 c 0.037025,0.01113 0.073058,0.02117 0.1118789,0.03436 z m 1.2611559,0.744181 c -0.5582976,0.02491 -1.5936101,-0.371191 -0.3948059,-0.180349 0.7338788,-0.329563 0.7418758,0.01024 0.3948059,0.180349 z m -0.6164953,0.196861 c -0.077026,0.04636 -0.1665931,0.07099 -0.2588976,0.08139 0.089744,-0.03756 0.1806025,-0.069 0.2588976,-0.08139 z m -0.2588976,0.08139 c -0.3179223,0.133054 -0.6081053,0.331929 -0.2281503,-0.0013 0.074521,0.0076 0.1518137,0.0099 0.2281503,0.0013 z m -0.2281503,-0.0013 c -0.4160123,-0.04272 -0.7180307,-0.278569 0.061495,-0.054 -0.025,0.02159 -0.04067,0.03574 -0.061495,0.054 z m 4.3852382,-1.130158 c -0.119449,-0.116199 -0.226899,-0.261624 -0.316258,-0.438213 0.172115,0.02129 0.283212,0.214992 0.316258,0.438213 z m -0.992182,1.320583 c -0.6351841,0.09197 -1.5503537,-0.967152 -0.5738639,-0.144435 0.2970314,0.04996 0.4897629,0.10063 0.5738639,0.144435 z m -0.09844,0.104644 c -0.1032104,0.01435 -0.2610905,0.02189 -0.4764574,0.01938 -0.1198428,0.118412 -0.3242377,0.10295 -0.5087518,0.05142 0.2741846,-0.09919 0.7709844,-0.267913 0.9852062,-0.0708 z m -0.9852092,0.0708 c -0.184576,0.06677 -0.268467,0.101692 -0.093533,-0.02946 0.03037,0.01074 0.061354,0.02047 0.093533,0.02946 z m -0.093533,-0.02946 c -0.3033929,-0.107275 -0.4897449,-0.27601 0.00205,-0.0015 -9e-4,6.5e-4 -0.0012,9e-4 -0.00205,0.0015 z m 0.4994494,0.356058 c -0.015325,-0.08011 -0.015235,-0.09832 0,0 z m -0.9503245,0.659905 c -0.2218138,-0.0013 -0.4379276,-0.07486 -0.6312239,-0.244687 0.2581999,-0.01957 0.5147831,0.0892 0.6312239,0.244687 z M 7.8556648,26.72778 c -0.1700161,0.01289 -0.3397432,0.08197 -0.470253,0.230476 0.047035,-0.167666 -0.1930615,-0.348914 0.2418442,-0.492474 0.071134,0.105877 0.1479787,0.191335 0.2284088,0.261998 z m -0.470253,0.230476 c -0.010075,0.03591 -0.032595,0.07128 -0.078548,0.105419 0.023895,-0.03931 0.050617,-0.07364 0.078548,-0.105419 z m 0.3059229,0.853173 c -0.04249,0.0099 -0.085708,0.01734 -0.1294488,0.02274 0.043125,-0.0075 0.086248,-0.01532 0.1294488,-0.02274 z m -0.1294488,0.02274 c -0.2640671,0.04621 -0.5266352,0.09634 -0.7852194,0.167431 0.054722,-0.08637 0.069083,-0.177646 -0.014985,-0.253213 0.1174594,0.0502 0.467829,0.126766 0.8002044,0.08578 z m -0.8002053,-0.08578 c -0.030135,-0.01288 -0.04608,-0.02399 -0.041085,-0.03075 0.015715,0.0099 0.029305,0.02016 0.041085,0.03075 z m 0.014985,0.253213 c -0.1688191,0.266448 -0.7371215,0.483914 -0.1095534,0.03075 0.03638,-0.01093 0.073016,-0.0207 0.1095534,-0.03075 z m 0.666881,0.366901 c -0.5490211,-0.03664 -1.326306,0.269064 -0.3529481,-0.0726 0.4536835,-0.176505 0.4196877,-0.07142 0.3529481,0.0726 z m -0.6901343,0.740519 c -0.1215444,-0.0529 -0.2175054,-0.145191 -0.2601897,-0.290161 0.1652912,0.04931 0.2466682,0.159401 0.2601897,0.290161 z M 6.4606667,24.530768 a 23.99987,23.999874 0 0 1 0.04935,-0.197662 c 0.104626,0.0216 0.045635,0.107475 -0.04935,0.197662 z M 16.475506,18.405076 c 0.715265,-0.01789 0.298458,-0.993303 -0.02144,-1.354691 0.09476,-0.435741 -0.517281,-0.329477 -0.874361,-0.445448 0.0018,0.01369 0.0047,0.02705 0.0062,0.04083 -0.65083,0.32529 -1.002988,-0.378306 -1.498351,-0.92397 0.01131,0.09963 0.01048,0.213614 -0.01188,0.333311 -0.11769,0.146786 -0.197369,0.293832 -0.246495,0.438472 0.05747,0.05037 0.113254,0.09826 0.168464,0.144435 -0.06692,-0.01406 -0.131733,-0.03289 -0.194819,-0.05607 -0.219194,0.865275 0.678716,1.617914 1.596794,1.628833 0.169489,-0.0348 0.20232,-0.152076 0.147794,-0.307732 0.119982,0.13777 0.184793,0.156552 0.105419,-0.09121 -0.02655,-1.369922 0.04577,0.579577 0.822684,0.593242 z m -0.928104,-0.502034 c -0.103789,-0.119175 -0.246718,-0.326006 -0.378786,-0.535623 0.182292,0.188144 0.32452,0.380714 0.378786,0.535623 z m -0.378786,-0.535623 c -0.196149,-0.202447 -0.437601,-0.397839 -0.669465,-0.535107 -0.289031,-0.4879 -0.11679,-0.689178 0.353465,-0.04341 0.03148,0.101162 0.165554,0.339729 0.316,0.578515 z m -0.669465,-0.535107 c 0.02504,0.04227 0.05215,0.08582 0.08423,0.132033 -0.05261,0.08449 -0.297712,-0.08546 -0.585749,-0.326335 0.01091,0.0023 0.02129,0.0057 0.0323,0.0077 0.134865,0.01554 0.299215,0.08591 0.469219,0.186551 z M 27.012274,9.8126234 c 0.327776,-0.419509 0.171461,-0.820031 -0.06175,-1.235577 0.05254,0.408921 0.07036,0.823759 0.06175,1.235577 z M 24.90828,8.7584294 c 0.162726,-0.01366 0.590294,-0.840937 0.255538,-0.441831 -0.184102,0.262094 -0.271363,0.382208 -0.297654,0.412634 0.01012,0.02086 0.02423,0.0307 0.04211,0.0292 z" /></g></svg>
