<?xml version="1.0" encoding="UTF-8" standalone="no"?>
<!-- Created with Inkscape (http://www.inkscape.org/) -->

<svg
   width="10mm"
   height="10mm"
   viewBox="0 0 10 10"
   version="1.1"
   id="svg5"
   xml:space="preserve"
   inkscape:version="1.2.2 (732a01da63, 2022-12-09)"
   sodipodi:docname="swap.svg"
   xmlns:inkscape="http://www.inkscape.org/namespaces/inkscape"
   xmlns:sodipodi="http://sodipodi.sourceforge.net/DTD/sodipodi-0.dtd"
   xmlns="http://www.w3.org/2000/svg"
   xmlns:svg="http://www.w3.org/2000/svg"><sodipodi:namedview
     id="namedview7"
     pagecolor="#ffffff"
     bordercolor="#000000"
     borderopacity="0.25"
     inkscape:showpageshadow="2"
     inkscape:pageopacity="0.0"
     inkscape:pagecheckerboard="0"
     inkscape:deskcolor="#d1d1d1"
     inkscape:document-units="mm"
     showgrid="false"
     inkscape:zoom="1"
     inkscape:cx="15"
     inkscape:cy="35"
     inkscape:window-width="1280"
     inkscape:window-height="971"
     inkscape:window-x="-8"
     inkscape:window-y="-8"
     inkscape:window-maximized="1"
     inkscape:current-layer="g2284"><inkscape:grid
       type="xygrid"
       id="grid1049"
       units="mm"
       spacingx="0.24999999"
       spacingy="0.24999999"
       visible="true"
       empspacing="1" /><inkscape:grid
       type="axonomgrid"
       id="grid1493"
       gridanglex="18.43"
       gridanglez="18.43"
       spacingy="0.24999999"
       empspacing="1"
       visible="false" /></sodipodi:namedview><defs
     id="defs2">
  </defs><g
     inkscape:label="Layer 1"
     inkscape:groupmode="layer"
     id="g2284">
  <path
   style="color:black;solid-color:black;stroke-linecap:round;stroke-linejoin:round;-inkscape-stroke:none"
   d="m 3.421875,0.26367188 -3,1.00000002 C 0.31971968,1.2972854 0.2505034,1.3924578 0.25,1.5 v 8 c 8.0442e-4,0.1697308 0.16688618,0.2893492 0.328125,0.2363281 L 3.5,8.7636719 3.6953125,8.828125 3.8535156,8.3535156 3.578125,8.2636719 c -0.050746,-0.016692 -0.1055041,-0.016692 -0.15625,0 L 0.75,9.1542969 V 1.6796875 L 3.5,0.76367187 5.4511719,1.4140625 5.609375,0.93945313 3.578125,0.26367188 c -0.050746,-0.0166923 -0.1055041,-0.0166923 -0.15625,0 z m 6,0 L 6.5,1.2363281 6.3046875,1.171875 6.1464844,1.6464844 6.421875,1.7363284 c 0.050746,0.016692 0.1055041,0.016692 0.15625,0 L 9.25,0.84570313 V 8.3203125 L 6.5,9.2363281 4.5488281,8.5859375 4.390625,9.0605469 6.421875,9.7363281 c 0.050746,0.016692 0.1055041,0.016692 0.15625,0 l 3,-1 C 9.6802803,8.7027146 9.7494966,8.6075422 9.75,8.5 v -8 C 9.7491956,0.33026918 9.5831138,0.21065077 9.421875,0.26367188 Z"
   id="path2143"
   sodipodi:nodetypes="cccccccccccccccccccccccccccccccccc" /><path
   style="fill:yellow;stroke:black;stroke-width:0.25;stroke-linecap:round;stroke-linejoin:round;stroke-dasharray:none"
   d="M 3.4999998,0.49999865 V 8.4999982"
   id="path2871" /><path
   style="fill:yellow;stroke:black;stroke-width:0.25;stroke-linecap:round;stroke-linejoin:round;stroke-dasharray:none"
   d="m 6.4999996,1.4999986 3e-7,7.9999995"
   id="path2873" /><g
   id="g6440"><path
     style="fill:black;stroke:none;stroke-width:0.125;stroke-linecap:round;stroke-linejoin:round;stroke-dasharray:none"
     d="m 6.7519435,1.7499999 0.375108,-0.125 v 0.5 l -0.375108,0.125 v -0.5"
     id="path6422" /><path
     style="fill:black;stroke:none;stroke-width:0.125;stroke-linecap:round;stroke-linejoin:round;stroke-dasharray:none"
     d="m 7.5021596,1.4999999 0.375108,-0.125 v 0.5 l -0.375108,0.125 v -0.5"
     id="path6424" /><path
     style="fill:black;stroke:none;stroke-width:0.125;stroke-linecap:round;stroke-linejoin:round;stroke-dasharray:none"
     d="m 8.2523755,1.25 0.375108,-0.125 v 0.5 L 8.2523755,1.75 v -0.5"
     id="path6426" /><path
     style="fill:black;stroke:none;stroke-width:0.125;stroke-linecap:round;stroke-linejoin:round;stroke-dasharray:none"
     d="m 7.8748917,1.8742082 0.375108,-0.125 v 0.5 l -0.375108,0.125 v -0.5"
     id="path6428" /><path
     style="fill:black;stroke:none;stroke-width:0.125;stroke-linecap:round;stroke-linejoin:round;stroke-dasharray:none"
     d="m 7.1270516,2.1249999 0.375108,-0.125 v 0.5 l -0.375108,0.125 v -0.5"
     id="path6430" /><path
     style="fill:black;stroke:none;stroke-width:0.125;stroke-linecap:round;stroke-linejoin:round;stroke-dasharray:none"
     d="m 8.6274835,1.6249999 0.375108,-0.125 v 0.5 l -0.375108,0.125 v -0.5"
     id="path6432" /></g><g
   id="g6454"
   transform="translate(1.1139453e-7,1)"><path
     style="fill:black;stroke:none;stroke-width:0.125;stroke-linecap:round;stroke-linejoin:round;stroke-dasharray:none"
     d="m 6.7519435,1.7499999 0.375108,-0.125 v 0.5 l -0.375108,0.125 v -0.5"
     id="path6442" /><path
     style="fill:black;stroke:none;stroke-width:0.125;stroke-linecap:round;stroke-linejoin:round;stroke-dasharray:none"
     d="m 7.5021596,1.4999999 0.375108,-0.125 v 0.5 l -0.375108,0.125 v -0.5"
     id="path6444" /><path
     style="fill:black;stroke:none;stroke-width:0.125;stroke-linecap:round;stroke-linejoin:round;stroke-dasharray:none"
     d="m 8.2523755,1.25 0.375108,-0.125 v 0.5 L 8.2523755,1.75 v -0.5"
     id="path6446" /><path
     style="fill:black;stroke:none;stroke-width:0.125;stroke-linecap:round;stroke-linejoin:round;stroke-dasharray:none"
     d="m 7.8748917,1.8742082 0.375108,-0.125 v 0.5 l -0.375108,0.125 v -0.5"
     id="path6448" /><path
     style="fill:black;stroke:none;stroke-width:0.125;stroke-linecap:round;stroke-linejoin:round;stroke-dasharray:none"
     d="m 7.1270516,2.1249999 0.375108,-0.125 v 0.5 l -0.375108,0.125 v -0.5"
     id="path6450" /><path
     style="fill:black;stroke:none;stroke-width:0.125;stroke-linecap:round;stroke-linejoin:round;stroke-dasharray:none"
     d="m 8.6274835,1.6249999 0.375108,-0.125 v 0.5 l -0.375108,0.125 v -0.5"
     id="path6452" /></g><g
   id="g6468"
   transform="translate(1.1139454e-7,2)"><path
     style="fill:black;stroke:none;stroke-width:0.125;stroke-linecap:round;stroke-linejoin:round;stroke-dasharray:none"
     d="m 6.7519435,1.7499999 0.375108,-0.125 v 0.5 l -0.375108,0.125 v -0.5"
     id="path6456" /><path
     style="fill:black;stroke:none;stroke-width:0.125;stroke-linecap:round;stroke-linejoin:round;stroke-dasharray:none"
     d="m 7.5021596,1.4999999 0.375108,-0.125 v 0.5 l -0.375108,0.125 v -0.5"
     id="path6458" /><path
     style="fill:black;stroke:none;stroke-width:0.125;stroke-linecap:round;stroke-linejoin:round;stroke-dasharray:none"
     d="m 8.2523755,1.25 0.375108,-0.125 v 0.5 L 8.2523755,1.75 v -0.5"
     id="path6460" /><path
     style="fill:black;stroke:none;stroke-width:0.125;stroke-linecap:round;stroke-linejoin:round;stroke-dasharray:none"
     d="m 7.8748917,1.8742082 0.375108,-0.125 v 0.5 l -0.375108,0.125 v -0.5"
     id="path6462" /><path
     style="fill:black;stroke:none;stroke-width:0.125;stroke-linecap:round;stroke-linejoin:round;stroke-dasharray:none"
     d="m 7.1270516,2.1249999 0.375108,-0.125 v 0.5 l -0.375108,0.125 v -0.5"
     id="path6464" /><path
     style="fill:black;stroke:none;stroke-width:0.125;stroke-linecap:round;stroke-linejoin:round;stroke-dasharray:none"
     d="m 8.6274835,1.6249999 0.375108,-0.125 v 0.5 l -0.375108,0.125 v -0.5"
     id="path6466" /></g><g
   id="g6482"
   transform="translate(2.2139454e-7,3)"><path
     style="fill:black;stroke:none;stroke-width:0.125;stroke-linecap:round;stroke-linejoin:round;stroke-dasharray:none"
     d="m 6.7519435,1.7499999 0.375108,-0.125 v 0.5 l -0.375108,0.125 v -0.5"
     id="path6470" /><path
     style="fill:black;stroke:none;stroke-width:0.125;stroke-linecap:round;stroke-linejoin:round;stroke-dasharray:none"
     d="m 7.5021596,1.4999999 0.375108,-0.125 v 0.5 l -0.375108,0.125 v -0.5"
     id="path6472" /><path
     style="fill:black;stroke:none;stroke-width:0.125;stroke-linecap:round;stroke-linejoin:round;stroke-dasharray:none"
     d="m 8.2523755,1.25 0.375108,-0.125 v 0.5 L 8.2523755,1.75 v -0.5"
     id="path6474" /><path
     style="fill:black;stroke:none;stroke-width:0.125;stroke-linecap:round;stroke-linejoin:round;stroke-dasharray:none"
     d="m 7.8748917,1.8742082 0.375108,-0.125 v 0.5 l -0.375108,0.125 v -0.5"
     id="path6476" /><path
     style="fill:black;stroke:none;stroke-width:0.125;stroke-linecap:round;stroke-linejoin:round;stroke-dasharray:none"
     d="m 7.1270516,2.1249999 0.375108,-0.125 v 0.5 l -0.375108,0.125 v -0.5"
     id="path6478" /><path
     style="fill:black;stroke:none;stroke-width:0.125;stroke-linecap:round;stroke-linejoin:round;stroke-dasharray:none"
     d="m 8.6274835,1.6249999 0.375108,-0.125 v 0.5 l -0.375108,0.125 v -0.5"
     id="path6480" /></g><g
   id="g6496"
   transform="translate(1.1139453e-7,3.9999999)"><path
     style="fill:black;stroke:none;stroke-width:0.125;stroke-linecap:round;stroke-linejoin:round;stroke-dasharray:none"
     d="m 6.7519435,1.7499999 0.375108,-0.125 v 0.5 l -0.375108,0.125 v -0.5"
     id="path6484" /><path
     style="fill:black;stroke:none;stroke-width:0.125;stroke-linecap:round;stroke-linejoin:round;stroke-dasharray:none"
     d="m 7.5021596,1.4999999 0.375108,-0.125 v 0.5 l -0.375108,0.125 v -0.5"
     id="path6486" /><path
     style="fill:black;stroke:none;stroke-width:0.125;stroke-linecap:round;stroke-linejoin:round;stroke-dasharray:none"
     d="m 8.2523755,1.25 0.375108,-0.125 v 0.5 L 8.2523755,1.75 v -0.5"
     id="path6488" /><path
     style="fill:black;stroke:none;stroke-width:0.125;stroke-linecap:round;stroke-linejoin:round;stroke-dasharray:none"
     d="m 7.8748917,1.8742082 0.375108,-0.125 v 0.5 l -0.375108,0.125 v -0.5"
     id="path6490" /><path
     style="fill:black;stroke:none;stroke-width:0.125;stroke-linecap:round;stroke-linejoin:round;stroke-dasharray:none"
     d="m 7.1270516,2.1249999 0.375108,-0.125 v 0.5 l -0.375108,0.125 v -0.5"
     id="path6492" /><path
     style="fill:black;stroke:none;stroke-width:0.125;stroke-linecap:round;stroke-linejoin:round;stroke-dasharray:none"
     d="m 8.6274835,1.6249999 0.375108,-0.125 v 0.5 l -0.375108,0.125 v -0.5"
     id="path6494" /></g><g
   id="g6510"
   transform="translate(2.2139453e-7,4.9999999)"><path
     style="fill:black;stroke:none;stroke-width:0.125;stroke-linecap:round;stroke-linejoin:round;stroke-dasharray:none"
     d="m 6.7519435,1.7499999 0.375108,-0.125 v 0.5 l -0.375108,0.125 v -0.5"
     id="path6498" /><path
     style="fill:black;stroke:none;stroke-width:0.125;stroke-linecap:round;stroke-linejoin:round;stroke-dasharray:none"
     d="m 7.5021596,1.4999999 0.375108,-0.125 v 0.5 l -0.375108,0.125 v -0.5"
     id="path6500" /><path
     style="fill:black;stroke:none;stroke-width:0.125;stroke-linecap:round;stroke-linejoin:round;stroke-dasharray:none"
     d="m 8.2523755,1.25 0.375108,-0.125 v 0.5 L 8.2523755,1.75 v -0.5"
     id="path6502" /><path
     style="fill:black;stroke:none;stroke-width:0.125;stroke-linecap:round;stroke-linejoin:round;stroke-dasharray:none"
     d="m 7.8748917,1.8742082 0.375108,-0.125 v 0.5 l -0.375108,0.125 v -0.5"
     id="path6504" /><path
     style="fill:black;stroke:none;stroke-width:0.125;stroke-linecap:round;stroke-linejoin:round;stroke-dasharray:none"
     d="m 7.1270516,2.1249999 0.375108,-0.125 v 0.5 l -0.375108,0.125 v -0.5"
     id="path6506" /><path
     style="fill:black;stroke:none;stroke-width:0.125;stroke-linecap:round;stroke-linejoin:round;stroke-dasharray:none"
     d="m 8.6274835,1.6249999 0.375108,-0.125 v 0.5 l -0.375108,0.125 v -0.5"
     id="path6508" /></g><g
   id="g6524"
   transform="translate(1.1139453e-7,5.9999998)"><path
     style="fill:black;stroke:none;stroke-width:0.125;stroke-linecap:round;stroke-linejoin:round;stroke-dasharray:none"
     d="m 6.7519435,1.7499999 0.375108,-0.125 v 0.5 l -0.375108,0.125 v -0.5"
     id="path6512" /><path
     style="fill:black;stroke:none;stroke-width:0.125;stroke-linecap:round;stroke-linejoin:round;stroke-dasharray:none"
     d="m 7.5021596,1.4999999 0.375108,-0.125 v 0.5 l -0.375108,0.125 v -0.5"
     id="path6514" /><path
     style="fill:black;stroke:none;stroke-width:0.125;stroke-linecap:round;stroke-linejoin:round;stroke-dasharray:none"
     d="m 8.2523755,1.25 0.375108,-0.125 v 0.5 L 8.2523755,1.75 v -0.5"
     id="path6516" /><path
     style="fill:black;stroke:none;stroke-width:0.125;stroke-linecap:round;stroke-linejoin:round;stroke-dasharray:none"
     d="m 7.8748917,1.8742082 0.375108,-0.125 v 0.5 l -0.375108,0.125 v -0.5"
     id="path6518" /><path
     style="fill:black;stroke:none;stroke-width:0.125;stroke-linecap:round;stroke-linejoin:round;stroke-dasharray:none"
     d="m 7.1270516,2.1249999 0.375108,-0.125 v 0.5 l -0.375108,0.125 v -0.5"
     id="path6520" /><path
     style="fill:black;stroke:none;stroke-width:0.125;stroke-linecap:round;stroke-linejoin:round;stroke-dasharray:none"
     d="m 8.6274835,1.6249999 0.375108,-0.125 v 0.5 l -0.375108,0.125 v -0.5"
     id="path6522" /></g><path
   style="fill:black;stroke:none;stroke-width:0.125;stroke-linecap:round;stroke-linejoin:round;stroke-dasharray:none"
   d="M 6.0017276,8.7499996 V 8.2499995 l -0.375108,-0.125 v 0.5000001 z"
   id="path6566" /><path
   style="fill:black;stroke:none;stroke-width:0.125;stroke-linecap:round;stroke-linejoin:round;stroke-dasharray:none"
   d="M 5.2499998,8.4994958 4.8764036,8.3749995 v -0.5 l 0.375108,0.125 z"
   id="path6568" /><path
   style="fill:black;stroke:none;stroke-width:0.125;stroke-linecap:round;stroke-linejoin:round;stroke-dasharray:none"
   d="m 4.7074161,7.8186865 0.1689875,0.056313 V 7.3749997 l -0.059229,-0.019737 z"
   id="path6572"
   sodipodi:nodetypes="ccccc" /><path
   style="fill:black;stroke:none;stroke-width:0.125;stroke-linecap:round;stroke-linejoin:round;stroke-dasharray:none"
   d="m 4.8764036,7.3749997 0,-0.2698162 0.050514,-0.2132824 0.3230819,0.1080986 0.00151,0.5 z"
   id="path6574"
   sodipodi:nodetypes="cccccc" /><path
   style="fill:black;stroke:none;stroke-width:0.125;stroke-linecap:round;stroke-linejoin:round;stroke-dasharray:none"
   d="m 5.2499998,7.4999997 0.3766198,0.1249998 v 0.5 l -0.375108,-0.125 z"
   id="path6576" /><path
   style="fill:black;stroke:none;stroke-width:0.125;stroke-linecap:round;stroke-linejoin:round;stroke-dasharray:none"
   d="M 5.6266196,7.6249995 V 7.1249997 l 0.375108,0.125 v 0.4999998 z"
   id="path6578" /><path
   style="fill:black;stroke:none;stroke-width:0.125;stroke-linecap:round;stroke-linejoin:round;stroke-dasharray:none"
   d="M 5.2515116,6.9999997 5.2500035,6.5005034 5.6266233,6.6249996 V 7.1249997 Z"
   id="path6582" /><path
   style="fill:black;stroke:none;stroke-width:0.125;stroke-linecap:round;stroke-linejoin:round;stroke-dasharray:none"
   d="m 5.2515116,6.4999996 v -0.5 L 5.1464497,5.9649891 5.0366913,6.4284134 Z"
   id="path6584"
   sodipodi:nodetypes="ccccc" /><path
   style="fill:black;stroke:none;stroke-width:0.125;stroke-linecap:round;stroke-linejoin:round;stroke-dasharray:none"
   d="m 5.2515116,5.9999996 -0.00151,-0.4999998 0.3766198,0.125 v 0.4999998 z"
   id="path6588" /><path
   style="fill:black;stroke:none;stroke-width:0.125;stroke-linecap:round;stroke-linejoin:round;stroke-dasharray:none"
   d="m 5.3659665,5.0381403 0.2606531,0.086859 v -0.5 L 5.4757249,4.5747159 Z"
   id="path6590"
   sodipodi:nodetypes="ccccc" /><path
   style="fill:black;stroke:none;stroke-width:0.125;stroke-linecap:round;stroke-linejoin:round;stroke-dasharray:none"
   d="m 5.6266196,4.1249999 0.37338,0.1249997 v 0.5000001 l -0.37338,-0.125 z"
   id="path6596" /><path
   style="fill:black;stroke:none;stroke-width:0.125;stroke-linecap:round;stroke-linejoin:round;stroke-dasharray:none"
   d="m 5.6266196,5.1249997 0.375108,0.1250001 -0.00172,0.499424 -0.37338,-0.124424 z"
   id="path6598" /><path
   style="fill:black;stroke:none;stroke-width:0.125;stroke-linecap:round;stroke-linejoin:round;stroke-dasharray:none"
   d="m 5.6266196,6.1249996 0.37338,0.125 v 0.5 l -0.37338,-0.125 z"
   id="path6600" /><path
   style="fill:black;stroke:none;stroke-width:0.125;stroke-linecap:round;stroke-linejoin:round;stroke-dasharray:none"
   d="M 5.6952417,3.6478673 6.0017276,3.7499999 V 3.2499998 L 5.8050001,3.1844428 Z"
   id="path6602"
   sodipodi:nodetypes="ccccc" /><path
   style="fill:black;stroke:none;stroke-width:0.125;stroke-linecap:round;stroke-linejoin:round;stroke-dasharray:none"
   d="m 5.9999996,2.7505758 0.00136,-0.3951977 -0.086794,0.3664642 z"
   id="path6604"
   sodipodi:nodetypes="cccc" /><path
   style="fill:white;stroke:black;stroke-width:0.125;stroke-linecap:round;stroke-linejoin:round;stroke-dasharray:none"
   d="m 3.4999998,9.7499994 2.25,-9.49999941"
   id="path411" /><path
   style="fill:white;stroke:black;stroke-width:0.125;stroke-linecap:round;stroke-linejoin:round;stroke-dasharray:none"
   d="m 4.2499996,9.7499994 2.25,-9.49999941"
   id="path967" /></g></svg>
