<?xml version="1.0" encoding="UTF-8" standalone="no"?>
<!-- Created with Inkscape (http://www.inkscape.org/) -->

<svg
   width="28.284267mm"
   height="28.284269mm"
   viewBox="0 0 28.284267 28.284269"
   version="1.1"
   id="svg5"
   xml:space="preserve"
   inkscape:version="1.2.2 (732a01da63, 2022-12-09)"
   sodipodi:docname="cruce-buton-mare-drept.svg"
   xmlns:inkscape="http://www.inkscape.org/namespaces/inkscape"
   xmlns:sodipodi="http://sodipodi.sourceforge.net/DTD/sodipodi-0.dtd"
   xmlns:xlink="http://www.w3.org/1999/xlink"
   xmlns="http://www.w3.org/2000/svg"
   xmlns:svg="http://www.w3.org/2000/svg"><sodipodi:namedview
     id="namedview7"
     pagecolor="#ffffff"
     bordercolor="#000000"
     borderopacity="0.25"
     inkscape:showpageshadow="2"
     inkscape:pageopacity="0.0"
     inkscape:pagecheckerboard="false"
     inkscape:deskcolor="#d1d1d1"
     inkscape:document-units="mm"
     showgrid="false"
     inkscape:zoom="0.70710678"
     inkscape:cx="65.76093"
     inkscape:cy="-164.04877"
     inkscape:window-width="1280"
     inkscape:window-height="971"
     inkscape:window-x="-8"
     inkscape:window-y="-8"
     inkscape:window-maximized="1"
     inkscape:current-layer="layer1"><inkscape:grid
       type="xygrid"
       id="grid1049"
       units="mm"
       spacingx="0.24999999"
       spacingy="3.9999999"
       originx="-11.715731"
       originy="4.9999999e-07"
       empspacing="10" /></sodipodi:namedview><defs
     id="defs2"><linearGradient
       inkscape:collect="always"
       id="linearGradient16650"><stop
         style="stop-color:white;stop-opacity:1;"
         offset="0"
         id="stop16646" /><stop
         style="stop-color:white;stop-opacity:0;"
         offset="1"
         id="stop16648" /></linearGradient><linearGradient
       inkscape:collect="always"
       id="linearGradient16644"><stop
         style="stop-color:white;stop-opacity:1;"
         offset="0"
         id="stop16640" /><stop
         style="stop-color:white;stop-opacity:0;"
         offset="1"
         id="stop16642" /></linearGradient><linearGradient
       inkscape:collect="always"
       id="linearGradient16638"><stop
         style="stop-color:white;stop-opacity:1;"
         offset="0"
         id="stop16634" /><stop
         style="stop-color:white;stop-opacity:0;"
         offset="1"
         id="stop16636" /></linearGradient><linearGradient
       inkscape:collect="always"
       id="linearGradient16632"><stop
         style="stop-color:white;stop-opacity:1;"
         offset="0"
         id="stop16628" /><stop
         style="stop-color:white;stop-opacity:0;"
         offset="1"
         id="stop16630" /></linearGradient><linearGradient
       inkscape:collect="always"
       id="linearGradient16626"><stop
         style="stop-color:white;stop-opacity:1;"
         offset="0"
         id="stop16622" /><stop
         style="stop-color:white;stop-opacity:0;"
         offset="1"
         id="stop16624" /></linearGradient><linearGradient
       inkscape:collect="always"
       id="linearGradient16620"><stop
         style="stop-color:white;stop-opacity:1;"
         offset="0"
         id="stop16616" /><stop
         style="stop-color:white;stop-opacity:0;"
         offset="1"
         id="stop16618" /></linearGradient><linearGradient
       inkscape:collect="always"
       id="linearGradient16614"><stop
         style="stop-color:white;stop-opacity:1;"
         offset="0"
         id="stop16610" /><stop
         style="stop-color:white;stop-opacity:0;"
         offset="1"
         id="stop16612" /></linearGradient><linearGradient
       inkscape:collect="always"
       id="linearGradient16608"><stop
         style="stop-color:white;stop-opacity:1;"
         offset="0"
         id="stop16604" /><stop
         style="stop-color:white;stop-opacity:0;"
         offset="1"
         id="stop16606" /></linearGradient><linearGradient
       inkscape:collect="always"
       id="linearGradient16596"><stop
         style="stop-color:white;stop-opacity:1;"
         offset="0"
         id="stop16592" /><stop
         style="stop-color:white;stop-opacity:0;"
         offset="1"
         id="stop16594" /></linearGradient><linearGradient
       inkscape:collect="always"
       id="linearGradient16590"><stop
         style="stop-color:white;stop-opacity:1;"
         offset="0"
         id="stop16586" /><stop
         style="stop-color:white;stop-opacity:0;"
         offset="1"
         id="stop16588" /></linearGradient><linearGradient
       inkscape:collect="always"
       id="linearGradient16584"><stop
         style="stop-color:white;stop-opacity:1;"
         offset="0"
         id="stop16580" /><stop
         style="stop-color:white;stop-opacity:0;"
         offset="1"
         id="stop16582" /></linearGradient><linearGradient
       inkscape:collect="always"
       id="linearGradient16578"><stop
         style="stop-color:white;stop-opacity:1;"
         offset="0"
         id="stop16574" /><stop
         style="stop-color:white;stop-opacity:0;"
         offset="1"
         id="stop16576" /></linearGradient><linearGradient
       inkscape:collect="always"
       id="linearGradient7925"><stop
         style="stop-color:gray;stop-opacity:1;"
         offset="0"
         id="stop7921" /><stop
         style="stop-color:gray;stop-opacity:0;"
         offset="1"
         id="stop7923" /></linearGradient><linearGradient
       inkscape:collect="always"
       id="linearGradient7915"><stop
         style="stop-color:gray;stop-opacity:1;"
         offset="0"
         id="stop7911" /><stop
         style="stop-color:gray;stop-opacity:0;"
         offset="1"
         id="stop7913" /></linearGradient><linearGradient
       inkscape:collect="always"
       id="linearGradient7851"><stop
         style="stop-color:red;stop-opacity:1;"
         offset="0"
         id="stop7847" /><stop
         style="stop-color:red;stop-opacity:0;"
         offset="1"
         id="stop7849" /></linearGradient><linearGradient
       id="linearGradient3607"
       inkscape:swatch="solid"><stop
         style="stop-color:black;stop-opacity:1;"
         offset="0"
         id="stop3605" /></linearGradient><filter
       style="color-interpolation-filters:sRGB"
       inkscape:label="Blur"
       id="filter18393"
       x="-0.058536466"
       y="-0.058536466"
       width="1.1170729"
       height="1.1170729"><feGaussianBlur
         stdDeviation="0.5 0.5"
         result="blur"
         id="feGaussianBlur18391" /></filter><filter
       style="color-interpolation-filters:sRGB"
       inkscape:label="Blur"
       id="filter18393-0"
       x="-0.058536466"
       y="-0.058536466"
       width="1.1170729"
       height="1.1170729"><feGaussianBlur
         stdDeviation="0.5 0.5"
         result="blur"
         id="feGaussianBlur18391-0" /></filter><linearGradient
       inkscape:collect="always"
       xlink:href="#linearGradient7851"
       id="linearGradient7853"
       x1="25.411594"
       y1="53.498623"
       x2="27.161615"
       y2="53.498623"
       gradientUnits="userSpaceOnUse" /><linearGradient
       inkscape:collect="always"
       xlink:href="#linearGradient7915"
       id="linearGradient7917"
       x1="53.156445"
       y1="38.44339"
       x2="56.155746"
       y2="38.44339"
       gradientUnits="userSpaceOnUse" /><radialGradient
       inkscape:collect="always"
       xlink:href="#linearGradient7925"
       id="radialGradient7927"
       cx="52.906059"
       cy="34.443378"
       fx="52.906059"
       fy="34.443378"
       r="1.750023"
       gradientTransform="matrix(1.4857859e-4,-1.8570836,1.8566375,1.791579e-4,-11.050656,131.8133)"
       gradientUnits="userSpaceOnUse" /><linearGradient
       inkscape:collect="always"
       xlink:href="#linearGradient7915"
       id="linearGradient7931"
       gradientUnits="userSpaceOnUse"
       x1="53.156445"
       y1="38.44339"
       x2="56.15575"
       y2="38.44339"
       gradientTransform="matrix(0,-1,-1,0,96.474732,96.474732)" /><radialGradient
       inkscape:collect="always"
       xlink:href="#linearGradient7925"
       id="radialGradient7935"
       gradientUnits="userSpaceOnUse"
       gradientTransform="matrix(1.8570841,-7.8029754e-5,4.4127609e-5,1.8569334,-35.346286,-20.386273)"
       cx="52.906059"
       cy="34.443378"
       fx="52.906059"
       fy="34.443378"
       r="1.750023" /><linearGradient
       inkscape:collect="always"
       xlink:href="#linearGradient7915"
       id="linearGradient7939"
       gradientUnits="userSpaceOnUse"
       x1="53.156445"
       y1="38.44339"
       x2="56.155819"
       y2="38.44339"
       gradientTransform="matrix(-1,0,0,1,105.81266,-9.9999999e-7)" /><linearGradient
       inkscape:collect="always"
       xlink:href="#linearGradient7915"
       id="linearGradient7943"
       gradientUnits="userSpaceOnUse"
       gradientTransform="rotate(-90,52.906331,43.5684)"
       x1="53.156445"
       y1="38.44339"
       x2="56.155746"
       y2="38.44339" /><radialGradient
       inkscape:collect="always"
       xlink:href="#linearGradient7925"
       id="radialGradient7947"
       gradientUnits="userSpaceOnUse"
       gradientTransform="matrix(-1.8570826,4.0118273e-5,7.0967577e-5,1.8569334,141.15491,-20.392524)"
       cx="52.906059"
       cy="34.443378"
       fx="52.906059"
       fy="34.443378"
       r="1.750023" /><linearGradient
       inkscape:collect="always"
       xlink:href="#linearGradient7915"
       id="linearGradient7959"
       gradientUnits="userSpaceOnUse"
       gradientTransform="matrix(0,1,1,0,9.337931,-9.337931)"
       x1="53.156445"
       y1="38.44339"
       x2="56.156265"
       y2="38.44339" /><linearGradient
       inkscape:collect="always"
       xlink:href="#linearGradient7915"
       id="linearGradient7961"
       gradientUnits="userSpaceOnUse"
       gradientTransform="rotate(180,52.90633,43.5684)"
       x1="53.156445"
       y1="38.44339"
       x2="56.155331"
       y2="38.44339" /><linearGradient
       inkscape:collect="always"
       xlink:href="#linearGradient7915"
       id="linearGradient7963"
       gradientUnits="userSpaceOnUse"
       gradientTransform="rotate(90,52.906332,43.568399)"
       x1="53.156445"
       y1="38.44339"
       x2="56.155262"
       y2="38.44339" /><radialGradient
       inkscape:collect="always"
       xlink:href="#linearGradient7925"
       id="radialGradient7965"
       gradientUnits="userSpaceOnUse"
       gradientTransform="matrix(-8.0568996e-5,1.857084,1.8543432,4.9683547e-5,-10.959509,-44.684409)"
       cx="52.906059"
       cy="34.443378"
       fx="52.906059"
       fy="34.443378"
       r="1.750023" /><linearGradient
       inkscape:collect="always"
       xlink:href="#linearGradient7915"
       id="linearGradient7967"
       gradientUnits="userSpaceOnUse"
       x1="53.156445"
       y1="38.44339"
       x2="56.155849"
       y2="38.44339"
       gradientTransform="matrix(1,0,0,-1,0,87.1368)" /><linearGradient
       inkscape:collect="always"
       xlink:href="#linearGradient16632"
       id="linearGradient9919"
       gradientUnits="userSpaceOnUse"
       x1="53.156445"
       y1="38.44339"
       x2="56.155746"
       y2="38.44339" /><radialGradient
       inkscape:collect="always"
       xlink:href="#linearGradient16638"
       id="radialGradient9921"
       gradientUnits="userSpaceOnUse"
       gradientTransform="matrix(1.4857859e-4,-1.8570836,1.8566375,1.791579e-4,-11.050656,131.8133)"
       cx="52.906059"
       cy="34.443378"
       fx="52.906059"
       fy="34.443378"
       r="1.750023" /><linearGradient
       inkscape:collect="always"
       xlink:href="#linearGradient16596"
       id="linearGradient9923"
       gradientUnits="userSpaceOnUse"
       gradientTransform="matrix(0,-1,-1,0,96.474732,96.474732)"
       x1="53.156445"
       y1="38.44339"
       x2="56.15575"
       y2="38.44339" /><radialGradient
       inkscape:collect="always"
       xlink:href="#linearGradient16590"
       id="radialGradient9925"
       gradientUnits="userSpaceOnUse"
       gradientTransform="matrix(1.8570841,-7.8029754e-5,4.4127609e-5,1.8569334,-35.346286,-20.386273)"
       cx="52.906059"
       cy="34.443378"
       fx="52.906059"
       fy="34.443378"
       r="1.750023" /><linearGradient
       inkscape:collect="always"
       xlink:href="#linearGradient16626"
       id="linearGradient9927"
       gradientUnits="userSpaceOnUse"
       gradientTransform="matrix(-1,0,0,1,105.81266,-9.9999999e-7)"
       x1="53.156445"
       y1="38.44339"
       x2="56.155819"
       y2="38.44339" /><linearGradient
       inkscape:collect="always"
       xlink:href="#linearGradient16620"
       id="linearGradient9929"
       gradientUnits="userSpaceOnUse"
       gradientTransform="rotate(-90,52.906331,43.5684)"
       x1="53.156445"
       y1="38.44339"
       x2="56.155746"
       y2="38.44339" /><radialGradient
       inkscape:collect="always"
       xlink:href="#linearGradient16644"
       id="radialGradient9931"
       gradientUnits="userSpaceOnUse"
       gradientTransform="matrix(-1.8570826,4.0118273e-5,7.0967577e-5,1.8569334,141.15491,-20.392524)"
       cx="52.906059"
       cy="34.443378"
       fx="52.906059"
       fy="34.443378"
       r="1.750023" /><linearGradient
       inkscape:collect="always"
       xlink:href="#linearGradient16578"
       id="linearGradient9933"
       gradientUnits="userSpaceOnUse"
       gradientTransform="matrix(1,0,0,-1,0,87.1368)"
       x1="53.156445"
       y1="38.44339"
       x2="56.155849"
       y2="38.44339" /><radialGradient
       inkscape:collect="always"
       xlink:href="#linearGradient16650"
       id="radialGradient9935"
       gradientUnits="userSpaceOnUse"
       gradientTransform="matrix(-8.0568996e-5,1.857084,1.8543432,4.9683547e-5,-10.959509,-44.684409)"
       cx="52.906059"
       cy="34.443378"
       fx="52.906059"
       fy="34.443378"
       r="1.750023" /><linearGradient
       inkscape:collect="always"
       xlink:href="#linearGradient16584"
       id="linearGradient9937"
       gradientUnits="userSpaceOnUse"
       gradientTransform="rotate(90,52.906332,43.568399)"
       x1="53.156445"
       y1="38.44339"
       x2="56.155262"
       y2="38.44339" /><linearGradient
       inkscape:collect="always"
       xlink:href="#linearGradient16608"
       id="linearGradient9939"
       gradientUnits="userSpaceOnUse"
       gradientTransform="rotate(180,52.90633,43.5684)"
       x1="53.156445"
       y1="38.44339"
       x2="56.155331"
       y2="38.44339" /><linearGradient
       inkscape:collect="always"
       xlink:href="#linearGradient16614"
       id="linearGradient9941"
       gradientUnits="userSpaceOnUse"
       gradientTransform="matrix(0,1,1,0,9.337931,-9.337931)"
       x1="53.156445"
       y1="38.44339"
       x2="56.156265"
       y2="38.44339" /></defs><g
     inkscape:label="Layer 1"
     inkscape:groupmode="layer"
     id="layer1"
     transform="translate(-11.715732)"><path
       style="fill:none;stroke:fuchsia;stroke-width:0.1;stroke-linecap:round;stroke-linejoin:round;stroke-dasharray:none"
       id="path2240"
       sodipodi:type="arc"
       sodipodi:cx="-40"
       sodipodi:cy="0"
       sodipodi:rx="39.999996"
       sodipodi:ry="39.999996"
       sodipodi:start="2.9087024"
       sodipodi:end="6.0782715"
       sodipodi:arc-type="arc"
       d="m -78.920133,9.2316275 a 39.999996,39.999996 0 0 1 11.737711,-38.5763995 39.999996,39.999996 0 0 1 39.360364,-8.756375 39.999996,39.999996 0 0 1 26.98519534,29.9618369"
       sodipodi:open="true"
       transform="scale(-1,1)" /><path
       style="fill:red;stroke:red;stroke-width:0.5;stroke-linecap:round;stroke-linejoin:round;stroke-dasharray:none"
       d="M -52.499996,16.571878 H -72.499997"
       id="path6208"
       sodipodi:nodetypes="cc" /><path
       style="fill:red;stroke:red;stroke-width:0.5;stroke-linecap:round;stroke-linejoin:round;stroke-dasharray:none"
       d="M -62.499997,6.5718787 V 26.571878"
       id="path6210"
       sodipodi:nodetypes="cc" /><path
       style="fill:none;stroke:fuchsia;stroke-width:0.1;stroke-linecap:round;stroke-linejoin:round;stroke-dasharray:none"
       id="path6212"
       sodipodi:type="arc"
       sodipodi:cx="45.92812"
       sodipodi:cy="2.1619743e-13"
       sodipodi:rx="39.999996"
       sodipodi:ry="39.999996"
       sodipodi:start="2.9087024"
       sodipodi:end="6.0782715"
       sodipodi:arc-type="arc"
       d="M 7.0079867,9.2316275 A 39.999996,39.999996 0 0 1 18.745697,-29.344772 39.999996,39.999996 0 0 1 58.106062,-38.101147 39.999996,39.999996 0 0 1 85.091257,-8.1393101"
       sodipodi:open="true"
       transform="scale(-1,1)" /><circle
       style="fill:none;stroke:red;stroke-width:0.5;stroke-linecap:round;stroke-linejoin:round;stroke-dasharray:none"
       id="circle6214"
       cx="-62.499996"
       cy="16.571878"
       r="16.071877" /><path
       style="fill:red;fill-opacity:1;stroke:black;stroke-width:1.5;stroke-linecap:round;stroke-linejoin:round;stroke-dasharray:none"
       d="M 55.163659,16.571878 71.735537,-3.2464061e-7"
       id="path4542" /><path
       style="fill:red;stroke:red;stroke-width:0.5;stroke-linecap:round;stroke-linejoin:round;stroke-dasharray:none"
       d="M 65.16366,16.571878 H 45.163659"
       id="path4544"
       sodipodi:nodetypes="cc" /><path
       style="fill:red;stroke:red;stroke-width:0.5;stroke-linecap:round;stroke-linejoin:round;stroke-dasharray:none"
       d="M 55.163659,6.5718787 V 26.571878"
       id="path4546"
       sodipodi:nodetypes="cc" /><g
       id="path6012"><path
         style="color:black;solid-color:black;fill:red;stroke-width:1.5;stroke-linecap:round;stroke-linejoin:round;-inkscape-stroke:none"
         d="M 62.906329,46.268012 H 42.906328"
         id="path12099" /></g><g
       id="path12083"><path
         style="color:black;solid-color:black;fill:red;stroke-width:1.5;stroke-linecap:round;stroke-linejoin:round;-inkscape-stroke:none"
         d="M 52.906329,56.268013 V 36.268011"
         id="path12105" /></g><g
       id="path17247" /><g
       id="path3310-6"><path
         style="color:black;solid-color:black;fill:red;stroke-width:3.5;stroke-linecap:round;stroke-linejoin:round;-inkscape-stroke:none"
         d="M 48.264461,32.203857 V 52.203856"
         id="path6531" /></g><g
       id="path3310-9" /><g
       id="path7523"
       style="fill:none;stroke:black;stroke-width:0.01;stroke-dasharray:none"><path
         id="path7537"
         style="color:black;solid-color:black;fill:none;stroke:black;stroke-width:0.01;stroke-linecap:round;stroke-linejoin:round;stroke-dasharray:none"
         d="m 52.906331,31.818213 a 1.75,1.75 0 0 0 -1.75028,1.750281 v 8.249625 h -8.249626 a 1.75,1.75 0 0 0 -1.750281,1.750281 1.75,1.75 0 0 0 1.750281,1.749764 h 8.249626 v 8.250142 a 1.75,1.75 0 0 0 1.75028,1.750281 1.75,1.75 0 0 0 1.749764,-1.750281 v -8.250142 h 8.250143 A 1.75,1.75 0 0 0 64.656002,43.5684 1.75,1.75 0 0 0 62.906238,41.818119 h -8.250143 v -8.249625 a 1.75,1.75 0 0 0 -1.749764,-1.750281 z" /></g><g
       id="path7525" /><g
       id="path11048-5"
       style="fill:none;stroke:black;stroke-width:0.01;stroke-dasharray:none"><path
         id="path7584"
         style="color:black;solid-color:black;fill:none;stroke:black;stroke-width:0.01;stroke-linecap:round;stroke-linejoin:round;stroke-dasharray:none"
         d="m 52.906331,33.31838 a 0.25,0.25 0 0 0 -0.250114,0.250114 v 9.749792 h -9.749792 a 0.25,0.25 0 0 0 -0.250114,0.250114 0.25,0.25 0 0 0 0.250114,0.250114 h 9.749792 v 9.749792 a 0.25,0.25 0 0 0 0.250114,0.250114 0.25,0.25 0 0 0 0.250114,-0.250114 v -9.749792 h 9.749793 A 0.25,0.25 0 0 0 63.156352,43.5684 0.25,0.25 0 0 0 62.906238,43.318286 H 53.156445 V 33.568494 A 0.25,0.25 0 0 0 52.906331,33.31838 Z" /></g><g
       id="path3310-7" /><path
       style="fill:red;stroke:red;stroke-width:3.5;stroke-linecap:round;stroke-linejoin:round;stroke-dasharray:none"
       d="M 35.411594,59.877662 H 15.411593"
       id="path7703"
       sodipodi:nodetypes="cc" /><g
       id="g7804"
       style="fill:none;stroke:black;stroke-width:0.01;stroke-dasharray:none"
       transform="translate(-27.49448,16.309262)"><path
         id="path7802"
         style="color:black;solid-color:black;fill:none;stroke:black;stroke-width:0.01;stroke-linecap:round;stroke-linejoin:round;stroke-dasharray:none"
         d="m 52.906331,31.818213 a 1.75,1.75 0 0 0 -1.75028,1.750281 v 8.249625 h -8.249626 a 1.75,1.75 0 0 0 -1.750281,1.750281 1.75,1.75 0 0 0 1.750281,1.749764 h 8.249626 v 8.250142 a 1.75,1.75 0 0 0 1.75028,1.750281 1.75,1.75 0 0 0 1.749764,-1.750281 v -8.250142 h 8.250143 A 1.75,1.75 0 0 0 64.656002,43.5684 1.75,1.75 0 0 0 62.906238,41.818119 h -8.250143 v -8.249625 a 1.75,1.75 0 0 0 -1.749764,-1.750281 z" /></g><path
       style="fill:red;fill-opacity:1;stroke:url(#linearGradient7853);stroke-width:3.5;stroke-linecap:round;stroke-linejoin:round;stroke-dasharray:none"
       d="m 25.411594,69.877662 v -20"
       id="path7845"
       sodipodi:nodetypes="cc" /><g
       id="g7981"><path
         style="opacity:1;fill:url(#linearGradient7917);fill-opacity:1;stroke:none;stroke-width:3.49999;stroke-linecap:round;stroke-linejoin:round;stroke-dasharray:none"
         d="m 53.156445,33.568494 2.999303,-5.6e-5 -4.45e-4,6.750545 -2.998858,2.999304 z"
         id="path7909"
         sodipodi:nodetypes="ccccc" /><path
         style="opacity:1;fill:url(#radialGradient7927);fill-opacity:1;stroke:none;stroke-width:3.49999;stroke-linecap:round;stroke-linejoin:round;stroke-dasharray:none"
         d="m 52.656215,33.568494 -2.999301,-1e-6 c 0,0 0,-3.249933 3.25021,-3.249933 3.248624,0 3.248624,3.249878 3.248624,3.249878 l -2.999303,5.6e-5 c 0,0 0,-0.250113 -0.250114,-0.250113 -0.250116,-1e-6 -0.250116,0.250113 -0.250116,0.250113 z"
         id="path7919"
         sodipodi:nodetypes="ccsccsc" /><path
         style="opacity:1;fill:url(#linearGradient7931);fill-opacity:1;stroke:none;stroke-width:3.49999;stroke-linecap:round;stroke-linejoin:round;stroke-dasharray:none"
         d="m 62.906238,43.318287 -7.93e-4,-2.999303 -6.750142,-10e-7 -2.998858,2.999304 z"
         id="path7929"
         sodipodi:nodetypes="ccccc" /><path
         style="opacity:1;fill:url(#radialGradient7935);fill-opacity:1;stroke:none;stroke-width:3.49999;stroke-linecap:round;stroke-linejoin:round;stroke-dasharray:none"
         d="m 62.906238,43.318803 -7.93e-4,-2.999819 c 0,0 3.250969,-10e-7 3.250728,3.249142 -2.41e-4,3.249204 -3.25073,3.245604 -3.25073,3.245604 l 7.95e-4,-2.994697 c 0,0 0.250113,0 0.250113,-0.250114 10e-7,-0.250116 -0.250113,-0.250116 -0.250113,-0.250116 z"
         id="path7933"
         sodipodi:nodetypes="ccsccsc" /><path
         style="opacity:1;fill:url(#linearGradient7939);fill-opacity:1;stroke:none;stroke-width:3.49999;stroke-linecap:round;stroke-linejoin:round;stroke-dasharray:none"
         d="m 52.656217,33.568493 h -2.999303 l -7.3e-5,6.75049 2.999376,2.999303 z"
         id="path7937"
         sodipodi:nodetypes="ccccc" /><path
         style="opacity:1;fill:url(#linearGradient7943);fill-opacity:1;stroke:none;stroke-width:3.49999;stroke-linecap:round;stroke-linejoin:round;stroke-dasharray:none"
         d="m 42.906424,43.318286 v -2.999303 h 6.750417 l 2.999376,2.999303 z"
         id="path7941"
         sodipodi:nodetypes="ccccc" /><path
         style="opacity:1;fill:url(#radialGradient7947);fill-opacity:1;stroke:none;stroke-width:3.49999;stroke-linecap:round;stroke-linejoin:round;stroke-dasharray:none"
         d="m 42.906424,43.318802 v -2.999819 c 0,0 -3.249933,0 -3.249933,3.249746 0,3.249606 3.249933,3.249606 3.249933,3.249606 v -2.999303 c 0,0 -0.250113,0 -0.250113,-0.250114 -1e-6,-0.250116 0.250113,-0.250116 0.250113,-0.250116 z"
         id="path7945"
         sodipodi:nodetypes="ccsccsc" /><path
         style="opacity:1;fill:url(#linearGradient7967);fill-opacity:1;stroke:none;stroke-width:3.49999;stroke-linecap:round;stroke-linejoin:round;stroke-dasharray:none"
         d="m 53.156445,53.568306 2.995806,-2e-6 0.0036,-6.750974 -2.999376,-2.998817 z"
         id="path7949"
         sodipodi:nodetypes="ccccc" /><path
         style="opacity:1;fill:url(#radialGradient7965);fill-opacity:1;stroke:none;stroke-width:3.49999;stroke-linecap:round;stroke-linejoin:round;stroke-dasharray:none"
         d="m 52.656215,53.568306 -2.995286,5.3e-5 c 0,0 -0.004,3.249882 3.244607,3.249882 3.250315,0 3.246715,-3.249937 3.246715,-3.249937 l -2.995806,2e-6 c 0,0 0,0.250113 -0.250114,0.250113 -0.250116,1e-6 -0.250116,-0.250113 -0.250116,-0.250113 z"
         id="path7951"
         sodipodi:nodetypes="ccsccsc" /><path
         style="opacity:1;fill:url(#linearGradient7963);fill-opacity:1;stroke:none;stroke-width:3.49999;stroke-linecap:round;stroke-linejoin:round;stroke-dasharray:none"
         d="m 62.906238,43.818513 -7.95e-4,2.995217 -6.749622,0.0036 -2.999376,-2.998786 z"
         id="path7953"
         sodipodi:nodetypes="ccccc" /><path
         style="opacity:1;fill:url(#linearGradient7961);fill-opacity:1;stroke:none;stroke-width:3.49999;stroke-linecap:round;stroke-linejoin:round;stroke-dasharray:none"
         d="m 52.656217,53.568307 -2.995288,5.2e-5 -0.0036,-6.75106 2.998858,-2.998785 z"
         id="path7955"
         sodipodi:nodetypes="ccccc" /><path
         style="opacity:1;fill:url(#linearGradient7959);fill-opacity:1;stroke:none;stroke-width:3.49999;stroke-linecap:round;stroke-linejoin:round;stroke-dasharray:none"
         d="m 42.906424,43.818514 v 2.999821 l 6.750905,-10e-4 2.998888,-2.998785 z"
         id="path7957"
         sodipodi:nodetypes="ccccc" /></g><path
       style="opacity:1;fill:none;fill-opacity:1;stroke:black;stroke-width:0.01;stroke-linecap:round;stroke-linejoin:round;stroke-dasharray:none"
       d="m 54.656095,33.567645 1.499653,7.93e-4"
       id="path9785" /><path
       style="opacity:1;fill:none;fill-opacity:1;stroke:black;stroke-width:0.01;stroke-linecap:round;stroke-linejoin:round;stroke-dasharray:none"
       d="m 54.656095,53.567513 1.499653,7.93e-4"
       id="path9787" /><path
       style="opacity:1;fill:none;fill-opacity:1;stroke:black;stroke-width:0.01;stroke-linecap:round;stroke-linejoin:round;stroke-dasharray:none"
       d="m 51.156567,33.5677 -1.499653,7.93e-4"
       id="path9789" /><path
       style="opacity:1;fill:none;fill-opacity:1;stroke:black;stroke-width:0.01;stroke-linecap:round;stroke-linejoin:round;stroke-dasharray:none"
       d="m 51.156567,53.567568 -1.499653,7.93e-4"
       id="path9791" /><path
       style="opacity:1;fill:none;fill-opacity:1;stroke:black;stroke-width:0.01;stroke-linecap:round;stroke-linejoin:round;stroke-dasharray:none"
       d="m 42.907217,41.818636 -7.93e-4,-1.499653"
       id="path9793" /><path
       style="opacity:1;fill:none;fill-opacity:1;stroke:black;stroke-width:0.01;stroke-linecap:round;stroke-linejoin:round;stroke-dasharray:none"
       d="m 42.906424,46.818335 -7.93e-4,-1.499653"
       id="path9795" /><path
       style="opacity:1;fill:none;fill-opacity:1;stroke:black;stroke-width:0.01;stroke-linecap:round;stroke-linejoin:round;stroke-dasharray:none"
       d="m 62.906238,41.818637 -7.93e-4,-1.499653"
       id="path9797" /><path
       style="opacity:1;fill:none;fill-opacity:1;stroke:black;stroke-width:0.01;stroke-linecap:round;stroke-linejoin:round;stroke-dasharray:none"
       d="m 62.905445,46.818336 -7.93e-4,-1.499653"
       id="path9799" /><path
       style="opacity:1;fill:none;fill-opacity:1;stroke:black;stroke-width:0.01;stroke-linecap:round;stroke-linejoin:round;stroke-dasharray:none"
       d="m 52.907124,30.31856 -7.93e-4,1.499653"
       id="path9801" /><path
       style="opacity:1;fill:none;fill-opacity:1;stroke:black;stroke-width:0.01;stroke-linecap:round;stroke-linejoin:round;stroke-dasharray:none"
       d="m 52.906329,55.318588 -7.93e-4,1.499653"
       id="path9803" /><path
       style="opacity:1;fill:none;fill-opacity:1;stroke:black;stroke-width:0.01;stroke-linecap:round;stroke-linejoin:round;stroke-dasharray:none"
       d="m 64.65652,43.568919 1.499653,-7.93e-4"
       id="path9805" /><path
       style="opacity:1;fill:none;fill-opacity:1;stroke:black;stroke-width:0.01;stroke-linecap:round;stroke-linejoin:round;stroke-dasharray:none"
       d="m 39.656491,43.568729 1.499653,-7.93e-4"
       id="path9807" /><path
       style="opacity:1;fill:none;fill-opacity:1;stroke:black;stroke-width:0.01;stroke-linecap:round;stroke-linejoin:round;stroke-dasharray:none"
       d="m 49.656841,40.318983 1.499208,1.499135"
       id="path9813" /><path
       style="opacity:1;fill:none;fill-opacity:1;stroke:black;stroke-width:0.01;stroke-linecap:round;stroke-linejoin:round;stroke-dasharray:none"
       d="m 56.155303,40.318983 -1.499208,1.499135"
       id="path9815" /><path
       style="opacity:1;fill:none;fill-opacity:1;stroke:black;stroke-width:0.01;stroke-linecap:round;stroke-linejoin:round;stroke-dasharray:none"
       d="m 49.657359,46.817299 1.499208,-1.499135"
       id="path9817" /><path
       style="opacity:1;fill:none;fill-opacity:1;stroke:black;stroke-width:0.01;stroke-linecap:round;stroke-linejoin:round;stroke-dasharray:none"
       d="M 56.155821,46.817299 54.656613,45.318164"
       id="path9819" /><path
       style="opacity:1;fill:none;fill-opacity:1;stroke:black;stroke-width:0.01;stroke-linecap:round;stroke-linejoin:round;stroke-dasharray:none"
       d="m 52.656215,43.818513 0.50023,-0.500226"
       id="path9821" /><g
       id="g9915"
       transform="translate(-2.1632646,-52.534125)"
       style="stroke:fuchsia;stroke-width:0.01;stroke-dasharray:none"><path
         style="opacity:1;fill:url(#linearGradient9919);fill-opacity:1;stroke:fuchsia;stroke-width:0.01;stroke-linecap:round;stroke-linejoin:round;stroke-dasharray:none"
         d="m 53.156445,33.568494 2.999303,-5.6e-5 -4.45e-4,6.750545 -2.998858,2.999304 z"
         id="path9891"
         sodipodi:nodetypes="ccccc" /><path
         style="opacity:1;fill:url(#radialGradient9921);fill-opacity:1;stroke:fuchsia;stroke-width:0.01;stroke-linecap:round;stroke-linejoin:round;stroke-dasharray:none"
         d="m 52.656215,33.568494 -2.999301,-1e-6 c 0,0 0,-3.249933 3.25021,-3.249933 3.248624,0 3.248624,3.249878 3.248624,3.249878 l -2.999303,5.6e-5 c 0,0 0,-0.250113 -0.250114,-0.250113 -0.250116,-1e-6 -0.250116,0.250113 -0.250116,0.250113 z"
         id="path9893"
         sodipodi:nodetypes="ccsccsc" /><path
         style="opacity:1;fill:url(#linearGradient9923);fill-opacity:1;stroke:fuchsia;stroke-width:0.01;stroke-linecap:round;stroke-linejoin:round;stroke-dasharray:none"
         d="m 62.906238,43.318287 -7.93e-4,-2.999303 -6.750142,-10e-7 -2.998858,2.999304 z"
         id="path9895"
         sodipodi:nodetypes="ccccc" /><path
         style="opacity:1;fill:url(#radialGradient9925);fill-opacity:1;stroke:fuchsia;stroke-width:0.01;stroke-linecap:round;stroke-linejoin:round;stroke-dasharray:none"
         d="m 62.906238,43.318803 -7.93e-4,-2.999819 c 0,0 3.250969,-10e-7 3.250728,3.249142 -2.41e-4,3.249204 -3.25073,3.245604 -3.25073,3.245604 l 7.95e-4,-2.994697 c 0,0 0.250113,0 0.250113,-0.250114 10e-7,-0.250116 -0.250113,-0.250116 -0.250113,-0.250116 z"
         id="path9897"
         sodipodi:nodetypes="ccsccsc" /><path
         style="opacity:1;fill:url(#linearGradient9927);fill-opacity:1;stroke:fuchsia;stroke-width:0.01;stroke-linecap:round;stroke-linejoin:round;stroke-dasharray:none"
         d="m 52.656217,33.568493 h -2.999303 l -7.3e-5,6.75049 2.999376,2.999303 z"
         id="path9899"
         sodipodi:nodetypes="ccccc" /><path
         style="opacity:1;fill:url(#linearGradient9929);fill-opacity:1;stroke:fuchsia;stroke-width:0.01;stroke-linecap:round;stroke-linejoin:round;stroke-dasharray:none"
         d="m 42.906424,43.318286 v -2.999303 h 6.750417 l 2.999376,2.999303 z"
         id="path9901"
         sodipodi:nodetypes="ccccc" /><path
         style="opacity:1;fill:url(#radialGradient9931);fill-opacity:1;stroke:fuchsia;stroke-width:0.01;stroke-linecap:round;stroke-linejoin:round;stroke-dasharray:none"
         d="m 42.906424,43.318802 v -2.999819 c 0,0 -3.249933,0 -3.249933,3.249746 0,3.249606 3.249933,3.249606 3.249933,3.249606 v -2.999303 c 0,0 -0.250113,0 -0.250113,-0.250114 -1e-6,-0.250116 0.250113,-0.250116 0.250113,-0.250116 z"
         id="path9903"
         sodipodi:nodetypes="ccsccsc" /><path
         style="opacity:1;fill:url(#linearGradient9933);fill-opacity:1;stroke:fuchsia;stroke-width:0.01;stroke-linecap:round;stroke-linejoin:round;stroke-dasharray:none"
         d="m 53.156445,53.568306 2.995806,-2e-6 0.0036,-6.750974 -2.999376,-2.998817 z"
         id="path9905"
         sodipodi:nodetypes="ccccc" /><path
         style="opacity:1;fill:url(#radialGradient9935);fill-opacity:1;stroke:fuchsia;stroke-width:0.01;stroke-linecap:round;stroke-linejoin:round;stroke-dasharray:none"
         d="m 52.656215,53.568306 -2.995286,5.3e-5 c 0,0 -0.004,3.249882 3.244607,3.249882 3.250315,0 3.246715,-3.249937 3.246715,-3.249937 l -2.995806,2e-6 c 0,0 0,0.250113 -0.250114,0.250113 -0.250116,1e-6 -0.250116,-0.250113 -0.250116,-0.250113 z"
         id="path9907"
         sodipodi:nodetypes="ccsccsc" /><path
         style="opacity:1;fill:url(#linearGradient9937);fill-opacity:1;stroke:fuchsia;stroke-width:0.01;stroke-linecap:round;stroke-linejoin:round;stroke-dasharray:none"
         d="m 62.906238,43.818513 -7.95e-4,2.995217 -6.749622,0.0036 -2.999376,-2.998786 z"
         id="path9909"
         sodipodi:nodetypes="ccccc" /><path
         style="opacity:1;fill:url(#linearGradient9939);fill-opacity:1;stroke:fuchsia;stroke-width:0.01;stroke-linecap:round;stroke-linejoin:round;stroke-dasharray:none"
         d="m 52.656217,53.568307 -2.995288,5.2e-5 -0.0036,-6.75106 2.998858,-2.998785 z"
         id="path9911"
         sodipodi:nodetypes="ccccc" /><path
         style="opacity:1;fill:url(#linearGradient9941);fill-opacity:1;stroke:fuchsia;stroke-width:0.01;stroke-linecap:round;stroke-linejoin:round;stroke-dasharray:none"
         d="m 42.906424,43.818514 v 2.999821 l 6.750905,-10e-4 2.998888,-2.998785 z"
         id="path9913"
         sodipodi:nodetypes="ccccc" /></g><path
       style="fill:red;stroke:red;stroke-width:0.5;stroke-linecap:round;stroke-linejoin:round;stroke-dasharray:none"
       d="M 33.428123,16.571878 H 13.428122"
       id="path11048"
       sodipodi:nodetypes="cc" /><path
       style="fill:red;stroke:red;stroke-width:0.5;stroke-linecap:round;stroke-linejoin:round;stroke-dasharray:none"
       d="M 23.428122,6.5718787 V 26.571878"
       id="path3310"
       sodipodi:nodetypes="cc" /><path
       style="fill:red;stroke:black;stroke-width:0.01;stroke-linecap:round;stroke-linejoin:round;stroke-dasharray:none;stroke-opacity:1"
       d="M -5.9281234,52.203855 0,47.333431 v 8.734983 z"
       id="path2505" /><path
       style="fill:fuchsia;fill-opacity:1;stroke:black;stroke-width:0.01;stroke-linecap:round;stroke-linejoin:round;stroke-dasharray:none;stroke-opacity:1"
       d="m 1.461879,52.203855 5.9281234,-4.870424 v 8.734983 z"
       id="path2669" /></g></svg>
