<?xml version="1.0" encoding="UTF-8" standalone="no"?>
<!-- Created with Inkscape (http://www.inkscape.org/) -->

<svg
   width="10mm"
   height="10mm"
   viewBox="0 0 10 10"
   version="1.1"
   id="svg5"
   xml:space="preserve"
   inkscape:version="1.2.2 (732a01da63, 2022-12-09)"
   sodipodi:docname="despre.svg"
   xmlns:inkscape="http://www.inkscape.org/namespaces/inkscape"
   xmlns:sodipodi="http://sodipodi.sourceforge.net/DTD/sodipodi-0.dtd"
   xmlns="http://www.w3.org/2000/svg"
   xmlns:svg="http://www.w3.org/2000/svg"><sodipodi:namedview
     id="namedview7"
     pagecolor="#ffffff"
     bordercolor="#000000"
     borderopacity="0.25"
     inkscape:showpageshadow="2"
     inkscape:pageopacity="0.0"
     inkscape:pagecheckerboard="0"
     inkscape:deskcolor="#d1d1d1"
     inkscape:document-units="mm"
     showgrid="true"
     inkscape:zoom="11.313709"
     inkscape:cx="15.688932"
     inkscape:cy="20.064155"
     inkscape:window-width="1280"
     inkscape:window-height="971"
     inkscape:window-x="-8"
     inkscape:window-y="-8"
     inkscape:window-maximized="1"
     inkscape:current-layer="g2284"><inkscape:grid
       type="xygrid"
       id="grid1049"
       units="mm"
       spacingx="0.24999999"
       spacingy="0.99999997"
       empspacing="4" /></sodipodi:namedview><defs
     id="defs2">
  </defs><g
     inkscape:label="Layer 1"
     inkscape:groupmode="layer"
     id="g2284">
  <path
   style="fill:yellow;stroke:black;stroke-width:0.5;stroke-linecap:round;stroke-linejoin:round;stroke-dasharray:none"
   d="M 4.9999997,1.9999999 V 8.9999998"
   id="path2652" /><path
   style="fill:yellow;stroke:black;stroke-width:0.5;stroke-linecap:round;stroke-linejoin:round;stroke-dasharray:none"
   d="M 9.4999996,1.9999999 V 8.9999998"
   id="path2654" /><path
   style="fill:yellow;stroke:black;stroke-width:0.5;stroke-linecap:round;stroke-linejoin:round;stroke-dasharray:none"
   d="M 0.49999998,1.9999999 V 8.9999998"
   id="path2705" /><path
   style="fill:none;stroke:black;stroke-width:0.499999;stroke-linecap:round;stroke-linejoin:round;stroke-dasharray:none"
   d="M 0.49999997,1.9999999 C 0.49999997,1.9999999 2.4999999,1 3.4999999,1 4.9999998,1 4.9999997,1.9999999 4.9999997,1.9999999"
   id="path4215"
   sodipodi:nodetypes="csc" /><path
   style="fill:none;stroke:black;stroke-width:0.499999;stroke-linecap:round;stroke-linejoin:round;stroke-dasharray:none"
   d="M 9.4999995,1.9999999 C 9.4999995,1.9999999 7.4999996,1 6.4999996,1 4.9999997,1 4.9999998,1.9999999 4.9999998,1.9999999"
   id="path4217"
   sodipodi:nodetypes="csc" /><path
   style="fill:none;stroke:black;stroke-width:0.499999;stroke-linecap:round;stroke-linejoin:round;stroke-dasharray:none"
   d="m 0.49999997,8.4999998 c 0,0 1.99999993,-0.9999999 2.99999993,-0.9999999 1.4999999,0 1.4999998,0.9999999 1.4999998,0.9999999"
   id="path4219"
   sodipodi:nodetypes="csc" /><path
   style="fill:none;stroke:black;stroke-width:0.499999;stroke-linecap:round;stroke-linejoin:round;stroke-dasharray:none"
   d="m 9.4999995,8.4999998 c 0,0 -1.9999999,-0.9999999 -2.9999999,-0.9999999 -1.4999999,0 -1.4999998,0.9999999 -1.4999998,0.9999999"
   id="path4221"
   sodipodi:nodetypes="csc" /><path
   style="fill:none;stroke:black;stroke-width:0.499999;stroke-linecap:round;stroke-linejoin:round;stroke-dasharray:none"
   d="M 4.7499997,8.9999996 H 5.2499998"
   id="path4285" /><g
   id="g4360"><path
     style="fill:none;stroke:black;stroke-width:0.499999;stroke-linecap:round;stroke-linejoin:round;stroke-dasharray:none"
     d="m 0.49999997,8.9999997 c 0,0 1.99999993,-0.4999997 2.99999993,-0.4999997 0.9999999,0 1.2499999,0.4999997 1.2499999,0.4999997"
     id="path4227"
     sodipodi:nodetypes="csc" /><path
     style="fill:black;stroke:black;stroke-width:1.8897638;stroke-linecap:round;stroke-linejoin:round;stroke-dasharray:none"
     d="m 2.907995,32.732621 c 0.109497,-0.08812 1.5272548,-0.7298 2.7267622,-1.234142 3.0163248,-1.268237 5.4508028,-2.006209 7.1227818,-2.159153 0.879151,-0.08042 2.048555,0.04339 2.843004,0.301009 0.728833,0.236338 1.176078,0.506053 1.6207,0.977376 0.449586,0.476585 0.697881,1.057465 0.69897,1.63522 l 5.24e-4,0.278447 -0.276213,-0.19676 c -1.150079,-0.819254 -2.88908,-1.234433 -4.872408,-1.163267 -1.996881,0.07165 -4.9628676,0.529613 -8.6620578,1.337458 -0.6076699,0.132706 -1.1446291,0.25176 -1.1932427,0.264564 -0.083944,0.02211 -0.084388,0.02006 -0.00882,-0.04075 z"
     id="path4356"
     transform="scale(0.26458333)" /></g><g
   id="g4366"
   transform="matrix(-1,0,0,1,9.9999996,2.9999999e-8)"><path
     style="fill:none;stroke:black;stroke-width:0.499999;stroke-linecap:round;stroke-linejoin:round;stroke-dasharray:none"
     d="m 0.49999997,8.9999997 c 0,0 1.99999993,-0.4999997 2.99999993,-0.4999997 0.9999999,0 1.2499999,0.4999997 1.2499999,0.4999997"
     id="path4362"
     sodipodi:nodetypes="csc" /><path
     style="fill:black;stroke:black;stroke-width:1.88976;stroke-linecap:round;stroke-linejoin:round;stroke-dasharray:none"
     d="m 2.907995,32.732621 c 0.109497,-0.08812 1.5272548,-0.7298 2.7267622,-1.234142 3.0163248,-1.268237 5.4508028,-2.006209 7.1227818,-2.159153 0.879151,-0.08042 2.048555,0.04339 2.843004,0.301009 0.728833,0.236338 1.176078,0.506053 1.6207,0.977376 0.449586,0.476585 0.697881,1.057465 0.69897,1.63522 l 5.24e-4,0.278447 -0.276213,-0.19676 c -1.150079,-0.819254 -2.88908,-1.234433 -4.872408,-1.163267 -1.996881,0.07165 -4.9628676,0.529613 -8.6620578,1.337458 -0.6076699,0.132706 -1.1446291,0.25176 -1.1932427,0.264564 -0.083944,0.02211 -0.084388,0.02006 -0.00882,-0.04075 z"
     id="path4364"
     transform="scale(0.26458333)" /></g></g></svg>
