<?xml version="1.0" encoding="UTF-8" standalone="no"?>
<!-- Created with Inkscape (http://www.inkscape.org/) -->

<svg
   height="201"
   id="svg2"
   inkscape:version="1.2.2 (732a01da63, 2022-12-09)"
   sodipodi:docname="Leaf_clip_art.svg"
   sodipodi:version="0.32"
   version="1.0"
   width="521"
   xmlns:inkscape="http://www.inkscape.org/namespaces/inkscape"
   xmlns:sodipodi="http://sodipodi.sourceforge.net/DTD/sodipodi-0.dtd"
   xmlns="http://www.w3.org/2000/svg"
   xmlns:svg="http://www.w3.org/2000/svg"
   xmlns:rdf="http://www.w3.org/1999/02/22-rdf-syntax-ns#"
   xmlns:cc="http://creativecommons.org/ns#"
   xmlns:dc="http://purl.org/dc/elements/1.1/">
  <metadata
     id="metadata340">
    <rdf:RDF>
      <cc:Work
         rdf:about="">
        <dc:title>leaf</dc:title>
        <dc:description />
        <dc:subject>
          <rdf:Bag>
            <rdf:li>B&amp;W</rdf:li>
            <rdf:li>decorations</rdf:li>
            <rdf:li>nature</rdf:li>
            <rdf:li>leaf</rdf:li>
          </rdf:Bag>
        </dc:subject>
        <dc:publisher>
          <cc:Agent
             rdf:about="http://www.openclipart.org/">
            <dc:title>Open Clip Art Library</dc:title>
          </cc:Agent>
        </dc:publisher>
        <dc:creator>
          <cc:Agent>
            <dc:title>Piotr &amp; Katarzyna Morawscy</dc:title>
          </cc:Agent>
        </dc:creator>
        <dc:rights>
          <cc:Agent>
            <dc:title>Piotr &amp; Katarzyna Morawscy</dc:title>
          </cc:Agent>
        </dc:rights>
        <dc:date />
        <dc:format>image/svg+xml</dc:format>
        <dc:type
           rdf:resource="http://purl.org/dc/dcmitype/StillImage" />
        <cc:license
           rdf:resource="http://web.resource.org/cc/PublicDomain" />
        <dc:language>en</dc:language>
      </cc:Work>
      <cc:License
         rdf:about="http://web.resource.org/cc/PublicDomain">
        <cc:permits
           rdf:resource="http://web.resource.org/cc/Reproduction" />
        <cc:permits
           rdf:resource="http://web.resource.org/cc/Distribution" />
        <cc:permits
           rdf:resource="http://web.resource.org/cc/DerivativeWorks" />
      </cc:License>
    </rdf:RDF>
  </metadata>
  <sodipodi:namedview
     bordercolor="#666666"
     borderopacity="1.0"
     id="base"
     inkscape:current-layer="svg2"
     inkscape:cx="285.01063"
     inkscape:cy="69.141468"
     inkscape:pageopacity="0.0"
     inkscape:pageshadow="2"
     inkscape:window-height="971"
     inkscape:window-width="1280"
     inkscape:window-x="-8"
     inkscape:window-y="-8"
     inkscape:zoom="1.8946662"
     pagecolor="#ffffff"
     inkscape:showpageshadow="2"
     inkscape:pagecheckerboard="0"
     inkscape:deskcolor="#d1d1d1"
     showgrid="false"
     inkscape:window-maximized="1" />
  <defs
     id="defs5" />
  <path
     id="path1308"
     style="fill:black;fill-opacity:1;fill-rule:evenodd;stroke:black;stroke-width:0.999998px;stroke-linecap:butt;stroke-linejoin:miter;stroke-opacity:1"
     d="M 1.2167969 0.98242188 C 1.0407299 1.0054492 0.9671996 1.1029941 1.0058594 1.28125 C 5.3594014 21.355097 9.0642601 35.707229 13.921875 46.751953 C 20.392517 61.464205 21.26584 62.723093 27.230469 76.328125 C 32.480333 88.302818 44.846333 101.59345 58.347656 115.78125 C 87.616647 146.53841 121.51941 163.89393 162.15039 180.3125 C 192.58234 192.60975 220.84863 198.57699 257.03711 199.46875 C 288.1174 200.23462 297.49764 201.3243 333.92188 194.08203 C 340.94006 192.68659 373.53839 180.3896 379.67188 176.67188 C 400.9352 163.78343 417.33951 133.18801 421.43555 112.36328 C 459.08679 118.30758 512.71015 157.79531 516.75195 180.68359 C 515.66436 170.87478 518.31156 154.83678 520.00586 147.72266 C 501.12579 139.95989 459.56096 114.60821 422.16211 101.29688 C 416.6022 86.149586 408.80848 68.686096 394.43555 52.519531 C 378.67084 34.7875 367.27469 28.155185 354.41797 22.439453 C 333.00715 12.920806 326.20474 12.690587 308.53711 8.2285156 C 288.15748 3.0815143 257.67037 2.9257072 236.67383 8.2285156 C 224.25336 11.365382 218.95333 11.710795 211.13086 14.560547 C 229.64037 20.75682 241.03658 25.162654 251.77539 29.728516 C 262.37968 34.237157 271.56478 40.323756 277.72852 50.007812 C 282.02843 56.763591 284.81236 57.999304 285.79688 65.152344 C 282.37008 65.166774 285.1922 64.734154 280.49609 65.226562 C 278.02786 58.551341 278.25605 56.299863 271.44336 47.490234 C 268.99026 44.318093 265.6421 40.284182 256.55078 35.121094 C 242.91585 27.377623 225.71871 21.151787 211.09961 14.572266 C 207.92258 15.731462 204.36756 17.263982 199.68945 19.626953 C 188.82309 25.115689 168.79302 31.643537 155.03906 35.117188 C 145.03511 37.643755 118.66543 39.3318 105.17773 37.572266 C 86.426414 35.126081 53.5594 26.783016 42.455078 22.201172 C 29.469148 16.84295 3.8578016 0.63701134 1.2167969 0.98242188 z M 268.04883 5.7871094 C 285.6022 14.935995 296.19562 21.102644 306.16992 27.351562 C 315.94752 33.477232 324.07818 40.939204 328.66992 51.476562 C 331.87321 58.827616 334.23442 63.039157 334.10156 70.259766 C 332.2987 70.877011 334.65266 69.640164 329.45117 69.330078 C 328.04467 62.347447 328.21945 57.77403 322.85156 47.998047 C 320.91871 44.477939 318.23674 39.965131 310.05469 33.431641 C 297.70087 23.566921 281.52659 14.649886 268.04883 5.7871094 z M 11.099609 18.285156 C 25.897501 30.712437 41.740139 50.524717 54.464844 58.476562 C 74.593194 71.055053 89.541348 80.418286 107.37109 86.773438 C 121.50801 91.812338 142.09769 93.362667 159.25781 92.380859 C 184.87728 90.915053 204.62812 86.388174 216.24414 82.792969 C 236.36212 76.566351 241.32633 74.716867 261.02148 71.396484 C 285.78887 67.220977 281.38694 68.400594 302.36914 69.427734 C 326.5291 70.610443 334.7796 73.208727 357.41797 79.160156 C 374.17008 83.564135 389.85897 88.872928 409.86719 96.644531 C 409.38787 103.48644 408.59856 98.594824 407.86523 104.92773 C 394.24145 100.54071 372.06526 90.899511 350.60156 85.132812 C 314.6964 75.486109 288.74415 75.236186 277.41406 76.347656 C 233.64675 80.641198 202.43933 93.932981 192.61328 95.572266 C 165.58897 100.08075 130.73476 99.640464 116.96289 95 C 84.021641 83.90037 81.533441 80.714333 61.898438 68.521484 C 41.656655 55.951843 28.688943 40.79541 11.099609 18.285156 z M 323.99219 19.695312 C 341.54557 28.844198 352.13898 35.010846 362.11328 41.259766 C 371.89089 47.385434 380.02348 54.845454 384.61523 65.382812 C 387.81851 72.733867 390.39458 76.507907 390.26172 83.728516 C 388.45886 84.345761 390.37921 84.647882 385.17773 83.238281 C 383.77124 76.255649 384.16475 71.680281 378.79688 61.904297 C 376.86402 58.384189 374.18009 53.871381 365.99805 47.337891 C 353.64422 37.473171 337.46996 28.558091 323.99219 19.695312 z M 162.58789 38.125 C 177.64644 42.033119 191.53137 44.77251 201.30469 45.978516 C 210.8173 47.152345 224.09396 52.380723 230.61328 59.351562 C 235.16128 64.214534 237.47292 66.381005 239.36719 72.083984 C 238.12345 73.077545 239.09095 70.490229 234.75781 73.316406 C 231.72161 68.234971 231.90623 64.938194 224.43359 58.705078 C 219.07714 54.237116 209.34546 50.138452 207.43945 49.685547 C 195.32924 46.807951 175.69618 44.434112 162.58789 38.125 z M 123.51758 40.800781 C 133.67629 47.818358 144.74334 51.014036 153.11328 56.257812 C 161.31815 61.398167 168.14096 67.65953 171.99414 76.501953 C 174.68218 82.670585 176.29899 83.558017 176.1875 89.617188 C 174.67463 90.135148 176.47419 88.614039 172.10938 89.830078 C 170.92911 83.970604 171.61775 81.785555 167.11328 73.582031 C 165.49132 70.628132 163.23901 66.841952 156.37305 61.359375 C 146.00634 53.081392 132.43302 50.437003 123.51758 40.800781 z M 280.22266 81.355469 C 280.53945 81.32813 280.93344 81.354854 281.54883 81.460938 C 280.94157 90.707311 271.7088 107.92814 266.66797 114.55273 C 261.18137 121.76315 256.07082 124.92479 249.61914 129.41211 C 227.69775 144.65894 219.70827 146.31102 214.93164 148.2207 C 194.91778 156.22225 189.22611 158.41734 158.05273 169.12891 C 181.84142 159.26562 200.16306 151.07337 221.89648 141.4043 C 226.19415 139.4923 230.29913 136.93464 243.02734 128.70508 C 249.01687 124.83249 259.91239 116.4459 265.34375 108.4082 C 272.95262 97.148091 273.46441 92.030172 275.66602 82.376953 C 279.02769 82.004958 279.27227 81.437485 280.22266 81.355469 z M 344.60352 87.787109 C 344.73057 87.789994 344.93573 87.843485 345.25391 87.96875 C 344.98448 98.329452 342.03922 102.35275 336.97852 112.68359 C 329.72422 127.49235 311.08979 141.90996 296.68164 150.05664 C 281.98364 158.36722 262.96317 170.38225 236.83203 182.74414 C 258.63148 168.98218 286.5938 154.16015 304.93359 140.82031 C 317.08019 131.98523 325.42071 122.21207 328.41602 117.29102 C 336.73453 103.62429 337.66963 98.044444 340.13086 88.125 C 346.5752 90.238745 343.71412 87.766919 344.60352 87.787109 z M 207.71289 97.154297 C 200.94349 106.95824 200.67747 109.92343 191.72852 117.07422 C 175.47206 130.06417 161.27278 133.81572 150.27344 134.53906 C 130.67484 135.82791 114.05151 135.81146 85.169922 129.56055 C 111.27848 133.05708 118.89222 133.83228 147.0957 132.28906 C 158.46688 131.66687 171.34813 126.60071 177.95898 121.65234 C 190.71926 112.10103 195.19623 107.17898 200.48438 98.458984 C 205.07467 98.162393 205.19881 97.166729 207.71289 97.154297 z M 390.22461 104.45312 C 397.68937 106.53282 392.74666 105.1591 395.33398 106.04492 C 395.52466 116.40741 392.76313 118.58117 388.16602 129.13086 C 381.57627 144.25329 369.9071 154.96085 355.875 163.75195 C 341.5606 172.71993 326.35733 181.56746 301.16602 194.69727 C 320.50834 181.97805 343.71993 169.18448 361.44922 155.02734 C 373.19149 145.65097 377.04252 139.1729 379.81641 134.12109 C 387.51999 120.09134 388.2061 114.47408 390.22461 104.45312 z " />
</svg>
