<?xml version="1.0" encoding="UTF-8" standalone="no"?>
<!-- Created with Inkscape (http://www.inkscape.org/) -->

<svg
   width="10mm"
   height="10mm"
   viewBox="0 0 10 10"
   version="1.1"
   id="svg5"
   xml:space="preserve"
   inkscape:version="1.2.2 (732a01da63, 2022-12-09)"
   sodipodi:docname="top.svg"
   xmlns:inkscape="http://www.inkscape.org/namespaces/inkscape"
   xmlns:sodipodi="http://sodipodi.sourceforge.net/DTD/sodipodi-0.dtd"
   xmlns="http://www.w3.org/2000/svg"
   xmlns:svg="http://www.w3.org/2000/svg"><sodipodi:namedview
     id="namedview7"
     pagecolor="#ffffff"
     bordercolor="#000000"
     borderopacity="0.25"
     inkscape:showpageshadow="2"
     inkscape:pageopacity="0.0"
     inkscape:pagecheckerboard="0"
     inkscape:deskcolor="#d1d1d1"
     inkscape:document-units="mm"
     showgrid="false"
     inkscape:zoom="19.208751"
     inkscape:cx="18.923667"
     inkscape:cy="24.103598"
     inkscape:window-width="1280"
     inkscape:window-height="971"
     inkscape:window-x="-8"
     inkscape:window-y="-8"
     inkscape:window-maximized="1"
     inkscape:current-layer="g2284"><inkscape:grid
       type="xygrid"
       id="grid1049"
       units="mm"
       spacingx="0.24999999"
       spacingy="0.99999997" /></sodipodi:namedview><defs
     id="defs2">
  </defs><g
     inkscape:label="Layer 1"
     inkscape:groupmode="layer"
     id="g2284"><text
   xml:space="preserve"
   style="font-size:3.175px;fill:black;stroke:black;stroke-width:0.18;stroke-linecap:round;stroke-linejoin:round"
   x="4.9999995"
   y="2.9999998"
   id="text1014"><tspan
     sodipodi:role="line"
     id="tspan1012"
     style="stroke-width:0.18" /></text><path
   sodipodi:type="star"
   style="fill:black;stroke:none;stroke-width:0.18;stroke-linecap:round;stroke-linejoin:round"
   id="path1025"
   inkscape:flatsided="false"
   sodipodi:sides="5"
   sodipodi:cx="4.9999995"
   sodipodi:cy="2.9999998"
   sodipodi:r1="1.9999999"
   sodipodi:r2="1"
   sodipodi:arg1="-1.5707963"
   sodipodi:arg2="-0.9424778"
   inkscape:rounded="0"
   inkscape:randomized="0"
   d="M 4.9999996,0.99999988 5.5877848,2.1909828 6.9021125,2.3819659 5.951056,3.3090168 6.1755699,4.6180337 4.9999995,3.9999998 3.824429,4.6180336 4.048943,3.3090168 3.0978866,2.3819658 4.4122143,2.1909828 Z"
   inkscape:transform-center-y="-0.15060862"
   transform="matrix(0.78859684,0,0,0.78859684,1.0570157,-4.3657903)" />
  <path
   d="M 3.7937811,0.59973688 A 0.10968587,0.10968587 0 0 1 3.9034679,0.49005022 h 2.1937173 a 0.10968587,0.10968587 0 0 1 0.1096867,0.10968666 c 0,0.1180224 -0.00263,0.2303405 -0.00746,0.3369551 A 0.65811524,0.65811524 0 1 1 5.9508594,2.2287917 C 5.7775557,2.6379198 5.5388792,2.8379869 5.3293791,2.8893198 v 0.4766949 l 0.312605,0.078097 c 0.042558,0.010528 0.082703,0.029616 0.1178011,0.05594 L 6.1629911,3.8025652 A 0.10968587,0.10968587 0 0 1 6.0971796,3.9999999 H 3.903467 A 0.10968587,0.10968587 0 0 1 3.8376555,3.8025645 L 4.2408609,3.5000508 c 0.035098,-0.026324 0.075245,-0.045411 0.1178025,-0.055942 L 4.6712677,3.366014 V 2.8893198 C 4.4617681,2.8379866 4.2230918,2.6379198 4.049788,2.2285722 A 0.65811524,0.65811524 0 1 1 3.8014591,0.93647258 7.2559398,7.2559398 0 0 1 3.7937827,0.59973688 Z M 3.8154981,1.1569413 A 0.43877948,0.43877948 0 0 0 3.973446,2.020169 C 3.9003954,1.7898286 3.8444561,1.505523 3.8154981,1.1569413 Z M 6.0274245,2.020169 A 0.43877948,0.43877948 0 0 0 6.1853721,1.1569413 C 6.1561959,1.5057423 6.1002556,1.7898286 6.0274245,2.020169 Z"
   id="path2"
   style="stroke-width:0.156694" /><path
   style="fill:none;stroke:black;stroke-width:0.499999;stroke-linecap:round;stroke-linejoin:round"
   d="M 0.49999997,9.4999996 V 7.2499999 H 3.4999998 V 4.9999997 h 2.9999998 v 1.2500004 h 2.9999998 l 2e-7,3.2499995"
   id="path1775"
   sodipodi:nodetypes="cccccccc" /></g></svg>
